G04 #@! TF.GenerationSoftware,KiCad,Pcbnew,8.0.1-8.0.1-1~ubuntu22.04.1*
G04 #@! TF.CreationDate,2024-09-21T11:56:37+02:00*
G04 #@! TF.ProjectId,NerdNOS,4e657264-4e4f-4532-9e6b-696361645f70,rev?*
G04 #@! TF.SameCoordinates,Original*
G04 #@! TF.FileFunction,Copper,L2,Bot*
G04 #@! TF.FilePolarity,Positive*
%FSLAX46Y46*%
G04 Gerber Fmt 4.6, Leading zero omitted, Abs format (unit mm)*
G04 Created by KiCad (PCBNEW 8.0.1-8.0.1-1~ubuntu22.04.1) date 2024-09-21 11:56:37*
%MOMM*%
%LPD*%
G01*
G04 APERTURE LIST*
G04 #@! TA.AperFunction,ComponentPad*
%ADD10R,1.700000X1.700000*%
G04 #@! TD*
G04 #@! TA.AperFunction,ComponentPad*
%ADD11O,1.700000X1.700000*%
G04 #@! TD*
G04 #@! TA.AperFunction,ComponentPad*
%ADD12O,2.100000X1.000000*%
G04 #@! TD*
G04 #@! TA.AperFunction,ComponentPad*
%ADD13O,1.800000X1.000000*%
G04 #@! TD*
G04 #@! TA.AperFunction,ComponentPad*
%ADD14C,1.700000*%
G04 #@! TD*
G04 #@! TA.AperFunction,ViaPad*
%ADD15C,0.600000*%
G04 #@! TD*
G04 #@! TA.AperFunction,Conductor*
%ADD16C,0.254000*%
G04 #@! TD*
G04 #@! TA.AperFunction,Conductor*
%ADD17C,0.400000*%
G04 #@! TD*
G04 #@! TA.AperFunction,Conductor*
%ADD18C,0.200000*%
G04 #@! TD*
G04 APERTURE END LIST*
D10*
X130340000Y-73100000D03*
D11*
X127800000Y-73100000D03*
D12*
X135485000Y-70510000D03*
D13*
X139665000Y-70510000D03*
D12*
X135485000Y-61870000D03*
D13*
X139665000Y-61870000D03*
D14*
X89440000Y-77490000D03*
X91980000Y-77890000D03*
X94520000Y-77490000D03*
X97060000Y-77890000D03*
X99600000Y-77490000D03*
X102140000Y-77890000D03*
X104680000Y-77490000D03*
X107220000Y-77890000D03*
X109760000Y-77490000D03*
X112300000Y-77890000D03*
X114840000Y-77490000D03*
X117380000Y-77890000D03*
X117380000Y-54970000D03*
X114840000Y-54570000D03*
X112300000Y-54970000D03*
X109760000Y-54570000D03*
X107220000Y-54970000D03*
X104680000Y-54570000D03*
X102140000Y-54970000D03*
X99600000Y-54570000D03*
X97060000Y-54970000D03*
X94520000Y-54570000D03*
X91980000Y-54970000D03*
X89440000Y-54570000D03*
D15*
X89600000Y-65400000D03*
X98200000Y-73900000D03*
X88200000Y-65400000D03*
X98200000Y-72500000D03*
X124300000Y-67200000D03*
X131300000Y-68300000D03*
X125600000Y-66300000D03*
X99400000Y-65100000D03*
X104050000Y-65700000D03*
X101050000Y-64700000D03*
X88837500Y-73500000D03*
X105050000Y-66700000D03*
X88700000Y-69750001D03*
X127200000Y-67800000D03*
X125000000Y-65800000D03*
X122900000Y-65100000D03*
X104050000Y-64700000D03*
X105050000Y-63700000D03*
X124300000Y-65100000D03*
X101050000Y-68700000D03*
X122900000Y-65800000D03*
X104800000Y-59300000D03*
X102050000Y-66700000D03*
X103050000Y-63700000D03*
X121250000Y-68450000D03*
X103050000Y-68700000D03*
X103050000Y-64700000D03*
X105050000Y-68700000D03*
X123600000Y-65100000D03*
X106600000Y-59300008D03*
X104050000Y-63700000D03*
X104050000Y-66700000D03*
X101050000Y-65700000D03*
X127700000Y-67300000D03*
X93337500Y-74450001D03*
X85703276Y-56567732D03*
X101050000Y-63700000D03*
X122000000Y-68450000D03*
X128500000Y-68300000D03*
X119000000Y-68450000D03*
X102050000Y-64700000D03*
X92150604Y-66912971D03*
X100800000Y-60020000D03*
X125150000Y-70850000D03*
X130600000Y-68300000D03*
X118200000Y-68500000D03*
X103050000Y-66700000D03*
X105050000Y-67700000D03*
X133800000Y-66290000D03*
X125000000Y-65100000D03*
X125000000Y-67200000D03*
X105050000Y-64700000D03*
X100700000Y-72480000D03*
X102050000Y-68700000D03*
X120500000Y-68450000D03*
X116700000Y-68500000D03*
X92295000Y-65515000D03*
X117450000Y-68500000D03*
X101050000Y-67700000D03*
X119750000Y-68450000D03*
X104050000Y-68700000D03*
X103050000Y-67700000D03*
X104050000Y-67700000D03*
X129200000Y-68300000D03*
X84650000Y-60164644D03*
X106600000Y-73100000D03*
X115900000Y-68500000D03*
X102050000Y-67700000D03*
X105050000Y-65700000D03*
X133800000Y-65390000D03*
X129900000Y-68300000D03*
X124300000Y-65800000D03*
X132000000Y-68300000D03*
X102050000Y-63700000D03*
X123600000Y-65800000D03*
X101050000Y-66700000D03*
X102050000Y-65700000D03*
X103050000Y-65700000D03*
X93400000Y-70400002D03*
X86500000Y-68029999D03*
X97500000Y-68100000D03*
X97500000Y-69600000D03*
X123100000Y-69499996D03*
X123100000Y-70854000D03*
X87900000Y-56550000D03*
X87327674Y-54864687D03*
X98966669Y-74400000D03*
X98966669Y-70820000D03*
X86371817Y-55246412D03*
X87300000Y-57432774D03*
X88300000Y-76700000D03*
D16*
X98200000Y-73900000D02*
X98200000Y-72500000D01*
D17*
X88200000Y-65400000D02*
X89600000Y-65400000D01*
X97500000Y-69600000D02*
X97500000Y-68100000D01*
D16*
X123100000Y-70854000D02*
X123100000Y-69499996D01*
D18*
X87900000Y-55437013D02*
X87327674Y-54864687D01*
X87900000Y-56550000D02*
X87900000Y-55437013D01*
X98966669Y-70820000D02*
X98966669Y-74400000D01*
X87300000Y-56174595D02*
X87300000Y-57432774D01*
X86371817Y-55246412D02*
X87300000Y-56174595D01*
D16*
X88700000Y-76300000D02*
X88300000Y-76700000D01*
X104680000Y-77690000D02*
X103290000Y-76300000D01*
X103290000Y-76300000D02*
X88700000Y-76300000D01*
G04 #@! TA.AperFunction,Conductor*
G36*
X93807164Y-53519685D02*
G01*
X93852919Y-53572489D01*
X93862863Y-53641647D01*
X93833838Y-53705203D01*
X93823663Y-53715637D01*
X93703237Y-53825418D01*
X93580327Y-53988178D01*
X93489422Y-54170739D01*
X93489417Y-54170752D01*
X93433602Y-54366917D01*
X93414785Y-54569999D01*
X93414785Y-54570000D01*
X93433602Y-54773082D01*
X93489417Y-54969247D01*
X93489422Y-54969260D01*
X93580327Y-55151821D01*
X93703237Y-55314581D01*
X93853958Y-55451980D01*
X93853960Y-55451982D01*
X93953141Y-55513392D01*
X94027363Y-55559348D01*
X94217544Y-55633024D01*
X94418024Y-55670500D01*
X94418026Y-55670500D01*
X94621974Y-55670500D01*
X94621976Y-55670500D01*
X94822456Y-55633024D01*
X95012637Y-55559348D01*
X95186041Y-55451981D01*
X95336764Y-55314579D01*
X95459673Y-55151821D01*
X95550209Y-54970000D01*
X95954785Y-54970000D01*
X95973602Y-55173082D01*
X96029417Y-55369247D01*
X96029422Y-55369260D01*
X96120327Y-55551821D01*
X96243237Y-55714581D01*
X96393958Y-55851980D01*
X96393960Y-55851982D01*
X96493141Y-55913392D01*
X96567363Y-55959348D01*
X96757544Y-56033024D01*
X96958024Y-56070500D01*
X96958026Y-56070500D01*
X97161974Y-56070500D01*
X97161976Y-56070500D01*
X97362456Y-56033024D01*
X97552637Y-55959348D01*
X97726041Y-55851981D01*
X97876764Y-55714579D01*
X97999673Y-55551821D01*
X98090582Y-55369250D01*
X98146397Y-55173083D01*
X98165215Y-54970000D01*
X98165146Y-54969260D01*
X98146397Y-54766917D01*
X98125830Y-54694632D01*
X98090582Y-54570750D01*
X98090208Y-54569999D01*
X98046272Y-54481764D01*
X97999673Y-54388179D01*
X97876764Y-54225421D01*
X97876762Y-54225418D01*
X97726041Y-54088019D01*
X97726039Y-54088017D01*
X97552642Y-53980655D01*
X97552635Y-53980651D01*
X97397817Y-53920675D01*
X97362456Y-53906976D01*
X97161976Y-53869500D01*
X96958024Y-53869500D01*
X96757544Y-53906976D01*
X96757541Y-53906976D01*
X96757541Y-53906977D01*
X96567364Y-53980651D01*
X96567357Y-53980655D01*
X96393960Y-54088017D01*
X96393958Y-54088019D01*
X96243237Y-54225418D01*
X96120327Y-54388178D01*
X96029422Y-54570739D01*
X96029417Y-54570752D01*
X95973602Y-54766917D01*
X95954785Y-54969999D01*
X95954785Y-54970000D01*
X95550209Y-54970000D01*
X95550582Y-54969250D01*
X95606397Y-54773083D01*
X95625215Y-54570000D01*
X95606397Y-54366917D01*
X95550582Y-54170750D01*
X95459673Y-53988179D01*
X95336764Y-53825421D01*
X95336762Y-53825418D01*
X95216337Y-53715637D01*
X95180055Y-53655926D01*
X95181816Y-53586078D01*
X95221059Y-53528271D01*
X95285326Y-53500856D01*
X95299875Y-53500000D01*
X98820125Y-53500000D01*
X98887164Y-53519685D01*
X98932919Y-53572489D01*
X98942863Y-53641647D01*
X98913838Y-53705203D01*
X98903663Y-53715637D01*
X98783237Y-53825418D01*
X98660327Y-53988178D01*
X98569422Y-54170739D01*
X98569417Y-54170752D01*
X98513602Y-54366917D01*
X98494785Y-54569999D01*
X98494785Y-54570000D01*
X98513602Y-54773082D01*
X98569417Y-54969247D01*
X98569422Y-54969260D01*
X98660327Y-55151821D01*
X98783237Y-55314581D01*
X98933958Y-55451980D01*
X98933960Y-55451982D01*
X99033141Y-55513392D01*
X99107363Y-55559348D01*
X99297544Y-55633024D01*
X99498024Y-55670500D01*
X99498026Y-55670500D01*
X99701974Y-55670500D01*
X99701976Y-55670500D01*
X99902456Y-55633024D01*
X100092637Y-55559348D01*
X100266041Y-55451981D01*
X100416764Y-55314579D01*
X100539673Y-55151821D01*
X100630209Y-54970000D01*
X101034785Y-54970000D01*
X101053602Y-55173082D01*
X101109417Y-55369247D01*
X101109422Y-55369260D01*
X101200327Y-55551821D01*
X101323237Y-55714581D01*
X101473958Y-55851980D01*
X101473960Y-55851982D01*
X101573141Y-55913392D01*
X101647363Y-55959348D01*
X101837544Y-56033024D01*
X102038024Y-56070500D01*
X102038026Y-56070500D01*
X102241974Y-56070500D01*
X102241976Y-56070500D01*
X102442456Y-56033024D01*
X102632637Y-55959348D01*
X102806041Y-55851981D01*
X102956764Y-55714579D01*
X103079673Y-55551821D01*
X103170582Y-55369250D01*
X103226397Y-55173083D01*
X103245215Y-54970000D01*
X103245146Y-54969260D01*
X103226397Y-54766917D01*
X103205830Y-54694632D01*
X103170582Y-54570750D01*
X103170208Y-54569999D01*
X103126272Y-54481764D01*
X103079673Y-54388179D01*
X102956764Y-54225421D01*
X102956762Y-54225418D01*
X102806041Y-54088019D01*
X102806039Y-54088017D01*
X102632642Y-53980655D01*
X102632635Y-53980651D01*
X102477817Y-53920675D01*
X102442456Y-53906976D01*
X102241976Y-53869500D01*
X102038024Y-53869500D01*
X101837544Y-53906976D01*
X101837541Y-53906976D01*
X101837541Y-53906977D01*
X101647364Y-53980651D01*
X101647357Y-53980655D01*
X101473960Y-54088017D01*
X101473958Y-54088019D01*
X101323237Y-54225418D01*
X101200327Y-54388178D01*
X101109422Y-54570739D01*
X101109417Y-54570752D01*
X101053602Y-54766917D01*
X101034785Y-54969999D01*
X101034785Y-54970000D01*
X100630209Y-54970000D01*
X100630582Y-54969250D01*
X100686397Y-54773083D01*
X100705215Y-54570000D01*
X100686397Y-54366917D01*
X100630582Y-54170750D01*
X100539673Y-53988179D01*
X100416764Y-53825421D01*
X100416762Y-53825418D01*
X100296337Y-53715637D01*
X100260055Y-53655926D01*
X100261816Y-53586078D01*
X100301059Y-53528271D01*
X100365326Y-53500856D01*
X100379875Y-53500000D01*
X103900125Y-53500000D01*
X103967164Y-53519685D01*
X104012919Y-53572489D01*
X104022863Y-53641647D01*
X103993838Y-53705203D01*
X103983663Y-53715637D01*
X103863237Y-53825418D01*
X103740327Y-53988178D01*
X103649422Y-54170739D01*
X103649417Y-54170752D01*
X103593602Y-54366917D01*
X103574785Y-54569999D01*
X103574785Y-54570000D01*
X103593602Y-54773082D01*
X103649417Y-54969247D01*
X103649422Y-54969260D01*
X103740327Y-55151821D01*
X103863237Y-55314581D01*
X104013958Y-55451980D01*
X104013960Y-55451982D01*
X104113141Y-55513392D01*
X104187363Y-55559348D01*
X104377544Y-55633024D01*
X104578024Y-55670500D01*
X104578026Y-55670500D01*
X104781974Y-55670500D01*
X104781976Y-55670500D01*
X104982456Y-55633024D01*
X105172637Y-55559348D01*
X105346041Y-55451981D01*
X105496764Y-55314579D01*
X105619673Y-55151821D01*
X105710209Y-54970000D01*
X106114785Y-54970000D01*
X106133602Y-55173082D01*
X106189417Y-55369247D01*
X106189422Y-55369260D01*
X106280327Y-55551821D01*
X106403237Y-55714581D01*
X106553958Y-55851980D01*
X106553960Y-55851982D01*
X106653141Y-55913392D01*
X106727363Y-55959348D01*
X106917544Y-56033024D01*
X107118024Y-56070500D01*
X107118026Y-56070500D01*
X107321974Y-56070500D01*
X107321976Y-56070500D01*
X107522456Y-56033024D01*
X107712637Y-55959348D01*
X107886041Y-55851981D01*
X108036764Y-55714579D01*
X108159673Y-55551821D01*
X108250582Y-55369250D01*
X108306397Y-55173083D01*
X108325215Y-54970000D01*
X108325146Y-54969260D01*
X108306397Y-54766917D01*
X108285830Y-54694632D01*
X108250582Y-54570750D01*
X108250208Y-54569999D01*
X108206272Y-54481764D01*
X108159673Y-54388179D01*
X108036764Y-54225421D01*
X108036762Y-54225418D01*
X107886041Y-54088019D01*
X107886039Y-54088017D01*
X107712642Y-53980655D01*
X107712635Y-53980651D01*
X107557817Y-53920675D01*
X107522456Y-53906976D01*
X107321976Y-53869500D01*
X107118024Y-53869500D01*
X106917544Y-53906976D01*
X106917541Y-53906976D01*
X106917541Y-53906977D01*
X106727364Y-53980651D01*
X106727357Y-53980655D01*
X106553960Y-54088017D01*
X106553958Y-54088019D01*
X106403237Y-54225418D01*
X106280327Y-54388178D01*
X106189422Y-54570739D01*
X106189417Y-54570752D01*
X106133602Y-54766917D01*
X106114785Y-54969999D01*
X106114785Y-54970000D01*
X105710209Y-54970000D01*
X105710582Y-54969250D01*
X105766397Y-54773083D01*
X105785215Y-54570000D01*
X105766397Y-54366917D01*
X105710582Y-54170750D01*
X105619673Y-53988179D01*
X105496764Y-53825421D01*
X105496762Y-53825418D01*
X105376337Y-53715637D01*
X105340055Y-53655926D01*
X105341816Y-53586078D01*
X105381059Y-53528271D01*
X105445326Y-53500856D01*
X105459875Y-53500000D01*
X108980125Y-53500000D01*
X109047164Y-53519685D01*
X109092919Y-53572489D01*
X109102863Y-53641647D01*
X109073838Y-53705203D01*
X109063663Y-53715637D01*
X108943237Y-53825418D01*
X108820327Y-53988178D01*
X108729422Y-54170739D01*
X108729417Y-54170752D01*
X108673602Y-54366917D01*
X108654785Y-54569999D01*
X108654785Y-54570000D01*
X108673602Y-54773082D01*
X108729417Y-54969247D01*
X108729422Y-54969260D01*
X108820327Y-55151821D01*
X108943237Y-55314581D01*
X109093958Y-55451980D01*
X109093960Y-55451982D01*
X109193141Y-55513392D01*
X109267363Y-55559348D01*
X109457544Y-55633024D01*
X109658024Y-55670500D01*
X109658026Y-55670500D01*
X109861974Y-55670500D01*
X109861976Y-55670500D01*
X110062456Y-55633024D01*
X110252637Y-55559348D01*
X110426041Y-55451981D01*
X110576764Y-55314579D01*
X110699673Y-55151821D01*
X110790209Y-54970000D01*
X116274785Y-54970000D01*
X116293602Y-55173082D01*
X116349417Y-55369247D01*
X116349422Y-55369260D01*
X116440327Y-55551821D01*
X116563237Y-55714581D01*
X116713958Y-55851980D01*
X116713960Y-55851982D01*
X116813141Y-55913392D01*
X116887363Y-55959348D01*
X117077544Y-56033024D01*
X117278024Y-56070500D01*
X117278026Y-56070500D01*
X117481974Y-56070500D01*
X117481976Y-56070500D01*
X117682456Y-56033024D01*
X117872637Y-55959348D01*
X118046041Y-55851981D01*
X118196764Y-55714579D01*
X118319673Y-55551821D01*
X118410582Y-55369250D01*
X118466397Y-55173083D01*
X118485215Y-54970000D01*
X118485146Y-54969260D01*
X118466397Y-54766917D01*
X118445830Y-54694632D01*
X118410582Y-54570750D01*
X118410208Y-54569999D01*
X118366272Y-54481764D01*
X118319673Y-54388179D01*
X118196764Y-54225421D01*
X118196762Y-54225418D01*
X118046041Y-54088019D01*
X118046039Y-54088017D01*
X117872642Y-53980655D01*
X117872635Y-53980651D01*
X117717817Y-53920675D01*
X117682456Y-53906976D01*
X117481976Y-53869500D01*
X117278024Y-53869500D01*
X117077544Y-53906976D01*
X117077541Y-53906976D01*
X117077541Y-53906977D01*
X116887364Y-53980651D01*
X116887357Y-53980655D01*
X116713960Y-54088017D01*
X116713958Y-54088019D01*
X116563237Y-54225418D01*
X116440327Y-54388178D01*
X116349422Y-54570739D01*
X116349417Y-54570752D01*
X116293602Y-54766917D01*
X116274785Y-54969999D01*
X116274785Y-54970000D01*
X110790209Y-54970000D01*
X110790582Y-54969250D01*
X110846397Y-54773083D01*
X110865215Y-54570000D01*
X110846397Y-54366917D01*
X110790582Y-54170750D01*
X110699673Y-53988179D01*
X110576764Y-53825421D01*
X110576762Y-53825418D01*
X110456337Y-53715637D01*
X110420055Y-53655926D01*
X110421816Y-53586078D01*
X110461059Y-53528271D01*
X110525326Y-53500856D01*
X110539875Y-53500000D01*
X140397978Y-53500000D01*
X140402021Y-53500066D01*
X140406710Y-53500218D01*
X140451282Y-53501673D01*
X140479325Y-53505831D01*
X140576403Y-53531843D01*
X140606301Y-53544227D01*
X140691558Y-53593450D01*
X140717237Y-53613155D01*
X140786844Y-53682762D01*
X140806550Y-53708443D01*
X140855770Y-53793694D01*
X140868158Y-53823601D01*
X140894167Y-53920670D01*
X140898326Y-53948717D01*
X140899934Y-53997975D01*
X140900000Y-54002021D01*
X140900000Y-78497978D01*
X140899934Y-78502024D01*
X140898326Y-78551282D01*
X140894167Y-78579329D01*
X140868158Y-78676398D01*
X140855770Y-78706305D01*
X140806550Y-78791556D01*
X140786844Y-78817237D01*
X140717237Y-78886844D01*
X140691556Y-78906550D01*
X140606305Y-78955770D01*
X140576398Y-78968158D01*
X140479329Y-78994167D01*
X140451282Y-78998326D01*
X140406973Y-78999772D01*
X140402020Y-78999934D01*
X140397978Y-79000000D01*
X118113593Y-79000000D01*
X118046554Y-78980315D01*
X118000799Y-78927511D01*
X117990855Y-78858353D01*
X118019880Y-78794797D01*
X118041911Y-78776028D01*
X118041465Y-78775437D01*
X118046033Y-78771985D01*
X118046041Y-78771981D01*
X118196764Y-78634579D01*
X118319673Y-78471821D01*
X118410582Y-78289250D01*
X118466397Y-78093083D01*
X118485215Y-77890000D01*
X118485146Y-77889260D01*
X118466397Y-77686917D01*
X118410582Y-77490750D01*
X118410208Y-77489999D01*
X118332341Y-77333620D01*
X118319673Y-77308179D01*
X118223154Y-77180367D01*
X118196762Y-77145418D01*
X118046041Y-77008019D01*
X118046039Y-77008017D01*
X117872642Y-76900655D01*
X117872635Y-76900651D01*
X117725649Y-76843709D01*
X117682456Y-76826976D01*
X117481976Y-76789500D01*
X117278024Y-76789500D01*
X117077544Y-76826976D01*
X117077541Y-76826976D01*
X117077541Y-76826977D01*
X116887364Y-76900651D01*
X116887357Y-76900655D01*
X116713960Y-77008017D01*
X116713958Y-77008019D01*
X116563237Y-77145418D01*
X116440327Y-77308178D01*
X116349422Y-77490739D01*
X116349417Y-77490752D01*
X116293602Y-77686917D01*
X116274785Y-77889999D01*
X116274785Y-77890000D01*
X116293602Y-78093082D01*
X116349417Y-78289247D01*
X116349422Y-78289260D01*
X116440327Y-78471821D01*
X116563237Y-78634581D01*
X116713958Y-78771980D01*
X116718535Y-78775437D01*
X116717396Y-78776944D01*
X116758322Y-78822606D01*
X116769423Y-78891588D01*
X116741468Y-78955621D01*
X116683331Y-78994375D01*
X116646407Y-79000000D01*
X113033593Y-79000000D01*
X112966554Y-78980315D01*
X112920799Y-78927511D01*
X112910855Y-78858353D01*
X112939880Y-78794797D01*
X112961911Y-78776028D01*
X112961465Y-78775437D01*
X112966033Y-78771985D01*
X112966041Y-78771981D01*
X113116764Y-78634579D01*
X113239673Y-78471821D01*
X113330582Y-78289250D01*
X113386397Y-78093083D01*
X113405215Y-77890000D01*
X113405146Y-77889260D01*
X113386397Y-77686917D01*
X113330582Y-77490750D01*
X113330208Y-77489999D01*
X113252341Y-77333620D01*
X113239673Y-77308179D01*
X113143154Y-77180367D01*
X113116762Y-77145418D01*
X112966041Y-77008019D01*
X112966039Y-77008017D01*
X112792642Y-76900655D01*
X112792635Y-76900651D01*
X112645649Y-76843709D01*
X112602456Y-76826976D01*
X112401976Y-76789500D01*
X112198024Y-76789500D01*
X111997544Y-76826976D01*
X111997541Y-76826976D01*
X111997541Y-76826977D01*
X111807364Y-76900651D01*
X111807357Y-76900655D01*
X111633960Y-77008017D01*
X111633958Y-77008019D01*
X111483237Y-77145418D01*
X111360327Y-77308178D01*
X111269422Y-77490739D01*
X111269417Y-77490752D01*
X111213602Y-77686917D01*
X111194785Y-77889999D01*
X111194785Y-77890000D01*
X111213602Y-78093082D01*
X111269417Y-78289247D01*
X111269422Y-78289260D01*
X111360327Y-78471821D01*
X111483237Y-78634581D01*
X111633958Y-78771980D01*
X111638535Y-78775437D01*
X111637396Y-78776944D01*
X111678322Y-78822606D01*
X111689423Y-78891588D01*
X111661468Y-78955621D01*
X111603331Y-78994375D01*
X111566407Y-79000000D01*
X107953593Y-79000000D01*
X107886554Y-78980315D01*
X107840799Y-78927511D01*
X107830855Y-78858353D01*
X107859880Y-78794797D01*
X107881911Y-78776028D01*
X107881465Y-78775437D01*
X107886033Y-78771985D01*
X107886041Y-78771981D01*
X108036764Y-78634579D01*
X108159673Y-78471821D01*
X108250582Y-78289250D01*
X108306397Y-78093083D01*
X108325215Y-77890000D01*
X108325146Y-77889260D01*
X108306397Y-77686917D01*
X108250582Y-77490750D01*
X108250208Y-77490000D01*
X108654785Y-77490000D01*
X108673602Y-77693082D01*
X108729417Y-77889247D01*
X108729422Y-77889260D01*
X108820327Y-78071821D01*
X108943237Y-78234581D01*
X109093958Y-78371980D01*
X109093960Y-78371982D01*
X109193141Y-78433392D01*
X109267363Y-78479348D01*
X109457544Y-78553024D01*
X109658024Y-78590500D01*
X109658026Y-78590500D01*
X109861974Y-78590500D01*
X109861976Y-78590500D01*
X110062456Y-78553024D01*
X110252637Y-78479348D01*
X110426041Y-78371981D01*
X110576764Y-78234579D01*
X110699673Y-78071821D01*
X110790582Y-77889250D01*
X110846397Y-77693083D01*
X110865215Y-77490000D01*
X110846397Y-77286917D01*
X110790582Y-77090750D01*
X110699673Y-76908179D01*
X110576764Y-76745421D01*
X110576762Y-76745418D01*
X110426041Y-76608019D01*
X110426039Y-76608017D01*
X110252642Y-76500655D01*
X110252635Y-76500651D01*
X110157546Y-76463814D01*
X110062456Y-76426976D01*
X109861976Y-76389500D01*
X109658024Y-76389500D01*
X109457544Y-76426976D01*
X109457541Y-76426976D01*
X109457541Y-76426977D01*
X109267364Y-76500651D01*
X109267357Y-76500655D01*
X109093960Y-76608017D01*
X109093958Y-76608019D01*
X108943237Y-76745418D01*
X108820327Y-76908178D01*
X108729422Y-77090739D01*
X108729417Y-77090752D01*
X108673602Y-77286917D01*
X108654785Y-77489999D01*
X108654785Y-77490000D01*
X108250208Y-77490000D01*
X108250208Y-77489999D01*
X108172341Y-77333620D01*
X108159673Y-77308179D01*
X108063154Y-77180367D01*
X108036762Y-77145418D01*
X107886041Y-77008019D01*
X107886039Y-77008017D01*
X107712642Y-76900655D01*
X107712635Y-76900651D01*
X107565649Y-76843709D01*
X107522456Y-76826976D01*
X107321976Y-76789500D01*
X107118024Y-76789500D01*
X106917544Y-76826976D01*
X106917541Y-76826976D01*
X106917541Y-76826977D01*
X106727364Y-76900651D01*
X106727357Y-76900655D01*
X106553960Y-77008017D01*
X106553958Y-77008019D01*
X106403237Y-77145418D01*
X106280327Y-77308178D01*
X106189422Y-77490739D01*
X106189417Y-77490752D01*
X106133602Y-77686917D01*
X106114785Y-77889999D01*
X106114785Y-77890000D01*
X106133602Y-78093082D01*
X106189417Y-78289247D01*
X106189422Y-78289260D01*
X106280327Y-78471821D01*
X106403237Y-78634581D01*
X106553958Y-78771980D01*
X106558535Y-78775437D01*
X106557396Y-78776944D01*
X106598322Y-78822606D01*
X106609423Y-78891588D01*
X106581468Y-78955621D01*
X106523331Y-78994375D01*
X106486407Y-79000000D01*
X102873593Y-79000000D01*
X102806554Y-78980315D01*
X102760799Y-78927511D01*
X102750855Y-78858353D01*
X102779880Y-78794797D01*
X102801911Y-78776028D01*
X102801465Y-78775437D01*
X102806033Y-78771985D01*
X102806041Y-78771981D01*
X102956764Y-78634579D01*
X103079673Y-78471821D01*
X103170582Y-78289250D01*
X103226397Y-78093083D01*
X103245215Y-77890000D01*
X103245146Y-77889260D01*
X103226397Y-77686917D01*
X103170582Y-77490750D01*
X103170208Y-77489999D01*
X103092341Y-77333620D01*
X103079673Y-77308179D01*
X102983154Y-77180367D01*
X102956762Y-77145418D01*
X102806041Y-77008019D01*
X102806039Y-77008017D01*
X102642772Y-76906927D01*
X102596136Y-76854899D01*
X102585032Y-76785918D01*
X102612985Y-76721883D01*
X102671120Y-76683127D01*
X102708049Y-76677500D01*
X103082273Y-76677500D01*
X103149312Y-76697185D01*
X103169954Y-76713819D01*
X103575179Y-77119044D01*
X103608664Y-77180367D01*
X103606765Y-77240658D01*
X103593602Y-77286919D01*
X103574785Y-77489999D01*
X103574785Y-77490000D01*
X103593602Y-77693082D01*
X103649417Y-77889247D01*
X103649422Y-77889260D01*
X103740327Y-78071821D01*
X103863237Y-78234581D01*
X104013958Y-78371980D01*
X104013960Y-78371982D01*
X104113141Y-78433392D01*
X104187363Y-78479348D01*
X104377544Y-78553024D01*
X104578024Y-78590500D01*
X104578026Y-78590500D01*
X104781974Y-78590500D01*
X104781976Y-78590500D01*
X104982456Y-78553024D01*
X105172637Y-78479348D01*
X105346041Y-78371981D01*
X105496764Y-78234579D01*
X105619673Y-78071821D01*
X105710582Y-77889250D01*
X105766397Y-77693083D01*
X105785215Y-77490000D01*
X105766397Y-77286917D01*
X105710582Y-77090750D01*
X105619673Y-76908179D01*
X105496764Y-76745421D01*
X105496762Y-76745418D01*
X105346041Y-76608019D01*
X105346039Y-76608017D01*
X105172642Y-76500655D01*
X105172635Y-76500651D01*
X105077546Y-76463814D01*
X104982456Y-76426976D01*
X104781976Y-76389500D01*
X104578024Y-76389500D01*
X104377544Y-76426976D01*
X104377541Y-76426976D01*
X104377541Y-76426977D01*
X104187364Y-76500651D01*
X104187358Y-76500655D01*
X104170293Y-76511220D01*
X104102935Y-76529774D01*
X104036236Y-76508966D01*
X104017338Y-76493473D01*
X103521792Y-75997927D01*
X103521790Y-75997925D01*
X103435710Y-75948226D01*
X103339699Y-75922500D01*
X88650301Y-75922500D01*
X88554291Y-75948226D01*
X88517908Y-75969231D01*
X88517907Y-75969231D01*
X88468212Y-75997923D01*
X88468205Y-75997928D01*
X88354387Y-76111744D01*
X88293064Y-76145229D01*
X88282894Y-76147001D01*
X88156291Y-76163670D01*
X88156287Y-76163671D01*
X88022377Y-76219137D01*
X87907379Y-76307379D01*
X87819137Y-76422377D01*
X87763671Y-76556287D01*
X87763670Y-76556291D01*
X87744750Y-76699999D01*
X87744750Y-76700000D01*
X87763670Y-76843708D01*
X87763671Y-76843712D01*
X87819137Y-76977622D01*
X87819138Y-76977624D01*
X87819139Y-76977625D01*
X87907379Y-77092621D01*
X88022375Y-77180861D01*
X88156291Y-77236330D01*
X88237562Y-77247029D01*
X88301458Y-77275295D01*
X88339929Y-77333620D01*
X88344847Y-77381409D01*
X88334785Y-77489998D01*
X88334785Y-77490000D01*
X88353602Y-77693082D01*
X88409417Y-77889247D01*
X88409422Y-77889260D01*
X88500327Y-78071821D01*
X88623237Y-78234581D01*
X88773958Y-78371980D01*
X88773960Y-78371982D01*
X88873141Y-78433392D01*
X88947363Y-78479348D01*
X89137544Y-78553024D01*
X89338024Y-78590500D01*
X89338026Y-78590500D01*
X89541974Y-78590500D01*
X89541976Y-78590500D01*
X89742456Y-78553024D01*
X89932637Y-78479348D01*
X90106041Y-78371981D01*
X90256764Y-78234579D01*
X90379673Y-78071821D01*
X90470582Y-77889250D01*
X90526397Y-77693083D01*
X90545215Y-77490000D01*
X90526397Y-77286917D01*
X90470582Y-77090750D01*
X90379673Y-76908179D01*
X90355544Y-76876227D01*
X90330852Y-76810866D01*
X90345417Y-76742531D01*
X90394614Y-76692918D01*
X90454498Y-76677500D01*
X91411951Y-76677500D01*
X91478990Y-76697185D01*
X91524745Y-76749989D01*
X91534689Y-76819147D01*
X91505664Y-76882703D01*
X91477228Y-76906927D01*
X91313960Y-77008017D01*
X91313958Y-77008019D01*
X91163237Y-77145418D01*
X91040327Y-77308178D01*
X90949422Y-77490739D01*
X90949417Y-77490752D01*
X90893602Y-77686917D01*
X90874785Y-77889999D01*
X90874785Y-77890000D01*
X90893602Y-78093082D01*
X90949417Y-78289247D01*
X90949422Y-78289260D01*
X91040327Y-78471821D01*
X91163237Y-78634581D01*
X91313958Y-78771980D01*
X91318535Y-78775437D01*
X91317396Y-78776944D01*
X91358322Y-78822606D01*
X91369423Y-78891588D01*
X91341468Y-78955621D01*
X91283331Y-78994375D01*
X91246407Y-79000000D01*
X80802022Y-79000000D01*
X80797979Y-78999934D01*
X80792688Y-78999761D01*
X80748717Y-78998326D01*
X80720670Y-78994167D01*
X80623601Y-78968158D01*
X80593694Y-78955770D01*
X80508443Y-78906550D01*
X80482762Y-78886844D01*
X80413155Y-78817237D01*
X80393449Y-78791556D01*
X80382147Y-78771980D01*
X80344227Y-78706301D01*
X80331843Y-78676403D01*
X80305831Y-78579325D01*
X80301673Y-78551282D01*
X80300066Y-78502021D01*
X80300000Y-78497978D01*
X80300000Y-73900000D01*
X97644750Y-73900000D01*
X97657798Y-73999111D01*
X97663670Y-74043708D01*
X97663671Y-74043712D01*
X97719137Y-74177622D01*
X97719138Y-74177624D01*
X97719139Y-74177625D01*
X97807379Y-74292621D01*
X97922375Y-74380861D01*
X98056291Y-74436330D01*
X98200000Y-74455250D01*
X98292030Y-74443133D01*
X98361061Y-74453898D01*
X98413318Y-74500277D01*
X98426301Y-74536377D01*
X98428236Y-74535859D01*
X98430340Y-74543712D01*
X98485806Y-74677622D01*
X98485807Y-74677624D01*
X98485808Y-74677625D01*
X98574048Y-74792621D01*
X98689044Y-74880861D01*
X98822960Y-74936330D01*
X98949949Y-74953048D01*
X98966668Y-74955250D01*
X98966669Y-74955250D01*
X98966670Y-74955250D01*
X98981646Y-74953278D01*
X99110378Y-74936330D01*
X99244294Y-74880861D01*
X99359290Y-74792621D01*
X99447530Y-74677625D01*
X99502999Y-74543709D01*
X99521919Y-74400000D01*
X99502999Y-74256291D01*
X99466019Y-74167013D01*
X99447531Y-74122377D01*
X99447530Y-74122376D01*
X99447530Y-74122375D01*
X99359290Y-74007379D01*
X99359288Y-74007377D01*
X99359284Y-74007372D01*
X99353540Y-74001628D01*
X99356056Y-73999111D01*
X99324466Y-73955817D01*
X99317169Y-73913908D01*
X99317169Y-72881288D01*
X115379500Y-72881288D01*
X115411161Y-73121785D01*
X115473947Y-73356104D01*
X115538778Y-73512619D01*
X115566776Y-73580212D01*
X115688064Y-73790289D01*
X115688066Y-73790292D01*
X115688067Y-73790293D01*
X115835733Y-73982736D01*
X115835739Y-73982743D01*
X116007256Y-74154260D01*
X116007263Y-74154266D01*
X116048577Y-74185967D01*
X116199711Y-74301936D01*
X116409788Y-74423224D01*
X116633900Y-74516054D01*
X116868211Y-74578838D01*
X117048586Y-74602584D01*
X117108711Y-74610500D01*
X117108712Y-74610500D01*
X117351289Y-74610500D01*
X117399388Y-74604167D01*
X117591789Y-74578838D01*
X117826100Y-74516054D01*
X118050212Y-74423224D01*
X118260289Y-74301936D01*
X118452738Y-74154265D01*
X118624265Y-73982738D01*
X118630450Y-73974678D01*
X129239500Y-73974678D01*
X129254032Y-74047735D01*
X129254033Y-74047739D01*
X129254034Y-74047740D01*
X129309399Y-74130601D01*
X129379772Y-74177622D01*
X129392260Y-74185966D01*
X129392264Y-74185967D01*
X129465321Y-74200499D01*
X129465324Y-74200500D01*
X129465326Y-74200500D01*
X131214676Y-74200500D01*
X131214677Y-74200499D01*
X131287740Y-74185966D01*
X131370601Y-74130601D01*
X131425966Y-74047740D01*
X131440500Y-73974674D01*
X131440500Y-72225326D01*
X131440500Y-72225323D01*
X131440499Y-72225321D01*
X131425967Y-72152264D01*
X131425966Y-72152260D01*
X131416483Y-72138067D01*
X131370601Y-72069399D01*
X131315235Y-72032405D01*
X131287739Y-72014033D01*
X131287735Y-72014032D01*
X131214677Y-71999500D01*
X131214674Y-71999500D01*
X129465326Y-71999500D01*
X129465323Y-71999500D01*
X129392264Y-72014032D01*
X129392260Y-72014033D01*
X129309399Y-72069399D01*
X129254033Y-72152260D01*
X129254032Y-72152264D01*
X129239500Y-72225321D01*
X129239500Y-73974678D01*
X118630450Y-73974678D01*
X118771936Y-73790289D01*
X118893224Y-73580212D01*
X118986054Y-73356100D01*
X119048838Y-73121789D01*
X119080500Y-72881288D01*
X119080500Y-72638712D01*
X119048838Y-72398211D01*
X118986054Y-72163900D01*
X118893224Y-71939788D01*
X118771936Y-71729711D01*
X118624265Y-71537262D01*
X118624260Y-71537256D01*
X118452743Y-71365739D01*
X118452736Y-71365733D01*
X118260293Y-71218067D01*
X118260292Y-71218066D01*
X118260289Y-71218064D01*
X118050212Y-71096776D01*
X118050205Y-71096773D01*
X117826104Y-71003947D01*
X117591785Y-70941161D01*
X117351289Y-70909500D01*
X117351288Y-70909500D01*
X117108712Y-70909500D01*
X117108711Y-70909500D01*
X116868214Y-70941161D01*
X116633895Y-71003947D01*
X116409794Y-71096773D01*
X116409785Y-71096777D01*
X116199706Y-71218067D01*
X116007263Y-71365733D01*
X116007256Y-71365739D01*
X115835739Y-71537256D01*
X115835733Y-71537263D01*
X115688067Y-71729706D01*
X115566777Y-71939785D01*
X115566773Y-71939794D01*
X115473947Y-72163895D01*
X115411161Y-72398214D01*
X115379500Y-72638711D01*
X115379500Y-72881288D01*
X99317169Y-72881288D01*
X99317169Y-71306092D01*
X99336854Y-71239053D01*
X99354783Y-71219609D01*
X99353543Y-71218369D01*
X99359288Y-71212623D01*
X99359290Y-71212621D01*
X99447530Y-71097625D01*
X99502999Y-70963709D01*
X99517443Y-70854000D01*
X122544750Y-70854000D01*
X122563670Y-70997708D01*
X122563671Y-70997712D01*
X122619137Y-71131622D01*
X122619138Y-71131624D01*
X122619139Y-71131625D01*
X122707379Y-71246621D01*
X122822375Y-71334861D01*
X122956291Y-71390330D01*
X123083280Y-71407048D01*
X123099999Y-71409250D01*
X123100000Y-71409250D01*
X123100001Y-71409250D01*
X123114977Y-71407278D01*
X123243709Y-71390330D01*
X123377625Y-71334861D01*
X123492621Y-71246621D01*
X123580861Y-71131625D01*
X123636330Y-70997709D01*
X123655250Y-70854000D01*
X123636330Y-70710291D01*
X123580861Y-70576375D01*
X123554772Y-70542375D01*
X123503124Y-70475066D01*
X123477930Y-70409897D01*
X123477500Y-70399580D01*
X123477500Y-69954414D01*
X123497185Y-69887375D01*
X123503116Y-69878938D01*
X123580861Y-69777621D01*
X123636330Y-69643705D01*
X123655250Y-69499996D01*
X123636330Y-69356287D01*
X123580861Y-69222371D01*
X123529752Y-69155765D01*
X135409500Y-69155765D01*
X135448719Y-69302136D01*
X135479981Y-69356283D01*
X135524485Y-69433365D01*
X135631635Y-69540515D01*
X135762865Y-69616281D01*
X135909234Y-69655500D01*
X135909236Y-69655500D01*
X136060764Y-69655500D01*
X136060766Y-69655500D01*
X136207135Y-69616281D01*
X136338365Y-69540515D01*
X136445515Y-69433365D01*
X136521281Y-69302135D01*
X136560500Y-69155766D01*
X136560500Y-69004234D01*
X136521281Y-68857865D01*
X136445515Y-68726635D01*
X136338365Y-68619485D01*
X136272750Y-68581602D01*
X136207136Y-68543719D01*
X136133950Y-68524109D01*
X136060766Y-68504500D01*
X135909234Y-68504500D01*
X135762863Y-68543719D01*
X135631635Y-68619485D01*
X135631632Y-68619487D01*
X135524487Y-68726632D01*
X135524485Y-68726635D01*
X135448719Y-68857863D01*
X135409500Y-69004234D01*
X135409500Y-69155765D01*
X123529752Y-69155765D01*
X123492621Y-69107375D01*
X123377625Y-69019135D01*
X123377624Y-69019134D01*
X123377622Y-69019133D01*
X123243712Y-68963667D01*
X123243710Y-68963666D01*
X123243709Y-68963666D01*
X123171854Y-68954206D01*
X123100001Y-68944746D01*
X123099999Y-68944746D01*
X122956291Y-68963666D01*
X122956287Y-68963667D01*
X122822377Y-69019133D01*
X122707379Y-69107375D01*
X122619137Y-69222373D01*
X122563671Y-69356283D01*
X122563670Y-69356287D01*
X122550505Y-69456287D01*
X122544750Y-69499996D01*
X122560059Y-69616281D01*
X122563670Y-69643704D01*
X122563671Y-69643708D01*
X122619138Y-69777619D01*
X122619139Y-69777621D01*
X122696875Y-69878929D01*
X122722070Y-69944096D01*
X122722500Y-69954414D01*
X122722500Y-70399580D01*
X122702815Y-70466619D01*
X122696876Y-70475066D01*
X122619139Y-70576374D01*
X122619138Y-70576376D01*
X122563671Y-70710287D01*
X122563670Y-70710291D01*
X122544750Y-70853999D01*
X122544750Y-70854000D01*
X99517443Y-70854000D01*
X99521919Y-70820000D01*
X99502999Y-70676291D01*
X99466019Y-70587013D01*
X99447531Y-70542377D01*
X99447530Y-70542376D01*
X99447530Y-70542375D01*
X99359290Y-70427379D01*
X99244294Y-70339139D01*
X99244293Y-70339138D01*
X99244291Y-70339137D01*
X99110381Y-70283671D01*
X99110379Y-70283670D01*
X99110378Y-70283670D01*
X99038523Y-70274210D01*
X98966670Y-70264750D01*
X98966668Y-70264750D01*
X98822960Y-70283670D01*
X98822956Y-70283671D01*
X98689046Y-70339137D01*
X98574048Y-70427379D01*
X98485806Y-70542377D01*
X98430340Y-70676287D01*
X98430339Y-70676291D01*
X98411419Y-70820000D01*
X98427370Y-70941161D01*
X98430339Y-70963708D01*
X98430340Y-70963712D01*
X98485807Y-71097623D01*
X98485808Y-71097625D01*
X98574049Y-71212623D01*
X98579795Y-71218369D01*
X98577243Y-71220920D01*
X98608760Y-71263873D01*
X98616169Y-71306092D01*
X98616169Y-71890947D01*
X98596484Y-71957986D01*
X98543680Y-72003741D01*
X98474522Y-72013685D01*
X98444717Y-72005508D01*
X98343712Y-71963671D01*
X98343710Y-71963670D01*
X98343709Y-71963670D01*
X98271854Y-71954210D01*
X98200001Y-71944750D01*
X98199999Y-71944750D01*
X98056291Y-71963670D01*
X98056287Y-71963671D01*
X97922377Y-72019137D01*
X97807379Y-72107379D01*
X97719137Y-72222377D01*
X97663671Y-72356287D01*
X97663670Y-72356291D01*
X97644750Y-72500000D01*
X97663670Y-72643709D01*
X97719139Y-72777625D01*
X97796875Y-72878933D01*
X97822070Y-72944100D01*
X97822500Y-72954418D01*
X97822500Y-73445580D01*
X97802815Y-73512619D01*
X97796876Y-73521066D01*
X97719139Y-73622374D01*
X97719138Y-73622376D01*
X97663671Y-73756287D01*
X97663670Y-73756291D01*
X97644750Y-73900000D01*
X80300000Y-73900000D01*
X80300000Y-69600000D01*
X96944750Y-69600000D01*
X96963670Y-69743708D01*
X96963671Y-69743712D01*
X97019137Y-69877622D01*
X97019138Y-69877624D01*
X97019139Y-69877625D01*
X97107379Y-69992621D01*
X97222375Y-70080861D01*
X97356291Y-70136330D01*
X97483280Y-70153048D01*
X97499999Y-70155250D01*
X97500000Y-70155250D01*
X97500001Y-70155250D01*
X97514977Y-70153278D01*
X97643709Y-70136330D01*
X97777625Y-70080861D01*
X97892621Y-69992621D01*
X97980861Y-69877625D01*
X98036330Y-69743709D01*
X98055250Y-69600000D01*
X98036330Y-69456291D01*
X97980861Y-69322375D01*
X97976123Y-69316200D01*
X97950930Y-69251031D01*
X97950500Y-69240715D01*
X97950500Y-68459284D01*
X97970185Y-68392245D01*
X97976116Y-68383808D01*
X97980861Y-68377625D01*
X98036330Y-68243709D01*
X98055250Y-68100000D01*
X98036330Y-67956291D01*
X97980861Y-67822375D01*
X97892621Y-67707379D01*
X97777625Y-67619139D01*
X97777624Y-67619138D01*
X97777622Y-67619137D01*
X97643712Y-67563671D01*
X97643710Y-67563670D01*
X97643709Y-67563670D01*
X97571854Y-67554210D01*
X97500001Y-67544750D01*
X97499999Y-67544750D01*
X97356291Y-67563670D01*
X97356287Y-67563671D01*
X97222377Y-67619137D01*
X97107379Y-67707379D01*
X97019137Y-67822377D01*
X96963671Y-67956287D01*
X96963670Y-67956291D01*
X96944750Y-68099999D01*
X96944750Y-68100000D01*
X96963670Y-68243708D01*
X96963671Y-68243712D01*
X97019137Y-68377622D01*
X97019138Y-68377624D01*
X97019139Y-68377625D01*
X97023875Y-68383798D01*
X97049070Y-68448965D01*
X97049500Y-68459284D01*
X97049500Y-69240715D01*
X97029815Y-69307754D01*
X97023877Y-69316200D01*
X97019138Y-69322375D01*
X96963671Y-69456287D01*
X96963670Y-69456291D01*
X96944750Y-69599999D01*
X96944750Y-69600000D01*
X80300000Y-69600000D01*
X80300000Y-65400000D01*
X87644750Y-65400000D01*
X87663670Y-65543708D01*
X87663671Y-65543712D01*
X87719137Y-65677622D01*
X87719138Y-65677624D01*
X87719139Y-65677625D01*
X87807379Y-65792621D01*
X87922375Y-65880861D01*
X88056291Y-65936330D01*
X88183280Y-65953048D01*
X88199999Y-65955250D01*
X88200000Y-65955250D01*
X88200001Y-65955250D01*
X88214977Y-65953278D01*
X88343709Y-65936330D01*
X88477625Y-65880861D01*
X88477629Y-65880858D01*
X88483801Y-65876123D01*
X88548970Y-65850930D01*
X88559285Y-65850500D01*
X89240715Y-65850500D01*
X89307754Y-65870185D01*
X89316199Y-65876123D01*
X89322370Y-65880858D01*
X89322373Y-65880859D01*
X89322375Y-65880861D01*
X89456291Y-65936330D01*
X89583280Y-65953048D01*
X89599999Y-65955250D01*
X89600000Y-65955250D01*
X89600001Y-65955250D01*
X89614977Y-65953278D01*
X89743709Y-65936330D01*
X89877625Y-65880861D01*
X89992621Y-65792621D01*
X90080861Y-65677625D01*
X90136330Y-65543709D01*
X90155250Y-65400000D01*
X90136330Y-65256291D01*
X90080861Y-65122375D01*
X89992621Y-65007379D01*
X89877625Y-64919139D01*
X89877624Y-64919138D01*
X89877622Y-64919137D01*
X89743712Y-64863671D01*
X89743710Y-64863670D01*
X89743709Y-64863670D01*
X89671854Y-64854210D01*
X89600001Y-64844750D01*
X89599999Y-64844750D01*
X89456291Y-64863670D01*
X89456287Y-64863671D01*
X89322376Y-64919138D01*
X89322370Y-64919141D01*
X89316199Y-64923877D01*
X89251030Y-64949070D01*
X89240715Y-64949500D01*
X88559285Y-64949500D01*
X88492246Y-64929815D01*
X88483801Y-64923877D01*
X88477629Y-64919141D01*
X88477623Y-64919138D01*
X88343712Y-64863671D01*
X88343710Y-64863670D01*
X88343709Y-64863670D01*
X88271854Y-64854210D01*
X88200001Y-64844750D01*
X88199999Y-64844750D01*
X88056291Y-64863670D01*
X88056287Y-64863671D01*
X87922377Y-64919137D01*
X87807379Y-65007379D01*
X87719137Y-65122377D01*
X87663671Y-65256287D01*
X87663670Y-65256291D01*
X87644750Y-65399999D01*
X87644750Y-65400000D01*
X80300000Y-65400000D01*
X80300000Y-63375765D01*
X135409500Y-63375765D01*
X135448719Y-63522136D01*
X135486602Y-63587750D01*
X135524485Y-63653365D01*
X135631635Y-63760515D01*
X135762865Y-63836281D01*
X135909234Y-63875500D01*
X135909236Y-63875500D01*
X136060764Y-63875500D01*
X136060766Y-63875500D01*
X136207135Y-63836281D01*
X136338365Y-63760515D01*
X136445515Y-63653365D01*
X136521281Y-63522135D01*
X136560500Y-63375766D01*
X136560500Y-63224234D01*
X136521281Y-63077865D01*
X136445515Y-62946635D01*
X136338365Y-62839485D01*
X136272750Y-62801602D01*
X136207136Y-62763719D01*
X136133950Y-62744109D01*
X136060766Y-62724500D01*
X135909234Y-62724500D01*
X135762863Y-62763719D01*
X135631635Y-62839485D01*
X135631632Y-62839487D01*
X135524487Y-62946632D01*
X135524485Y-62946635D01*
X135448719Y-63077863D01*
X135409500Y-63224234D01*
X135409500Y-63375765D01*
X80300000Y-63375765D01*
X80300000Y-59761288D01*
X89519500Y-59761288D01*
X89551161Y-60001785D01*
X89613947Y-60236104D01*
X89706773Y-60460205D01*
X89706776Y-60460212D01*
X89828064Y-60670289D01*
X89828066Y-60670292D01*
X89828067Y-60670293D01*
X89975733Y-60862736D01*
X89975739Y-60862743D01*
X90147256Y-61034260D01*
X90147262Y-61034265D01*
X90339711Y-61181936D01*
X90549788Y-61303224D01*
X90773900Y-61396054D01*
X91008211Y-61458838D01*
X91188586Y-61482584D01*
X91248711Y-61490500D01*
X91248712Y-61490500D01*
X91491289Y-61490500D01*
X91539388Y-61484167D01*
X91731789Y-61458838D01*
X91966100Y-61396054D01*
X92190212Y-61303224D01*
X92400289Y-61181936D01*
X92592738Y-61034265D01*
X92764265Y-60862738D01*
X92911936Y-60670289D01*
X93033224Y-60460212D01*
X93126054Y-60236100D01*
X93188838Y-60001789D01*
X93220500Y-59761288D01*
X93220500Y-59518712D01*
X93188838Y-59278211D01*
X93126054Y-59043900D01*
X93033224Y-58819788D01*
X92911936Y-58609711D01*
X92764265Y-58417262D01*
X92764260Y-58417256D01*
X92592743Y-58245739D01*
X92592736Y-58245733D01*
X92400293Y-58098067D01*
X92400292Y-58098066D01*
X92400289Y-58098064D01*
X92190212Y-57976776D01*
X92171688Y-57969103D01*
X91966104Y-57883947D01*
X91848944Y-57852554D01*
X91731789Y-57821162D01*
X91731788Y-57821161D01*
X91731785Y-57821161D01*
X91491289Y-57789500D01*
X91491288Y-57789500D01*
X91248712Y-57789500D01*
X91248711Y-57789500D01*
X91008214Y-57821161D01*
X90773895Y-57883947D01*
X90549794Y-57976773D01*
X90549785Y-57976777D01*
X90339706Y-58098067D01*
X90147263Y-58245733D01*
X90147256Y-58245739D01*
X89975739Y-58417256D01*
X89975733Y-58417263D01*
X89828067Y-58609706D01*
X89706777Y-58819785D01*
X89706773Y-58819794D01*
X89613947Y-59043895D01*
X89551161Y-59278214D01*
X89519500Y-59518711D01*
X89519500Y-59761288D01*
X80300000Y-59761288D01*
X80300000Y-55246412D01*
X85816567Y-55246412D01*
X85835487Y-55390120D01*
X85835488Y-55390124D01*
X85890954Y-55524034D01*
X85890955Y-55524036D01*
X85890956Y-55524037D01*
X85979196Y-55639033D01*
X86094192Y-55727273D01*
X86228108Y-55782742D01*
X86371817Y-55801662D01*
X86379946Y-55801662D01*
X86379946Y-55805240D01*
X86432787Y-55813443D01*
X86467695Y-55837972D01*
X86913181Y-56283458D01*
X86946666Y-56344781D01*
X86949500Y-56371139D01*
X86949500Y-56946682D01*
X86929815Y-57013721D01*
X86911913Y-57033186D01*
X86913129Y-57034402D01*
X86907384Y-57040146D01*
X86819137Y-57155151D01*
X86763671Y-57289061D01*
X86763670Y-57289065D01*
X86744750Y-57432773D01*
X86744750Y-57432774D01*
X86763670Y-57576482D01*
X86763671Y-57576486D01*
X86819137Y-57710396D01*
X86819138Y-57710398D01*
X86819139Y-57710399D01*
X86907379Y-57825395D01*
X87022375Y-57913635D01*
X87156291Y-57969104D01*
X87283280Y-57985822D01*
X87299999Y-57988024D01*
X87300000Y-57988024D01*
X87300001Y-57988024D01*
X87314977Y-57986052D01*
X87443709Y-57969104D01*
X87577625Y-57913635D01*
X87692621Y-57825395D01*
X87780861Y-57710399D01*
X87836330Y-57576483D01*
X87855250Y-57432774D01*
X87836330Y-57289065D01*
X87829262Y-57272003D01*
X87821793Y-57202535D01*
X87853067Y-57140055D01*
X87913155Y-57104402D01*
X87927632Y-57101612D01*
X88043709Y-57086330D01*
X88177625Y-57030861D01*
X88292621Y-56942621D01*
X88380861Y-56827625D01*
X88436330Y-56693709D01*
X88455250Y-56550000D01*
X88436330Y-56406291D01*
X88380861Y-56272375D01*
X88292621Y-56157379D01*
X88292619Y-56157377D01*
X88292615Y-56157372D01*
X88286871Y-56151628D01*
X88289387Y-56149111D01*
X88257797Y-56105817D01*
X88250500Y-56063908D01*
X88250500Y-55390871D01*
X88250500Y-55390869D01*
X88226614Y-55301725D01*
X88208401Y-55270179D01*
X88180470Y-55221801D01*
X87919234Y-54960565D01*
X87885749Y-54899242D01*
X87884657Y-54872816D01*
X87882924Y-54872816D01*
X87882924Y-54864687D01*
X87881489Y-54853791D01*
X87864004Y-54720978D01*
X87808535Y-54587062D01*
X87720295Y-54472066D01*
X87605299Y-54383826D01*
X87605298Y-54383825D01*
X87605296Y-54383824D01*
X87471386Y-54328358D01*
X87471384Y-54328357D01*
X87471383Y-54328357D01*
X87399528Y-54318897D01*
X87327675Y-54309437D01*
X87327673Y-54309437D01*
X87183965Y-54328357D01*
X87183961Y-54328358D01*
X87050051Y-54383824D01*
X86935053Y-54472066D01*
X86846812Y-54587063D01*
X86802256Y-54694632D01*
X86758415Y-54749035D01*
X86692121Y-54771100D01*
X86640243Y-54761740D01*
X86515529Y-54710083D01*
X86515527Y-54710082D01*
X86515526Y-54710082D01*
X86398174Y-54694632D01*
X86371818Y-54691162D01*
X86371816Y-54691162D01*
X86228108Y-54710082D01*
X86228104Y-54710083D01*
X86094194Y-54765549D01*
X85979196Y-54853791D01*
X85890954Y-54968789D01*
X85835488Y-55102699D01*
X85835487Y-55102703D01*
X85816567Y-55246411D01*
X85816567Y-55246412D01*
X80300000Y-55246412D01*
X80300000Y-54002021D01*
X80300066Y-53997978D01*
X80301673Y-53948720D01*
X80301674Y-53948717D01*
X80301673Y-53948715D01*
X80305831Y-53920675D01*
X80331843Y-53823594D01*
X80344226Y-53793701D01*
X80393452Y-53708437D01*
X80413151Y-53682766D01*
X80482766Y-53613151D01*
X80508437Y-53593452D01*
X80593701Y-53544226D01*
X80623594Y-53531843D01*
X80720675Y-53505831D01*
X80748715Y-53501673D01*
X80793582Y-53500209D01*
X80797979Y-53500066D01*
X80802022Y-53500000D01*
X93740125Y-53500000D01*
X93807164Y-53519685D01*
G37*
G04 #@! TD.AperFunction*
M02*
