G04 #@! TF.GenerationSoftware,KiCad,Pcbnew,8.0.1-8.0.1-1~ubuntu22.04.1*
G04 #@! TF.CreationDate,2024-09-10T20:50:46+02:00*
G04 #@! TF.ProjectId,NerdNOS,4e657264-4e4f-4532-9e6b-696361645f70,rev?*
G04 #@! TF.SameCoordinates,Original*
G04 #@! TF.FileFunction,Legend,Top*
G04 #@! TF.FilePolarity,Positive*
%FSLAX46Y46*%
G04 Gerber Fmt 4.6, Leading zero omitted, Abs format (unit mm)*
G04 Created by KiCad (PCBNEW 8.0.1-8.0.1-1~ubuntu22.04.1) date 2024-09-10 20:50:46*
%MOMM*%
%LPD*%
G01*
G04 APERTURE LIST*
G04 Aperture macros list*
%AMRoundRect*
0 Rectangle with rounded corners*
0 $1 Rounding radius*
0 $2 $3 $4 $5 $6 $7 $8 $9 X,Y pos of 4 corners*
0 Add a 4 corners polygon primitive as box body*
4,1,4,$2,$3,$4,$5,$6,$7,$8,$9,$2,$3,0*
0 Add four circle primitives for the rounded corners*
1,1,$1+$1,$2,$3*
1,1,$1+$1,$4,$5*
1,1,$1+$1,$6,$7*
1,1,$1+$1,$8,$9*
0 Add four rect primitives between the rounded corners*
20,1,$1+$1,$2,$3,$4,$5,0*
20,1,$1+$1,$4,$5,$6,$7,0*
20,1,$1+$1,$6,$7,$8,$9,0*
20,1,$1+$1,$8,$9,$2,$3,0*%
G04 Aperture macros list end*
%ADD10C,0.100000*%
%ADD11C,0.150000*%
%ADD12C,0.120000*%
%ADD13C,0.000000*%
%ADD14C,0.313180*%
%ADD15C,0.250000*%
%ADD16C,0.152400*%
%ADD17C,0.297065*%
%ADD18C,0.010000*%
%ADD19C,1.700000*%
%ADD20RoundRect,0.150000X-0.512500X-0.150000X0.512500X-0.150000X0.512500X0.150000X-0.512500X0.150000X0*%
%ADD21RoundRect,0.135000X0.185000X-0.135000X0.185000X0.135000X-0.185000X0.135000X-0.185000X-0.135000X0*%
%ADD22R,2.700000X7.500000*%
%ADD23RoundRect,0.140000X0.170000X-0.140000X0.170000X0.140000X-0.170000X0.140000X-0.170000X-0.140000X0*%
%ADD24RoundRect,0.140000X-0.170000X0.140000X-0.170000X-0.140000X0.170000X-0.140000X0.170000X0.140000X0*%
%ADD25RoundRect,0.250000X-0.475000X0.250000X-0.475000X-0.250000X0.475000X-0.250000X0.475000X0.250000X0*%
%ADD26RoundRect,0.140000X0.140000X0.170000X-0.140000X0.170000X-0.140000X-0.170000X0.140000X-0.170000X0*%
%ADD27RoundRect,0.150000X0.150000X-0.587500X0.150000X0.587500X-0.150000X0.587500X-0.150000X-0.587500X0*%
%ADD28RoundRect,0.135000X-0.185000X0.135000X-0.185000X-0.135000X0.185000X-0.135000X0.185000X0.135000X0*%
%ADD29C,0.650000*%
%ADD30RoundRect,0.150000X0.425000X-0.150000X0.425000X0.150000X-0.425000X0.150000X-0.425000X-0.150000X0*%
%ADD31RoundRect,0.075000X0.500000X-0.075000X0.500000X0.075000X-0.500000X0.075000X-0.500000X-0.075000X0*%
%ADD32O,2.100000X1.000000*%
%ADD33O,1.800000X1.000000*%
%ADD34RoundRect,0.135000X0.135000X0.185000X-0.135000X0.185000X-0.135000X-0.185000X0.135000X-0.185000X0*%
%ADD35R,1.300000X1.100000*%
%ADD36C,2.000000*%
%ADD37RoundRect,0.250000X-1.100000X0.325000X-1.100000X-0.325000X1.100000X-0.325000X1.100000X0.325000X0*%
%ADD38RoundRect,0.135000X-0.135000X-0.185000X0.135000X-0.185000X0.135000X0.185000X-0.135000X0.185000X0*%
%ADD39RoundRect,0.236600X-0.000010X0.295000X-0.000010X-0.295000X0.000010X-0.295000X0.000010X0.295000X0*%
%ADD40R,0.254000X0.762000*%
%ADD41C,3.200000*%
%ADD42RoundRect,0.075000X-0.075000X0.275000X-0.075000X-0.275000X0.075000X-0.275000X0.075000X0.275000X0*%
G04 APERTURE END LIST*
D10*
X110518169Y-56573085D02*
X110556265Y-56534990D01*
X110556265Y-56534990D02*
X110632455Y-56496895D01*
X110632455Y-56496895D02*
X110822931Y-56496895D01*
X110822931Y-56496895D02*
X110899122Y-56534990D01*
X110899122Y-56534990D02*
X110937217Y-56573085D01*
X110937217Y-56573085D02*
X110975312Y-56649276D01*
X110975312Y-56649276D02*
X110975312Y-56725466D01*
X110975312Y-56725466D02*
X110937217Y-56839752D01*
X110937217Y-56839752D02*
X110480074Y-57296895D01*
X110480074Y-57296895D02*
X110975312Y-57296895D01*
X111470551Y-56496895D02*
X111546741Y-56496895D01*
X111546741Y-56496895D02*
X111622932Y-56534990D01*
X111622932Y-56534990D02*
X111661027Y-56573085D01*
X111661027Y-56573085D02*
X111699122Y-56649276D01*
X111699122Y-56649276D02*
X111737217Y-56801657D01*
X111737217Y-56801657D02*
X111737217Y-56992133D01*
X111737217Y-56992133D02*
X111699122Y-57144514D01*
X111699122Y-57144514D02*
X111661027Y-57220704D01*
X111661027Y-57220704D02*
X111622932Y-57258800D01*
X111622932Y-57258800D02*
X111546741Y-57296895D01*
X111546741Y-57296895D02*
X111470551Y-57296895D01*
X111470551Y-57296895D02*
X111394360Y-57258800D01*
X111394360Y-57258800D02*
X111356265Y-57220704D01*
X111356265Y-57220704D02*
X111318170Y-57144514D01*
X111318170Y-57144514D02*
X111280074Y-56992133D01*
X111280074Y-56992133D02*
X111280074Y-56801657D01*
X111280074Y-56801657D02*
X111318170Y-56649276D01*
X111318170Y-56649276D02*
X111356265Y-56573085D01*
X111356265Y-56573085D02*
X111394360Y-56534990D01*
X111394360Y-56534990D02*
X111470551Y-56496895D01*
X112003884Y-57296895D02*
X112422932Y-56763561D01*
X112003884Y-56763561D02*
X112422932Y-57296895D01*
X112689598Y-56573085D02*
X112727694Y-56534990D01*
X112727694Y-56534990D02*
X112803884Y-56496895D01*
X112803884Y-56496895D02*
X112994360Y-56496895D01*
X112994360Y-56496895D02*
X113070551Y-56534990D01*
X113070551Y-56534990D02*
X113108646Y-56573085D01*
X113108646Y-56573085D02*
X113146741Y-56649276D01*
X113146741Y-56649276D02*
X113146741Y-56725466D01*
X113146741Y-56725466D02*
X113108646Y-56839752D01*
X113108646Y-56839752D02*
X112651503Y-57296895D01*
X112651503Y-57296895D02*
X113146741Y-57296895D01*
X113641980Y-56496895D02*
X113718170Y-56496895D01*
X113718170Y-56496895D02*
X113794361Y-56534990D01*
X113794361Y-56534990D02*
X113832456Y-56573085D01*
X113832456Y-56573085D02*
X113870551Y-56649276D01*
X113870551Y-56649276D02*
X113908646Y-56801657D01*
X113908646Y-56801657D02*
X113908646Y-56992133D01*
X113908646Y-56992133D02*
X113870551Y-57144514D01*
X113870551Y-57144514D02*
X113832456Y-57220704D01*
X113832456Y-57220704D02*
X113794361Y-57258800D01*
X113794361Y-57258800D02*
X113718170Y-57296895D01*
X113718170Y-57296895D02*
X113641980Y-57296895D01*
X113641980Y-57296895D02*
X113565789Y-57258800D01*
X113565789Y-57258800D02*
X113527694Y-57220704D01*
X113527694Y-57220704D02*
X113489599Y-57144514D01*
X113489599Y-57144514D02*
X113451503Y-56992133D01*
X113451503Y-56992133D02*
X113451503Y-56801657D01*
X113451503Y-56801657D02*
X113489599Y-56649276D01*
X113489599Y-56649276D02*
X113527694Y-56573085D01*
X113527694Y-56573085D02*
X113565789Y-56534990D01*
X113565789Y-56534990D02*
X113641980Y-56496895D01*
D11*
X91227976Y-73162295D02*
X91227976Y-73809914D01*
X91227976Y-73809914D02*
X91266071Y-73886104D01*
X91266071Y-73886104D02*
X91304166Y-73924200D01*
X91304166Y-73924200D02*
X91380357Y-73962295D01*
X91380357Y-73962295D02*
X91532738Y-73962295D01*
X91532738Y-73962295D02*
X91608928Y-73924200D01*
X91608928Y-73924200D02*
X91647023Y-73886104D01*
X91647023Y-73886104D02*
X91685119Y-73809914D01*
X91685119Y-73809914D02*
X91685119Y-73162295D01*
X92408928Y-73428961D02*
X92408928Y-73962295D01*
X92218452Y-73124200D02*
X92027975Y-73695628D01*
X92027975Y-73695628D02*
X92523214Y-73695628D01*
X133462295Y-63333332D02*
X133081342Y-63599999D01*
X133462295Y-63790475D02*
X132662295Y-63790475D01*
X132662295Y-63790475D02*
X132662295Y-63485713D01*
X132662295Y-63485713D02*
X132700390Y-63409523D01*
X132700390Y-63409523D02*
X132738485Y-63371428D01*
X132738485Y-63371428D02*
X132814676Y-63333332D01*
X132814676Y-63333332D02*
X132928961Y-63333332D01*
X132928961Y-63333332D02*
X133005152Y-63371428D01*
X133005152Y-63371428D02*
X133043247Y-63409523D01*
X133043247Y-63409523D02*
X133081342Y-63485713D01*
X133081342Y-63485713D02*
X133081342Y-63790475D01*
X132662295Y-63066666D02*
X132662295Y-62533332D01*
X132662295Y-62533332D02*
X133462295Y-62876190D01*
X122966666Y-56062295D02*
X122585714Y-56062295D01*
X122585714Y-56062295D02*
X122585714Y-55262295D01*
X123652380Y-56062295D02*
X123195237Y-56062295D01*
X123423809Y-56062295D02*
X123423809Y-55262295D01*
X123423809Y-55262295D02*
X123347618Y-55376580D01*
X123347618Y-55376580D02*
X123271428Y-55452771D01*
X123271428Y-55452771D02*
X123195237Y-55490866D01*
X100386104Y-58933332D02*
X100424200Y-58971428D01*
X100424200Y-58971428D02*
X100462295Y-59085713D01*
X100462295Y-59085713D02*
X100462295Y-59161904D01*
X100462295Y-59161904D02*
X100424200Y-59276190D01*
X100424200Y-59276190D02*
X100348009Y-59352380D01*
X100348009Y-59352380D02*
X100271819Y-59390475D01*
X100271819Y-59390475D02*
X100119438Y-59428571D01*
X100119438Y-59428571D02*
X100005152Y-59428571D01*
X100005152Y-59428571D02*
X99852771Y-59390475D01*
X99852771Y-59390475D02*
X99776580Y-59352380D01*
X99776580Y-59352380D02*
X99700390Y-59276190D01*
X99700390Y-59276190D02*
X99662295Y-59161904D01*
X99662295Y-59161904D02*
X99662295Y-59085713D01*
X99662295Y-59085713D02*
X99700390Y-58971428D01*
X99700390Y-58971428D02*
X99738485Y-58933332D01*
X99662295Y-58209523D02*
X99662295Y-58590475D01*
X99662295Y-58590475D02*
X100043247Y-58628571D01*
X100043247Y-58628571D02*
X100005152Y-58590475D01*
X100005152Y-58590475D02*
X99967057Y-58514285D01*
X99967057Y-58514285D02*
X99967057Y-58323809D01*
X99967057Y-58323809D02*
X100005152Y-58247618D01*
X100005152Y-58247618D02*
X100043247Y-58209523D01*
X100043247Y-58209523D02*
X100119438Y-58171428D01*
X100119438Y-58171428D02*
X100309914Y-58171428D01*
X100309914Y-58171428D02*
X100386104Y-58209523D01*
X100386104Y-58209523D02*
X100424200Y-58247618D01*
X100424200Y-58247618D02*
X100462295Y-58323809D01*
X100462295Y-58323809D02*
X100462295Y-58514285D01*
X100462295Y-58514285D02*
X100424200Y-58590475D01*
X100424200Y-58590475D02*
X100386104Y-58628571D01*
X109386104Y-58733332D02*
X109424200Y-58771428D01*
X109424200Y-58771428D02*
X109462295Y-58885713D01*
X109462295Y-58885713D02*
X109462295Y-58961904D01*
X109462295Y-58961904D02*
X109424200Y-59076190D01*
X109424200Y-59076190D02*
X109348009Y-59152380D01*
X109348009Y-59152380D02*
X109271819Y-59190475D01*
X109271819Y-59190475D02*
X109119438Y-59228571D01*
X109119438Y-59228571D02*
X109005152Y-59228571D01*
X109005152Y-59228571D02*
X108852771Y-59190475D01*
X108852771Y-59190475D02*
X108776580Y-59152380D01*
X108776580Y-59152380D02*
X108700390Y-59076190D01*
X108700390Y-59076190D02*
X108662295Y-58961904D01*
X108662295Y-58961904D02*
X108662295Y-58885713D01*
X108662295Y-58885713D02*
X108700390Y-58771428D01*
X108700390Y-58771428D02*
X108738485Y-58733332D01*
X108662295Y-58047618D02*
X108662295Y-58199999D01*
X108662295Y-58199999D02*
X108700390Y-58276190D01*
X108700390Y-58276190D02*
X108738485Y-58314285D01*
X108738485Y-58314285D02*
X108852771Y-58390475D01*
X108852771Y-58390475D02*
X109005152Y-58428571D01*
X109005152Y-58428571D02*
X109309914Y-58428571D01*
X109309914Y-58428571D02*
X109386104Y-58390475D01*
X109386104Y-58390475D02*
X109424200Y-58352380D01*
X109424200Y-58352380D02*
X109462295Y-58276190D01*
X109462295Y-58276190D02*
X109462295Y-58123809D01*
X109462295Y-58123809D02*
X109424200Y-58047618D01*
X109424200Y-58047618D02*
X109386104Y-58009523D01*
X109386104Y-58009523D02*
X109309914Y-57971428D01*
X109309914Y-57971428D02*
X109119438Y-57971428D01*
X109119438Y-57971428D02*
X109043247Y-58009523D01*
X109043247Y-58009523D02*
X109005152Y-58047618D01*
X109005152Y-58047618D02*
X108967057Y-58123809D01*
X108967057Y-58123809D02*
X108967057Y-58276190D01*
X108967057Y-58276190D02*
X109005152Y-58352380D01*
X109005152Y-58352380D02*
X109043247Y-58390475D01*
X109043247Y-58390475D02*
X109119438Y-58428571D01*
X122486104Y-70364285D02*
X122524200Y-70402381D01*
X122524200Y-70402381D02*
X122562295Y-70516666D01*
X122562295Y-70516666D02*
X122562295Y-70592857D01*
X122562295Y-70592857D02*
X122524200Y-70707143D01*
X122524200Y-70707143D02*
X122448009Y-70783333D01*
X122448009Y-70783333D02*
X122371819Y-70821428D01*
X122371819Y-70821428D02*
X122219438Y-70859524D01*
X122219438Y-70859524D02*
X122105152Y-70859524D01*
X122105152Y-70859524D02*
X121952771Y-70821428D01*
X121952771Y-70821428D02*
X121876580Y-70783333D01*
X121876580Y-70783333D02*
X121800390Y-70707143D01*
X121800390Y-70707143D02*
X121762295Y-70592857D01*
X121762295Y-70592857D02*
X121762295Y-70516666D01*
X121762295Y-70516666D02*
X121800390Y-70402381D01*
X121800390Y-70402381D02*
X121838485Y-70364285D01*
X121838485Y-70059524D02*
X121800390Y-70021428D01*
X121800390Y-70021428D02*
X121762295Y-69945238D01*
X121762295Y-69945238D02*
X121762295Y-69754762D01*
X121762295Y-69754762D02*
X121800390Y-69678571D01*
X121800390Y-69678571D02*
X121838485Y-69640476D01*
X121838485Y-69640476D02*
X121914676Y-69602381D01*
X121914676Y-69602381D02*
X121990866Y-69602381D01*
X121990866Y-69602381D02*
X122105152Y-69640476D01*
X122105152Y-69640476D02*
X122562295Y-70097619D01*
X122562295Y-70097619D02*
X122562295Y-69602381D01*
X122562295Y-69221428D02*
X122562295Y-69069047D01*
X122562295Y-69069047D02*
X122524200Y-68992857D01*
X122524200Y-68992857D02*
X122486104Y-68954761D01*
X122486104Y-68954761D02*
X122371819Y-68878571D01*
X122371819Y-68878571D02*
X122219438Y-68840476D01*
X122219438Y-68840476D02*
X121914676Y-68840476D01*
X121914676Y-68840476D02*
X121838485Y-68878571D01*
X121838485Y-68878571D02*
X121800390Y-68916666D01*
X121800390Y-68916666D02*
X121762295Y-68992857D01*
X121762295Y-68992857D02*
X121762295Y-69145238D01*
X121762295Y-69145238D02*
X121800390Y-69221428D01*
X121800390Y-69221428D02*
X121838485Y-69259523D01*
X121838485Y-69259523D02*
X121914676Y-69297619D01*
X121914676Y-69297619D02*
X122105152Y-69297619D01*
X122105152Y-69297619D02*
X122181342Y-69259523D01*
X122181342Y-69259523D02*
X122219438Y-69221428D01*
X122219438Y-69221428D02*
X122257533Y-69145238D01*
X122257533Y-69145238D02*
X122257533Y-68992857D01*
X122257533Y-68992857D02*
X122219438Y-68916666D01*
X122219438Y-68916666D02*
X122181342Y-68878571D01*
X122181342Y-68878571D02*
X122105152Y-68840476D01*
X86866667Y-54886104D02*
X86828571Y-54924200D01*
X86828571Y-54924200D02*
X86714286Y-54962295D01*
X86714286Y-54962295D02*
X86638095Y-54962295D01*
X86638095Y-54962295D02*
X86523809Y-54924200D01*
X86523809Y-54924200D02*
X86447619Y-54848009D01*
X86447619Y-54848009D02*
X86409524Y-54771819D01*
X86409524Y-54771819D02*
X86371428Y-54619438D01*
X86371428Y-54619438D02*
X86371428Y-54505152D01*
X86371428Y-54505152D02*
X86409524Y-54352771D01*
X86409524Y-54352771D02*
X86447619Y-54276580D01*
X86447619Y-54276580D02*
X86523809Y-54200390D01*
X86523809Y-54200390D02*
X86638095Y-54162295D01*
X86638095Y-54162295D02*
X86714286Y-54162295D01*
X86714286Y-54162295D02*
X86828571Y-54200390D01*
X86828571Y-54200390D02*
X86866667Y-54238485D01*
X87133333Y-54162295D02*
X87666667Y-54162295D01*
X87666667Y-54162295D02*
X87323809Y-54962295D01*
X87738485Y-66543689D02*
X87700390Y-66619879D01*
X87700390Y-66619879D02*
X87624200Y-66696070D01*
X87624200Y-66696070D02*
X87509914Y-66810356D01*
X87509914Y-66810356D02*
X87471819Y-66886546D01*
X87471819Y-66886546D02*
X87471819Y-66962737D01*
X87662295Y-66924641D02*
X87624200Y-67000832D01*
X87624200Y-67000832D02*
X87548009Y-67077022D01*
X87548009Y-67077022D02*
X87395628Y-67115118D01*
X87395628Y-67115118D02*
X87128961Y-67115118D01*
X87128961Y-67115118D02*
X86976580Y-67077022D01*
X86976580Y-67077022D02*
X86900390Y-67000832D01*
X86900390Y-67000832D02*
X86862295Y-66924641D01*
X86862295Y-66924641D02*
X86862295Y-66772260D01*
X86862295Y-66772260D02*
X86900390Y-66696070D01*
X86900390Y-66696070D02*
X86976580Y-66619879D01*
X86976580Y-66619879D02*
X87128961Y-66581784D01*
X87128961Y-66581784D02*
X87395628Y-66581784D01*
X87395628Y-66581784D02*
X87548009Y-66619879D01*
X87548009Y-66619879D02*
X87624200Y-66696070D01*
X87624200Y-66696070D02*
X87662295Y-66772260D01*
X87662295Y-66772260D02*
X87662295Y-66924641D01*
X87662295Y-65819880D02*
X87662295Y-66277023D01*
X87662295Y-66048451D02*
X86862295Y-66048451D01*
X86862295Y-66048451D02*
X86976580Y-66124642D01*
X86976580Y-66124642D02*
X87052771Y-66200832D01*
X87052771Y-66200832D02*
X87090866Y-66277023D01*
X106886104Y-58733332D02*
X106924200Y-58771428D01*
X106924200Y-58771428D02*
X106962295Y-58885713D01*
X106962295Y-58885713D02*
X106962295Y-58961904D01*
X106962295Y-58961904D02*
X106924200Y-59076190D01*
X106924200Y-59076190D02*
X106848009Y-59152380D01*
X106848009Y-59152380D02*
X106771819Y-59190475D01*
X106771819Y-59190475D02*
X106619438Y-59228571D01*
X106619438Y-59228571D02*
X106505152Y-59228571D01*
X106505152Y-59228571D02*
X106352771Y-59190475D01*
X106352771Y-59190475D02*
X106276580Y-59152380D01*
X106276580Y-59152380D02*
X106200390Y-59076190D01*
X106200390Y-59076190D02*
X106162295Y-58961904D01*
X106162295Y-58961904D02*
X106162295Y-58885713D01*
X106162295Y-58885713D02*
X106200390Y-58771428D01*
X106200390Y-58771428D02*
X106238485Y-58733332D01*
X106238485Y-58428571D02*
X106200390Y-58390475D01*
X106200390Y-58390475D02*
X106162295Y-58314285D01*
X106162295Y-58314285D02*
X106162295Y-58123809D01*
X106162295Y-58123809D02*
X106200390Y-58047618D01*
X106200390Y-58047618D02*
X106238485Y-58009523D01*
X106238485Y-58009523D02*
X106314676Y-57971428D01*
X106314676Y-57971428D02*
X106390866Y-57971428D01*
X106390866Y-57971428D02*
X106505152Y-58009523D01*
X106505152Y-58009523D02*
X106962295Y-58466666D01*
X106962295Y-58466666D02*
X106962295Y-57971428D01*
X133562295Y-68833332D02*
X133181342Y-69099999D01*
X133562295Y-69290475D02*
X132762295Y-69290475D01*
X132762295Y-69290475D02*
X132762295Y-68985713D01*
X132762295Y-68985713D02*
X132800390Y-68909523D01*
X132800390Y-68909523D02*
X132838485Y-68871428D01*
X132838485Y-68871428D02*
X132914676Y-68833332D01*
X132914676Y-68833332D02*
X133028961Y-68833332D01*
X133028961Y-68833332D02*
X133105152Y-68871428D01*
X133105152Y-68871428D02*
X133143247Y-68909523D01*
X133143247Y-68909523D02*
X133181342Y-68985713D01*
X133181342Y-68985713D02*
X133181342Y-69290475D01*
X132762295Y-68147618D02*
X132762295Y-68299999D01*
X132762295Y-68299999D02*
X132800390Y-68376190D01*
X132800390Y-68376190D02*
X132838485Y-68414285D01*
X132838485Y-68414285D02*
X132952771Y-68490475D01*
X132952771Y-68490475D02*
X133105152Y-68528571D01*
X133105152Y-68528571D02*
X133409914Y-68528571D01*
X133409914Y-68528571D02*
X133486104Y-68490475D01*
X133486104Y-68490475D02*
X133524200Y-68452380D01*
X133524200Y-68452380D02*
X133562295Y-68376190D01*
X133562295Y-68376190D02*
X133562295Y-68223809D01*
X133562295Y-68223809D02*
X133524200Y-68147618D01*
X133524200Y-68147618D02*
X133486104Y-68109523D01*
X133486104Y-68109523D02*
X133409914Y-68071428D01*
X133409914Y-68071428D02*
X133219438Y-68071428D01*
X133219438Y-68071428D02*
X133143247Y-68109523D01*
X133143247Y-68109523D02*
X133105152Y-68147618D01*
X133105152Y-68147618D02*
X133067057Y-68223809D01*
X133067057Y-68223809D02*
X133067057Y-68376190D01*
X133067057Y-68376190D02*
X133105152Y-68452380D01*
X133105152Y-68452380D02*
X133143247Y-68490475D01*
X133143247Y-68490475D02*
X133219438Y-68528571D01*
X87486104Y-73714285D02*
X87524200Y-73752381D01*
X87524200Y-73752381D02*
X87562295Y-73866666D01*
X87562295Y-73866666D02*
X87562295Y-73942857D01*
X87562295Y-73942857D02*
X87524200Y-74057143D01*
X87524200Y-74057143D02*
X87448009Y-74133333D01*
X87448009Y-74133333D02*
X87371819Y-74171428D01*
X87371819Y-74171428D02*
X87219438Y-74209524D01*
X87219438Y-74209524D02*
X87105152Y-74209524D01*
X87105152Y-74209524D02*
X86952771Y-74171428D01*
X86952771Y-74171428D02*
X86876580Y-74133333D01*
X86876580Y-74133333D02*
X86800390Y-74057143D01*
X86800390Y-74057143D02*
X86762295Y-73942857D01*
X86762295Y-73942857D02*
X86762295Y-73866666D01*
X86762295Y-73866666D02*
X86800390Y-73752381D01*
X86800390Y-73752381D02*
X86838485Y-73714285D01*
X86838485Y-73409524D02*
X86800390Y-73371428D01*
X86800390Y-73371428D02*
X86762295Y-73295238D01*
X86762295Y-73295238D02*
X86762295Y-73104762D01*
X86762295Y-73104762D02*
X86800390Y-73028571D01*
X86800390Y-73028571D02*
X86838485Y-72990476D01*
X86838485Y-72990476D02*
X86914676Y-72952381D01*
X86914676Y-72952381D02*
X86990866Y-72952381D01*
X86990866Y-72952381D02*
X87105152Y-72990476D01*
X87105152Y-72990476D02*
X87562295Y-73447619D01*
X87562295Y-73447619D02*
X87562295Y-72952381D01*
X86762295Y-72457142D02*
X86762295Y-72380952D01*
X86762295Y-72380952D02*
X86800390Y-72304761D01*
X86800390Y-72304761D02*
X86838485Y-72266666D01*
X86838485Y-72266666D02*
X86914676Y-72228571D01*
X86914676Y-72228571D02*
X87067057Y-72190476D01*
X87067057Y-72190476D02*
X87257533Y-72190476D01*
X87257533Y-72190476D02*
X87409914Y-72228571D01*
X87409914Y-72228571D02*
X87486104Y-72266666D01*
X87486104Y-72266666D02*
X87524200Y-72304761D01*
X87524200Y-72304761D02*
X87562295Y-72380952D01*
X87562295Y-72380952D02*
X87562295Y-72457142D01*
X87562295Y-72457142D02*
X87524200Y-72533333D01*
X87524200Y-72533333D02*
X87486104Y-72571428D01*
X87486104Y-72571428D02*
X87409914Y-72609523D01*
X87409914Y-72609523D02*
X87257533Y-72647619D01*
X87257533Y-72647619D02*
X87067057Y-72647619D01*
X87067057Y-72647619D02*
X86914676Y-72609523D01*
X86914676Y-72609523D02*
X86838485Y-72571428D01*
X86838485Y-72571428D02*
X86800390Y-72533333D01*
X86800390Y-72533333D02*
X86762295Y-72457142D01*
X105462295Y-74033332D02*
X105081342Y-74299999D01*
X105462295Y-74490475D02*
X104662295Y-74490475D01*
X104662295Y-74490475D02*
X104662295Y-74185713D01*
X104662295Y-74185713D02*
X104700390Y-74109523D01*
X104700390Y-74109523D02*
X104738485Y-74071428D01*
X104738485Y-74071428D02*
X104814676Y-74033332D01*
X104814676Y-74033332D02*
X104928961Y-74033332D01*
X104928961Y-74033332D02*
X105005152Y-74071428D01*
X105005152Y-74071428D02*
X105043247Y-74109523D01*
X105043247Y-74109523D02*
X105081342Y-74185713D01*
X105081342Y-74185713D02*
X105081342Y-74490475D01*
X104662295Y-73309523D02*
X104662295Y-73690475D01*
X104662295Y-73690475D02*
X105043247Y-73728571D01*
X105043247Y-73728571D02*
X105005152Y-73690475D01*
X105005152Y-73690475D02*
X104967057Y-73614285D01*
X104967057Y-73614285D02*
X104967057Y-73423809D01*
X104967057Y-73423809D02*
X105005152Y-73347618D01*
X105005152Y-73347618D02*
X105043247Y-73309523D01*
X105043247Y-73309523D02*
X105119438Y-73271428D01*
X105119438Y-73271428D02*
X105309914Y-73271428D01*
X105309914Y-73271428D02*
X105386104Y-73309523D01*
X105386104Y-73309523D02*
X105424200Y-73347618D01*
X105424200Y-73347618D02*
X105462295Y-73423809D01*
X105462295Y-73423809D02*
X105462295Y-73614285D01*
X105462295Y-73614285D02*
X105424200Y-73690475D01*
X105424200Y-73690475D02*
X105386104Y-73728571D01*
X137333333Y-71262295D02*
X137333333Y-71833723D01*
X137333333Y-71833723D02*
X137295238Y-71948009D01*
X137295238Y-71948009D02*
X137219047Y-72024200D01*
X137219047Y-72024200D02*
X137104762Y-72062295D01*
X137104762Y-72062295D02*
X137028571Y-72062295D01*
X137638095Y-71262295D02*
X138133333Y-71262295D01*
X138133333Y-71262295D02*
X137866667Y-71567057D01*
X137866667Y-71567057D02*
X137980952Y-71567057D01*
X137980952Y-71567057D02*
X138057143Y-71605152D01*
X138057143Y-71605152D02*
X138095238Y-71643247D01*
X138095238Y-71643247D02*
X138133333Y-71719438D01*
X138133333Y-71719438D02*
X138133333Y-71909914D01*
X138133333Y-71909914D02*
X138095238Y-71986104D01*
X138095238Y-71986104D02*
X138057143Y-72024200D01*
X138057143Y-72024200D02*
X137980952Y-72062295D01*
X137980952Y-72062295D02*
X137752381Y-72062295D01*
X137752381Y-72062295D02*
X137676190Y-72024200D01*
X137676190Y-72024200D02*
X137638095Y-71986104D01*
X106786104Y-74614285D02*
X106824200Y-74652381D01*
X106824200Y-74652381D02*
X106862295Y-74766666D01*
X106862295Y-74766666D02*
X106862295Y-74842857D01*
X106862295Y-74842857D02*
X106824200Y-74957143D01*
X106824200Y-74957143D02*
X106748009Y-75033333D01*
X106748009Y-75033333D02*
X106671819Y-75071428D01*
X106671819Y-75071428D02*
X106519438Y-75109524D01*
X106519438Y-75109524D02*
X106405152Y-75109524D01*
X106405152Y-75109524D02*
X106252771Y-75071428D01*
X106252771Y-75071428D02*
X106176580Y-75033333D01*
X106176580Y-75033333D02*
X106100390Y-74957143D01*
X106100390Y-74957143D02*
X106062295Y-74842857D01*
X106062295Y-74842857D02*
X106062295Y-74766666D01*
X106062295Y-74766666D02*
X106100390Y-74652381D01*
X106100390Y-74652381D02*
X106138485Y-74614285D01*
X106862295Y-73852381D02*
X106862295Y-74309524D01*
X106862295Y-74080952D02*
X106062295Y-74080952D01*
X106062295Y-74080952D02*
X106176580Y-74157143D01*
X106176580Y-74157143D02*
X106252771Y-74233333D01*
X106252771Y-74233333D02*
X106290866Y-74309524D01*
X106405152Y-73395238D02*
X106367057Y-73471428D01*
X106367057Y-73471428D02*
X106328961Y-73509523D01*
X106328961Y-73509523D02*
X106252771Y-73547619D01*
X106252771Y-73547619D02*
X106214676Y-73547619D01*
X106214676Y-73547619D02*
X106138485Y-73509523D01*
X106138485Y-73509523D02*
X106100390Y-73471428D01*
X106100390Y-73471428D02*
X106062295Y-73395238D01*
X106062295Y-73395238D02*
X106062295Y-73242857D01*
X106062295Y-73242857D02*
X106100390Y-73166666D01*
X106100390Y-73166666D02*
X106138485Y-73128571D01*
X106138485Y-73128571D02*
X106214676Y-73090476D01*
X106214676Y-73090476D02*
X106252771Y-73090476D01*
X106252771Y-73090476D02*
X106328961Y-73128571D01*
X106328961Y-73128571D02*
X106367057Y-73166666D01*
X106367057Y-73166666D02*
X106405152Y-73242857D01*
X106405152Y-73242857D02*
X106405152Y-73395238D01*
X106405152Y-73395238D02*
X106443247Y-73471428D01*
X106443247Y-73471428D02*
X106481342Y-73509523D01*
X106481342Y-73509523D02*
X106557533Y-73547619D01*
X106557533Y-73547619D02*
X106709914Y-73547619D01*
X106709914Y-73547619D02*
X106786104Y-73509523D01*
X106786104Y-73509523D02*
X106824200Y-73471428D01*
X106824200Y-73471428D02*
X106862295Y-73395238D01*
X106862295Y-73395238D02*
X106862295Y-73242857D01*
X106862295Y-73242857D02*
X106824200Y-73166666D01*
X106824200Y-73166666D02*
X106786104Y-73128571D01*
X106786104Y-73128571D02*
X106709914Y-73090476D01*
X106709914Y-73090476D02*
X106557533Y-73090476D01*
X106557533Y-73090476D02*
X106481342Y-73128571D01*
X106481342Y-73128571D02*
X106443247Y-73166666D01*
X106443247Y-73166666D02*
X106405152Y-73242857D01*
X100286104Y-74614285D02*
X100324200Y-74652381D01*
X100324200Y-74652381D02*
X100362295Y-74766666D01*
X100362295Y-74766666D02*
X100362295Y-74842857D01*
X100362295Y-74842857D02*
X100324200Y-74957143D01*
X100324200Y-74957143D02*
X100248009Y-75033333D01*
X100248009Y-75033333D02*
X100171819Y-75071428D01*
X100171819Y-75071428D02*
X100019438Y-75109524D01*
X100019438Y-75109524D02*
X99905152Y-75109524D01*
X99905152Y-75109524D02*
X99752771Y-75071428D01*
X99752771Y-75071428D02*
X99676580Y-75033333D01*
X99676580Y-75033333D02*
X99600390Y-74957143D01*
X99600390Y-74957143D02*
X99562295Y-74842857D01*
X99562295Y-74842857D02*
X99562295Y-74766666D01*
X99562295Y-74766666D02*
X99600390Y-74652381D01*
X99600390Y-74652381D02*
X99638485Y-74614285D01*
X100362295Y-73852381D02*
X100362295Y-74309524D01*
X100362295Y-74080952D02*
X99562295Y-74080952D01*
X99562295Y-74080952D02*
X99676580Y-74157143D01*
X99676580Y-74157143D02*
X99752771Y-74233333D01*
X99752771Y-74233333D02*
X99790866Y-74309524D01*
X99562295Y-73128571D02*
X99562295Y-73509523D01*
X99562295Y-73509523D02*
X99943247Y-73547619D01*
X99943247Y-73547619D02*
X99905152Y-73509523D01*
X99905152Y-73509523D02*
X99867057Y-73433333D01*
X99867057Y-73433333D02*
X99867057Y-73242857D01*
X99867057Y-73242857D02*
X99905152Y-73166666D01*
X99905152Y-73166666D02*
X99943247Y-73128571D01*
X99943247Y-73128571D02*
X100019438Y-73090476D01*
X100019438Y-73090476D02*
X100209914Y-73090476D01*
X100209914Y-73090476D02*
X100286104Y-73128571D01*
X100286104Y-73128571D02*
X100324200Y-73166666D01*
X100324200Y-73166666D02*
X100362295Y-73242857D01*
X100362295Y-73242857D02*
X100362295Y-73433333D01*
X100362295Y-73433333D02*
X100324200Y-73509523D01*
X100324200Y-73509523D02*
X100286104Y-73547619D01*
X108186104Y-74714285D02*
X108224200Y-74752381D01*
X108224200Y-74752381D02*
X108262295Y-74866666D01*
X108262295Y-74866666D02*
X108262295Y-74942857D01*
X108262295Y-74942857D02*
X108224200Y-75057143D01*
X108224200Y-75057143D02*
X108148009Y-75133333D01*
X108148009Y-75133333D02*
X108071819Y-75171428D01*
X108071819Y-75171428D02*
X107919438Y-75209524D01*
X107919438Y-75209524D02*
X107805152Y-75209524D01*
X107805152Y-75209524D02*
X107652771Y-75171428D01*
X107652771Y-75171428D02*
X107576580Y-75133333D01*
X107576580Y-75133333D02*
X107500390Y-75057143D01*
X107500390Y-75057143D02*
X107462295Y-74942857D01*
X107462295Y-74942857D02*
X107462295Y-74866666D01*
X107462295Y-74866666D02*
X107500390Y-74752381D01*
X107500390Y-74752381D02*
X107538485Y-74714285D01*
X108262295Y-73952381D02*
X108262295Y-74409524D01*
X108262295Y-74180952D02*
X107462295Y-74180952D01*
X107462295Y-74180952D02*
X107576580Y-74257143D01*
X107576580Y-74257143D02*
X107652771Y-74333333D01*
X107652771Y-74333333D02*
X107690866Y-74409524D01*
X107462295Y-73685714D02*
X107462295Y-73152380D01*
X107462295Y-73152380D02*
X108262295Y-73495238D01*
X91166667Y-76462295D02*
X90900000Y-76081342D01*
X90709524Y-76462295D02*
X90709524Y-75662295D01*
X90709524Y-75662295D02*
X91014286Y-75662295D01*
X91014286Y-75662295D02*
X91090476Y-75700390D01*
X91090476Y-75700390D02*
X91128571Y-75738485D01*
X91128571Y-75738485D02*
X91166667Y-75814676D01*
X91166667Y-75814676D02*
X91166667Y-75928961D01*
X91166667Y-75928961D02*
X91128571Y-76005152D01*
X91128571Y-76005152D02*
X91090476Y-76043247D01*
X91090476Y-76043247D02*
X91014286Y-76081342D01*
X91014286Y-76081342D02*
X90709524Y-76081342D01*
X91623809Y-76005152D02*
X91547619Y-75967057D01*
X91547619Y-75967057D02*
X91509524Y-75928961D01*
X91509524Y-75928961D02*
X91471428Y-75852771D01*
X91471428Y-75852771D02*
X91471428Y-75814676D01*
X91471428Y-75814676D02*
X91509524Y-75738485D01*
X91509524Y-75738485D02*
X91547619Y-75700390D01*
X91547619Y-75700390D02*
X91623809Y-75662295D01*
X91623809Y-75662295D02*
X91776190Y-75662295D01*
X91776190Y-75662295D02*
X91852381Y-75700390D01*
X91852381Y-75700390D02*
X91890476Y-75738485D01*
X91890476Y-75738485D02*
X91928571Y-75814676D01*
X91928571Y-75814676D02*
X91928571Y-75852771D01*
X91928571Y-75852771D02*
X91890476Y-75928961D01*
X91890476Y-75928961D02*
X91852381Y-75967057D01*
X91852381Y-75967057D02*
X91776190Y-76005152D01*
X91776190Y-76005152D02*
X91623809Y-76005152D01*
X91623809Y-76005152D02*
X91547619Y-76043247D01*
X91547619Y-76043247D02*
X91509524Y-76081342D01*
X91509524Y-76081342D02*
X91471428Y-76157533D01*
X91471428Y-76157533D02*
X91471428Y-76309914D01*
X91471428Y-76309914D02*
X91509524Y-76386104D01*
X91509524Y-76386104D02*
X91547619Y-76424200D01*
X91547619Y-76424200D02*
X91623809Y-76462295D01*
X91623809Y-76462295D02*
X91776190Y-76462295D01*
X91776190Y-76462295D02*
X91852381Y-76424200D01*
X91852381Y-76424200D02*
X91890476Y-76386104D01*
X91890476Y-76386104D02*
X91928571Y-76309914D01*
X91928571Y-76309914D02*
X91928571Y-76157533D01*
X91928571Y-76157533D02*
X91890476Y-76081342D01*
X91890476Y-76081342D02*
X91852381Y-76043247D01*
X91852381Y-76043247D02*
X91776190Y-76005152D01*
X108186104Y-58733332D02*
X108224200Y-58771428D01*
X108224200Y-58771428D02*
X108262295Y-58885713D01*
X108262295Y-58885713D02*
X108262295Y-58961904D01*
X108262295Y-58961904D02*
X108224200Y-59076190D01*
X108224200Y-59076190D02*
X108148009Y-59152380D01*
X108148009Y-59152380D02*
X108071819Y-59190475D01*
X108071819Y-59190475D02*
X107919438Y-59228571D01*
X107919438Y-59228571D02*
X107805152Y-59228571D01*
X107805152Y-59228571D02*
X107652771Y-59190475D01*
X107652771Y-59190475D02*
X107576580Y-59152380D01*
X107576580Y-59152380D02*
X107500390Y-59076190D01*
X107500390Y-59076190D02*
X107462295Y-58961904D01*
X107462295Y-58961904D02*
X107462295Y-58885713D01*
X107462295Y-58885713D02*
X107500390Y-58771428D01*
X107500390Y-58771428D02*
X107538485Y-58733332D01*
X107462295Y-58466666D02*
X107462295Y-57971428D01*
X107462295Y-57971428D02*
X107767057Y-58238094D01*
X107767057Y-58238094D02*
X107767057Y-58123809D01*
X107767057Y-58123809D02*
X107805152Y-58047618D01*
X107805152Y-58047618D02*
X107843247Y-58009523D01*
X107843247Y-58009523D02*
X107919438Y-57971428D01*
X107919438Y-57971428D02*
X108109914Y-57971428D01*
X108109914Y-57971428D02*
X108186104Y-58009523D01*
X108186104Y-58009523D02*
X108224200Y-58047618D01*
X108224200Y-58047618D02*
X108262295Y-58123809D01*
X108262295Y-58123809D02*
X108262295Y-58352380D01*
X108262295Y-58352380D02*
X108224200Y-58428571D01*
X108224200Y-58428571D02*
X108186104Y-58466666D01*
X131186104Y-64214285D02*
X131224200Y-64252381D01*
X131224200Y-64252381D02*
X131262295Y-64366666D01*
X131262295Y-64366666D02*
X131262295Y-64442857D01*
X131262295Y-64442857D02*
X131224200Y-64557143D01*
X131224200Y-64557143D02*
X131148009Y-64633333D01*
X131148009Y-64633333D02*
X131071819Y-64671428D01*
X131071819Y-64671428D02*
X130919438Y-64709524D01*
X130919438Y-64709524D02*
X130805152Y-64709524D01*
X130805152Y-64709524D02*
X130652771Y-64671428D01*
X130652771Y-64671428D02*
X130576580Y-64633333D01*
X130576580Y-64633333D02*
X130500390Y-64557143D01*
X130500390Y-64557143D02*
X130462295Y-64442857D01*
X130462295Y-64442857D02*
X130462295Y-64366666D01*
X130462295Y-64366666D02*
X130500390Y-64252381D01*
X130500390Y-64252381D02*
X130538485Y-64214285D01*
X130538485Y-63909524D02*
X130500390Y-63871428D01*
X130500390Y-63871428D02*
X130462295Y-63795238D01*
X130462295Y-63795238D02*
X130462295Y-63604762D01*
X130462295Y-63604762D02*
X130500390Y-63528571D01*
X130500390Y-63528571D02*
X130538485Y-63490476D01*
X130538485Y-63490476D02*
X130614676Y-63452381D01*
X130614676Y-63452381D02*
X130690866Y-63452381D01*
X130690866Y-63452381D02*
X130805152Y-63490476D01*
X130805152Y-63490476D02*
X131262295Y-63947619D01*
X131262295Y-63947619D02*
X131262295Y-63452381D01*
X130462295Y-62766666D02*
X130462295Y-62919047D01*
X130462295Y-62919047D02*
X130500390Y-62995238D01*
X130500390Y-62995238D02*
X130538485Y-63033333D01*
X130538485Y-63033333D02*
X130652771Y-63109523D01*
X130652771Y-63109523D02*
X130805152Y-63147619D01*
X130805152Y-63147619D02*
X131109914Y-63147619D01*
X131109914Y-63147619D02*
X131186104Y-63109523D01*
X131186104Y-63109523D02*
X131224200Y-63071428D01*
X131224200Y-63071428D02*
X131262295Y-62995238D01*
X131262295Y-62995238D02*
X131262295Y-62842857D01*
X131262295Y-62842857D02*
X131224200Y-62766666D01*
X131224200Y-62766666D02*
X131186104Y-62728571D01*
X131186104Y-62728571D02*
X131109914Y-62690476D01*
X131109914Y-62690476D02*
X130919438Y-62690476D01*
X130919438Y-62690476D02*
X130843247Y-62728571D01*
X130843247Y-62728571D02*
X130805152Y-62766666D01*
X130805152Y-62766666D02*
X130767057Y-62842857D01*
X130767057Y-62842857D02*
X130767057Y-62995238D01*
X130767057Y-62995238D02*
X130805152Y-63071428D01*
X130805152Y-63071428D02*
X130843247Y-63109523D01*
X130843247Y-63109523D02*
X130919438Y-63147619D01*
X88390476Y-63762295D02*
X88390476Y-64409914D01*
X88390476Y-64409914D02*
X88428571Y-64486104D01*
X88428571Y-64486104D02*
X88466666Y-64524200D01*
X88466666Y-64524200D02*
X88542857Y-64562295D01*
X88542857Y-64562295D02*
X88695238Y-64562295D01*
X88695238Y-64562295D02*
X88771428Y-64524200D01*
X88771428Y-64524200D02*
X88809523Y-64486104D01*
X88809523Y-64486104D02*
X88847619Y-64409914D01*
X88847619Y-64409914D02*
X88847619Y-63762295D01*
X89190475Y-63838485D02*
X89228571Y-63800390D01*
X89228571Y-63800390D02*
X89304761Y-63762295D01*
X89304761Y-63762295D02*
X89495237Y-63762295D01*
X89495237Y-63762295D02*
X89571428Y-63800390D01*
X89571428Y-63800390D02*
X89609523Y-63838485D01*
X89609523Y-63838485D02*
X89647618Y-63914676D01*
X89647618Y-63914676D02*
X89647618Y-63990866D01*
X89647618Y-63990866D02*
X89609523Y-64105152D01*
X89609523Y-64105152D02*
X89152380Y-64562295D01*
X89152380Y-64562295D02*
X89647618Y-64562295D01*
X129686104Y-64314285D02*
X129724200Y-64352381D01*
X129724200Y-64352381D02*
X129762295Y-64466666D01*
X129762295Y-64466666D02*
X129762295Y-64542857D01*
X129762295Y-64542857D02*
X129724200Y-64657143D01*
X129724200Y-64657143D02*
X129648009Y-64733333D01*
X129648009Y-64733333D02*
X129571819Y-64771428D01*
X129571819Y-64771428D02*
X129419438Y-64809524D01*
X129419438Y-64809524D02*
X129305152Y-64809524D01*
X129305152Y-64809524D02*
X129152771Y-64771428D01*
X129152771Y-64771428D02*
X129076580Y-64733333D01*
X129076580Y-64733333D02*
X129000390Y-64657143D01*
X129000390Y-64657143D02*
X128962295Y-64542857D01*
X128962295Y-64542857D02*
X128962295Y-64466666D01*
X128962295Y-64466666D02*
X129000390Y-64352381D01*
X129000390Y-64352381D02*
X129038485Y-64314285D01*
X129762295Y-63552381D02*
X129762295Y-64009524D01*
X129762295Y-63780952D02*
X128962295Y-63780952D01*
X128962295Y-63780952D02*
X129076580Y-63857143D01*
X129076580Y-63857143D02*
X129152771Y-63933333D01*
X129152771Y-63933333D02*
X129190866Y-64009524D01*
X129762295Y-62790476D02*
X129762295Y-63247619D01*
X129762295Y-63019047D02*
X128962295Y-63019047D01*
X128962295Y-63019047D02*
X129076580Y-63095238D01*
X129076580Y-63095238D02*
X129152771Y-63171428D01*
X129152771Y-63171428D02*
X129190866Y-63247619D01*
X120886104Y-70314285D02*
X120924200Y-70352381D01*
X120924200Y-70352381D02*
X120962295Y-70466666D01*
X120962295Y-70466666D02*
X120962295Y-70542857D01*
X120962295Y-70542857D02*
X120924200Y-70657143D01*
X120924200Y-70657143D02*
X120848009Y-70733333D01*
X120848009Y-70733333D02*
X120771819Y-70771428D01*
X120771819Y-70771428D02*
X120619438Y-70809524D01*
X120619438Y-70809524D02*
X120505152Y-70809524D01*
X120505152Y-70809524D02*
X120352771Y-70771428D01*
X120352771Y-70771428D02*
X120276580Y-70733333D01*
X120276580Y-70733333D02*
X120200390Y-70657143D01*
X120200390Y-70657143D02*
X120162295Y-70542857D01*
X120162295Y-70542857D02*
X120162295Y-70466666D01*
X120162295Y-70466666D02*
X120200390Y-70352381D01*
X120200390Y-70352381D02*
X120238485Y-70314285D01*
X120162295Y-70047619D02*
X120162295Y-69552381D01*
X120162295Y-69552381D02*
X120467057Y-69819047D01*
X120467057Y-69819047D02*
X120467057Y-69704762D01*
X120467057Y-69704762D02*
X120505152Y-69628571D01*
X120505152Y-69628571D02*
X120543247Y-69590476D01*
X120543247Y-69590476D02*
X120619438Y-69552381D01*
X120619438Y-69552381D02*
X120809914Y-69552381D01*
X120809914Y-69552381D02*
X120886104Y-69590476D01*
X120886104Y-69590476D02*
X120924200Y-69628571D01*
X120924200Y-69628571D02*
X120962295Y-69704762D01*
X120962295Y-69704762D02*
X120962295Y-69933333D01*
X120962295Y-69933333D02*
X120924200Y-70009524D01*
X120924200Y-70009524D02*
X120886104Y-70047619D01*
X120162295Y-69057142D02*
X120162295Y-68980952D01*
X120162295Y-68980952D02*
X120200390Y-68904761D01*
X120200390Y-68904761D02*
X120238485Y-68866666D01*
X120238485Y-68866666D02*
X120314676Y-68828571D01*
X120314676Y-68828571D02*
X120467057Y-68790476D01*
X120467057Y-68790476D02*
X120657533Y-68790476D01*
X120657533Y-68790476D02*
X120809914Y-68828571D01*
X120809914Y-68828571D02*
X120886104Y-68866666D01*
X120886104Y-68866666D02*
X120924200Y-68904761D01*
X120924200Y-68904761D02*
X120962295Y-68980952D01*
X120962295Y-68980952D02*
X120962295Y-69057142D01*
X120962295Y-69057142D02*
X120924200Y-69133333D01*
X120924200Y-69133333D02*
X120886104Y-69171428D01*
X120886104Y-69171428D02*
X120809914Y-69209523D01*
X120809914Y-69209523D02*
X120657533Y-69247619D01*
X120657533Y-69247619D02*
X120467057Y-69247619D01*
X120467057Y-69247619D02*
X120314676Y-69209523D01*
X120314676Y-69209523D02*
X120238485Y-69171428D01*
X120238485Y-69171428D02*
X120200390Y-69133333D01*
X120200390Y-69133333D02*
X120162295Y-69057142D01*
X93366667Y-67786104D02*
X93328571Y-67824200D01*
X93328571Y-67824200D02*
X93214286Y-67862295D01*
X93214286Y-67862295D02*
X93138095Y-67862295D01*
X93138095Y-67862295D02*
X93023809Y-67824200D01*
X93023809Y-67824200D02*
X92947619Y-67748009D01*
X92947619Y-67748009D02*
X92909524Y-67671819D01*
X92909524Y-67671819D02*
X92871428Y-67519438D01*
X92871428Y-67519438D02*
X92871428Y-67405152D01*
X92871428Y-67405152D02*
X92909524Y-67252771D01*
X92909524Y-67252771D02*
X92947619Y-67176580D01*
X92947619Y-67176580D02*
X93023809Y-67100390D01*
X93023809Y-67100390D02*
X93138095Y-67062295D01*
X93138095Y-67062295D02*
X93214286Y-67062295D01*
X93214286Y-67062295D02*
X93328571Y-67100390D01*
X93328571Y-67100390D02*
X93366667Y-67138485D01*
X94128571Y-67862295D02*
X93671428Y-67862295D01*
X93900000Y-67862295D02*
X93900000Y-67062295D01*
X93900000Y-67062295D02*
X93823809Y-67176580D01*
X93823809Y-67176580D02*
X93747619Y-67252771D01*
X93747619Y-67252771D02*
X93671428Y-67290866D01*
X116285714Y-63886104D02*
X116247618Y-63924200D01*
X116247618Y-63924200D02*
X116133333Y-63962295D01*
X116133333Y-63962295D02*
X116057142Y-63962295D01*
X116057142Y-63962295D02*
X115942856Y-63924200D01*
X115942856Y-63924200D02*
X115866666Y-63848009D01*
X115866666Y-63848009D02*
X115828571Y-63771819D01*
X115828571Y-63771819D02*
X115790475Y-63619438D01*
X115790475Y-63619438D02*
X115790475Y-63505152D01*
X115790475Y-63505152D02*
X115828571Y-63352771D01*
X115828571Y-63352771D02*
X115866666Y-63276580D01*
X115866666Y-63276580D02*
X115942856Y-63200390D01*
X115942856Y-63200390D02*
X116057142Y-63162295D01*
X116057142Y-63162295D02*
X116133333Y-63162295D01*
X116133333Y-63162295D02*
X116247618Y-63200390D01*
X116247618Y-63200390D02*
X116285714Y-63238485D01*
X117047618Y-63962295D02*
X116590475Y-63962295D01*
X116819047Y-63962295D02*
X116819047Y-63162295D01*
X116819047Y-63162295D02*
X116742856Y-63276580D01*
X116742856Y-63276580D02*
X116666666Y-63352771D01*
X116666666Y-63352771D02*
X116590475Y-63390866D01*
X117314285Y-63162295D02*
X117809523Y-63162295D01*
X117809523Y-63162295D02*
X117542857Y-63467057D01*
X117542857Y-63467057D02*
X117657142Y-63467057D01*
X117657142Y-63467057D02*
X117733333Y-63505152D01*
X117733333Y-63505152D02*
X117771428Y-63543247D01*
X117771428Y-63543247D02*
X117809523Y-63619438D01*
X117809523Y-63619438D02*
X117809523Y-63809914D01*
X117809523Y-63809914D02*
X117771428Y-63886104D01*
X117771428Y-63886104D02*
X117733333Y-63924200D01*
X117733333Y-63924200D02*
X117657142Y-63962295D01*
X117657142Y-63962295D02*
X117428571Y-63962295D01*
X117428571Y-63962295D02*
X117352380Y-63924200D01*
X117352380Y-63924200D02*
X117314285Y-63886104D01*
X93686104Y-71914285D02*
X93724200Y-71952381D01*
X93724200Y-71952381D02*
X93762295Y-72066666D01*
X93762295Y-72066666D02*
X93762295Y-72142857D01*
X93762295Y-72142857D02*
X93724200Y-72257143D01*
X93724200Y-72257143D02*
X93648009Y-72333333D01*
X93648009Y-72333333D02*
X93571819Y-72371428D01*
X93571819Y-72371428D02*
X93419438Y-72409524D01*
X93419438Y-72409524D02*
X93305152Y-72409524D01*
X93305152Y-72409524D02*
X93152771Y-72371428D01*
X93152771Y-72371428D02*
X93076580Y-72333333D01*
X93076580Y-72333333D02*
X93000390Y-72257143D01*
X93000390Y-72257143D02*
X92962295Y-72142857D01*
X92962295Y-72142857D02*
X92962295Y-72066666D01*
X92962295Y-72066666D02*
X93000390Y-71952381D01*
X93000390Y-71952381D02*
X93038485Y-71914285D01*
X93038485Y-71609524D02*
X93000390Y-71571428D01*
X93000390Y-71571428D02*
X92962295Y-71495238D01*
X92962295Y-71495238D02*
X92962295Y-71304762D01*
X92962295Y-71304762D02*
X93000390Y-71228571D01*
X93000390Y-71228571D02*
X93038485Y-71190476D01*
X93038485Y-71190476D02*
X93114676Y-71152381D01*
X93114676Y-71152381D02*
X93190866Y-71152381D01*
X93190866Y-71152381D02*
X93305152Y-71190476D01*
X93305152Y-71190476D02*
X93762295Y-71647619D01*
X93762295Y-71647619D02*
X93762295Y-71152381D01*
X93762295Y-70390476D02*
X93762295Y-70847619D01*
X93762295Y-70619047D02*
X92962295Y-70619047D01*
X92962295Y-70619047D02*
X93076580Y-70695238D01*
X93076580Y-70695238D02*
X93152771Y-70771428D01*
X93152771Y-70771428D02*
X93190866Y-70847619D01*
X85066667Y-61436504D02*
X85028571Y-61474600D01*
X85028571Y-61474600D02*
X84914286Y-61512695D01*
X84914286Y-61512695D02*
X84838095Y-61512695D01*
X84838095Y-61512695D02*
X84723809Y-61474600D01*
X84723809Y-61474600D02*
X84647619Y-61398409D01*
X84647619Y-61398409D02*
X84609524Y-61322219D01*
X84609524Y-61322219D02*
X84571428Y-61169838D01*
X84571428Y-61169838D02*
X84571428Y-61055552D01*
X84571428Y-61055552D02*
X84609524Y-60903171D01*
X84609524Y-60903171D02*
X84647619Y-60826980D01*
X84647619Y-60826980D02*
X84723809Y-60750790D01*
X84723809Y-60750790D02*
X84838095Y-60712695D01*
X84838095Y-60712695D02*
X84914286Y-60712695D01*
X84914286Y-60712695D02*
X85028571Y-60750790D01*
X85028571Y-60750790D02*
X85066667Y-60788885D01*
X85447619Y-61512695D02*
X85600000Y-61512695D01*
X85600000Y-61512695D02*
X85676190Y-61474600D01*
X85676190Y-61474600D02*
X85714286Y-61436504D01*
X85714286Y-61436504D02*
X85790476Y-61322219D01*
X85790476Y-61322219D02*
X85828571Y-61169838D01*
X85828571Y-61169838D02*
X85828571Y-60865076D01*
X85828571Y-60865076D02*
X85790476Y-60788885D01*
X85790476Y-60788885D02*
X85752381Y-60750790D01*
X85752381Y-60750790D02*
X85676190Y-60712695D01*
X85676190Y-60712695D02*
X85523809Y-60712695D01*
X85523809Y-60712695D02*
X85447619Y-60750790D01*
X85447619Y-60750790D02*
X85409524Y-60788885D01*
X85409524Y-60788885D02*
X85371428Y-60865076D01*
X85371428Y-60865076D02*
X85371428Y-61055552D01*
X85371428Y-61055552D02*
X85409524Y-61131742D01*
X85409524Y-61131742D02*
X85447619Y-61169838D01*
X85447619Y-61169838D02*
X85523809Y-61207933D01*
X85523809Y-61207933D02*
X85676190Y-61207933D01*
X85676190Y-61207933D02*
X85752381Y-61169838D01*
X85752381Y-61169838D02*
X85790476Y-61131742D01*
X85790476Y-61131742D02*
X85828571Y-61055552D01*
X101586104Y-58933332D02*
X101624200Y-58971428D01*
X101624200Y-58971428D02*
X101662295Y-59085713D01*
X101662295Y-59085713D02*
X101662295Y-59161904D01*
X101662295Y-59161904D02*
X101624200Y-59276190D01*
X101624200Y-59276190D02*
X101548009Y-59352380D01*
X101548009Y-59352380D02*
X101471819Y-59390475D01*
X101471819Y-59390475D02*
X101319438Y-59428571D01*
X101319438Y-59428571D02*
X101205152Y-59428571D01*
X101205152Y-59428571D02*
X101052771Y-59390475D01*
X101052771Y-59390475D02*
X100976580Y-59352380D01*
X100976580Y-59352380D02*
X100900390Y-59276190D01*
X100900390Y-59276190D02*
X100862295Y-59161904D01*
X100862295Y-59161904D02*
X100862295Y-59085713D01*
X100862295Y-59085713D02*
X100900390Y-58971428D01*
X100900390Y-58971428D02*
X100938485Y-58933332D01*
X101128961Y-58247618D02*
X101662295Y-58247618D01*
X100824200Y-58438094D02*
X101395628Y-58628571D01*
X101395628Y-58628571D02*
X101395628Y-58133332D01*
X85766667Y-66362295D02*
X85500000Y-65981342D01*
X85309524Y-66362295D02*
X85309524Y-65562295D01*
X85309524Y-65562295D02*
X85614286Y-65562295D01*
X85614286Y-65562295D02*
X85690476Y-65600390D01*
X85690476Y-65600390D02*
X85728571Y-65638485D01*
X85728571Y-65638485D02*
X85766667Y-65714676D01*
X85766667Y-65714676D02*
X85766667Y-65828961D01*
X85766667Y-65828961D02*
X85728571Y-65905152D01*
X85728571Y-65905152D02*
X85690476Y-65943247D01*
X85690476Y-65943247D02*
X85614286Y-65981342D01*
X85614286Y-65981342D02*
X85309524Y-65981342D01*
X86528571Y-66362295D02*
X86071428Y-66362295D01*
X86300000Y-66362295D02*
X86300000Y-65562295D01*
X86300000Y-65562295D02*
X86223809Y-65676580D01*
X86223809Y-65676580D02*
X86147619Y-65752771D01*
X86147619Y-65752771D02*
X86071428Y-65790866D01*
X124075714Y-69962295D02*
X123809047Y-69581342D01*
X123618571Y-69962295D02*
X123618571Y-69162295D01*
X123618571Y-69162295D02*
X123923333Y-69162295D01*
X123923333Y-69162295D02*
X123999523Y-69200390D01*
X123999523Y-69200390D02*
X124037618Y-69238485D01*
X124037618Y-69238485D02*
X124075714Y-69314676D01*
X124075714Y-69314676D02*
X124075714Y-69428961D01*
X124075714Y-69428961D02*
X124037618Y-69505152D01*
X124037618Y-69505152D02*
X123999523Y-69543247D01*
X123999523Y-69543247D02*
X123923333Y-69581342D01*
X123923333Y-69581342D02*
X123618571Y-69581342D01*
X124837618Y-69962295D02*
X124380475Y-69962295D01*
X124609047Y-69962295D02*
X124609047Y-69162295D01*
X124609047Y-69162295D02*
X124532856Y-69276580D01*
X124532856Y-69276580D02*
X124456666Y-69352771D01*
X124456666Y-69352771D02*
X124380475Y-69390866D01*
X125142380Y-69238485D02*
X125180476Y-69200390D01*
X125180476Y-69200390D02*
X125256666Y-69162295D01*
X125256666Y-69162295D02*
X125447142Y-69162295D01*
X125447142Y-69162295D02*
X125523333Y-69200390D01*
X125523333Y-69200390D02*
X125561428Y-69238485D01*
X125561428Y-69238485D02*
X125599523Y-69314676D01*
X125599523Y-69314676D02*
X125599523Y-69390866D01*
X125599523Y-69390866D02*
X125561428Y-69505152D01*
X125561428Y-69505152D02*
X125104285Y-69962295D01*
X125104285Y-69962295D02*
X125599523Y-69962295D01*
X109594295Y-68151064D02*
X108794295Y-68151064D01*
X109518104Y-67312969D02*
X109556200Y-67351065D01*
X109556200Y-67351065D02*
X109594295Y-67465350D01*
X109594295Y-67465350D02*
X109594295Y-67541541D01*
X109594295Y-67541541D02*
X109556200Y-67655827D01*
X109556200Y-67655827D02*
X109480009Y-67732017D01*
X109480009Y-67732017D02*
X109403819Y-67770112D01*
X109403819Y-67770112D02*
X109251438Y-67808208D01*
X109251438Y-67808208D02*
X109137152Y-67808208D01*
X109137152Y-67808208D02*
X108984771Y-67770112D01*
X108984771Y-67770112D02*
X108908580Y-67732017D01*
X108908580Y-67732017D02*
X108832390Y-67655827D01*
X108832390Y-67655827D02*
X108794295Y-67541541D01*
X108794295Y-67541541D02*
X108794295Y-67465350D01*
X108794295Y-67465350D02*
X108832390Y-67351065D01*
X108832390Y-67351065D02*
X108870485Y-67312969D01*
X109594295Y-66551065D02*
X109594295Y-67008208D01*
X109594295Y-66779636D02*
X108794295Y-66779636D01*
X108794295Y-66779636D02*
X108908580Y-66855827D01*
X108908580Y-66855827D02*
X108984771Y-66932017D01*
X108984771Y-66932017D02*
X109022866Y-67008208D01*
X83787767Y-56615676D02*
X83140148Y-56615676D01*
X83140148Y-56615676D02*
X83063958Y-56653771D01*
X83063958Y-56653771D02*
X83025863Y-56691866D01*
X83025863Y-56691866D02*
X82987767Y-56768057D01*
X82987767Y-56768057D02*
X82987767Y-56920438D01*
X82987767Y-56920438D02*
X83025863Y-56996628D01*
X83025863Y-56996628D02*
X83063958Y-57034723D01*
X83063958Y-57034723D02*
X83140148Y-57072819D01*
X83140148Y-57072819D02*
X83787767Y-57072819D01*
X83787767Y-57796628D02*
X83787767Y-57644247D01*
X83787767Y-57644247D02*
X83749672Y-57568056D01*
X83749672Y-57568056D02*
X83711577Y-57529961D01*
X83711577Y-57529961D02*
X83597291Y-57453771D01*
X83597291Y-57453771D02*
X83444910Y-57415675D01*
X83444910Y-57415675D02*
X83140148Y-57415675D01*
X83140148Y-57415675D02*
X83063958Y-57453771D01*
X83063958Y-57453771D02*
X83025863Y-57491866D01*
X83025863Y-57491866D02*
X82987767Y-57568056D01*
X82987767Y-57568056D02*
X82987767Y-57720437D01*
X82987767Y-57720437D02*
X83025863Y-57796628D01*
X83025863Y-57796628D02*
X83063958Y-57834723D01*
X83063958Y-57834723D02*
X83140148Y-57872818D01*
X83140148Y-57872818D02*
X83330624Y-57872818D01*
X83330624Y-57872818D02*
X83406815Y-57834723D01*
X83406815Y-57834723D02*
X83444910Y-57796628D01*
X83444910Y-57796628D02*
X83483005Y-57720437D01*
X83483005Y-57720437D02*
X83483005Y-57568056D01*
X83483005Y-57568056D02*
X83444910Y-57491866D01*
X83444910Y-57491866D02*
X83406815Y-57453771D01*
X83406815Y-57453771D02*
X83330624Y-57415675D01*
X87448604Y-69864286D02*
X87486700Y-69902382D01*
X87486700Y-69902382D02*
X87524795Y-70016667D01*
X87524795Y-70016667D02*
X87524795Y-70092858D01*
X87524795Y-70092858D02*
X87486700Y-70207144D01*
X87486700Y-70207144D02*
X87410509Y-70283334D01*
X87410509Y-70283334D02*
X87334319Y-70321429D01*
X87334319Y-70321429D02*
X87181938Y-70359525D01*
X87181938Y-70359525D02*
X87067652Y-70359525D01*
X87067652Y-70359525D02*
X86915271Y-70321429D01*
X86915271Y-70321429D02*
X86839080Y-70283334D01*
X86839080Y-70283334D02*
X86762890Y-70207144D01*
X86762890Y-70207144D02*
X86724795Y-70092858D01*
X86724795Y-70092858D02*
X86724795Y-70016667D01*
X86724795Y-70016667D02*
X86762890Y-69902382D01*
X86762890Y-69902382D02*
X86800985Y-69864286D01*
X87524795Y-69102382D02*
X87524795Y-69559525D01*
X87524795Y-69330953D02*
X86724795Y-69330953D01*
X86724795Y-69330953D02*
X86839080Y-69407144D01*
X86839080Y-69407144D02*
X86915271Y-69483334D01*
X86915271Y-69483334D02*
X86953366Y-69559525D01*
X87524795Y-68721429D02*
X87524795Y-68569048D01*
X87524795Y-68569048D02*
X87486700Y-68492858D01*
X87486700Y-68492858D02*
X87448604Y-68454762D01*
X87448604Y-68454762D02*
X87334319Y-68378572D01*
X87334319Y-68378572D02*
X87181938Y-68340477D01*
X87181938Y-68340477D02*
X86877176Y-68340477D01*
X86877176Y-68340477D02*
X86800985Y-68378572D01*
X86800985Y-68378572D02*
X86762890Y-68416667D01*
X86762890Y-68416667D02*
X86724795Y-68492858D01*
X86724795Y-68492858D02*
X86724795Y-68645239D01*
X86724795Y-68645239D02*
X86762890Y-68721429D01*
X86762890Y-68721429D02*
X86800985Y-68759524D01*
X86800985Y-68759524D02*
X86877176Y-68797620D01*
X86877176Y-68797620D02*
X87067652Y-68797620D01*
X87067652Y-68797620D02*
X87143842Y-68759524D01*
X87143842Y-68759524D02*
X87181938Y-68721429D01*
X87181938Y-68721429D02*
X87220033Y-68645239D01*
X87220033Y-68645239D02*
X87220033Y-68492858D01*
X87220033Y-68492858D02*
X87181938Y-68416667D01*
X87181938Y-68416667D02*
X87143842Y-68378572D01*
X87143842Y-68378572D02*
X87067652Y-68340477D01*
X95486104Y-74014285D02*
X95524200Y-74052381D01*
X95524200Y-74052381D02*
X95562295Y-74166666D01*
X95562295Y-74166666D02*
X95562295Y-74242857D01*
X95562295Y-74242857D02*
X95524200Y-74357143D01*
X95524200Y-74357143D02*
X95448009Y-74433333D01*
X95448009Y-74433333D02*
X95371819Y-74471428D01*
X95371819Y-74471428D02*
X95219438Y-74509524D01*
X95219438Y-74509524D02*
X95105152Y-74509524D01*
X95105152Y-74509524D02*
X94952771Y-74471428D01*
X94952771Y-74471428D02*
X94876580Y-74433333D01*
X94876580Y-74433333D02*
X94800390Y-74357143D01*
X94800390Y-74357143D02*
X94762295Y-74242857D01*
X94762295Y-74242857D02*
X94762295Y-74166666D01*
X94762295Y-74166666D02*
X94800390Y-74052381D01*
X94800390Y-74052381D02*
X94838485Y-74014285D01*
X94838485Y-73709524D02*
X94800390Y-73671428D01*
X94800390Y-73671428D02*
X94762295Y-73595238D01*
X94762295Y-73595238D02*
X94762295Y-73404762D01*
X94762295Y-73404762D02*
X94800390Y-73328571D01*
X94800390Y-73328571D02*
X94838485Y-73290476D01*
X94838485Y-73290476D02*
X94914676Y-73252381D01*
X94914676Y-73252381D02*
X94990866Y-73252381D01*
X94990866Y-73252381D02*
X95105152Y-73290476D01*
X95105152Y-73290476D02*
X95562295Y-73747619D01*
X95562295Y-73747619D02*
X95562295Y-73252381D01*
X94838485Y-72947619D02*
X94800390Y-72909523D01*
X94800390Y-72909523D02*
X94762295Y-72833333D01*
X94762295Y-72833333D02*
X94762295Y-72642857D01*
X94762295Y-72642857D02*
X94800390Y-72566666D01*
X94800390Y-72566666D02*
X94838485Y-72528571D01*
X94838485Y-72528571D02*
X94914676Y-72490476D01*
X94914676Y-72490476D02*
X94990866Y-72490476D01*
X94990866Y-72490476D02*
X95105152Y-72528571D01*
X95105152Y-72528571D02*
X95562295Y-72985714D01*
X95562295Y-72985714D02*
X95562295Y-72490476D01*
X109386104Y-74614285D02*
X109424200Y-74652381D01*
X109424200Y-74652381D02*
X109462295Y-74766666D01*
X109462295Y-74766666D02*
X109462295Y-74842857D01*
X109462295Y-74842857D02*
X109424200Y-74957143D01*
X109424200Y-74957143D02*
X109348009Y-75033333D01*
X109348009Y-75033333D02*
X109271819Y-75071428D01*
X109271819Y-75071428D02*
X109119438Y-75109524D01*
X109119438Y-75109524D02*
X109005152Y-75109524D01*
X109005152Y-75109524D02*
X108852771Y-75071428D01*
X108852771Y-75071428D02*
X108776580Y-75033333D01*
X108776580Y-75033333D02*
X108700390Y-74957143D01*
X108700390Y-74957143D02*
X108662295Y-74842857D01*
X108662295Y-74842857D02*
X108662295Y-74766666D01*
X108662295Y-74766666D02*
X108700390Y-74652381D01*
X108700390Y-74652381D02*
X108738485Y-74614285D01*
X109462295Y-73852381D02*
X109462295Y-74309524D01*
X109462295Y-74080952D02*
X108662295Y-74080952D01*
X108662295Y-74080952D02*
X108776580Y-74157143D01*
X108776580Y-74157143D02*
X108852771Y-74233333D01*
X108852771Y-74233333D02*
X108890866Y-74309524D01*
X108928961Y-73166666D02*
X109462295Y-73166666D01*
X108624200Y-73357142D02*
X109195628Y-73547619D01*
X109195628Y-73547619D02*
X109195628Y-73052380D01*
X105062295Y-58833332D02*
X104681342Y-59099999D01*
X105062295Y-59290475D02*
X104262295Y-59290475D01*
X104262295Y-59290475D02*
X104262295Y-58985713D01*
X104262295Y-58985713D02*
X104300390Y-58909523D01*
X104300390Y-58909523D02*
X104338485Y-58871428D01*
X104338485Y-58871428D02*
X104414676Y-58833332D01*
X104414676Y-58833332D02*
X104528961Y-58833332D01*
X104528961Y-58833332D02*
X104605152Y-58871428D01*
X104605152Y-58871428D02*
X104643247Y-58909523D01*
X104643247Y-58909523D02*
X104681342Y-58985713D01*
X104681342Y-58985713D02*
X104681342Y-59290475D01*
X104338485Y-58528571D02*
X104300390Y-58490475D01*
X104300390Y-58490475D02*
X104262295Y-58414285D01*
X104262295Y-58414285D02*
X104262295Y-58223809D01*
X104262295Y-58223809D02*
X104300390Y-58147618D01*
X104300390Y-58147618D02*
X104338485Y-58109523D01*
X104338485Y-58109523D02*
X104414676Y-58071428D01*
X104414676Y-58071428D02*
X104490866Y-58071428D01*
X104490866Y-58071428D02*
X104605152Y-58109523D01*
X104605152Y-58109523D02*
X105062295Y-58566666D01*
X105062295Y-58566666D02*
X105062295Y-58071428D01*
X110886104Y-70214285D02*
X110924200Y-70252381D01*
X110924200Y-70252381D02*
X110962295Y-70366666D01*
X110962295Y-70366666D02*
X110962295Y-70442857D01*
X110962295Y-70442857D02*
X110924200Y-70557143D01*
X110924200Y-70557143D02*
X110848009Y-70633333D01*
X110848009Y-70633333D02*
X110771819Y-70671428D01*
X110771819Y-70671428D02*
X110619438Y-70709524D01*
X110619438Y-70709524D02*
X110505152Y-70709524D01*
X110505152Y-70709524D02*
X110352771Y-70671428D01*
X110352771Y-70671428D02*
X110276580Y-70633333D01*
X110276580Y-70633333D02*
X110200390Y-70557143D01*
X110200390Y-70557143D02*
X110162295Y-70442857D01*
X110162295Y-70442857D02*
X110162295Y-70366666D01*
X110162295Y-70366666D02*
X110200390Y-70252381D01*
X110200390Y-70252381D02*
X110238485Y-70214285D01*
X110962295Y-69452381D02*
X110962295Y-69909524D01*
X110962295Y-69680952D02*
X110162295Y-69680952D01*
X110162295Y-69680952D02*
X110276580Y-69757143D01*
X110276580Y-69757143D02*
X110352771Y-69833333D01*
X110352771Y-69833333D02*
X110390866Y-69909524D01*
X110238485Y-69147619D02*
X110200390Y-69109523D01*
X110200390Y-69109523D02*
X110162295Y-69033333D01*
X110162295Y-69033333D02*
X110162295Y-68842857D01*
X110162295Y-68842857D02*
X110200390Y-68766666D01*
X110200390Y-68766666D02*
X110238485Y-68728571D01*
X110238485Y-68728571D02*
X110314676Y-68690476D01*
X110314676Y-68690476D02*
X110390866Y-68690476D01*
X110390866Y-68690476D02*
X110505152Y-68728571D01*
X110505152Y-68728571D02*
X110962295Y-69185714D01*
X110962295Y-69185714D02*
X110962295Y-68690476D01*
X98162295Y-67028571D02*
X98162295Y-66571428D01*
X98962295Y-66800000D02*
X98162295Y-66800000D01*
X98962295Y-66304761D02*
X98162295Y-66304761D01*
X98543247Y-66304761D02*
X98543247Y-65847618D01*
X98962295Y-65847618D02*
X98162295Y-65847618D01*
X98962295Y-65047619D02*
X98962295Y-65504762D01*
X98962295Y-65276190D02*
X98162295Y-65276190D01*
X98162295Y-65276190D02*
X98276580Y-65352381D01*
X98276580Y-65352381D02*
X98352771Y-65428571D01*
X98352771Y-65428571D02*
X98390866Y-65504762D01*
X88090476Y-66862295D02*
X88090476Y-67509914D01*
X88090476Y-67509914D02*
X88128571Y-67586104D01*
X88128571Y-67586104D02*
X88166666Y-67624200D01*
X88166666Y-67624200D02*
X88242857Y-67662295D01*
X88242857Y-67662295D02*
X88395238Y-67662295D01*
X88395238Y-67662295D02*
X88471428Y-67624200D01*
X88471428Y-67624200D02*
X88509523Y-67586104D01*
X88509523Y-67586104D02*
X88547619Y-67509914D01*
X88547619Y-67509914D02*
X88547619Y-66862295D01*
X88852380Y-66862295D02*
X89347618Y-66862295D01*
X89347618Y-66862295D02*
X89080952Y-67167057D01*
X89080952Y-67167057D02*
X89195237Y-67167057D01*
X89195237Y-67167057D02*
X89271428Y-67205152D01*
X89271428Y-67205152D02*
X89309523Y-67243247D01*
X89309523Y-67243247D02*
X89347618Y-67319438D01*
X89347618Y-67319438D02*
X89347618Y-67509914D01*
X89347618Y-67509914D02*
X89309523Y-67586104D01*
X89309523Y-67586104D02*
X89271428Y-67624200D01*
X89271428Y-67624200D02*
X89195237Y-67662295D01*
X89195237Y-67662295D02*
X88966666Y-67662295D01*
X88966666Y-67662295D02*
X88890475Y-67624200D01*
X88890475Y-67624200D02*
X88852380Y-67586104D01*
X126785714Y-69862295D02*
X126519047Y-69481342D01*
X126328571Y-69862295D02*
X126328571Y-69062295D01*
X126328571Y-69062295D02*
X126633333Y-69062295D01*
X126633333Y-69062295D02*
X126709523Y-69100390D01*
X126709523Y-69100390D02*
X126747618Y-69138485D01*
X126747618Y-69138485D02*
X126785714Y-69214676D01*
X126785714Y-69214676D02*
X126785714Y-69328961D01*
X126785714Y-69328961D02*
X126747618Y-69405152D01*
X126747618Y-69405152D02*
X126709523Y-69443247D01*
X126709523Y-69443247D02*
X126633333Y-69481342D01*
X126633333Y-69481342D02*
X126328571Y-69481342D01*
X127547618Y-69862295D02*
X127090475Y-69862295D01*
X127319047Y-69862295D02*
X127319047Y-69062295D01*
X127319047Y-69062295D02*
X127242856Y-69176580D01*
X127242856Y-69176580D02*
X127166666Y-69252771D01*
X127166666Y-69252771D02*
X127090475Y-69290866D01*
X128042857Y-69062295D02*
X128119047Y-69062295D01*
X128119047Y-69062295D02*
X128195238Y-69100390D01*
X128195238Y-69100390D02*
X128233333Y-69138485D01*
X128233333Y-69138485D02*
X128271428Y-69214676D01*
X128271428Y-69214676D02*
X128309523Y-69367057D01*
X128309523Y-69367057D02*
X128309523Y-69557533D01*
X128309523Y-69557533D02*
X128271428Y-69709914D01*
X128271428Y-69709914D02*
X128233333Y-69786104D01*
X128233333Y-69786104D02*
X128195238Y-69824200D01*
X128195238Y-69824200D02*
X128119047Y-69862295D01*
X128119047Y-69862295D02*
X128042857Y-69862295D01*
X128042857Y-69862295D02*
X127966666Y-69824200D01*
X127966666Y-69824200D02*
X127928571Y-69786104D01*
X127928571Y-69786104D02*
X127890476Y-69709914D01*
X127890476Y-69709914D02*
X127852380Y-69557533D01*
X127852380Y-69557533D02*
X127852380Y-69367057D01*
X127852380Y-69367057D02*
X127890476Y-69214676D01*
X127890476Y-69214676D02*
X127928571Y-69138485D01*
X127928571Y-69138485D02*
X127966666Y-69100390D01*
X127966666Y-69100390D02*
X128042857Y-69062295D01*
X110886104Y-62833332D02*
X110924200Y-62871428D01*
X110924200Y-62871428D02*
X110962295Y-62985713D01*
X110962295Y-62985713D02*
X110962295Y-63061904D01*
X110962295Y-63061904D02*
X110924200Y-63176190D01*
X110924200Y-63176190D02*
X110848009Y-63252380D01*
X110848009Y-63252380D02*
X110771819Y-63290475D01*
X110771819Y-63290475D02*
X110619438Y-63328571D01*
X110619438Y-63328571D02*
X110505152Y-63328571D01*
X110505152Y-63328571D02*
X110352771Y-63290475D01*
X110352771Y-63290475D02*
X110276580Y-63252380D01*
X110276580Y-63252380D02*
X110200390Y-63176190D01*
X110200390Y-63176190D02*
X110162295Y-63061904D01*
X110162295Y-63061904D02*
X110162295Y-62985713D01*
X110162295Y-62985713D02*
X110200390Y-62871428D01*
X110200390Y-62871428D02*
X110238485Y-62833332D01*
X110505152Y-62376190D02*
X110467057Y-62452380D01*
X110467057Y-62452380D02*
X110428961Y-62490475D01*
X110428961Y-62490475D02*
X110352771Y-62528571D01*
X110352771Y-62528571D02*
X110314676Y-62528571D01*
X110314676Y-62528571D02*
X110238485Y-62490475D01*
X110238485Y-62490475D02*
X110200390Y-62452380D01*
X110200390Y-62452380D02*
X110162295Y-62376190D01*
X110162295Y-62376190D02*
X110162295Y-62223809D01*
X110162295Y-62223809D02*
X110200390Y-62147618D01*
X110200390Y-62147618D02*
X110238485Y-62109523D01*
X110238485Y-62109523D02*
X110314676Y-62071428D01*
X110314676Y-62071428D02*
X110352771Y-62071428D01*
X110352771Y-62071428D02*
X110428961Y-62109523D01*
X110428961Y-62109523D02*
X110467057Y-62147618D01*
X110467057Y-62147618D02*
X110505152Y-62223809D01*
X110505152Y-62223809D02*
X110505152Y-62376190D01*
X110505152Y-62376190D02*
X110543247Y-62452380D01*
X110543247Y-62452380D02*
X110581342Y-62490475D01*
X110581342Y-62490475D02*
X110657533Y-62528571D01*
X110657533Y-62528571D02*
X110809914Y-62528571D01*
X110809914Y-62528571D02*
X110886104Y-62490475D01*
X110886104Y-62490475D02*
X110924200Y-62452380D01*
X110924200Y-62452380D02*
X110962295Y-62376190D01*
X110962295Y-62376190D02*
X110962295Y-62223809D01*
X110962295Y-62223809D02*
X110924200Y-62147618D01*
X110924200Y-62147618D02*
X110886104Y-62109523D01*
X110886104Y-62109523D02*
X110809914Y-62071428D01*
X110809914Y-62071428D02*
X110657533Y-62071428D01*
X110657533Y-62071428D02*
X110581342Y-62109523D01*
X110581342Y-62109523D02*
X110543247Y-62147618D01*
X110543247Y-62147618D02*
X110505152Y-62223809D01*
X101486104Y-74614285D02*
X101524200Y-74652381D01*
X101524200Y-74652381D02*
X101562295Y-74766666D01*
X101562295Y-74766666D02*
X101562295Y-74842857D01*
X101562295Y-74842857D02*
X101524200Y-74957143D01*
X101524200Y-74957143D02*
X101448009Y-75033333D01*
X101448009Y-75033333D02*
X101371819Y-75071428D01*
X101371819Y-75071428D02*
X101219438Y-75109524D01*
X101219438Y-75109524D02*
X101105152Y-75109524D01*
X101105152Y-75109524D02*
X100952771Y-75071428D01*
X100952771Y-75071428D02*
X100876580Y-75033333D01*
X100876580Y-75033333D02*
X100800390Y-74957143D01*
X100800390Y-74957143D02*
X100762295Y-74842857D01*
X100762295Y-74842857D02*
X100762295Y-74766666D01*
X100762295Y-74766666D02*
X100800390Y-74652381D01*
X100800390Y-74652381D02*
X100838485Y-74614285D01*
X101562295Y-73852381D02*
X101562295Y-74309524D01*
X101562295Y-74080952D02*
X100762295Y-74080952D01*
X100762295Y-74080952D02*
X100876580Y-74157143D01*
X100876580Y-74157143D02*
X100952771Y-74233333D01*
X100952771Y-74233333D02*
X100990866Y-74309524D01*
X100762295Y-73166666D02*
X100762295Y-73319047D01*
X100762295Y-73319047D02*
X100800390Y-73395238D01*
X100800390Y-73395238D02*
X100838485Y-73433333D01*
X100838485Y-73433333D02*
X100952771Y-73509523D01*
X100952771Y-73509523D02*
X101105152Y-73547619D01*
X101105152Y-73547619D02*
X101409914Y-73547619D01*
X101409914Y-73547619D02*
X101486104Y-73509523D01*
X101486104Y-73509523D02*
X101524200Y-73471428D01*
X101524200Y-73471428D02*
X101562295Y-73395238D01*
X101562295Y-73395238D02*
X101562295Y-73242857D01*
X101562295Y-73242857D02*
X101524200Y-73166666D01*
X101524200Y-73166666D02*
X101486104Y-73128571D01*
X101486104Y-73128571D02*
X101409914Y-73090476D01*
X101409914Y-73090476D02*
X101219438Y-73090476D01*
X101219438Y-73090476D02*
X101143247Y-73128571D01*
X101143247Y-73128571D02*
X101105152Y-73166666D01*
X101105152Y-73166666D02*
X101067057Y-73242857D01*
X101067057Y-73242857D02*
X101067057Y-73395238D01*
X101067057Y-73395238D02*
X101105152Y-73471428D01*
X101105152Y-73471428D02*
X101143247Y-73509523D01*
X101143247Y-73509523D02*
X101219438Y-73547619D01*
X123490476Y-65062295D02*
X123490476Y-65709914D01*
X123490476Y-65709914D02*
X123528571Y-65786104D01*
X123528571Y-65786104D02*
X123566666Y-65824200D01*
X123566666Y-65824200D02*
X123642857Y-65862295D01*
X123642857Y-65862295D02*
X123795238Y-65862295D01*
X123795238Y-65862295D02*
X123871428Y-65824200D01*
X123871428Y-65824200D02*
X123909523Y-65786104D01*
X123909523Y-65786104D02*
X123947619Y-65709914D01*
X123947619Y-65709914D02*
X123947619Y-65062295D01*
X124252380Y-65062295D02*
X124785714Y-65062295D01*
X124785714Y-65062295D02*
X124442856Y-65862295D01*
X128586104Y-64314285D02*
X128624200Y-64352381D01*
X128624200Y-64352381D02*
X128662295Y-64466666D01*
X128662295Y-64466666D02*
X128662295Y-64542857D01*
X128662295Y-64542857D02*
X128624200Y-64657143D01*
X128624200Y-64657143D02*
X128548009Y-64733333D01*
X128548009Y-64733333D02*
X128471819Y-64771428D01*
X128471819Y-64771428D02*
X128319438Y-64809524D01*
X128319438Y-64809524D02*
X128205152Y-64809524D01*
X128205152Y-64809524D02*
X128052771Y-64771428D01*
X128052771Y-64771428D02*
X127976580Y-64733333D01*
X127976580Y-64733333D02*
X127900390Y-64657143D01*
X127900390Y-64657143D02*
X127862295Y-64542857D01*
X127862295Y-64542857D02*
X127862295Y-64466666D01*
X127862295Y-64466666D02*
X127900390Y-64352381D01*
X127900390Y-64352381D02*
X127938485Y-64314285D01*
X127938485Y-64009524D02*
X127900390Y-63971428D01*
X127900390Y-63971428D02*
X127862295Y-63895238D01*
X127862295Y-63895238D02*
X127862295Y-63704762D01*
X127862295Y-63704762D02*
X127900390Y-63628571D01*
X127900390Y-63628571D02*
X127938485Y-63590476D01*
X127938485Y-63590476D02*
X128014676Y-63552381D01*
X128014676Y-63552381D02*
X128090866Y-63552381D01*
X128090866Y-63552381D02*
X128205152Y-63590476D01*
X128205152Y-63590476D02*
X128662295Y-64047619D01*
X128662295Y-64047619D02*
X128662295Y-63552381D01*
X127862295Y-62828571D02*
X127862295Y-63209523D01*
X127862295Y-63209523D02*
X128243247Y-63247619D01*
X128243247Y-63247619D02*
X128205152Y-63209523D01*
X128205152Y-63209523D02*
X128167057Y-63133333D01*
X128167057Y-63133333D02*
X128167057Y-62942857D01*
X128167057Y-62942857D02*
X128205152Y-62866666D01*
X128205152Y-62866666D02*
X128243247Y-62828571D01*
X128243247Y-62828571D02*
X128319438Y-62790476D01*
X128319438Y-62790476D02*
X128509914Y-62790476D01*
X128509914Y-62790476D02*
X128586104Y-62828571D01*
X128586104Y-62828571D02*
X128624200Y-62866666D01*
X128624200Y-62866666D02*
X128662295Y-62942857D01*
X128662295Y-62942857D02*
X128662295Y-63133333D01*
X128662295Y-63133333D02*
X128624200Y-63209523D01*
X128624200Y-63209523D02*
X128586104Y-63247619D01*
X84185714Y-71429794D02*
X83919047Y-71048841D01*
X83728571Y-71429794D02*
X83728571Y-70629794D01*
X83728571Y-70629794D02*
X84033333Y-70629794D01*
X84033333Y-70629794D02*
X84109523Y-70667889D01*
X84109523Y-70667889D02*
X84147618Y-70705984D01*
X84147618Y-70705984D02*
X84185714Y-70782175D01*
X84185714Y-70782175D02*
X84185714Y-70896460D01*
X84185714Y-70896460D02*
X84147618Y-70972651D01*
X84147618Y-70972651D02*
X84109523Y-71010746D01*
X84109523Y-71010746D02*
X84033333Y-71048841D01*
X84033333Y-71048841D02*
X83728571Y-71048841D01*
X84947618Y-71429794D02*
X84490475Y-71429794D01*
X84719047Y-71429794D02*
X84719047Y-70629794D01*
X84719047Y-70629794D02*
X84642856Y-70744079D01*
X84642856Y-70744079D02*
X84566666Y-70820270D01*
X84566666Y-70820270D02*
X84490475Y-70858365D01*
X85633333Y-70896460D02*
X85633333Y-71429794D01*
X85442857Y-70591699D02*
X85252380Y-71163127D01*
X85252380Y-71163127D02*
X85747619Y-71163127D01*
X123705714Y-72262295D02*
X123439047Y-71881342D01*
X123248571Y-72262295D02*
X123248571Y-71462295D01*
X123248571Y-71462295D02*
X123553333Y-71462295D01*
X123553333Y-71462295D02*
X123629523Y-71500390D01*
X123629523Y-71500390D02*
X123667618Y-71538485D01*
X123667618Y-71538485D02*
X123705714Y-71614676D01*
X123705714Y-71614676D02*
X123705714Y-71728961D01*
X123705714Y-71728961D02*
X123667618Y-71805152D01*
X123667618Y-71805152D02*
X123629523Y-71843247D01*
X123629523Y-71843247D02*
X123553333Y-71881342D01*
X123553333Y-71881342D02*
X123248571Y-71881342D01*
X124467618Y-72262295D02*
X124010475Y-72262295D01*
X124239047Y-72262295D02*
X124239047Y-71462295D01*
X124239047Y-71462295D02*
X124162856Y-71576580D01*
X124162856Y-71576580D02*
X124086666Y-71652771D01*
X124086666Y-71652771D02*
X124010475Y-71690866D01*
X125229523Y-72262295D02*
X124772380Y-72262295D01*
X125000952Y-72262295D02*
X125000952Y-71462295D01*
X125000952Y-71462295D02*
X124924761Y-71576580D01*
X124924761Y-71576580D02*
X124848571Y-71652771D01*
X124848571Y-71652771D02*
X124772380Y-71690866D01*
D12*
X90800000Y-71939999D02*
X90000000Y-71940000D01*
X90800000Y-71939999D02*
X91600000Y-71940000D01*
X90800000Y-75060001D02*
X90000000Y-75060000D01*
X90800000Y-75060001D02*
X91600000Y-75060000D01*
X89500000Y-71990000D02*
X89260000Y-71660000D01*
X89740000Y-71660000D01*
X89500000Y-71990000D01*
G36*
X89500000Y-71990000D02*
G01*
X89260000Y-71660000D01*
X89740000Y-71660000D01*
X89500000Y-71990000D01*
G37*
X132785000Y-65193641D02*
X132785000Y-64886359D01*
X133545000Y-65193641D02*
X133545000Y-64886359D01*
X119040000Y-56340000D02*
X119040000Y-56590000D01*
X119040000Y-64860000D02*
X119040000Y-64610000D01*
X127560000Y-56340000D02*
X119040000Y-56340000D01*
X127560000Y-56340000D02*
X127560000Y-56590000D01*
X127560000Y-64860000D02*
X119040000Y-64860000D01*
X127560000Y-64860000D02*
X127560000Y-64610000D01*
D13*
G36*
X133016229Y-77117671D02*
G01*
X133021313Y-77327403D01*
X133024374Y-77519067D01*
X133025401Y-77683916D01*
X133024380Y-77813203D01*
X133021299Y-77898181D01*
X133017372Y-77928310D01*
X133007358Y-77943897D01*
X132986284Y-77956076D01*
X132947448Y-77965261D01*
X132884147Y-77971867D01*
X132789679Y-77976312D01*
X132657341Y-77979010D01*
X132480431Y-77980378D01*
X132252247Y-77980831D01*
X132170406Y-77980851D01*
X131343691Y-77980851D01*
X131362980Y-77796305D01*
X131368915Y-77709018D01*
X131374110Y-77574302D01*
X131378265Y-77404770D01*
X131381079Y-77213038D01*
X131382253Y-77011722D01*
X131382269Y-76985667D01*
X131382269Y-76809929D01*
X131922695Y-76809929D01*
X131922695Y-77165209D01*
X131924296Y-77305658D01*
X131928651Y-77423443D01*
X131935091Y-77505988D01*
X131942710Y-77540504D01*
X131980089Y-77549704D01*
X132062061Y-77556674D01*
X132173182Y-77560269D01*
X132212923Y-77560520D01*
X132463120Y-77560520D01*
X132463120Y-77185224D01*
X132463120Y-76809929D01*
X132192907Y-76809929D01*
X131922695Y-76809929D01*
X131382269Y-76809929D01*
X131382269Y-76359574D01*
X132188552Y-76359574D01*
X132994835Y-76359574D01*
X133016229Y-77117671D01*
G37*
G36*
X134392745Y-76359750D02*
G01*
X134535040Y-76363108D01*
X134637123Y-76371434D01*
X134705600Y-76386820D01*
X134747078Y-76411358D01*
X134768164Y-76447140D01*
X134775465Y-76496256D01*
X134775588Y-76560800D01*
X134774941Y-76617231D01*
X134774941Y-76779905D01*
X134264539Y-76779905D01*
X134078200Y-76780310D01*
X133943572Y-76782127D01*
X133852320Y-76786259D01*
X133796108Y-76793612D01*
X133766603Y-76805088D01*
X133755470Y-76821591D01*
X133754137Y-76835254D01*
X133758476Y-76855841D01*
X133777080Y-76871240D01*
X133818328Y-76882696D01*
X133890602Y-76891453D01*
X134002280Y-76898754D01*
X134161744Y-76905842D01*
X134253597Y-76909379D01*
X134419952Y-76916120D01*
X134563908Y-76922880D01*
X134675382Y-76929111D01*
X134744294Y-76934264D01*
X134761934Y-76937033D01*
X134765361Y-76968445D01*
X134769326Y-77049995D01*
X134773481Y-77171780D01*
X134777480Y-77323898D01*
X134780382Y-77463420D01*
X134789952Y-77980929D01*
X133986820Y-77980890D01*
X133183688Y-77980851D01*
X133183688Y-77755674D01*
X133183688Y-77530496D01*
X133694090Y-77530496D01*
X134204491Y-77530496D01*
X134204491Y-77455437D01*
X134204491Y-77380378D01*
X133694090Y-77380378D01*
X133183688Y-77380378D01*
X133183688Y-76869976D01*
X133183688Y-76359574D01*
X133961090Y-76359574D01*
X134203631Y-76359270D01*
X134392745Y-76359750D01*
G37*
G36*
X127889171Y-75825451D02*
G01*
X128058734Y-75915375D01*
X128192305Y-76050190D01*
X128287241Y-76226542D01*
X128340899Y-76441074D01*
X128352429Y-76629560D01*
X128329604Y-76959060D01*
X128268910Y-77261900D01*
X128172699Y-77531694D01*
X128043320Y-77762051D01*
X127883124Y-77946583D01*
X127860486Y-77966592D01*
X127742002Y-78045989D01*
X127638623Y-78067765D01*
X127549044Y-78032059D01*
X127518279Y-78003369D01*
X127460331Y-77915448D01*
X127397200Y-77778231D01*
X127331579Y-77601949D01*
X127266165Y-77396833D01*
X127203650Y-77173115D01*
X127146731Y-76941026D01*
X127098102Y-76710798D01*
X127060457Y-76492662D01*
X127052393Y-76426771D01*
X127304357Y-76426771D01*
X127307515Y-76554728D01*
X127327873Y-76734975D01*
X127369282Y-76917689D01*
X127436018Y-77117475D01*
X127532356Y-77348938D01*
X127554059Y-77397045D01*
X127657716Y-77624504D01*
X127743875Y-77524959D01*
X127812830Y-77435394D01*
X127883810Y-77328521D01*
X127906431Y-77290307D01*
X128008968Y-77074158D01*
X128063288Y-76865871D01*
X128074238Y-76645197D01*
X128071764Y-76599445D01*
X128045309Y-76408083D01*
X127993071Y-76268932D01*
X127910761Y-76178133D01*
X127794090Y-76131828D01*
X127638769Y-76126158D01*
X127556192Y-76135676D01*
X127440790Y-76164687D01*
X127363936Y-76216831D01*
X127320251Y-76301172D01*
X127304357Y-76426771D01*
X127052393Y-76426771D01*
X127036492Y-76296851D01*
X127028841Y-76145035D01*
X127031307Y-76043933D01*
X127043883Y-75983433D01*
X127074337Y-75944131D01*
X127122324Y-75911534D01*
X127207701Y-75874148D01*
X127330053Y-75837519D01*
X127466468Y-75806836D01*
X127594038Y-75787292D01*
X127686257Y-75783774D01*
X127889171Y-75825451D01*
G37*
G36*
X135260985Y-75740838D02*
G01*
X135521853Y-75985010D01*
X135260985Y-76223663D01*
X135000118Y-76462316D01*
X134985106Y-76343392D01*
X134970094Y-76224468D01*
X133104683Y-76216736D01*
X131239273Y-76209004D01*
X131221110Y-76276783D01*
X131216291Y-76323979D01*
X131211922Y-76422653D01*
X131208183Y-76564238D01*
X131205254Y-76740167D01*
X131203312Y-76941872D01*
X131202539Y-77160784D01*
X131202537Y-77163631D01*
X131202127Y-77982699D01*
X130834338Y-77974269D01*
X130466548Y-77965839D01*
X130196626Y-77440425D01*
X129926705Y-76915012D01*
X129907154Y-77095153D01*
X129898808Y-77200902D01*
X129891578Y-77345476D01*
X129886374Y-77507653D01*
X129884346Y-77628073D01*
X129881087Y-77980851D01*
X129517252Y-77980851D01*
X129153418Y-77980851D01*
X129171412Y-77733156D01*
X129176803Y-77637715D01*
X129182981Y-77492735D01*
X129189597Y-77308713D01*
X129196299Y-77096146D01*
X129202737Y-76865532D01*
X129208561Y-76627367D01*
X129209013Y-76607269D01*
X129228619Y-75729078D01*
X129577371Y-75729538D01*
X129718048Y-75731530D01*
X129837527Y-75736597D01*
X129922497Y-75743953D01*
X129958737Y-75752055D01*
X129983617Y-75784871D01*
X130031109Y-75861136D01*
X130095578Y-75971311D01*
X130171390Y-76105858D01*
X130220046Y-76194444D01*
X130325838Y-76389403D01*
X130405371Y-76532958D01*
X130462386Y-76625724D01*
X130500623Y-76668313D01*
X130523825Y-76661339D01*
X130535733Y-76605414D01*
X130540086Y-76501152D01*
X130540627Y-76349166D01*
X130540652Y-76246986D01*
X130541607Y-75759101D01*
X132695803Y-75758692D01*
X133051576Y-75758382D01*
X133390825Y-75757619D01*
X133708607Y-75756443D01*
X133999983Y-75754894D01*
X134260011Y-75753011D01*
X134483750Y-75750837D01*
X134666259Y-75748410D01*
X134802597Y-75745771D01*
X134887823Y-75742960D01*
X134915978Y-75740590D01*
X134963650Y-75712057D01*
X134986557Y-75648845D01*
X134991037Y-75609782D01*
X135000118Y-75496666D01*
X135260985Y-75740838D01*
G37*
G36*
X122555652Y-75683478D02*
G01*
X122570546Y-75688279D01*
X122605632Y-75729115D01*
X122646541Y-75822994D01*
X122691610Y-75963382D01*
X122739180Y-76143745D01*
X122787590Y-76357546D01*
X122835180Y-76598251D01*
X122880288Y-76859325D01*
X122899537Y-76983057D01*
X122930211Y-77215002D01*
X122944102Y-77394280D01*
X122941145Y-77525894D01*
X122921274Y-77614850D01*
X122890721Y-77660949D01*
X122827742Y-77699191D01*
X122750661Y-77708482D01*
X122654933Y-77686625D01*
X122536016Y-77631420D01*
X122389363Y-77540669D01*
X122210431Y-77412176D01*
X121994677Y-77243741D01*
X121944391Y-77203191D01*
X121779380Y-77070591D01*
X121654010Y-76973039D01*
X121562117Y-76906751D01*
X121497541Y-76867946D01*
X121454118Y-76852839D01*
X121425687Y-76857648D01*
X121408833Y-76874382D01*
X121399900Y-76918676D01*
X121394775Y-77014777D01*
X121393583Y-77154561D01*
X121396449Y-77329900D01*
X121400088Y-77446591D01*
X121405285Y-77623119D01*
X121407734Y-77782013D01*
X121407442Y-77912211D01*
X121404413Y-78002649D01*
X121399834Y-78039558D01*
X121363033Y-78092588D01*
X121308652Y-78090590D01*
X121256934Y-78048404D01*
X121201698Y-77965581D01*
X121152528Y-77845228D01*
X121107194Y-77680333D01*
X121063465Y-77463884D01*
X121054282Y-77411253D01*
X121018277Y-77175187D01*
X121000036Y-76986797D01*
X120999538Y-76836406D01*
X121016761Y-76714340D01*
X121051686Y-76610921D01*
X121052529Y-76609055D01*
X121111991Y-76518283D01*
X121191981Y-76467233D01*
X121295175Y-76456819D01*
X121424247Y-76487953D01*
X121581873Y-76561548D01*
X121770728Y-76678518D01*
X121993486Y-76839774D01*
X122195035Y-76998949D01*
X122348596Y-77120324D01*
X122462922Y-77202475D01*
X122541987Y-77247872D01*
X122589767Y-77258990D01*
X122602987Y-77252647D01*
X122605978Y-77218099D01*
X122602203Y-77135266D01*
X122592472Y-77015431D01*
X122577596Y-76869874D01*
X122571907Y-76819933D01*
X122537728Y-76521247D01*
X122511657Y-76277140D01*
X122493686Y-76082693D01*
X122483810Y-75932989D01*
X122482024Y-75823110D01*
X122488321Y-75748137D01*
X122502695Y-75703153D01*
X122525141Y-75683239D01*
X122555652Y-75683478D01*
G37*
G36*
X123602336Y-75622374D02*
G01*
X123782484Y-75636814D01*
X123972010Y-75656475D01*
X124154654Y-75679621D01*
X124314153Y-75704518D01*
X124434247Y-75729429D01*
X124457567Y-75735861D01*
X124554028Y-75782544D01*
X124609150Y-75846466D01*
X124616171Y-75916650D01*
X124594168Y-75957579D01*
X124573510Y-75975696D01*
X124540668Y-75988099D01*
X124486740Y-75995255D01*
X124402819Y-75997629D01*
X124280002Y-75995686D01*
X124109384Y-75989893D01*
X124033318Y-75986905D01*
X123514079Y-75966094D01*
X123522583Y-76305447D01*
X123531087Y-76644799D01*
X123873154Y-76680467D01*
X124074711Y-76704625D01*
X124221290Y-76730505D01*
X124317962Y-76760399D01*
X124369792Y-76796597D01*
X124381850Y-76841390D01*
X124359203Y-76897069D01*
X124357697Y-76899474D01*
X124328329Y-76920999D01*
X124265920Y-76936518D01*
X124161615Y-76947405D01*
X124006561Y-76955035D01*
X123997873Y-76955337D01*
X123858505Y-76958925D01*
X123762870Y-76964883D01*
X123703970Y-76982794D01*
X123674807Y-77022243D01*
X123668380Y-77092814D01*
X123677691Y-77204092D01*
X123695740Y-77365661D01*
X123696054Y-77368636D01*
X123713898Y-77524621D01*
X123730737Y-77630229D01*
X123749806Y-77694980D01*
X123774346Y-77728395D01*
X123807592Y-77739993D01*
X123822580Y-77740662D01*
X123871665Y-77728461D01*
X123962348Y-77695155D01*
X124082125Y-77645688D01*
X124218490Y-77585006D01*
X124232193Y-77578681D01*
X124417537Y-77494785D01*
X124556102Y-77437053D01*
X124654145Y-77403489D01*
X124717921Y-77392093D01*
X124753684Y-77400868D01*
X124761548Y-77409580D01*
X124762356Y-77464517D01*
X124718467Y-77541017D01*
X124638296Y-77632626D01*
X124530258Y-77732890D01*
X124402768Y-77835356D01*
X124264239Y-77933570D01*
X124123086Y-78021079D01*
X123987725Y-78091429D01*
X123866569Y-78138166D01*
X123791284Y-78153728D01*
X123693810Y-78156629D01*
X123633258Y-78138611D01*
X123602094Y-78111554D01*
X123529027Y-78008608D01*
X123462791Y-77871508D01*
X123402385Y-77696147D01*
X123346802Y-77478423D01*
X123295041Y-77214231D01*
X123246096Y-76899467D01*
X123198966Y-76530025D01*
X123184661Y-76404610D01*
X123162231Y-76247899D01*
X123131020Y-76087107D01*
X123096470Y-75948911D01*
X123082992Y-75906104D01*
X123014744Y-75707834D01*
X123077045Y-75668926D01*
X123139124Y-75646410D01*
X123238086Y-75626889D01*
X123335217Y-75616095D01*
X123447826Y-75614889D01*
X123602336Y-75622374D01*
G37*
G36*
X125499129Y-75596984D02*
G01*
X125608998Y-75610839D01*
X125832711Y-75655160D01*
X126010047Y-75719929D01*
X126136590Y-75803206D01*
X126189197Y-75865831D01*
X126225937Y-75933747D01*
X126243505Y-75996427D01*
X126238282Y-76061281D01*
X126206648Y-76135717D01*
X126144981Y-76227145D01*
X126049663Y-76342974D01*
X125917072Y-76490613D01*
X125846691Y-76566807D01*
X125743759Y-76678953D01*
X125658214Y-76774540D01*
X125597091Y-76845518D01*
X125567423Y-76883837D01*
X125565849Y-76888150D01*
X125594458Y-76903831D01*
X125667685Y-76941335D01*
X125776267Y-76995988D01*
X125910936Y-77063117D01*
X126006461Y-77110429D01*
X126232667Y-77225577D01*
X126433768Y-77334607D01*
X126603828Y-77433890D01*
X126736909Y-77519795D01*
X126827073Y-77588692D01*
X126868385Y-77636951D01*
X126868642Y-77637602D01*
X126872803Y-77698993D01*
X126827075Y-77729277D01*
X126732801Y-77728668D01*
X126591325Y-77697379D01*
X126403992Y-77635623D01*
X126172144Y-77543613D01*
X126111131Y-77517530D01*
X125908376Y-77432182D01*
X125753163Y-77372800D01*
X125639670Y-77337813D01*
X125562078Y-77325647D01*
X125514568Y-77334731D01*
X125496869Y-77351595D01*
X125493951Y-77400265D01*
X125512498Y-77489217D01*
X125545192Y-77591869D01*
X125599897Y-77776008D01*
X125615122Y-77916705D01*
X125590933Y-78015701D01*
X125562825Y-78051257D01*
X125515472Y-78089746D01*
X125479683Y-78093705D01*
X125433050Y-78060401D01*
X125401546Y-78031591D01*
X125305994Y-77913646D01*
X125214167Y-77744985D01*
X125128658Y-77534929D01*
X125052059Y-77292797D01*
X124986961Y-77027912D01*
X124935957Y-76749592D01*
X124901640Y-76467159D01*
X124886600Y-76189934D01*
X124886441Y-76179432D01*
X124888733Y-76050430D01*
X125165813Y-76050430D01*
X125173572Y-76181239D01*
X125176379Y-76227969D01*
X125191443Y-76411324D01*
X125215506Y-76539141D01*
X125252984Y-76615753D01*
X125308294Y-76645492D01*
X125385852Y-76632693D01*
X125490076Y-76581689D01*
X125519285Y-76564405D01*
X125627159Y-76483666D01*
X125726160Y-76382595D01*
X125804557Y-76276066D01*
X125850619Y-76178956D01*
X125857919Y-76134989D01*
X125847017Y-76070029D01*
X125808571Y-76021914D01*
X125733973Y-75986110D01*
X125614616Y-75958077D01*
X125485685Y-75938789D01*
X125341343Y-75919225D01*
X125246948Y-75911478D01*
X125192737Y-75924678D01*
X125168946Y-75967953D01*
X125165813Y-76050430D01*
X124888733Y-76050430D01*
X124890098Y-75973605D01*
X124911475Y-75816706D01*
X124956714Y-75703903D01*
X125031957Y-75630363D01*
X125143346Y-75591251D01*
X125297023Y-75581736D01*
X125499129Y-75596984D01*
G37*
G36*
X135926708Y-75406324D02*
G01*
X135937614Y-75452583D01*
X135947785Y-75550674D01*
X135957139Y-75693479D01*
X135965598Y-75873880D01*
X135973079Y-76084758D01*
X135979503Y-76318996D01*
X135984789Y-76569474D01*
X135988856Y-76829076D01*
X135991625Y-77090682D01*
X135993014Y-77347175D01*
X135992944Y-77591437D01*
X135991333Y-77816349D01*
X135988101Y-78014793D01*
X135983167Y-78179652D01*
X135976452Y-78303806D01*
X135967875Y-78380139D01*
X135960580Y-78401427D01*
X135947871Y-78409909D01*
X135929150Y-78417539D01*
X135901251Y-78424375D01*
X135861006Y-78430478D01*
X135805247Y-78435907D01*
X135730807Y-78440723D01*
X135634518Y-78444983D01*
X135513214Y-78448750D01*
X135363726Y-78452081D01*
X135182888Y-78455037D01*
X134967531Y-78457678D01*
X134714489Y-78460063D01*
X134420595Y-78462253D01*
X134082679Y-78464306D01*
X133697577Y-78466283D01*
X133262119Y-78468243D01*
X132773139Y-78470246D01*
X132227468Y-78472352D01*
X132192907Y-78472483D01*
X131591038Y-78474469D01*
X131047767Y-78475657D01*
X130563249Y-78476047D01*
X130137638Y-78475641D01*
X129771088Y-78474440D01*
X129463753Y-78472444D01*
X129215786Y-78469653D01*
X129027342Y-78466070D01*
X128898575Y-78461694D01*
X128829638Y-78456526D01*
X128819259Y-78454390D01*
X128733198Y-78423871D01*
X128736669Y-78011768D01*
X128839485Y-78011768D01*
X128840772Y-78127879D01*
X128844569Y-78210127D01*
X128850897Y-78263739D01*
X128859779Y-78293941D01*
X128863989Y-78300564D01*
X128874463Y-78307722D01*
X128895453Y-78314078D01*
X128930151Y-78319667D01*
X128981752Y-78324521D01*
X129053451Y-78328673D01*
X129148441Y-78332157D01*
X129269917Y-78335003D01*
X129421072Y-78337247D01*
X129605101Y-78338921D01*
X129825198Y-78340057D01*
X130084557Y-78340689D01*
X130386372Y-78340850D01*
X130733837Y-78340572D01*
X131130147Y-78339888D01*
X131578495Y-78338832D01*
X132082076Y-78337437D01*
X132359579Y-78336610D01*
X132896710Y-78334899D01*
X133376915Y-78333173D01*
X133803318Y-78331382D01*
X134179041Y-78329480D01*
X134507205Y-78327418D01*
X134790933Y-78325148D01*
X135033347Y-78322622D01*
X135237570Y-78319791D01*
X135406723Y-78316608D01*
X135543929Y-78313024D01*
X135652310Y-78308992D01*
X135734989Y-78304463D01*
X135795087Y-78299389D01*
X135835727Y-78293722D01*
X135860032Y-78287414D01*
X135869063Y-78282536D01*
X135902651Y-78237841D01*
X135908574Y-78170342D01*
X135901905Y-78117406D01*
X135897049Y-78061426D01*
X135891422Y-77952500D01*
X135885255Y-77797723D01*
X135878778Y-77604188D01*
X135872222Y-77378990D01*
X135865817Y-77129221D01*
X135859794Y-76861976D01*
X135857607Y-76754990D01*
X135851657Y-76487311D01*
X135844888Y-76238135D01*
X135837569Y-76013901D01*
X135829963Y-75821047D01*
X135822337Y-75666012D01*
X135814957Y-75555234D01*
X135808089Y-75495153D01*
X135805228Y-75486363D01*
X135771301Y-75482241D01*
X135679818Y-75478523D01*
X135533266Y-75475223D01*
X135334136Y-75472355D01*
X135084916Y-75469934D01*
X134788094Y-75467974D01*
X134446161Y-75466489D01*
X134061604Y-75465495D01*
X133636914Y-75465005D01*
X133174579Y-75465034D01*
X132677088Y-75465596D01*
X132341397Y-75466243D01*
X128905319Y-75473877D01*
X128898968Y-75714066D01*
X128896635Y-75799101D01*
X128892781Y-75935731D01*
X128887648Y-76115529D01*
X128881479Y-76330069D01*
X128874516Y-76570924D01*
X128867001Y-76829668D01*
X128859177Y-77097873D01*
X128858994Y-77104143D01*
X128850462Y-77407981D01*
X128844351Y-77657046D01*
X128840685Y-77856566D01*
X128839485Y-78011768D01*
X128736669Y-78011768D01*
X128745620Y-76948874D01*
X128749103Y-76585021D01*
X128753004Y-76277588D01*
X128757440Y-76022949D01*
X128762527Y-75817478D01*
X128768383Y-75657549D01*
X128775124Y-75539536D01*
X128782866Y-75459812D01*
X128791726Y-75414751D01*
X128795207Y-75406324D01*
X128832372Y-75338771D01*
X132358402Y-75338771D01*
X135884431Y-75338771D01*
X135926708Y-75406324D01*
G37*
D12*
X99840000Y-60607836D02*
X99840000Y-60392164D01*
X100560000Y-60607836D02*
X100560000Y-60392164D01*
X108740000Y-60192164D02*
X108740000Y-60407836D01*
X109460000Y-60192164D02*
X109460000Y-60407836D01*
X120865000Y-66488748D02*
X120865000Y-67011252D01*
X122335000Y-66488748D02*
X122335000Y-67011252D01*
X85307836Y-54390400D02*
X85092164Y-54390400D01*
X85307836Y-55110400D02*
X85092164Y-55110400D01*
X83440000Y-67467499D02*
X83440000Y-66817499D01*
X83440000Y-67467499D02*
X83440000Y-68117499D01*
X86560000Y-67467499D02*
X86560000Y-66817499D01*
X86560000Y-67467499D02*
X86560000Y-68117499D01*
X83490000Y-68629999D02*
X83160000Y-68869999D01*
X83160000Y-68389999D01*
X83490000Y-68629999D01*
G36*
X83490000Y-68629999D02*
G01*
X83160000Y-68869999D01*
X83160000Y-68389999D01*
X83490000Y-68629999D01*
G37*
X106240000Y-60192164D02*
X106240000Y-60407836D01*
X106960000Y-60192164D02*
X106960000Y-60407836D01*
X132785000Y-66786359D02*
X132785000Y-67093641D01*
X133545000Y-66786359D02*
X133545000Y-67093641D01*
X87840000Y-72992164D02*
X87840000Y-73207836D01*
X88560000Y-72992164D02*
X88560000Y-73207836D01*
X104620000Y-71846359D02*
X104620000Y-72153641D01*
X105380000Y-71846359D02*
X105380000Y-72153641D01*
X138490000Y-61520000D02*
X136790000Y-61520000D01*
X138490000Y-70860000D02*
X136790000Y-70860000D01*
X106240000Y-71972164D02*
X106240000Y-72187836D01*
X106960000Y-71972164D02*
X106960000Y-72187836D01*
X99740000Y-71892164D02*
X99740000Y-72107836D01*
X100460000Y-71892164D02*
X100460000Y-72107836D01*
X107440000Y-71972164D02*
X107440000Y-72187836D01*
X108160000Y-71972164D02*
X108160000Y-72187836D01*
X93253641Y-75820000D02*
X92946359Y-75820000D01*
X93253641Y-76580000D02*
X92946359Y-76580000D01*
X107440000Y-60192164D02*
X107440000Y-60407836D01*
X108160000Y-60192164D02*
X108160000Y-60407836D01*
X130465000Y-66438748D02*
X130465000Y-66961252D01*
X131935000Y-66438748D02*
X131935000Y-66961252D01*
D14*
X89991590Y-67325001D02*
G75*
G02*
X89678410Y-67325001I-156590J0D01*
G01*
X89678410Y-67325001D02*
G75*
G02*
X89991590Y-67325001I156590J0D01*
G01*
D12*
X93195000Y-66565000D02*
X89995000Y-66565000D01*
X89995000Y-64065000D01*
X93195000Y-64065000D01*
X93195000Y-66565000D01*
X128465000Y-66438748D02*
X128465000Y-66961252D01*
X129935000Y-66438748D02*
X129935000Y-66961252D01*
X118765000Y-66488748D02*
X118765000Y-67011252D01*
X120235000Y-66488748D02*
X120235000Y-67011252D01*
X92122836Y-67155000D02*
X91907164Y-67155000D01*
X92122836Y-67875000D02*
X91907164Y-67875000D01*
X115340000Y-65588748D02*
X115340000Y-67011252D01*
X118060000Y-65588748D02*
X118060000Y-67011252D01*
X93002500Y-69242165D02*
X93002500Y-69457837D01*
X93722500Y-69242165D02*
X93722500Y-69457837D01*
X85307836Y-59790400D02*
X85092164Y-59790400D01*
X85307836Y-60510400D02*
X85092164Y-60510400D01*
X100940000Y-60607836D02*
X100940000Y-60392164D01*
X101660000Y-60607836D02*
X101660000Y-60392164D01*
X85746359Y-64620000D02*
X86053641Y-64620000D01*
X85746359Y-65380000D02*
X86053641Y-65380000D01*
X125143641Y-68120000D02*
X124836359Y-68120000D01*
X125143641Y-68880000D02*
X124836359Y-68880000D01*
X100250000Y-70250000D02*
X100250000Y-62150000D01*
X108350000Y-62150000D02*
X108350000Y-70250000D01*
D15*
X108439000Y-61646000D02*
G75*
G02*
X108189000Y-61646000I-125000J0D01*
G01*
X108189000Y-61646000D02*
G75*
G02*
X108439000Y-61646000I125000J0D01*
G01*
D16*
X84268963Y-56366877D02*
X84268963Y-58483523D01*
X86631163Y-58483523D02*
X86631163Y-56366877D01*
D17*
X86908595Y-55465200D02*
G75*
G02*
X86611531Y-55465200I-148532J0D01*
G01*
X86611531Y-55465200D02*
G75*
G02*
X86908595Y-55465200I148532J0D01*
G01*
D12*
X87802500Y-69242165D02*
X87802500Y-69457837D01*
X88522500Y-69242165D02*
X88522500Y-69457837D01*
X93040000Y-73392164D02*
X93040000Y-73607836D01*
X93760000Y-73392164D02*
X93760000Y-73607836D01*
D10*
X91380000Y-56210000D02*
X94550000Y-56200000D01*
X91380000Y-63070000D02*
X94550000Y-63070000D01*
X94550000Y-76200000D02*
X94550000Y-56200000D01*
X114050000Y-56200000D02*
X94550000Y-56200000D01*
X114050000Y-76200000D02*
X94550000Y-76200000D01*
X114050000Y-76200000D02*
X114050000Y-56200000D01*
X117205000Y-69335000D02*
X114035000Y-69335000D01*
X117205000Y-76195000D02*
X114035000Y-76205000D01*
X91380000Y-63070000D02*
G75*
G02*
X91380000Y-56210000I0J3430000D01*
G01*
X117205000Y-69335000D02*
G75*
G02*
X117205000Y-76195000I0J-3430000D01*
G01*
D12*
X108740000Y-71972164D02*
X108740000Y-72187836D01*
X109460000Y-71972164D02*
X109460000Y-72187836D01*
X104320000Y-60246359D02*
X104320000Y-60553641D01*
X105080000Y-60246359D02*
X105080000Y-60553641D01*
X109140000Y-69692164D02*
X109140000Y-69907836D01*
X109860000Y-69692164D02*
X109860000Y-69907836D01*
X99320000Y-65946359D02*
X99320000Y-66253641D01*
X100080000Y-65946359D02*
X100080000Y-66253641D01*
X90762500Y-68190000D02*
X89962500Y-68190001D01*
X90762500Y-68190000D02*
X91562500Y-68190001D01*
X90762500Y-71310002D02*
X89962500Y-71310001D01*
X90762500Y-71310002D02*
X91562500Y-71310001D01*
X89462500Y-68240001D02*
X89222500Y-67910001D01*
X89702500Y-67910001D01*
X89462500Y-68240001D01*
G36*
X89462500Y-68240001D02*
G01*
X89222500Y-67910001D01*
X89702500Y-67910001D01*
X89462500Y-68240001D01*
G37*
X127153641Y-68020000D02*
X126846359Y-68020000D01*
X127153641Y-68780000D02*
X126846359Y-68780000D01*
X109140000Y-62592164D02*
X109140000Y-62807836D01*
X109860000Y-62592164D02*
X109860000Y-62807836D01*
X100840000Y-71892164D02*
X100840000Y-72107836D01*
X101560000Y-71892164D02*
X101560000Y-72107836D01*
X125200000Y-66950000D02*
X125200000Y-65650000D01*
X127000000Y-66950000D02*
X127000000Y-65850000D01*
X127280000Y-65600000D02*
X127000000Y-65600000D01*
X127000000Y-65320000D01*
X127280000Y-65600000D01*
G36*
X127280000Y-65600000D02*
G01*
X127000000Y-65600000D01*
X127000000Y-65320000D01*
X127280000Y-65600000D01*
G37*
X127340000Y-66192164D02*
X127340000Y-66407836D01*
X128060000Y-66192164D02*
X128060000Y-66407836D01*
X85253641Y-69587499D02*
X84946359Y-69587499D01*
X85253641Y-70347499D02*
X84946359Y-70347499D01*
X124036359Y-70500000D02*
X124343641Y-70500000D01*
X124036359Y-71260000D02*
X124343641Y-71260000D01*
%LPC*%
D18*
X101955000Y-66400000D02*
X100325000Y-66400000D01*
X100325000Y-69340000D01*
X101955000Y-69340000D01*
X101955000Y-66400000D01*
G36*
X101955000Y-66400000D02*
G01*
X100325000Y-66400000D01*
X100325000Y-69340000D01*
X101955000Y-69340000D01*
X101955000Y-66400000D01*
G37*
X101965000Y-63060000D02*
X100335000Y-63060000D01*
X100335000Y-66000000D01*
X101965000Y-66000000D01*
X101965000Y-63060000D01*
G36*
X101965000Y-63060000D02*
G01*
X100335000Y-63060000D01*
X100335000Y-66000000D01*
X101965000Y-66000000D01*
X101965000Y-63060000D01*
G37*
X103915000Y-63060000D02*
X102285000Y-63060000D01*
X102285000Y-66000000D01*
X103915000Y-66000000D01*
X103915000Y-63060000D01*
G36*
X103915000Y-63060000D02*
G01*
X102285000Y-63060000D01*
X102285000Y-66000000D01*
X103915000Y-66000000D01*
X103915000Y-63060000D01*
G37*
X103925000Y-66410000D02*
X102295000Y-66410000D01*
X102295000Y-69350000D01*
X103925000Y-69350000D01*
X103925000Y-66410000D01*
G36*
X103925000Y-66410000D02*
G01*
X102295000Y-66410000D01*
X102295000Y-69350000D01*
X103925000Y-69350000D01*
X103925000Y-66410000D01*
G37*
X105865000Y-66400000D02*
X104235000Y-66400000D01*
X104235000Y-69340000D01*
X105865000Y-69340000D01*
X105865000Y-66400000D01*
G36*
X105865000Y-66400000D02*
G01*
X104235000Y-66400000D01*
X104235000Y-69340000D01*
X105865000Y-69340000D01*
X105865000Y-66400000D01*
G37*
X105870000Y-63060000D02*
X104240000Y-63060000D01*
X104240000Y-66000000D01*
X105870000Y-66000000D01*
X105870000Y-63060000D01*
G36*
X105870000Y-63060000D02*
G01*
X104240000Y-63060000D01*
X104240000Y-66000000D01*
X105870000Y-66000000D01*
X105870000Y-63060000D01*
G37*
X108220000Y-63050000D02*
X106380000Y-63050000D01*
X106380000Y-65990000D01*
X108220000Y-65990000D01*
X108220000Y-63050000D01*
G36*
X108220000Y-63050000D02*
G01*
X106380000Y-63050000D01*
X106380000Y-65990000D01*
X108220000Y-65990000D01*
X108220000Y-63050000D01*
G37*
X108220000Y-66410000D02*
X106380000Y-66410000D01*
X106380000Y-69350000D01*
X108220000Y-69350000D01*
X108220000Y-66410000D01*
G36*
X108220000Y-66410000D02*
G01*
X106380000Y-66410000D01*
X106380000Y-69350000D01*
X108220000Y-69350000D01*
X108220000Y-66410000D01*
G37*
D19*
X89440000Y-77490000D03*
X91980000Y-77890000D03*
X94520000Y-77490000D03*
X97060000Y-77890000D03*
X99600000Y-77490000D03*
X102140000Y-77890000D03*
X104680000Y-77490000D03*
X107220000Y-77890000D03*
X109760000Y-77490000D03*
X112300000Y-77890000D03*
X114840000Y-77490000D03*
X117380000Y-77890000D03*
X117380000Y-54970000D03*
X114840000Y-54570000D03*
X112300000Y-54970000D03*
X109760000Y-54570000D03*
X107220000Y-54970000D03*
X104680000Y-54570000D03*
X102140000Y-54970000D03*
X99600000Y-54570000D03*
X97060000Y-54970000D03*
X94520000Y-54570000D03*
X91980000Y-54970000D03*
X89440000Y-54570000D03*
D20*
X89662500Y-72550001D03*
X89662500Y-73500000D03*
X89662500Y-74449999D03*
X91937500Y-74449999D03*
X91937500Y-72550001D03*
D21*
X133165000Y-65550000D03*
X133165000Y-64530000D03*
D22*
X126200000Y-60600000D03*
X120400000Y-60600000D03*
D23*
X100200000Y-60980000D03*
X100200000Y-60020000D03*
D24*
X109100000Y-59820000D03*
X109100000Y-60780000D03*
D25*
X121600000Y-65800000D03*
X121600000Y-67700000D03*
D26*
X85680000Y-54750400D03*
X84720000Y-54750400D03*
D27*
X84050000Y-68404999D03*
X85950000Y-68404999D03*
X85000000Y-66529999D03*
D24*
X106600000Y-59820000D03*
X106600000Y-60780000D03*
D28*
X133165000Y-66430000D03*
X133165000Y-67450000D03*
D24*
X88200000Y-72620000D03*
X88200000Y-73580000D03*
D28*
X105000000Y-71490001D03*
X105000000Y-72509999D03*
D29*
X135985000Y-69080000D03*
X135985000Y-63300000D03*
D30*
X134910000Y-69390000D03*
X134910000Y-68590000D03*
D31*
X134910000Y-67440000D03*
X134910000Y-66440000D03*
X134910000Y-65940000D03*
X134910000Y-64940000D03*
D30*
X134910000Y-62990000D03*
X134910000Y-63790000D03*
D31*
X134910000Y-64440000D03*
X134910000Y-65440000D03*
X134910000Y-66940000D03*
X134910000Y-67940000D03*
D32*
X135485000Y-70510000D03*
D33*
X139665000Y-70510000D03*
D32*
X135485000Y-61870000D03*
D33*
X139665000Y-61870000D03*
D24*
X106600000Y-71600000D03*
X106600000Y-72560000D03*
X100100000Y-71520000D03*
X100100000Y-72480000D03*
X107800000Y-71600000D03*
X107800000Y-72560000D03*
D34*
X93610000Y-76200000D03*
X92590000Y-76200000D03*
D24*
X107800000Y-59820000D03*
X107800000Y-60780000D03*
D25*
X131200000Y-65750000D03*
X131200000Y-67650000D03*
D35*
X90445000Y-66265000D03*
X92745000Y-66265000D03*
X92745000Y-64365000D03*
X90445000Y-64365000D03*
D25*
X129200000Y-65750000D03*
X129200000Y-67650000D03*
X119500000Y-65800000D03*
X119500000Y-67700000D03*
D26*
X92495000Y-67515000D03*
X91535000Y-67515000D03*
D36*
X139300000Y-77400000D03*
D37*
X116700000Y-64825000D03*
X116700000Y-67775000D03*
D24*
X93362500Y-68870001D03*
X93362500Y-69830001D03*
D36*
X139300000Y-55100000D03*
D26*
X85680000Y-60150400D03*
X84720000Y-60150400D03*
D23*
X101300000Y-60980000D03*
X101300000Y-60020000D03*
D38*
X85390000Y-65000000D03*
X86410000Y-65000000D03*
D34*
X125500000Y-68500000D03*
X124480000Y-68500000D03*
D39*
X107900000Y-62265400D03*
X107420000Y-62265400D03*
X106940000Y-62265400D03*
X106460000Y-62265400D03*
X105980000Y-62265400D03*
X105500000Y-62265400D03*
X105020000Y-62265400D03*
X104540000Y-62265400D03*
X104060000Y-62265400D03*
X103580000Y-62265400D03*
X103100000Y-62265400D03*
X102620000Y-62265400D03*
X102140000Y-62265400D03*
X101660000Y-62265400D03*
X101180000Y-62265400D03*
X100700000Y-62265400D03*
X100700000Y-70134600D03*
X101180000Y-70134600D03*
X101660000Y-70134600D03*
X102140000Y-70134600D03*
X102620000Y-70134600D03*
X103100000Y-70134600D03*
X103580000Y-70134600D03*
X104060000Y-70134600D03*
X104540000Y-70134600D03*
X105020000Y-70134600D03*
X105500000Y-70134600D03*
X105980000Y-70134600D03*
X106460000Y-70134600D03*
X106940000Y-70134600D03*
X107420000Y-70134600D03*
X107900000Y-70134600D03*
D40*
X86200252Y-55850400D03*
X85700126Y-55850400D03*
X85200000Y-55850400D03*
X84699874Y-55850400D03*
X84699874Y-59000000D03*
X85200000Y-59000000D03*
X85700126Y-59000000D03*
X86200252Y-59000000D03*
D24*
X88162500Y-68870001D03*
X88162500Y-69830001D03*
X93400000Y-73020000D03*
X93400000Y-73980000D03*
D41*
X117230000Y-72760000D03*
X91370000Y-59640000D03*
D24*
X109100000Y-71600000D03*
X109100000Y-72560000D03*
D28*
X104700000Y-59890000D03*
X104700000Y-60910000D03*
D24*
X109500000Y-69320000D03*
X109500000Y-70280000D03*
D28*
X99700000Y-65590000D03*
X99700000Y-66610000D03*
D20*
X89625000Y-68800002D03*
X89625000Y-69750001D03*
X89625000Y-70700000D03*
X91900000Y-70700000D03*
X91900000Y-68800002D03*
D34*
X127510000Y-68400000D03*
X126490000Y-68400000D03*
D24*
X109500000Y-62220000D03*
X109500000Y-63180000D03*
X101200000Y-71520000D03*
X101200000Y-72480000D03*
D42*
X126600000Y-65550000D03*
X126100000Y-65550000D03*
X125600000Y-65550000D03*
X125600000Y-67050000D03*
X126100000Y-67050000D03*
X126600000Y-67050000D03*
D36*
X81900000Y-55100000D03*
D24*
X127700000Y-65820000D03*
X127700000Y-66780000D03*
D34*
X85610000Y-69967499D03*
X84590000Y-69967499D03*
D38*
X123680000Y-70880000D03*
X124700000Y-70880000D03*
%LPD*%
M02*
