M48
; DRILL file {KiCad 8.0.1-8.0.1-1~ubuntu22.04.1} date 2024-08-12T13:14:37+0200
; FORMAT={-:-/ absolute / metric / decimal}
; #@! TF.CreationDate,2024-08-12T13:14:37+02:00
; #@! TF.GenerationSoftware,Kicad,Pcbnew,8.0.1-8.0.1-1~ubuntu22.04.1
; #@! TF.FileFunction,Plated,1,2,PTH
FMAT,2
METRIC
; #@! TA.AperFunction,Plated,PTH,ViaDrill
T1C0.300
; #@! TA.AperFunction,Plated,PTH,ComponentDrill
T2C0.600
; #@! TA.AperFunction,Plated,PTH,ComponentDrill
T3C1.000
%
G90
G05
T1
X82.4Y-68.5
X83.7Y-69.8
X83.7Y-71.5
X83.9Y-66.6
X84.4Y-56.8
X84.553Y-69.743
X84.641Y-71.4
X85.45Y-73.289
X85.547Y-71.457
X86.256Y-62.398
X86.4Y-61.0
X87.47Y-68.8
X87.6Y-67.7
X88.0Y-61.1
X88.9Y-64.3
X89.725Y-76.525
X90.0Y-66.1
X90.1Y-65.2
X90.856Y-75.394
X91.1Y-63.9
X93.5Y-59.5
X93.5Y-66.3
X93.677Y-61.494
X94.0Y-72.0
X94.1Y-69.0
X94.19Y-74.86
X94.2Y-63.7
X94.426Y-71.074
X96.0Y-64.0
X96.0Y-66.0
X96.0Y-68.0
X98.8Y-74.89
X99.4Y-65.1
X99.4Y-70.46
X101.0Y-74.0
X101.05Y-63.7
X101.05Y-64.7
X101.05Y-65.7
X101.05Y-66.7
X101.05Y-67.7
X101.05Y-68.7
X102.05Y-63.7
X102.05Y-64.7
X102.05Y-65.7
X102.05Y-66.7
X102.05Y-67.7
X102.05Y-68.7
X103.0Y-74.0
X103.05Y-63.7
X103.05Y-64.7
X103.05Y-65.7
X103.05Y-66.7
X103.05Y-67.7
X103.05Y-68.7
X103.2Y-76.7
X104.05Y-63.7
X104.05Y-64.7
X104.05Y-65.7
X104.05Y-66.7
X104.05Y-67.7
X104.05Y-68.7
X105.0Y-57.0
X105.0Y-74.0
X105.05Y-63.7
X105.05Y-64.7
X105.05Y-65.7
X105.05Y-66.7
X105.05Y-67.7
X105.05Y-68.7
X107.0Y-57.0
X107.3Y-74.7
X109.0Y-57.0
X113.0Y-62.0
X113.0Y-70.0
X115.613Y-57.176
X116.6Y-74.2
X117.89Y-69.6
X117.89Y-70.83
X118.8Y-76.0
X118.818Y-73.633
X119.5Y-74.1
X119.631Y-76.073
X119.93Y-70.8
X120.22Y-69.58
X121.11Y-70.78
X121.9Y-73.7
X122.93Y-74.01
X125.67Y-64.48
X125.67Y-65.98
X126.3Y-63.7
X126.3Y-65.25
X126.3Y-66.8
X126.97Y-64.48
X126.97Y-65.98
X129.55Y-63.75
X133.8Y-65.39
X133.8Y-66.29
T3
X89.44Y-54.77
X89.44Y-77.69
X91.98Y-54.77
X91.98Y-77.69
X94.52Y-54.77
X94.52Y-77.69
X97.06Y-54.77
X97.06Y-77.69
X99.6Y-54.77
X99.6Y-77.69
X102.14Y-54.77
X102.14Y-77.69
X104.68Y-54.77
X104.68Y-77.69
X107.22Y-54.77
X107.22Y-77.69
X109.76Y-54.77
X109.76Y-77.69
X112.3Y-54.77
X112.3Y-77.69
X114.84Y-54.77
X114.84Y-77.69
X117.38Y-54.77
X117.38Y-77.69
T2
X134.935Y-61.87G85X136.035Y-61.87
G05
X134.935Y-70.51G85X136.035Y-70.51
G05
X139.265Y-61.87G85X140.065Y-61.87
G05
X139.265Y-70.51G85X140.065Y-70.51
G05
M30
