G04 #@! TF.GenerationSoftware,KiCad,Pcbnew,8.0.1-8.0.1-1~ubuntu22.04.1*
G04 #@! TF.CreationDate,2024-08-12T13:14:35+02:00*
G04 #@! TF.ProjectId,NerdNOS,4e657264-4e4f-4532-9e6b-696361645f70,rev?*
G04 #@! TF.SameCoordinates,Original*
G04 #@! TF.FileFunction,Copper,L2,Bot*
G04 #@! TF.FilePolarity,Positive*
%FSLAX46Y46*%
G04 Gerber Fmt 4.6, Leading zero omitted, Abs format (unit mm)*
G04 Created by KiCad (PCBNEW 8.0.1-8.0.1-1~ubuntu22.04.1) date 2024-08-12 13:14:35*
%MOMM*%
%LPD*%
G01*
G04 APERTURE LIST*
G04 #@! TA.AperFunction,ComponentPad*
%ADD10O,2.100000X1.000000*%
G04 #@! TD*
G04 #@! TA.AperFunction,ComponentPad*
%ADD11O,1.800000X1.000000*%
G04 #@! TD*
G04 #@! TA.AperFunction,ComponentPad*
%ADD12C,1.700000*%
G04 #@! TD*
G04 #@! TA.AperFunction,ViaPad*
%ADD13C,0.600000*%
G04 #@! TD*
G04 #@! TA.AperFunction,Conductor*
%ADD14C,0.400000*%
G04 #@! TD*
G04 #@! TA.AperFunction,Conductor*
%ADD15C,0.200000*%
G04 #@! TD*
G04 APERTURE END LIST*
D10*
X135485000Y-70510000D03*
D11*
X139665000Y-70510000D03*
D10*
X135485000Y-61870000D03*
D11*
X139665000Y-61870000D03*
D12*
X89440000Y-77690000D03*
X91980000Y-77690000D03*
X94520000Y-77690000D03*
X97060000Y-77690000D03*
X99600000Y-77690000D03*
X102140000Y-77690000D03*
X104680000Y-77690000D03*
X107220000Y-77690000D03*
X109760000Y-77690000D03*
X112300000Y-77690000D03*
X114840000Y-77690000D03*
X117380000Y-77690000D03*
X117380000Y-54770000D03*
X114840000Y-54770000D03*
X112300000Y-54770000D03*
X109760000Y-54770000D03*
X107220000Y-54770000D03*
X104680000Y-54770000D03*
X102140000Y-54770000D03*
X99600000Y-54770000D03*
X97060000Y-54770000D03*
X94520000Y-54770000D03*
X91980000Y-54770000D03*
X89440000Y-54770000D03*
D13*
X87600000Y-67700000D03*
X99400000Y-65100000D03*
X104050000Y-65700000D03*
X101050000Y-64700000D03*
X126970000Y-64480000D03*
X105050000Y-66700000D03*
X85450063Y-73288993D03*
X115612851Y-57176045D03*
X129550000Y-63749990D03*
X104050000Y-64700000D03*
X105050000Y-63700000D03*
X126300000Y-65250000D03*
X120220000Y-69580000D03*
X101050000Y-68700000D03*
X84400000Y-56800000D03*
X102050000Y-66700000D03*
X103050000Y-63700000D03*
X107000000Y-57000000D03*
X90100000Y-65200000D03*
X119930000Y-70800000D03*
X113000000Y-62000000D03*
X117890000Y-70830000D03*
X103050000Y-68700000D03*
X103050000Y-64700000D03*
X105050000Y-68700000D03*
X125670000Y-64480000D03*
X104050000Y-63700000D03*
X104050000Y-66700000D03*
X101050000Y-65700000D03*
X88000000Y-61100000D03*
X85546787Y-71457468D03*
X101050000Y-63700000D03*
X93677036Y-61494171D03*
X116600000Y-74200000D03*
X102050000Y-64700000D03*
X122930000Y-74010000D03*
X86255604Y-62397971D03*
X103000000Y-74000000D03*
X94000000Y-72000000D03*
X103050000Y-66700000D03*
X105050000Y-67700000D03*
X133800000Y-66290000D03*
X94200000Y-63700000D03*
X105050000Y-64700000D03*
X94100000Y-69000000D03*
X126300000Y-63700000D03*
X102050000Y-68700000D03*
X91100000Y-63900000D03*
X96000000Y-64000000D03*
X86400000Y-61000000D03*
X117890000Y-69600000D03*
X125670000Y-65980000D03*
X101050000Y-67700000D03*
X104050000Y-68700000D03*
X121110000Y-70780000D03*
X109000000Y-57000000D03*
X103050000Y-67700000D03*
X101000000Y-74000000D03*
X104050000Y-67700000D03*
X88900000Y-64300000D03*
X126300000Y-66800000D03*
X96000000Y-66000000D03*
X93500000Y-66300000D03*
X105000000Y-74000000D03*
X102050000Y-67700000D03*
X105050000Y-65700000D03*
X133800000Y-65390000D03*
X105000000Y-57000000D03*
X121900000Y-73700000D03*
X102050000Y-63700000D03*
X101050000Y-66700000D03*
X90000000Y-66100000D03*
X126970000Y-65980000D03*
X96000000Y-68000000D03*
X102050000Y-65700000D03*
X103050000Y-65700000D03*
X83900000Y-66600000D03*
X113000000Y-70000000D03*
X93500000Y-59500000D03*
X94425735Y-71074265D03*
X107300000Y-74700000D03*
X83700000Y-71500000D03*
X90856372Y-75393628D03*
X89725000Y-76525000D03*
X83700000Y-69800000D03*
X103200000Y-76700000D03*
X119631266Y-76072899D03*
X119500000Y-74100000D03*
X99400000Y-70460000D03*
X98800000Y-74890000D03*
X94190000Y-74860000D03*
X84640790Y-71400000D03*
X84553031Y-69742747D03*
X82400000Y-68500000D03*
X87470000Y-68800000D03*
X118817720Y-73633399D03*
X118800000Y-76000000D03*
D14*
X94425735Y-71074265D02*
X94425735Y-70574265D01*
X94425735Y-70574265D02*
X94910000Y-70090000D01*
X94910000Y-70090000D02*
X94910000Y-60910000D01*
X94910000Y-60910000D02*
X93500000Y-59500000D01*
D15*
X107300000Y-74700000D02*
X107220000Y-74780000D01*
X107220000Y-74780000D02*
X107220000Y-77690000D01*
D14*
X83700000Y-69800000D02*
X83700000Y-71500000D01*
X90856372Y-75393628D02*
X89725000Y-76525000D01*
D15*
X119500000Y-75941633D02*
X119631266Y-76072899D01*
X102616346Y-76540000D02*
X100750000Y-76540000D01*
X103200000Y-76700000D02*
X102776346Y-76700000D01*
X100750000Y-76540000D02*
X99600000Y-77690000D01*
X119500000Y-74100000D02*
X119500000Y-75941633D01*
X102776346Y-76700000D02*
X102616346Y-76540000D01*
X99400000Y-70460000D02*
X99400000Y-74290000D01*
X94520000Y-75190000D02*
X94190000Y-74860000D01*
X99400000Y-74290000D02*
X98800000Y-74890000D01*
X94520000Y-77690000D02*
X94520000Y-75190000D01*
X84553031Y-71312241D02*
X84640790Y-71400000D01*
X84553031Y-69742747D02*
X84553031Y-71312241D01*
X82700000Y-68800000D02*
X82400000Y-68500000D01*
X83972811Y-68800000D02*
X82700000Y-68800000D01*
X87470000Y-68800000D02*
X83972811Y-68800000D01*
X118817720Y-75982280D02*
X118817720Y-73633399D01*
X118800000Y-76000000D02*
X118817720Y-75982280D01*
G04 #@! TA.AperFunction,Conductor*
G36*
X93652983Y-53519685D02*
G01*
X93698738Y-53572489D01*
X93708682Y-53641647D01*
X93679657Y-53705203D01*
X93657069Y-53725574D01*
X93648595Y-53731507D01*
X93481505Y-53898597D01*
X93345965Y-54092169D01*
X93345964Y-54092171D01*
X93246098Y-54306335D01*
X93246094Y-54306344D01*
X93184938Y-54534586D01*
X93184936Y-54534596D01*
X93164341Y-54769999D01*
X93164341Y-54770000D01*
X93184936Y-55005403D01*
X93184938Y-55005413D01*
X93246094Y-55233655D01*
X93246096Y-55233659D01*
X93246097Y-55233663D01*
X93250000Y-55242032D01*
X93345965Y-55447830D01*
X93345967Y-55447834D01*
X93454281Y-55602521D01*
X93481505Y-55641401D01*
X93648599Y-55808495D01*
X93745384Y-55876265D01*
X93842165Y-55944032D01*
X93842167Y-55944033D01*
X93842170Y-55944035D01*
X94056337Y-56043903D01*
X94284592Y-56105063D01*
X94472918Y-56121539D01*
X94519999Y-56125659D01*
X94520000Y-56125659D01*
X94520001Y-56125659D01*
X94559234Y-56122226D01*
X94755408Y-56105063D01*
X94983663Y-56043903D01*
X95197830Y-55944035D01*
X95391401Y-55808495D01*
X95558495Y-55641401D01*
X95688425Y-55455842D01*
X95743002Y-55412217D01*
X95812500Y-55405023D01*
X95874855Y-55436546D01*
X95891575Y-55455842D01*
X96021500Y-55641395D01*
X96021505Y-55641401D01*
X96188599Y-55808495D01*
X96285384Y-55876265D01*
X96382165Y-55944032D01*
X96382167Y-55944033D01*
X96382170Y-55944035D01*
X96596337Y-56043903D01*
X96824592Y-56105063D01*
X97012918Y-56121539D01*
X97059999Y-56125659D01*
X97060000Y-56125659D01*
X97060001Y-56125659D01*
X97099234Y-56122226D01*
X97295408Y-56105063D01*
X97523663Y-56043903D01*
X97737830Y-55944035D01*
X97931401Y-55808495D01*
X98098495Y-55641401D01*
X98228425Y-55455842D01*
X98283002Y-55412217D01*
X98352500Y-55405023D01*
X98414855Y-55436546D01*
X98431575Y-55455842D01*
X98561500Y-55641395D01*
X98561505Y-55641401D01*
X98728599Y-55808495D01*
X98825384Y-55876265D01*
X98922165Y-55944032D01*
X98922167Y-55944033D01*
X98922170Y-55944035D01*
X99136337Y-56043903D01*
X99364592Y-56105063D01*
X99552918Y-56121539D01*
X99599999Y-56125659D01*
X99600000Y-56125659D01*
X99600001Y-56125659D01*
X99639234Y-56122226D01*
X99835408Y-56105063D01*
X100063663Y-56043903D01*
X100277830Y-55944035D01*
X100471401Y-55808495D01*
X100638495Y-55641401D01*
X100768425Y-55455842D01*
X100823002Y-55412217D01*
X100892500Y-55405023D01*
X100954855Y-55436546D01*
X100971575Y-55455842D01*
X101101500Y-55641395D01*
X101101505Y-55641401D01*
X101268599Y-55808495D01*
X101365384Y-55876265D01*
X101462165Y-55944032D01*
X101462167Y-55944033D01*
X101462170Y-55944035D01*
X101676337Y-56043903D01*
X101904592Y-56105063D01*
X102092918Y-56121539D01*
X102139999Y-56125659D01*
X102140000Y-56125659D01*
X102140001Y-56125659D01*
X102179234Y-56122226D01*
X102375408Y-56105063D01*
X102603663Y-56043903D01*
X102817830Y-55944035D01*
X103011401Y-55808495D01*
X103178495Y-55641401D01*
X103308425Y-55455842D01*
X103363002Y-55412217D01*
X103432500Y-55405023D01*
X103494855Y-55436546D01*
X103511575Y-55455842D01*
X103641500Y-55641395D01*
X103641505Y-55641401D01*
X103808599Y-55808495D01*
X103905384Y-55876265D01*
X104002165Y-55944032D01*
X104002167Y-55944033D01*
X104002170Y-55944035D01*
X104216337Y-56043903D01*
X104444592Y-56105063D01*
X104632918Y-56121539D01*
X104679999Y-56125659D01*
X104680000Y-56125659D01*
X104680001Y-56125659D01*
X104719234Y-56122226D01*
X104915408Y-56105063D01*
X105143663Y-56043903D01*
X105357830Y-55944035D01*
X105551401Y-55808495D01*
X105718495Y-55641401D01*
X105848425Y-55455842D01*
X105903002Y-55412217D01*
X105972500Y-55405023D01*
X106034855Y-55436546D01*
X106051575Y-55455842D01*
X106181500Y-55641395D01*
X106181505Y-55641401D01*
X106348599Y-55808495D01*
X106445384Y-55876265D01*
X106542165Y-55944032D01*
X106542167Y-55944033D01*
X106542170Y-55944035D01*
X106756337Y-56043903D01*
X106984592Y-56105063D01*
X107172918Y-56121539D01*
X107219999Y-56125659D01*
X107220000Y-56125659D01*
X107220001Y-56125659D01*
X107259234Y-56122226D01*
X107455408Y-56105063D01*
X107683663Y-56043903D01*
X107897830Y-55944035D01*
X108091401Y-55808495D01*
X108258495Y-55641401D01*
X108388425Y-55455842D01*
X108443002Y-55412217D01*
X108512500Y-55405023D01*
X108574855Y-55436546D01*
X108591575Y-55455842D01*
X108721500Y-55641395D01*
X108721505Y-55641401D01*
X108888599Y-55808495D01*
X108985384Y-55876265D01*
X109082165Y-55944032D01*
X109082167Y-55944033D01*
X109082170Y-55944035D01*
X109296337Y-56043903D01*
X109524592Y-56105063D01*
X109712918Y-56121539D01*
X109759999Y-56125659D01*
X109760000Y-56125659D01*
X109760001Y-56125659D01*
X109799234Y-56122226D01*
X109995408Y-56105063D01*
X110223663Y-56043903D01*
X110437830Y-55944035D01*
X110631401Y-55808495D01*
X110798495Y-55641401D01*
X110934035Y-55447830D01*
X111033903Y-55233663D01*
X111095063Y-55005408D01*
X111115659Y-54770000D01*
X111095063Y-54534592D01*
X111033903Y-54306337D01*
X110934035Y-54092171D01*
X110928425Y-54084158D01*
X110798494Y-53898597D01*
X110631402Y-53731506D01*
X110631398Y-53731503D01*
X110622931Y-53725574D01*
X110579307Y-53670997D01*
X110572115Y-53601498D01*
X110603638Y-53539144D01*
X110663868Y-53503731D01*
X110694056Y-53500000D01*
X116445944Y-53500000D01*
X116512983Y-53519685D01*
X116558738Y-53572489D01*
X116568682Y-53641647D01*
X116539657Y-53705203D01*
X116517069Y-53725574D01*
X116508595Y-53731507D01*
X116341505Y-53898597D01*
X116205965Y-54092169D01*
X116205964Y-54092171D01*
X116106098Y-54306335D01*
X116106094Y-54306344D01*
X116044938Y-54534586D01*
X116044936Y-54534596D01*
X116024341Y-54769999D01*
X116024341Y-54770000D01*
X116044936Y-55005403D01*
X116044938Y-55005413D01*
X116106094Y-55233655D01*
X116106096Y-55233659D01*
X116106097Y-55233663D01*
X116110000Y-55242032D01*
X116205965Y-55447830D01*
X116205967Y-55447834D01*
X116314281Y-55602521D01*
X116341505Y-55641401D01*
X116508599Y-55808495D01*
X116605384Y-55876265D01*
X116702165Y-55944032D01*
X116702167Y-55944033D01*
X116702170Y-55944035D01*
X116916337Y-56043903D01*
X117144592Y-56105063D01*
X117332918Y-56121539D01*
X117379999Y-56125659D01*
X117380000Y-56125659D01*
X117380001Y-56125659D01*
X117419234Y-56122226D01*
X117615408Y-56105063D01*
X117843663Y-56043903D01*
X118057830Y-55944035D01*
X118251401Y-55808495D01*
X118418495Y-55641401D01*
X118554035Y-55447830D01*
X118653903Y-55233663D01*
X118715063Y-55005408D01*
X118735659Y-54770000D01*
X118715063Y-54534592D01*
X118653903Y-54306337D01*
X118554035Y-54092171D01*
X118548425Y-54084158D01*
X118418494Y-53898597D01*
X118251402Y-53731506D01*
X118251398Y-53731503D01*
X118242931Y-53725574D01*
X118199307Y-53670997D01*
X118192115Y-53601498D01*
X118223638Y-53539144D01*
X118283868Y-53503731D01*
X118314056Y-53500000D01*
X140397978Y-53500000D01*
X140402021Y-53500066D01*
X140406710Y-53500218D01*
X140451282Y-53501673D01*
X140479325Y-53505831D01*
X140576403Y-53531843D01*
X140606301Y-53544227D01*
X140691558Y-53593450D01*
X140717237Y-53613155D01*
X140786844Y-53682762D01*
X140806550Y-53708443D01*
X140819865Y-53731506D01*
X140855770Y-53793694D01*
X140868158Y-53823601D01*
X140894167Y-53920670D01*
X140898326Y-53948717D01*
X140899934Y-53997975D01*
X140900000Y-54002021D01*
X140900000Y-78497978D01*
X140899934Y-78502024D01*
X140898326Y-78551282D01*
X140894167Y-78579329D01*
X140868158Y-78676398D01*
X140855770Y-78706305D01*
X140806550Y-78791556D01*
X140786844Y-78817237D01*
X140717237Y-78886844D01*
X140691556Y-78906550D01*
X140606305Y-78955770D01*
X140576398Y-78968158D01*
X140479329Y-78994167D01*
X140451282Y-78998326D01*
X140406973Y-78999772D01*
X140402020Y-78999934D01*
X140397978Y-79000000D01*
X118256930Y-79000000D01*
X118189891Y-78980315D01*
X118144136Y-78927511D01*
X118134192Y-78858353D01*
X118163217Y-78794797D01*
X118185806Y-78774425D01*
X118251401Y-78728495D01*
X118418495Y-78561401D01*
X118554035Y-78367830D01*
X118653903Y-78153663D01*
X118715063Y-77925408D01*
X118735659Y-77690000D01*
X118715063Y-77454592D01*
X118653903Y-77226337D01*
X118554035Y-77012171D01*
X118554034Y-77012169D01*
X118554033Y-77012167D01*
X118533536Y-76982895D01*
X118511208Y-76916689D01*
X118528218Y-76848922D01*
X118579165Y-76801108D01*
X118647875Y-76788430D01*
X118648994Y-76788551D01*
X118799997Y-76805565D01*
X118800000Y-76805565D01*
X118800004Y-76805565D01*
X118979249Y-76785369D01*
X118979252Y-76785368D01*
X118979255Y-76785368D01*
X118979256Y-76785367D01*
X118979259Y-76785367D01*
X119022485Y-76770240D01*
X119103565Y-76741869D01*
X119173342Y-76738307D01*
X119210491Y-76753917D01*
X119265611Y-76788551D01*
X119281744Y-76798688D01*
X119425305Y-76848922D01*
X119452011Y-76858267D01*
X119452016Y-76858268D01*
X119631262Y-76878464D01*
X119631266Y-76878464D01*
X119631270Y-76878464D01*
X119810515Y-76858268D01*
X119810518Y-76858267D01*
X119810521Y-76858267D01*
X119980788Y-76798688D01*
X120133528Y-76702715D01*
X120261082Y-76575161D01*
X120357055Y-76422421D01*
X120416634Y-76252154D01*
X120422765Y-76197738D01*
X120436831Y-76072902D01*
X120436831Y-76072895D01*
X120416635Y-75893649D01*
X120416634Y-75893644D01*
X120391127Y-75820750D01*
X120357055Y-75723377D01*
X120261082Y-75570637D01*
X120136819Y-75446374D01*
X120103334Y-75385051D01*
X120100500Y-75358693D01*
X120100500Y-74682412D01*
X120120185Y-74615373D01*
X120127555Y-74605097D01*
X120129810Y-74602267D01*
X120129816Y-74602262D01*
X120225789Y-74449522D01*
X120285368Y-74279255D01*
X120290897Y-74230184D01*
X120305565Y-74100003D01*
X120305565Y-74099996D01*
X120285369Y-73920750D01*
X120285368Y-73920745D01*
X120225788Y-73750476D01*
X120129815Y-73597737D01*
X120002262Y-73470184D01*
X119849521Y-73374210D01*
X119679249Y-73314630D01*
X119613302Y-73307200D01*
X119548888Y-73280133D01*
X119522192Y-73249952D01*
X119447535Y-73131136D01*
X119319982Y-73003583D01*
X119167243Y-72907610D01*
X118996974Y-72848030D01*
X118996969Y-72848029D01*
X118817724Y-72827834D01*
X118817716Y-72827834D01*
X118638470Y-72848029D01*
X118638465Y-72848030D01*
X118468196Y-72907610D01*
X118315457Y-73003583D01*
X118187904Y-73131136D01*
X118091931Y-73283875D01*
X118032351Y-73454144D01*
X118032350Y-73454149D01*
X118012155Y-73633395D01*
X118012155Y-73633402D01*
X118032350Y-73812648D01*
X118032351Y-73812653D01*
X118091931Y-73982922D01*
X118187905Y-74135662D01*
X118190165Y-74138496D01*
X118191054Y-74140674D01*
X118191609Y-74141557D01*
X118191454Y-74141654D01*
X118216575Y-74203182D01*
X118217220Y-74215811D01*
X118217220Y-75399340D01*
X118197535Y-75466379D01*
X118180901Y-75487021D01*
X118170184Y-75497737D01*
X118074211Y-75650476D01*
X118014631Y-75820745D01*
X118014630Y-75820750D01*
X117994435Y-75999996D01*
X117994435Y-76000003D01*
X118014630Y-76179249D01*
X118014632Y-76179257D01*
X118049845Y-76279891D01*
X118053406Y-76349670D01*
X118018677Y-76410297D01*
X117956683Y-76442524D01*
X117887108Y-76436118D01*
X117880398Y-76433227D01*
X117843663Y-76416097D01*
X117843659Y-76416096D01*
X117843655Y-76416094D01*
X117615413Y-76354938D01*
X117615403Y-76354936D01*
X117380001Y-76334341D01*
X117379999Y-76334341D01*
X117144596Y-76354936D01*
X117144586Y-76354938D01*
X116916344Y-76416094D01*
X116916335Y-76416098D01*
X116702171Y-76515964D01*
X116702169Y-76515965D01*
X116508597Y-76651505D01*
X116341505Y-76818597D01*
X116205965Y-77012169D01*
X116205964Y-77012171D01*
X116106098Y-77226335D01*
X116106094Y-77226344D01*
X116044938Y-77454586D01*
X116044936Y-77454596D01*
X116024341Y-77689999D01*
X116024341Y-77690000D01*
X116044936Y-77925403D01*
X116044938Y-77925413D01*
X116106094Y-78153655D01*
X116106096Y-78153659D01*
X116106097Y-78153663D01*
X116110000Y-78162032D01*
X116205965Y-78367830D01*
X116205967Y-78367834D01*
X116297096Y-78497978D01*
X116341505Y-78561401D01*
X116508599Y-78728495D01*
X116574194Y-78774425D01*
X116617818Y-78829002D01*
X116625011Y-78898501D01*
X116593489Y-78960855D01*
X116533259Y-78996269D01*
X116503070Y-79000000D01*
X113176930Y-79000000D01*
X113109891Y-78980315D01*
X113064136Y-78927511D01*
X113054192Y-78858353D01*
X113083217Y-78794797D01*
X113105806Y-78774425D01*
X113171401Y-78728495D01*
X113338495Y-78561401D01*
X113474035Y-78367830D01*
X113573903Y-78153663D01*
X113635063Y-77925408D01*
X113655659Y-77690000D01*
X113635063Y-77454592D01*
X113573903Y-77226337D01*
X113474035Y-77012171D01*
X113474033Y-77012167D01*
X113338494Y-76818597D01*
X113171402Y-76651506D01*
X113171395Y-76651501D01*
X112977834Y-76515967D01*
X112977830Y-76515965D01*
X112873798Y-76467454D01*
X112763663Y-76416097D01*
X112763659Y-76416096D01*
X112763655Y-76416094D01*
X112535413Y-76354938D01*
X112535403Y-76354936D01*
X112300001Y-76334341D01*
X112299999Y-76334341D01*
X112064596Y-76354936D01*
X112064586Y-76354938D01*
X111836344Y-76416094D01*
X111836335Y-76416098D01*
X111622171Y-76515964D01*
X111622169Y-76515965D01*
X111428597Y-76651505D01*
X111261505Y-76818597D01*
X111131575Y-77004158D01*
X111076998Y-77047783D01*
X111007500Y-77054977D01*
X110945145Y-77023454D01*
X110928425Y-77004158D01*
X110798494Y-76818597D01*
X110631402Y-76651506D01*
X110631395Y-76651501D01*
X110437834Y-76515967D01*
X110437830Y-76515965D01*
X110333798Y-76467454D01*
X110223663Y-76416097D01*
X110223659Y-76416096D01*
X110223655Y-76416094D01*
X109995413Y-76354938D01*
X109995403Y-76354936D01*
X109760001Y-76334341D01*
X109759999Y-76334341D01*
X109524596Y-76354936D01*
X109524586Y-76354938D01*
X109296344Y-76416094D01*
X109296335Y-76416098D01*
X109082171Y-76515964D01*
X109082169Y-76515965D01*
X108888597Y-76651505D01*
X108721505Y-76818597D01*
X108591575Y-77004158D01*
X108536998Y-77047783D01*
X108467500Y-77054977D01*
X108405145Y-77023454D01*
X108388425Y-77004158D01*
X108258494Y-76818597D01*
X108091402Y-76651506D01*
X108091395Y-76651501D01*
X107897831Y-76515965D01*
X107897826Y-76515962D01*
X107892091Y-76513288D01*
X107839653Y-76467113D01*
X107820500Y-76400908D01*
X107820500Y-75362940D01*
X107840185Y-75295901D01*
X107856819Y-75275259D01*
X107892557Y-75239521D01*
X107929816Y-75202262D01*
X108025789Y-75049522D01*
X108085368Y-74879255D01*
X108087537Y-74860003D01*
X108105565Y-74700003D01*
X108105565Y-74699996D01*
X108085369Y-74520750D01*
X108085368Y-74520745D01*
X108032290Y-74369057D01*
X108025789Y-74350478D01*
X107929816Y-74197738D01*
X107802262Y-74070184D01*
X107755364Y-74040716D01*
X107649523Y-73974211D01*
X107479254Y-73914631D01*
X107479249Y-73914630D01*
X107300004Y-73894435D01*
X107299996Y-73894435D01*
X107120750Y-73914630D01*
X107120745Y-73914631D01*
X106950476Y-73974211D01*
X106797737Y-74070184D01*
X106670184Y-74197737D01*
X106574211Y-74350476D01*
X106514631Y-74520745D01*
X106514630Y-74520750D01*
X106494435Y-74699996D01*
X106494435Y-74700003D01*
X106514630Y-74879249D01*
X106514631Y-74879254D01*
X106572315Y-75044104D01*
X106574211Y-75049522D01*
X106600493Y-75091349D01*
X106619500Y-75157321D01*
X106619500Y-76400908D01*
X106599815Y-76467947D01*
X106547914Y-76513286D01*
X106542173Y-76515963D01*
X106542169Y-76515965D01*
X106348597Y-76651505D01*
X106181505Y-76818597D01*
X106051575Y-77004158D01*
X105996998Y-77047783D01*
X105927500Y-77054977D01*
X105865145Y-77023454D01*
X105848425Y-77004158D01*
X105718494Y-76818597D01*
X105551402Y-76651506D01*
X105551395Y-76651501D01*
X105357834Y-76515967D01*
X105357830Y-76515965D01*
X105253798Y-76467454D01*
X105143663Y-76416097D01*
X105143659Y-76416096D01*
X105143655Y-76416094D01*
X104915413Y-76354938D01*
X104915403Y-76354936D01*
X104680001Y-76334341D01*
X104679999Y-76334341D01*
X104444596Y-76354936D01*
X104444586Y-76354938D01*
X104216344Y-76416094D01*
X104216339Y-76416096D01*
X104110475Y-76465461D01*
X104041397Y-76475952D01*
X103977614Y-76447432D01*
X103941029Y-76394031D01*
X103925790Y-76350479D01*
X103829815Y-76197737D01*
X103702262Y-76070184D01*
X103549523Y-75974211D01*
X103379254Y-75914631D01*
X103379249Y-75914630D01*
X103200004Y-75894435D01*
X103199996Y-75894435D01*
X103020750Y-75914630D01*
X103020742Y-75914632D01*
X102875508Y-75965452D01*
X102805730Y-75969013D01*
X102802461Y-75968185D01*
X102767454Y-75958805D01*
X102695403Y-75939499D01*
X102537289Y-75939499D01*
X102529693Y-75939499D01*
X102529677Y-75939500D01*
X100836670Y-75939500D01*
X100836654Y-75939499D01*
X100829058Y-75939499D01*
X100670943Y-75939499D01*
X100594579Y-75959961D01*
X100518214Y-75980423D01*
X100518209Y-75980426D01*
X100381290Y-76059475D01*
X100381286Y-76059478D01*
X100083529Y-76357234D01*
X100022206Y-76390718D01*
X99963755Y-76389327D01*
X99835413Y-76354938D01*
X99835403Y-76354936D01*
X99600001Y-76334341D01*
X99599999Y-76334341D01*
X99364596Y-76354936D01*
X99364586Y-76354938D01*
X99136344Y-76416094D01*
X99136335Y-76416098D01*
X98922171Y-76515964D01*
X98922169Y-76515965D01*
X98728597Y-76651505D01*
X98561505Y-76818597D01*
X98431575Y-77004158D01*
X98376998Y-77047783D01*
X98307500Y-77054977D01*
X98245145Y-77023454D01*
X98228425Y-77004158D01*
X98098494Y-76818597D01*
X97931402Y-76651506D01*
X97931395Y-76651501D01*
X97737834Y-76515967D01*
X97737830Y-76515965D01*
X97633798Y-76467454D01*
X97523663Y-76416097D01*
X97523659Y-76416096D01*
X97523655Y-76416094D01*
X97295413Y-76354938D01*
X97295403Y-76354936D01*
X97060001Y-76334341D01*
X97059999Y-76334341D01*
X96824596Y-76354936D01*
X96824586Y-76354938D01*
X96596344Y-76416094D01*
X96596335Y-76416098D01*
X96382171Y-76515964D01*
X96382169Y-76515965D01*
X96188597Y-76651505D01*
X96021505Y-76818597D01*
X95891575Y-77004158D01*
X95836998Y-77047783D01*
X95767500Y-77054977D01*
X95705145Y-77023454D01*
X95688425Y-77004158D01*
X95558494Y-76818597D01*
X95391402Y-76651506D01*
X95391395Y-76651501D01*
X95197831Y-76515965D01*
X95197826Y-76515962D01*
X95192091Y-76513288D01*
X95139653Y-76467113D01*
X95120500Y-76400908D01*
X95120500Y-75110945D01*
X95120500Y-75110943D01*
X95079577Y-74958216D01*
X95040195Y-74890003D01*
X97994435Y-74890003D01*
X98014630Y-75069249D01*
X98014631Y-75069254D01*
X98074211Y-75239523D01*
X98149091Y-75358693D01*
X98170184Y-75392262D01*
X98297738Y-75519816D01*
X98450478Y-75615789D01*
X98620745Y-75675368D01*
X98620750Y-75675369D01*
X98799996Y-75695565D01*
X98800000Y-75695565D01*
X98800004Y-75695565D01*
X98979249Y-75675369D01*
X98979252Y-75675368D01*
X98979255Y-75675368D01*
X99149522Y-75615789D01*
X99302262Y-75519816D01*
X99429816Y-75392262D01*
X99525789Y-75239522D01*
X99585368Y-75069255D01*
X99595161Y-74982329D01*
X99622226Y-74917918D01*
X99630690Y-74908543D01*
X99758506Y-74780728D01*
X99758511Y-74780724D01*
X99768714Y-74770520D01*
X99768716Y-74770520D01*
X99880520Y-74658716D01*
X99948784Y-74540478D01*
X99959577Y-74521785D01*
X100000500Y-74369057D01*
X100000500Y-74210943D01*
X100000500Y-71042412D01*
X100020185Y-70975373D01*
X100027555Y-70965097D01*
X100029810Y-70962267D01*
X100029816Y-70962262D01*
X100125789Y-70809522D01*
X100185368Y-70639255D01*
X100200464Y-70505272D01*
X100205565Y-70460003D01*
X100205565Y-70459996D01*
X100185369Y-70280750D01*
X100185368Y-70280745D01*
X100131822Y-70127719D01*
X100125789Y-70110478D01*
X100029816Y-69957738D01*
X99902262Y-69830184D01*
X99878923Y-69815519D01*
X99749523Y-69734211D01*
X99579254Y-69674631D01*
X99579249Y-69674630D01*
X99400004Y-69654435D01*
X99399996Y-69654435D01*
X99220750Y-69674630D01*
X99220745Y-69674631D01*
X99050476Y-69734211D01*
X98897737Y-69830184D01*
X98770184Y-69957737D01*
X98674211Y-70110476D01*
X98614631Y-70280745D01*
X98614630Y-70280750D01*
X98594435Y-70459996D01*
X98594435Y-70460003D01*
X98614630Y-70639249D01*
X98614631Y-70639254D01*
X98674211Y-70809523D01*
X98770185Y-70962263D01*
X98772445Y-70965097D01*
X98773334Y-70967275D01*
X98773889Y-70968158D01*
X98773734Y-70968255D01*
X98798855Y-71029783D01*
X98799500Y-71042412D01*
X98799500Y-73973677D01*
X98779815Y-74040716D01*
X98727011Y-74086471D01*
X98689384Y-74096897D01*
X98620750Y-74104630D01*
X98450478Y-74164210D01*
X98297737Y-74260184D01*
X98170184Y-74387737D01*
X98074211Y-74540476D01*
X98014631Y-74710745D01*
X98014630Y-74710750D01*
X97994435Y-74889996D01*
X97994435Y-74890003D01*
X95040195Y-74890003D01*
X95001878Y-74823636D01*
X94986046Y-74775519D01*
X94975369Y-74680750D01*
X94975368Y-74680745D01*
X94950004Y-74608258D01*
X94915789Y-74510478D01*
X94819816Y-74357738D01*
X94692262Y-74230184D01*
X94587267Y-74164211D01*
X94539523Y-74134211D01*
X94369254Y-74074631D01*
X94369249Y-74074630D01*
X94190004Y-74054435D01*
X94189996Y-74054435D01*
X94010750Y-74074630D01*
X94010745Y-74074631D01*
X93840476Y-74134211D01*
X93687737Y-74230184D01*
X93560184Y-74357737D01*
X93464211Y-74510476D01*
X93404631Y-74680745D01*
X93404630Y-74680750D01*
X93384435Y-74859996D01*
X93384435Y-74860003D01*
X93404630Y-75039249D01*
X93404631Y-75039254D01*
X93464211Y-75209523D01*
X93528337Y-75311578D01*
X93560184Y-75362262D01*
X93687738Y-75489816D01*
X93840478Y-75585789D01*
X93840483Y-75585792D01*
X93846754Y-75588812D01*
X93845692Y-75591015D01*
X93893206Y-75625070D01*
X93918974Y-75690015D01*
X93919500Y-75701422D01*
X93919500Y-76400908D01*
X93899815Y-76467947D01*
X93847914Y-76513286D01*
X93842173Y-76515963D01*
X93842169Y-76515965D01*
X93648597Y-76651505D01*
X93481505Y-76818597D01*
X93351575Y-77004158D01*
X93296998Y-77047783D01*
X93227500Y-77054977D01*
X93165145Y-77023454D01*
X93148425Y-77004158D01*
X93018494Y-76818597D01*
X92851402Y-76651506D01*
X92851395Y-76651501D01*
X92657834Y-76515967D01*
X92657830Y-76515965D01*
X92553798Y-76467454D01*
X92443663Y-76416097D01*
X92443659Y-76416096D01*
X92443655Y-76416094D01*
X92215413Y-76354938D01*
X92215403Y-76354936D01*
X91980001Y-76334341D01*
X91979999Y-76334341D01*
X91744596Y-76354936D01*
X91744586Y-76354938D01*
X91516344Y-76416094D01*
X91516335Y-76416098D01*
X91302171Y-76515964D01*
X91302169Y-76515965D01*
X91108597Y-76651505D01*
X90941505Y-76818597D01*
X90811575Y-77004158D01*
X90756998Y-77047783D01*
X90687500Y-77054977D01*
X90625145Y-77023454D01*
X90608425Y-77004158D01*
X90514931Y-76870634D01*
X90492604Y-76804428D01*
X90509614Y-76736661D01*
X90528821Y-76711834D01*
X91055662Y-76184993D01*
X91102385Y-76155635D01*
X91205894Y-76119417D01*
X91358634Y-76023444D01*
X91486188Y-75895890D01*
X91582161Y-75743150D01*
X91641740Y-75572883D01*
X91647719Y-75519816D01*
X91661937Y-75393631D01*
X91661937Y-75393624D01*
X91641741Y-75214378D01*
X91641740Y-75214373D01*
X91618379Y-75147612D01*
X91582161Y-75044106D01*
X91579112Y-75039254D01*
X91528192Y-74958215D01*
X91486188Y-74891366D01*
X91358634Y-74763812D01*
X91205895Y-74667839D01*
X91035626Y-74608259D01*
X91035621Y-74608258D01*
X90856376Y-74588063D01*
X90856368Y-74588063D01*
X90677122Y-74608258D01*
X90677117Y-74608259D01*
X90506848Y-74667839D01*
X90354109Y-74763812D01*
X90226556Y-74891365D01*
X90130584Y-75044103D01*
X90130583Y-75044104D01*
X90094364Y-75147612D01*
X90065004Y-75194337D01*
X89525709Y-75733632D01*
X89478984Y-75762992D01*
X89375476Y-75799211D01*
X89375475Y-75799212D01*
X89222737Y-75895184D01*
X89095184Y-76022737D01*
X88999210Y-76175478D01*
X88939630Y-76345750D01*
X88937016Y-76368956D01*
X88909949Y-76433370D01*
X88866201Y-76467454D01*
X88762171Y-76515964D01*
X88762169Y-76515965D01*
X88568597Y-76651505D01*
X88401505Y-76818597D01*
X88265965Y-77012169D01*
X88265964Y-77012171D01*
X88166098Y-77226335D01*
X88166094Y-77226344D01*
X88104938Y-77454586D01*
X88104936Y-77454596D01*
X88084341Y-77689999D01*
X88084341Y-77690000D01*
X88104936Y-77925403D01*
X88104938Y-77925413D01*
X88166094Y-78153655D01*
X88166096Y-78153659D01*
X88166097Y-78153663D01*
X88170000Y-78162032D01*
X88265965Y-78367830D01*
X88265967Y-78367834D01*
X88357096Y-78497978D01*
X88401505Y-78561401D01*
X88568599Y-78728495D01*
X88634194Y-78774425D01*
X88677818Y-78829002D01*
X88685011Y-78898501D01*
X88653489Y-78960855D01*
X88593259Y-78996269D01*
X88563070Y-79000000D01*
X80802022Y-79000000D01*
X80797979Y-78999934D01*
X80792688Y-78999761D01*
X80748717Y-78998326D01*
X80720670Y-78994167D01*
X80623601Y-78968158D01*
X80593694Y-78955770D01*
X80508443Y-78906550D01*
X80482762Y-78886844D01*
X80413155Y-78817237D01*
X80393449Y-78791556D01*
X80344227Y-78706301D01*
X80331843Y-78676403D01*
X80305831Y-78579325D01*
X80301673Y-78551282D01*
X80300066Y-78502021D01*
X80300000Y-78497978D01*
X80300000Y-68500003D01*
X81594435Y-68500003D01*
X81614630Y-68679249D01*
X81614631Y-68679254D01*
X81674211Y-68849523D01*
X81679453Y-68857865D01*
X81770184Y-69002262D01*
X81897738Y-69129816D01*
X82050478Y-69225789D01*
X82220745Y-69285368D01*
X82220749Y-69285369D01*
X82307778Y-69295174D01*
X82342811Y-69299121D01*
X82390923Y-69314952D01*
X82418090Y-69330636D01*
X82418094Y-69330640D01*
X82418095Y-69330639D01*
X82468215Y-69359577D01*
X82620943Y-69400500D01*
X82816937Y-69400500D01*
X82883976Y-69420185D01*
X82929731Y-69472989D01*
X82939675Y-69542147D01*
X82933978Y-69565455D01*
X82914633Y-69620737D01*
X82914630Y-69620750D01*
X82894435Y-69799996D01*
X82894435Y-69800003D01*
X82914630Y-69979249D01*
X82914631Y-69979254D01*
X82974212Y-70149525D01*
X82980492Y-70159519D01*
X82999500Y-70225493D01*
X82999500Y-71074507D01*
X82980494Y-71140478D01*
X82974209Y-71150479D01*
X82914633Y-71320737D01*
X82914630Y-71320750D01*
X82894435Y-71499996D01*
X82894435Y-71500003D01*
X82914630Y-71679249D01*
X82914631Y-71679254D01*
X82974211Y-71849523D01*
X83070184Y-72002262D01*
X83197738Y-72129816D01*
X83350478Y-72225789D01*
X83520745Y-72285368D01*
X83520750Y-72285369D01*
X83699996Y-72305565D01*
X83700000Y-72305565D01*
X83700004Y-72305565D01*
X83879249Y-72285369D01*
X83879252Y-72285368D01*
X83879255Y-72285368D01*
X84049522Y-72225789D01*
X84187653Y-72138995D01*
X84254888Y-72119995D01*
X84294579Y-72126948D01*
X84461527Y-72185366D01*
X84461533Y-72185367D01*
X84461535Y-72185368D01*
X84461536Y-72185368D01*
X84461540Y-72185369D01*
X84640786Y-72205565D01*
X84640790Y-72205565D01*
X84640794Y-72205565D01*
X84820039Y-72185369D01*
X84820042Y-72185368D01*
X84820045Y-72185368D01*
X84990312Y-72125789D01*
X85143052Y-72029816D01*
X85270606Y-71902262D01*
X85366579Y-71749522D01*
X85426158Y-71579255D01*
X85426159Y-71579249D01*
X85446355Y-71400003D01*
X85446355Y-71399996D01*
X85426159Y-71220750D01*
X85426158Y-71220745D01*
X85401571Y-71150479D01*
X85366579Y-71050478D01*
X85353575Y-71029783D01*
X85314299Y-70967275D01*
X85270606Y-70897738D01*
X85189850Y-70816982D01*
X85156365Y-70755659D01*
X85153531Y-70729301D01*
X85153531Y-70325159D01*
X85173216Y-70258120D01*
X85180586Y-70247844D01*
X85182841Y-70245014D01*
X85182847Y-70245009D01*
X85278820Y-70092269D01*
X85338399Y-69922002D01*
X85348071Y-69836161D01*
X85358596Y-69742750D01*
X85358596Y-69742743D01*
X85338399Y-69563493D01*
X85336850Y-69556703D01*
X85338616Y-69556299D01*
X85335527Y-69495665D01*
X85370262Y-69435041D01*
X85432258Y-69402819D01*
X85456128Y-69400500D01*
X86887588Y-69400500D01*
X86954627Y-69420185D01*
X86964903Y-69427555D01*
X86967736Y-69429814D01*
X86967738Y-69429816D01*
X87120478Y-69525789D01*
X87228227Y-69563492D01*
X87290745Y-69585368D01*
X87290750Y-69585369D01*
X87469996Y-69605565D01*
X87470000Y-69605565D01*
X87470004Y-69605565D01*
X87649249Y-69585369D01*
X87649252Y-69585368D01*
X87649255Y-69585368D01*
X87819522Y-69525789D01*
X87972262Y-69429816D01*
X88099816Y-69302262D01*
X88195789Y-69149522D01*
X88255368Y-68979255D01*
X88255369Y-68979249D01*
X88275565Y-68800003D01*
X88275565Y-68799996D01*
X88255369Y-68620750D01*
X88255368Y-68620745D01*
X88214692Y-68504500D01*
X88195789Y-68450478D01*
X88099816Y-68297738D01*
X87972262Y-68170184D01*
X87926567Y-68141472D01*
X87819523Y-68074211D01*
X87649254Y-68014631D01*
X87649249Y-68014630D01*
X87470004Y-67994435D01*
X87469996Y-67994435D01*
X87290750Y-68014630D01*
X87290745Y-68014631D01*
X87120476Y-68074211D01*
X86967736Y-68170185D01*
X86964903Y-68172445D01*
X86962724Y-68173334D01*
X86961842Y-68173889D01*
X86961744Y-68173734D01*
X86900217Y-68198855D01*
X86887588Y-68199500D01*
X83225124Y-68199500D01*
X83158085Y-68179815D01*
X83120130Y-68141472D01*
X83040431Y-68014632D01*
X83029816Y-67997738D01*
X82902262Y-67870184D01*
X82749523Y-67774211D01*
X82579254Y-67714631D01*
X82579249Y-67714630D01*
X82400004Y-67694435D01*
X82399996Y-67694435D01*
X82220750Y-67714630D01*
X82220745Y-67714631D01*
X82050476Y-67774211D01*
X81897737Y-67870184D01*
X81770184Y-67997737D01*
X81674211Y-68150476D01*
X81614631Y-68320745D01*
X81614630Y-68320750D01*
X81594435Y-68499996D01*
X81594435Y-68500003D01*
X80300000Y-68500003D01*
X80300000Y-59500003D01*
X92694435Y-59500003D01*
X92714630Y-59679249D01*
X92714631Y-59679254D01*
X92774211Y-59849523D01*
X92870184Y-60002262D01*
X92997738Y-60129816D01*
X93150478Y-60225789D01*
X93253984Y-60262007D01*
X93300710Y-60291367D01*
X94173181Y-61163838D01*
X94206666Y-61225161D01*
X94209500Y-61251519D01*
X94209500Y-69748480D01*
X94189815Y-69815519D01*
X94173181Y-69836161D01*
X93881623Y-70127718D01*
X93881622Y-70127719D01*
X93804958Y-70242457D01*
X93752156Y-70369933D01*
X93752156Y-70369934D01*
X93752155Y-70369937D01*
X93737334Y-70444449D01*
X93737334Y-70444450D01*
X93725235Y-70505270D01*
X93725235Y-70648772D01*
X93706229Y-70714743D01*
X93699944Y-70724744D01*
X93640368Y-70895002D01*
X93640365Y-70895015D01*
X93620170Y-71074261D01*
X93620170Y-71074268D01*
X93640365Y-71253514D01*
X93640366Y-71253519D01*
X93699946Y-71423788D01*
X93795919Y-71576527D01*
X93923473Y-71704081D01*
X94076213Y-71800054D01*
X94217587Y-71849523D01*
X94246480Y-71859633D01*
X94246485Y-71859634D01*
X94425731Y-71879830D01*
X94425735Y-71879830D01*
X94425739Y-71879830D01*
X94604984Y-71859634D01*
X94604987Y-71859633D01*
X94604990Y-71859633D01*
X94775257Y-71800054D01*
X94927997Y-71704081D01*
X95055551Y-71576527D01*
X95151524Y-71423787D01*
X95211103Y-71253520D01*
X95211104Y-71253514D01*
X95231300Y-71074268D01*
X95231300Y-71074261D01*
X95211104Y-70895018D01*
X95211103Y-70895017D01*
X95211103Y-70895010D01*
X95206908Y-70883023D01*
X95203345Y-70813247D01*
X95236265Y-70754390D01*
X95454114Y-70536543D01*
X95530775Y-70421811D01*
X95583580Y-70294328D01*
X95593390Y-70245009D01*
X95593898Y-70242457D01*
X95593898Y-70242454D01*
X95610500Y-70158993D01*
X95610500Y-69155765D01*
X135409500Y-69155765D01*
X135448719Y-69302136D01*
X135465176Y-69330639D01*
X135524485Y-69433365D01*
X135631635Y-69540515D01*
X135762865Y-69616281D01*
X135909234Y-69655500D01*
X135909236Y-69655500D01*
X136060764Y-69655500D01*
X136060766Y-69655500D01*
X136207135Y-69616281D01*
X136338365Y-69540515D01*
X136445515Y-69433365D01*
X136521281Y-69302135D01*
X136560500Y-69155766D01*
X136560500Y-69004234D01*
X136521281Y-68857865D01*
X136445515Y-68726635D01*
X136338365Y-68619485D01*
X136272750Y-68581602D01*
X136207136Y-68543719D01*
X136133950Y-68524109D01*
X136060766Y-68504500D01*
X135909234Y-68504500D01*
X135762863Y-68543719D01*
X135631635Y-68619485D01*
X135631632Y-68619487D01*
X135524487Y-68726632D01*
X135524485Y-68726635D01*
X135448719Y-68857863D01*
X135409500Y-69004234D01*
X135409500Y-69155765D01*
X95610500Y-69155765D01*
X95610500Y-63375765D01*
X135409500Y-63375765D01*
X135448719Y-63522136D01*
X135486602Y-63587750D01*
X135524485Y-63653365D01*
X135631635Y-63760515D01*
X135762865Y-63836281D01*
X135909234Y-63875500D01*
X135909236Y-63875500D01*
X136060764Y-63875500D01*
X136060766Y-63875500D01*
X136207135Y-63836281D01*
X136338365Y-63760515D01*
X136445515Y-63653365D01*
X136521281Y-63522135D01*
X136560500Y-63375766D01*
X136560500Y-63224234D01*
X136521281Y-63077865D01*
X136445515Y-62946635D01*
X136338365Y-62839485D01*
X136272750Y-62801602D01*
X136207136Y-62763719D01*
X136133950Y-62744109D01*
X136060766Y-62724500D01*
X135909234Y-62724500D01*
X135762863Y-62763719D01*
X135631635Y-62839485D01*
X135631632Y-62839487D01*
X135524487Y-62946632D01*
X135524485Y-62946635D01*
X135448719Y-63077863D01*
X135409500Y-63224234D01*
X135409500Y-63375765D01*
X95610500Y-63375765D01*
X95610500Y-60841007D01*
X95610500Y-60841004D01*
X95583581Y-60705677D01*
X95583580Y-60705676D01*
X95583580Y-60705672D01*
X95583578Y-60705667D01*
X95530777Y-60578192D01*
X95454112Y-60463454D01*
X95454111Y-60463453D01*
X94291367Y-59300710D01*
X94262006Y-59253983D01*
X94225788Y-59150476D01*
X94129815Y-58997737D01*
X94002262Y-58870184D01*
X93849523Y-58774211D01*
X93679254Y-58714631D01*
X93679249Y-58714630D01*
X93500004Y-58694435D01*
X93499996Y-58694435D01*
X93320750Y-58714630D01*
X93320745Y-58714631D01*
X93150476Y-58774211D01*
X92997737Y-58870184D01*
X92870184Y-58997737D01*
X92774211Y-59150476D01*
X92714631Y-59320745D01*
X92714630Y-59320750D01*
X92694435Y-59499996D01*
X92694435Y-59500003D01*
X80300000Y-59500003D01*
X80300000Y-54002021D01*
X80300066Y-53997978D01*
X80301673Y-53948720D01*
X80301674Y-53948717D01*
X80301673Y-53948715D01*
X80305831Y-53920675D01*
X80331843Y-53823594D01*
X80344226Y-53793701D01*
X80393452Y-53708437D01*
X80413151Y-53682766D01*
X80482766Y-53613151D01*
X80508437Y-53593452D01*
X80593701Y-53544226D01*
X80623594Y-53531843D01*
X80720675Y-53505831D01*
X80748715Y-53501673D01*
X80793582Y-53500209D01*
X80797979Y-53500066D01*
X80802022Y-53500000D01*
X93585944Y-53500000D01*
X93652983Y-53519685D01*
G37*
G04 #@! TD.AperFunction*
M02*
