M48
; DRILL file {KiCad 8.0.1-8.0.1-1~ubuntu22.04.1} date 2024-09-16T09:20:15+0200
; FORMAT={-:-/ absolute / metric / decimal}
; #@! TF.CreationDate,2024-09-16T09:20:15+02:00
; #@! TF.GenerationSoftware,Kicad,Pcbnew,8.0.1-8.0.1-1~ubuntu22.04.1
; #@! TF.FileFunction,Plated,1,2,PTH
FMAT,2
METRIC
; #@! TA.AperFunction,Plated,PTH,ViaDrill
T1C0.300
; #@! TA.AperFunction,Plated,PTH,ComponentDrill
T2C0.600
; #@! TA.AperFunction,Plated,PTH,ComponentDrill
T3C1.000
%
G90
G05
T1
X84.65Y-60.165
X85.703Y-56.568
X86.372Y-55.246
X86.5Y-68.03
X87.3Y-57.433
X87.328Y-54.865
X87.9Y-56.55
X88.2Y-65.4
X88.3Y-76.7
X88.7Y-69.75
X88.837Y-73.5
X89.6Y-65.4
X92.151Y-66.913
X92.295Y-65.515
X93.337Y-74.45
X93.4Y-70.4
X97.5Y-68.1
X97.5Y-69.6
X98.2Y-72.5
X98.2Y-73.9
X98.967Y-70.82
X98.967Y-74.4
X99.4Y-65.1
X100.7Y-72.48
X100.8Y-60.02
X101.05Y-63.7
X101.05Y-64.7
X101.05Y-65.7
X101.05Y-66.7
X101.05Y-67.7
X101.05Y-68.7
X102.05Y-63.7
X102.05Y-64.7
X102.05Y-65.7
X102.05Y-66.7
X102.05Y-67.7
X102.05Y-68.7
X103.05Y-63.7
X103.05Y-64.7
X103.05Y-65.7
X103.05Y-66.7
X103.05Y-67.7
X103.05Y-68.7
X104.05Y-63.7
X104.05Y-64.7
X104.05Y-65.7
X104.05Y-66.7
X104.05Y-67.7
X104.05Y-68.7
X104.8Y-59.3
X105.05Y-63.7
X105.05Y-64.7
X105.05Y-65.7
X105.05Y-66.7
X105.05Y-67.7
X105.05Y-68.7
X106.6Y-59.3
X106.6Y-73.1
X115.9Y-68.5
X116.7Y-68.5
X117.45Y-68.5
X118.2Y-68.5
X119.0Y-68.45
X119.75Y-68.45
X120.5Y-68.45
X121.25Y-68.45
X122.0Y-68.45
X122.9Y-65.1
X122.9Y-65.8
X123.1Y-69.5
X123.1Y-70.854
X123.6Y-65.1
X123.6Y-65.8
X124.3Y-65.1
X124.3Y-65.8
X124.3Y-67.2
X125.0Y-65.1
X125.0Y-65.8
X125.0Y-67.2
X125.15Y-70.85
X125.6Y-66.3
X127.2Y-67.8
X127.7Y-67.3
X128.5Y-68.3
X129.2Y-68.3
X129.9Y-68.3
X130.6Y-68.3
X131.3Y-68.3
X132.0Y-68.3
X133.8Y-65.39
X133.8Y-66.29
T3
X89.44Y-54.57
X89.44Y-77.49
X91.98Y-54.97
X91.98Y-77.89
X94.52Y-54.57
X94.52Y-77.49
X97.06Y-54.97
X97.06Y-77.89
X99.6Y-54.57
X99.6Y-77.49
X102.14Y-54.97
X102.14Y-77.89
X104.68Y-54.57
X104.68Y-77.49
X107.22Y-54.97
X107.22Y-77.89
X109.76Y-54.57
X109.76Y-77.49
X112.3Y-54.97
X112.3Y-77.89
X114.84Y-54.57
X114.84Y-77.49
X117.38Y-54.97
X117.38Y-77.89
T2
X134.935Y-61.87G85X136.035Y-61.87
G05
X134.935Y-70.51G85X136.035Y-70.51
G05
X139.265Y-61.87G85X140.065Y-61.87
G05
X139.265Y-70.51G85X140.065Y-70.51
G05
M30
