G04 #@! TF.GenerationSoftware,KiCad,Pcbnew,8.0.1-8.0.1-1~ubuntu22.04.1*
G04 #@! TF.CreationDate,2024-09-21T11:56:38+02:00*
G04 #@! TF.ProjectId,NerdNOS,4e657264-4e4f-4532-9e6b-696361645f70,rev?*
G04 #@! TF.SameCoordinates,Original*
G04 #@! TF.FileFunction,Legend,Bot*
G04 #@! TF.FilePolarity,Positive*
%FSLAX46Y46*%
G04 Gerber Fmt 4.6, Leading zero omitted, Abs format (unit mm)*
G04 Created by KiCad (PCBNEW 8.0.1-8.0.1-1~ubuntu22.04.1) date 2024-09-21 11:56:38*
%MOMM*%
%LPD*%
G01*
G04 APERTURE LIST*
%ADD10C,0.150000*%
%ADD11C,0.120000*%
%ADD12R,1.700000X1.700000*%
%ADD13O,1.700000X1.700000*%
%ADD14C,0.650000*%
%ADD15O,2.100000X1.000000*%
%ADD16O,1.800000X1.000000*%
%ADD17C,3.200000*%
%ADD18C,1.700000*%
G04 APERTURE END LIST*
D10*
X131809523Y-54162295D02*
X131809523Y-54809914D01*
X131809523Y-54809914D02*
X131771428Y-54886104D01*
X131771428Y-54886104D02*
X131733333Y-54924200D01*
X131733333Y-54924200D02*
X131657142Y-54962295D01*
X131657142Y-54962295D02*
X131504761Y-54962295D01*
X131504761Y-54962295D02*
X131428571Y-54924200D01*
X131428571Y-54924200D02*
X131390476Y-54886104D01*
X131390476Y-54886104D02*
X131352380Y-54809914D01*
X131352380Y-54809914D02*
X131352380Y-54162295D01*
X130552381Y-54962295D02*
X131009524Y-54962295D01*
X130780952Y-54962295D02*
X130780952Y-54162295D01*
X130780952Y-54162295D02*
X130857143Y-54276580D01*
X130857143Y-54276580D02*
X130933333Y-54352771D01*
X130933333Y-54352771D02*
X131009524Y-54390866D01*
D11*
X84300000Y-53530000D02*
X84300000Y-78930000D01*
X129950000Y-53530000D02*
X129950000Y-78930000D01*
X80300000Y-53485000D02*
X141080000Y-53485000D01*
X141080000Y-78975000D01*
X80300000Y-78975000D01*
X80300000Y-53485000D01*
%LPC*%
D12*
X130340000Y-73100000D03*
D13*
X127800000Y-73100000D03*
D14*
X135985000Y-69080000D03*
X135985000Y-63300000D03*
D15*
X135485000Y-70510000D03*
D16*
X139665000Y-70510000D03*
D15*
X135485000Y-61870000D03*
D16*
X139665000Y-61870000D03*
D17*
X117230000Y-72760000D03*
X91370000Y-59640000D03*
D18*
X89440000Y-77490000D03*
X91980000Y-77890000D03*
X94520000Y-77490000D03*
X97060000Y-77890000D03*
X99600000Y-77490000D03*
X102140000Y-77890000D03*
X104680000Y-77490000D03*
X107220000Y-77890000D03*
X109760000Y-77490000D03*
X112300000Y-77890000D03*
X114840000Y-77490000D03*
X117380000Y-77890000D03*
X117380000Y-54970000D03*
X114840000Y-54570000D03*
X112300000Y-54970000D03*
X109760000Y-54570000D03*
X107220000Y-54970000D03*
X104680000Y-54570000D03*
X102140000Y-54970000D03*
X99600000Y-54570000D03*
X97060000Y-54970000D03*
X94520000Y-54570000D03*
X91980000Y-54970000D03*
X89440000Y-54570000D03*
%LPD*%
M02*
