G04 #@! TF.GenerationSoftware,KiCad,Pcbnew,8.0.1-8.0.1-1~ubuntu22.04.1*
G04 #@! TF.CreationDate,2024-08-12T13:14:35+02:00*
G04 #@! TF.ProjectId,NerdNOS,4e657264-4e4f-4532-9e6b-696361645f70,rev?*
G04 #@! TF.SameCoordinates,Original*
G04 #@! TF.FileFunction,Copper,L1,Top*
G04 #@! TF.FilePolarity,Positive*
%FSLAX46Y46*%
G04 Gerber Fmt 4.6, Leading zero omitted, Abs format (unit mm)*
G04 Created by KiCad (PCBNEW 8.0.1-8.0.1-1~ubuntu22.04.1) date 2024-08-12 13:14:35*
%MOMM*%
%LPD*%
G01*
G04 APERTURE LIST*
G04 Aperture macros list*
%AMRoundRect*
0 Rectangle with rounded corners*
0 $1 Rounding radius*
0 $2 $3 $4 $5 $6 $7 $8 $9 X,Y pos of 4 corners*
0 Add a 4 corners polygon primitive as box body*
4,1,4,$2,$3,$4,$5,$6,$7,$8,$9,$2,$3,0*
0 Add four circle primitives for the rounded corners*
1,1,$1+$1,$2,$3*
1,1,$1+$1,$4,$5*
1,1,$1+$1,$6,$7*
1,1,$1+$1,$8,$9*
0 Add four rect primitives between the rounded corners*
20,1,$1+$1,$2,$3,$4,$5,0*
20,1,$1+$1,$4,$5,$6,$7,0*
20,1,$1+$1,$6,$7,$8,$9,0*
20,1,$1+$1,$8,$9,$2,$3,0*%
%AMFreePoly0*
4,1,15,0.487499,0.487500,0.487499,0.321501,0.516499,0.250500,0.805500,-0.038499,0.876498,-0.067500,0.922500,-0.067498,1.022500,-0.167500,1.022500,-0.487499,0.922500,-0.587499,-0.487500,-0.587499,-0.587500,-0.487499,-0.587500,0.487500,-0.487500,0.587500,0.387500,0.587502,0.487499,0.487500,0.487499,0.487500,$1*%
%AMFreePoly1*
4,1,15,0.487500,0.587500,0.587500,0.487500,0.587500,-0.487499,0.487500,-0.587499,-0.922500,-0.587499,-1.022500,-0.487499,-1.022500,-0.167500,-0.922500,-0.067498,-0.876498,-0.067500,-0.805500,-0.038499,-0.516499,0.250500,-0.487499,0.321501,-0.487499,0.487500,-0.387500,0.587502,0.487500,0.587500,0.487500,0.587500,$1*%
G04 Aperture macros list end*
G04 #@! TA.AperFunction,SMDPad,CuDef*
%ADD10RoundRect,0.150000X0.150000X-0.512500X0.150000X0.512500X-0.150000X0.512500X-0.150000X-0.512500X0*%
G04 #@! TD*
G04 #@! TA.AperFunction,SMDPad,CuDef*
%ADD11RoundRect,0.135000X0.185000X-0.135000X0.185000X0.135000X-0.185000X0.135000X-0.185000X-0.135000X0*%
G04 #@! TD*
G04 #@! TA.AperFunction,SMDPad,CuDef*
%ADD12RoundRect,0.140000X-0.170000X0.140000X-0.170000X-0.140000X0.170000X-0.140000X0.170000X0.140000X0*%
G04 #@! TD*
G04 #@! TA.AperFunction,SMDPad,CuDef*
%ADD13RoundRect,0.140000X0.140000X0.170000X-0.140000X0.170000X-0.140000X-0.170000X0.140000X-0.170000X0*%
G04 #@! TD*
G04 #@! TA.AperFunction,SMDPad,CuDef*
%ADD14RoundRect,0.140000X-0.140000X-0.170000X0.140000X-0.170000X0.140000X0.170000X-0.140000X0.170000X0*%
G04 #@! TD*
G04 #@! TA.AperFunction,SMDPad,CuDef*
%ADD15RoundRect,0.140000X0.170000X-0.140000X0.170000X0.140000X-0.170000X0.140000X-0.170000X-0.140000X0*%
G04 #@! TD*
G04 #@! TA.AperFunction,SMDPad,CuDef*
%ADD16RoundRect,0.150000X0.150000X-0.587500X0.150000X0.587500X-0.150000X0.587500X-0.150000X-0.587500X0*%
G04 #@! TD*
G04 #@! TA.AperFunction,SMDPad,CuDef*
%ADD17RoundRect,0.135000X-0.185000X0.135000X-0.185000X-0.135000X0.185000X-0.135000X0.185000X0.135000X0*%
G04 #@! TD*
G04 #@! TA.AperFunction,SMDPad,CuDef*
%ADD18RoundRect,0.225000X-0.225000X-0.375000X0.225000X-0.375000X0.225000X0.375000X-0.225000X0.375000X0*%
G04 #@! TD*
G04 #@! TA.AperFunction,SMDPad,CuDef*
%ADD19FreePoly0,180.000000*%
G04 #@! TD*
G04 #@! TA.AperFunction,SMDPad,CuDef*
%ADD20R,1.500000X2.300000*%
G04 #@! TD*
G04 #@! TA.AperFunction,SMDPad,CuDef*
%ADD21FreePoly1,180.000000*%
G04 #@! TD*
G04 #@! TA.AperFunction,SMDPad,CuDef*
%ADD22R,0.220000X0.599999*%
G04 #@! TD*
G04 #@! TA.AperFunction,SMDPad,CuDef*
%ADD23RoundRect,0.150000X0.425000X-0.150000X0.425000X0.150000X-0.425000X0.150000X-0.425000X-0.150000X0*%
G04 #@! TD*
G04 #@! TA.AperFunction,SMDPad,CuDef*
%ADD24RoundRect,0.075000X0.500000X-0.075000X0.500000X0.075000X-0.500000X0.075000X-0.500000X-0.075000X0*%
G04 #@! TD*
G04 #@! TA.AperFunction,ComponentPad*
%ADD25O,2.100000X1.000000*%
G04 #@! TD*
G04 #@! TA.AperFunction,ComponentPad*
%ADD26O,1.800000X1.000000*%
G04 #@! TD*
G04 #@! TA.AperFunction,SMDPad,CuDef*
%ADD27RoundRect,0.135000X-0.135000X-0.185000X0.135000X-0.185000X0.135000X0.185000X-0.135000X0.185000X0*%
G04 #@! TD*
G04 #@! TA.AperFunction,SMDPad,CuDef*
%ADD28RoundRect,0.135000X0.135000X0.185000X-0.135000X0.185000X-0.135000X-0.185000X0.135000X-0.185000X0*%
G04 #@! TD*
G04 #@! TA.AperFunction,SMDPad,CuDef*
%ADD29R,1.300000X1.100000*%
G04 #@! TD*
G04 #@! TA.AperFunction,SMDPad,CuDef*
%ADD30C,1.000000*%
G04 #@! TD*
G04 #@! TA.AperFunction,SMDPad,CuDef*
%ADD31RoundRect,0.250000X-0.325000X-1.100000X0.325000X-1.100000X0.325000X1.100000X-0.325000X1.100000X0*%
G04 #@! TD*
G04 #@! TA.AperFunction,SMDPad,CuDef*
%ADD32RoundRect,0.250000X-0.312500X-0.625000X0.312500X-0.625000X0.312500X0.625000X-0.312500X0.625000X0*%
G04 #@! TD*
G04 #@! TA.AperFunction,SMDPad,CuDef*
%ADD33RoundRect,0.200000X-0.275000X0.200000X-0.275000X-0.200000X0.275000X-0.200000X0.275000X0.200000X0*%
G04 #@! TD*
G04 #@! TA.AperFunction,SMDPad,CuDef*
%ADD34RoundRect,0.200000X0.275000X-0.200000X0.275000X0.200000X-0.275000X0.200000X-0.275000X-0.200000X0*%
G04 #@! TD*
G04 #@! TA.AperFunction,SMDPad,CuDef*
%ADD35RoundRect,0.135000X-0.000010X0.295000X-0.000010X-0.295000X0.000010X-0.295000X0.000010X0.295000X0*%
G04 #@! TD*
G04 #@! TA.AperFunction,SMDPad,CuDef*
%ADD36R,1.850000X6.300000*%
G04 #@! TD*
G04 #@! TA.AperFunction,SMDPad,CuDef*
%ADD37R,5.550000X6.300000*%
G04 #@! TD*
G04 #@! TA.AperFunction,SMDPad,CuDef*
%ADD38R,0.254000X0.762000*%
G04 #@! TD*
G04 #@! TA.AperFunction,SMDPad,CuDef*
%ADD39RoundRect,0.150000X-0.150000X0.512500X-0.150000X-0.512500X0.150000X-0.512500X0.150000X0.512500X0*%
G04 #@! TD*
G04 #@! TA.AperFunction,SMDPad,CuDef*
%ADD40RoundRect,0.250000X0.475000X-0.250000X0.475000X0.250000X-0.475000X0.250000X-0.475000X-0.250000X0*%
G04 #@! TD*
G04 #@! TA.AperFunction,SMDPad,CuDef*
%ADD41RoundRect,0.225000X-0.250000X0.225000X-0.250000X-0.225000X0.250000X-0.225000X0.250000X0.225000X0*%
G04 #@! TD*
G04 #@! TA.AperFunction,ComponentPad*
%ADD42C,1.700000*%
G04 #@! TD*
G04 #@! TA.AperFunction,ViaPad*
%ADD43C,0.600000*%
G04 #@! TD*
G04 #@! TA.AperFunction,Conductor*
%ADD44C,0.200000*%
G04 #@! TD*
G04 #@! TA.AperFunction,Conductor*
%ADD45C,0.400000*%
G04 #@! TD*
G04 #@! TA.AperFunction,Conductor*
%ADD46C,0.600000*%
G04 #@! TD*
G04 APERTURE END LIST*
D10*
X90150001Y-63037500D03*
X91100000Y-63037500D03*
X92049999Y-63037500D03*
X92049999Y-60762500D03*
X90150001Y-60762500D03*
D11*
X133165000Y-65550000D03*
X133165000Y-64530000D03*
D12*
X93500000Y-62620000D03*
X93500000Y-63580000D03*
D13*
X116080000Y-59900000D03*
X115120000Y-59900000D03*
D14*
X85620000Y-74200000D03*
X86580000Y-74200000D03*
D15*
X127600000Y-69780000D03*
X127600000Y-68820000D03*
D16*
X81950000Y-67437500D03*
X83850000Y-67437500D03*
X82900000Y-65562500D03*
D13*
X116080000Y-57880000D03*
X115120000Y-57880000D03*
D17*
X133165000Y-66430000D03*
X133165000Y-67450000D03*
D12*
X88700000Y-62620000D03*
X88700000Y-63580000D03*
D11*
X92200000Y-72109999D03*
X92200000Y-71090001D03*
D18*
X119812500Y-77510000D03*
X123112500Y-77510000D03*
D19*
X123862500Y-69877499D03*
D20*
X123700001Y-67890000D03*
X121400001Y-67890000D03*
D21*
X121250001Y-69865000D03*
D22*
X122050002Y-70464999D03*
X122550001Y-70464999D03*
X123050000Y-70464999D03*
D23*
X134910000Y-69390000D03*
X134910000Y-68590000D03*
D24*
X134910000Y-67440000D03*
X134910000Y-66440000D03*
X134910000Y-65940000D03*
X134910000Y-64940000D03*
D23*
X134910000Y-62990000D03*
X134910000Y-63790000D03*
D24*
X134910000Y-64440000D03*
X134910000Y-65440000D03*
X134910000Y-66940000D03*
X134910000Y-67940000D03*
D25*
X135485000Y-70510000D03*
D26*
X139665000Y-70510000D03*
D25*
X135485000Y-61870000D03*
D26*
X139665000Y-61870000D03*
D14*
X115120000Y-74200000D03*
X116080000Y-74200000D03*
D15*
X93300000Y-69980000D03*
X93300000Y-69020000D03*
D27*
X129490000Y-64250000D03*
X130510000Y-64250000D03*
D14*
X115120000Y-73100000D03*
X116080000Y-73100000D03*
D28*
X93510000Y-74800000D03*
X92490000Y-74800000D03*
D13*
X116080000Y-58900000D03*
X115120000Y-58900000D03*
D27*
X92480002Y-75800000D03*
X93500000Y-75800000D03*
D29*
X84550000Y-61750000D03*
X86850000Y-61750000D03*
X86850000Y-59850000D03*
X84550000Y-59850000D03*
D13*
X86600000Y-63000000D03*
X85640000Y-63000000D03*
D30*
X139300000Y-77400000D03*
D31*
X121045000Y-64390000D03*
X123995000Y-64390000D03*
D15*
X93300000Y-67880000D03*
X93300000Y-66920000D03*
D14*
X85920000Y-67700000D03*
X86880000Y-67700000D03*
D32*
X129037500Y-70100000D03*
X131962500Y-70100000D03*
D12*
X93500000Y-60220000D03*
X93500000Y-61180000D03*
D33*
X123400000Y-71905000D03*
X123400000Y-73555000D03*
D28*
X83300000Y-64000000D03*
X82280000Y-64000000D03*
D34*
X125270000Y-73550000D03*
X125270000Y-71900000D03*
D35*
X107900000Y-62265400D03*
X107420000Y-62265400D03*
X106940000Y-62265400D03*
X106460000Y-62265400D03*
X105980000Y-62265400D03*
X105500000Y-62265400D03*
X105020000Y-62265400D03*
X104540000Y-62265400D03*
X104060000Y-62265400D03*
X103580000Y-62265400D03*
X103100000Y-62265400D03*
X102620000Y-62265400D03*
X102140000Y-62265400D03*
X101660000Y-62265400D03*
X101180000Y-62265400D03*
X100700000Y-62265400D03*
X100700000Y-70134600D03*
X101180000Y-70134600D03*
X101660000Y-70134600D03*
X102140000Y-70134600D03*
X102620000Y-70134600D03*
X103100000Y-70134600D03*
X103580000Y-70134600D03*
X104060000Y-70134600D03*
X104540000Y-70134600D03*
X105020000Y-70134600D03*
X105500000Y-70134600D03*
X105980000Y-70134600D03*
X106460000Y-70134600D03*
X106940000Y-70134600D03*
X107420000Y-70134600D03*
X107900000Y-70134600D03*
D36*
X107300000Y-66200000D03*
D37*
X103100000Y-66200000D03*
D38*
X85049811Y-72174800D03*
X85549937Y-72174800D03*
X86050063Y-72174800D03*
X86550189Y-72174800D03*
X86550189Y-69025200D03*
X86050063Y-69025200D03*
X85549937Y-69025200D03*
X85049811Y-69025200D03*
D13*
X91880000Y-65700000D03*
X90920000Y-65700000D03*
D12*
X88700000Y-60220000D03*
X88700000Y-61180000D03*
D14*
X115120000Y-72100000D03*
X116080000Y-72100000D03*
D27*
X85190000Y-56800000D03*
X86210000Y-56800000D03*
D14*
X115120000Y-71100000D03*
X116080000Y-71100000D03*
D17*
X99700000Y-65590000D03*
X99700000Y-66610000D03*
D39*
X91749999Y-67262500D03*
X90800000Y-67262500D03*
X89850001Y-67262500D03*
X89850001Y-69537500D03*
X91749999Y-69537500D03*
D16*
X129580000Y-67687500D03*
X131480000Y-67687500D03*
X130530000Y-65812500D03*
D13*
X116080000Y-60900000D03*
X115120000Y-60900000D03*
D12*
X93300000Y-71120000D03*
X93300000Y-72080000D03*
D40*
X125980000Y-69910000D03*
X125980000Y-68010000D03*
D30*
X81900000Y-55100000D03*
D41*
X119090000Y-68315000D03*
X119090000Y-69865000D03*
D28*
X83510000Y-69000000D03*
X82490000Y-69000000D03*
D17*
X121900000Y-72090000D03*
X121900000Y-73110000D03*
D42*
X89440000Y-77690000D03*
X91980000Y-77690000D03*
X94520000Y-77690000D03*
X97060000Y-77690000D03*
X99600000Y-77690000D03*
X102140000Y-77690000D03*
X104680000Y-77690000D03*
X107220000Y-77690000D03*
X109760000Y-77690000D03*
X112300000Y-77690000D03*
X114840000Y-77690000D03*
X117380000Y-77690000D03*
X117380000Y-54770000D03*
X114840000Y-54770000D03*
X112300000Y-54770000D03*
X109760000Y-54770000D03*
X107220000Y-54770000D03*
X104680000Y-54770000D03*
X102140000Y-54770000D03*
X99600000Y-54770000D03*
X97060000Y-54770000D03*
X94520000Y-54770000D03*
X91980000Y-54770000D03*
X89440000Y-54770000D03*
D43*
X87600000Y-67700000D03*
X99400000Y-65100000D03*
X104050000Y-65700000D03*
X101050000Y-64700000D03*
X126970000Y-64480000D03*
X105050000Y-66700000D03*
X85450063Y-73288993D03*
X115612851Y-57176045D03*
X129550000Y-63749990D03*
X104050000Y-64700000D03*
X105050000Y-63700000D03*
X126300000Y-65250000D03*
X120220000Y-69580000D03*
X101050000Y-68700000D03*
X84400000Y-56800000D03*
X102050000Y-66700000D03*
X103050000Y-63700000D03*
X107000000Y-57000000D03*
X90100000Y-65200000D03*
X119930000Y-70800000D03*
X113000000Y-62000000D03*
X117890000Y-70830000D03*
X103050000Y-68700000D03*
X103050000Y-64700000D03*
X105050000Y-68700000D03*
X125670000Y-64480000D03*
X104050000Y-63700000D03*
X104050000Y-66700000D03*
X101050000Y-65700000D03*
X88000000Y-61100000D03*
X85546787Y-71457468D03*
X101050000Y-63700000D03*
X93677036Y-61494171D03*
X116600000Y-74200000D03*
X102050000Y-64700000D03*
X122930000Y-74010000D03*
X86255604Y-62397971D03*
X103000000Y-74000000D03*
X94000000Y-72000000D03*
X103050000Y-66700000D03*
X105050000Y-67700000D03*
X133800000Y-66290000D03*
X94200000Y-63700000D03*
X105050000Y-64700000D03*
X94100000Y-69000000D03*
X126300000Y-63700000D03*
X102050000Y-68700000D03*
X91100000Y-63900000D03*
X96000000Y-64000000D03*
X86400000Y-61000000D03*
X117890000Y-69600000D03*
X125670000Y-65980000D03*
X101050000Y-67700000D03*
X104050000Y-68700000D03*
X121110000Y-70780000D03*
X109000000Y-57000000D03*
X103050000Y-67700000D03*
X101000000Y-74000000D03*
X104050000Y-67700000D03*
X88900000Y-64300000D03*
X126300000Y-66800000D03*
X96000000Y-66000000D03*
X93500000Y-66300000D03*
X105000000Y-74000000D03*
X102050000Y-67700000D03*
X105050000Y-65700000D03*
X133800000Y-65390000D03*
X105000000Y-57000000D03*
X121900000Y-73700000D03*
X102050000Y-63700000D03*
X101050000Y-66700000D03*
X90000000Y-66100000D03*
X126970000Y-65980000D03*
X96000000Y-68000000D03*
X102050000Y-65700000D03*
X103050000Y-65700000D03*
X83900000Y-66600000D03*
X113000000Y-70000000D03*
X93500000Y-59500000D03*
X94425735Y-71074265D03*
X107300000Y-74700000D03*
X83700000Y-71500000D03*
X90856372Y-75393628D03*
X89725000Y-76525000D03*
X83700000Y-69800000D03*
X103200000Y-76700000D03*
X119631266Y-76072899D03*
X119500000Y-74100000D03*
X99400000Y-70460000D03*
X98800000Y-74890000D03*
X94190000Y-74860000D03*
X84640790Y-71400000D03*
X84553031Y-69742747D03*
X82400000Y-68500000D03*
X87470000Y-68800000D03*
X118817720Y-73633399D03*
X118800000Y-76000000D03*
D44*
X121900000Y-72090000D02*
X120010000Y-72090000D01*
X120010000Y-72090000D02*
X119500000Y-72600000D01*
X119500000Y-72600000D02*
X119500000Y-74100000D01*
D45*
X92790000Y-65638528D02*
X92590000Y-65838528D01*
X85640000Y-63000000D02*
X85640000Y-62840000D01*
X92200000Y-69987501D02*
X92200000Y-71090001D01*
X86222444Y-63700000D02*
X86232444Y-63710000D01*
X91749999Y-69537500D02*
X91749999Y-68980001D01*
X93300000Y-67880000D02*
X92869999Y-67880000D01*
X92790000Y-62333027D02*
X92790000Y-65638528D01*
X93500000Y-62620000D02*
X92935551Y-62620000D01*
X92630000Y-68100000D02*
X92649999Y-68100000D01*
X88087500Y-61912500D02*
X92369473Y-61912500D01*
X85640000Y-62840000D02*
X84550000Y-61750000D01*
X85920000Y-63980000D02*
X85920000Y-65200000D01*
D44*
X100700000Y-70850000D02*
X100700000Y-70134600D01*
D45*
X91749999Y-68980001D02*
X92630000Y-68100000D01*
X93300000Y-69980000D02*
X92192499Y-69980000D01*
X92869999Y-67880000D02*
X92649999Y-68100000D01*
X94790000Y-69980000D02*
X95990000Y-71180000D01*
X85640000Y-63700000D02*
X86222444Y-63700000D01*
X100450000Y-61220000D02*
X95570000Y-61220000D01*
X85640000Y-63000000D02*
X85640000Y-63700000D01*
X86232444Y-63710000D02*
X86967556Y-63710000D01*
X87900000Y-62100000D02*
X88087500Y-61912500D01*
X93300000Y-69980000D02*
X94790000Y-69980000D01*
D44*
X100700000Y-62265400D02*
X100700000Y-61470000D01*
X85549937Y-69025200D02*
X86050063Y-69025200D01*
D45*
X95990000Y-71180000D02*
X100370000Y-71180000D01*
X95570000Y-61220000D02*
X94170000Y-62620000D01*
D44*
X100370000Y-71180000D02*
X100700000Y-70850000D01*
D45*
X92590000Y-65838528D02*
X92590000Y-68040001D01*
X86967556Y-63710000D02*
X87900000Y-62777556D01*
X92590000Y-68040001D02*
X92649999Y-68100000D01*
X85920000Y-65200000D02*
X85920000Y-68895137D01*
X85640000Y-63700000D02*
X85920000Y-63980000D01*
X92192499Y-69980000D02*
X91749999Y-69537500D01*
X92369473Y-61912500D02*
X92790000Y-62333027D01*
X100700000Y-61470000D02*
X100450000Y-61220000D01*
X84550000Y-59850000D02*
X84550000Y-61750000D01*
X94170000Y-62620000D02*
X93500000Y-62620000D01*
X87900000Y-62777556D02*
X87900000Y-62100000D01*
D44*
X99400000Y-65290000D02*
X99400000Y-65100000D01*
X133800000Y-65390000D02*
X133325000Y-65390000D01*
X90800000Y-67262500D02*
X90800000Y-66900000D01*
X94100000Y-69000000D02*
X93320000Y-69000000D01*
X134910000Y-69390000D02*
X134910000Y-69935000D01*
X116080000Y-57643194D02*
X116080000Y-57880000D01*
X83850000Y-67437500D02*
X83850000Y-66650000D01*
X86255604Y-62655604D02*
X86600000Y-63000000D01*
X93380000Y-72000000D02*
X93300000Y-72080000D01*
X102050000Y-67450000D02*
X102050000Y-67250000D01*
X93620000Y-63700000D02*
X93500000Y-63580000D01*
X91100000Y-63037500D02*
X91100000Y-63900000D01*
X90800000Y-66900000D02*
X90000000Y-66100000D01*
X101660000Y-68840000D02*
X102050000Y-68450000D01*
X83850000Y-66650000D02*
X83900000Y-66600000D01*
X103050000Y-66250000D02*
X103100000Y-66200000D01*
X101660000Y-70134600D02*
X101660000Y-69090000D01*
X102050000Y-68450000D02*
X101660000Y-68060000D01*
X115612851Y-57176045D02*
X116080000Y-57643194D01*
X88000000Y-61100000D02*
X88620000Y-61100000D01*
X93677036Y-61357036D02*
X93500000Y-61180000D01*
X94000000Y-72000000D02*
X93380000Y-72000000D01*
X105500000Y-62265400D02*
X105500000Y-63250000D01*
X84400000Y-56800000D02*
X85190000Y-56800000D01*
X85450063Y-73288993D02*
X85450063Y-74030063D01*
X122930000Y-74010000D02*
X122945000Y-74010000D01*
X133800000Y-66290000D02*
X133660000Y-66430000D01*
X86255604Y-62397971D02*
X86255604Y-62655604D01*
X88700000Y-63580000D02*
X88700000Y-64100000D01*
X134910000Y-62990000D02*
X134910000Y-62445000D01*
X102850000Y-66450000D02*
X103050000Y-66450000D01*
X121900000Y-73110000D02*
X121900000Y-73700000D01*
X102140000Y-63610000D02*
X102050000Y-63700000D01*
X129550000Y-64070000D02*
X129550000Y-63749990D01*
X122945000Y-74010000D02*
X123400000Y-73555000D01*
X93300000Y-66920000D02*
X93300000Y-66500000D01*
X102140000Y-62265400D02*
X102140000Y-63610000D01*
X105500000Y-63250000D02*
X105050000Y-63700000D01*
X85450063Y-74030063D02*
X85620000Y-74200000D01*
X86880000Y-67700000D02*
X87600000Y-67700000D01*
X93300000Y-66500000D02*
X93500000Y-66300000D01*
X93320000Y-69000000D02*
X93300000Y-69020000D01*
X93677036Y-61494171D02*
X93677036Y-61357036D01*
X86400000Y-61000000D02*
X86400000Y-61080000D01*
X101850000Y-67450000D02*
X102050000Y-67450000D01*
X133660000Y-66430000D02*
X133165000Y-66430000D01*
X88700000Y-64100000D02*
X88900000Y-64300000D01*
X99700000Y-65590000D02*
X99400000Y-65290000D01*
X101660000Y-69090000D02*
X102050000Y-68700000D01*
X101660000Y-68060000D02*
X101660000Y-67640000D01*
X88620000Y-61100000D02*
X88700000Y-61180000D01*
X102050000Y-67250000D02*
X102850000Y-66450000D01*
X103050000Y-66450000D02*
X103050000Y-66250000D01*
X101660000Y-67640000D02*
X101850000Y-67450000D01*
X116080000Y-74200000D02*
X116600000Y-74200000D01*
X134910000Y-69935000D02*
X135485000Y-70510000D01*
X90600000Y-65700000D02*
X90100000Y-65200000D01*
X94200000Y-63700000D02*
X93620000Y-63700000D01*
X134910000Y-62445000D02*
X135485000Y-61870000D01*
X86810000Y-61490000D02*
X87400000Y-61490000D01*
X86400000Y-61080000D02*
X86810000Y-61490000D01*
X85549937Y-71460618D02*
X85546787Y-71457468D01*
X85549937Y-72174800D02*
X85549937Y-71460618D01*
X90920000Y-65700000D02*
X90600000Y-65700000D01*
X106895000Y-60665000D02*
X106895000Y-62220400D01*
X115120000Y-57880000D02*
X109680000Y-57880000D01*
X106895000Y-62220400D02*
X106940000Y-62265400D01*
X116080000Y-58840000D02*
X115120000Y-57880000D01*
X116080000Y-58900000D02*
X116080000Y-58840000D01*
X109680000Y-57880000D02*
X106895000Y-60665000D01*
X107420000Y-60870000D02*
X107420000Y-62265400D01*
X115120000Y-58900000D02*
X115100000Y-58880000D01*
X115100000Y-58880000D02*
X109410000Y-58880000D01*
X116080000Y-59860000D02*
X115120000Y-58900000D01*
X115120000Y-58900000D02*
X115020000Y-58800000D01*
X116080000Y-59900000D02*
X116080000Y-59860000D01*
X109410000Y-58880000D02*
X107420000Y-60870000D01*
D45*
X90150001Y-60762500D02*
X91282501Y-59630000D01*
X93500000Y-60220000D02*
X93600000Y-60120000D01*
X93300000Y-71120000D02*
X94380000Y-71120000D01*
X93600000Y-60120000D02*
X100198528Y-60120000D01*
X94380000Y-71120000D02*
X95050000Y-71790000D01*
D44*
X101351471Y-61180000D02*
X101660000Y-61488529D01*
D45*
X94425735Y-71074265D02*
X94380000Y-71120000D01*
X89607501Y-60220000D02*
X90150001Y-60762500D01*
D44*
X101219264Y-62226136D02*
X101219264Y-61140736D01*
D45*
X93500000Y-60220000D02*
X93500000Y-59500000D01*
X91282501Y-59630000D02*
X92910000Y-59630000D01*
D44*
X101219264Y-61140736D02*
X101258528Y-61180000D01*
X101180000Y-71080000D02*
X101180000Y-70134600D01*
X101660000Y-61488529D02*
X101660000Y-62265400D01*
D45*
X100198528Y-60120000D02*
X101219264Y-61140736D01*
X92910000Y-59630000D02*
X93500000Y-60220000D01*
X100630000Y-71790000D02*
X101180000Y-71240000D01*
X95050000Y-71790000D02*
X100630000Y-71790000D01*
X88700000Y-60220000D02*
X89607501Y-60220000D01*
D44*
X101258528Y-61180000D02*
X101351471Y-61180000D01*
X101180000Y-71240000D02*
X101180000Y-71080000D01*
X101180000Y-62265400D02*
X101219264Y-62226136D01*
X107900000Y-61150000D02*
X107900000Y-62265400D01*
X116080000Y-60860000D02*
X115120000Y-59900000D01*
X116080000Y-60900000D02*
X116080000Y-60860000D01*
X115100000Y-59880000D02*
X109170000Y-59880000D01*
X115120000Y-59900000D02*
X115100000Y-59880000D01*
X109170000Y-59880000D02*
X107900000Y-61150000D01*
X115120000Y-63180000D02*
X115100000Y-63200000D01*
X115120000Y-60900000D02*
X115120000Y-63180000D01*
X115120000Y-71100000D02*
X115120000Y-68820000D01*
X117290000Y-74690000D02*
X117290000Y-68900000D01*
X125300000Y-73812500D02*
X124412500Y-74700000D01*
X124412500Y-74700000D02*
X117300000Y-74700000D01*
X117100000Y-74900000D02*
X117300000Y-74700000D01*
X115120000Y-68820000D02*
X115100000Y-68800000D01*
X107300000Y-74700000D02*
X107500000Y-74900000D01*
X117300000Y-74700000D02*
X117290000Y-74690000D01*
X107500000Y-74900000D02*
X117100000Y-74900000D01*
X114720000Y-72500000D02*
X115120000Y-72100000D01*
X109300000Y-72500000D02*
X114720000Y-72500000D01*
X116080000Y-71100000D02*
X116080000Y-71140000D01*
X107900000Y-71100000D02*
X109300000Y-72500000D01*
X107900000Y-70134600D02*
X107900000Y-71100000D01*
X116080000Y-71140000D02*
X115120000Y-72100000D01*
X107420000Y-70134600D02*
X107420000Y-71410000D01*
X116080000Y-72100000D02*
X116080000Y-72140000D01*
X116080000Y-72140000D02*
X115120000Y-73100000D01*
X108910000Y-72900000D02*
X114920000Y-72900000D01*
X107420000Y-71410000D02*
X108910000Y-72900000D01*
X114920000Y-72900000D02*
X115120000Y-73100000D01*
X116080000Y-73240000D02*
X115120000Y-74200000D01*
X114220000Y-73300000D02*
X115120000Y-74200000D01*
X106940000Y-70134600D02*
X106940000Y-71740000D01*
X108500000Y-73300000D02*
X114220000Y-73300000D01*
X116080000Y-73100000D02*
X116080000Y-73240000D01*
X106940000Y-71740000D02*
X108500000Y-73300000D01*
D45*
X100600000Y-75400000D02*
X118359033Y-75400000D01*
D46*
X126700000Y-72900000D02*
X126700000Y-74300000D01*
D45*
X90780000Y-64680000D02*
X90150001Y-64050001D01*
D46*
X125980000Y-69910000D02*
X127470000Y-69910000D01*
D45*
X89850001Y-68093026D02*
X90550000Y-68793025D01*
X90550000Y-71610000D02*
X92990000Y-74050000D01*
X91749999Y-67262500D02*
X91749999Y-67756975D01*
X90713949Y-68793025D02*
X90550000Y-68793025D01*
X92990000Y-74050000D02*
X99250000Y-74050000D01*
D44*
X130060000Y-68167500D02*
X129580000Y-67687500D01*
D45*
X92049999Y-65530001D02*
X91880000Y-65700000D01*
X90780000Y-64680000D02*
X92039999Y-64680000D01*
D46*
X126700000Y-72400000D02*
X126700000Y-72900000D01*
D45*
X90550000Y-68793025D02*
X90550000Y-71610000D01*
D46*
X125600000Y-69850000D02*
X126700000Y-70950000D01*
D45*
X91749999Y-67262500D02*
X91749999Y-65830001D01*
D46*
X126700000Y-70950000D02*
X126700000Y-72400000D01*
D45*
X118509033Y-75250000D02*
X120852500Y-75250000D01*
D46*
X123895001Y-69910000D02*
X123862500Y-69877499D01*
D44*
X129037500Y-70100000D02*
X129730000Y-70100000D01*
D46*
X129037500Y-70100000D02*
X127920000Y-70100000D01*
D45*
X91749999Y-65830001D02*
X91880000Y-65700000D01*
D44*
X129730000Y-70100000D02*
X130060000Y-69770000D01*
D45*
X91749999Y-67756975D02*
X90713949Y-68793025D01*
X92049999Y-64690000D02*
X92049999Y-65530001D01*
X92049999Y-63037500D02*
X92070000Y-63057501D01*
X99250000Y-74050000D02*
X100600000Y-75400000D01*
D46*
X126700000Y-74300000D02*
X123500000Y-77500000D01*
D44*
X130060000Y-69770000D02*
X130060000Y-68167500D01*
D45*
X89850001Y-67262500D02*
X89850001Y-68093026D01*
X92049999Y-63037500D02*
X92049999Y-64690000D01*
D46*
X127920000Y-70100000D02*
X127600000Y-69780000D01*
D45*
X90150001Y-64050001D02*
X90150001Y-63037500D01*
X88700000Y-62620000D02*
X89732501Y-62620000D01*
X92039999Y-64680000D02*
X92049999Y-64690000D01*
X89732501Y-62620000D02*
X90150001Y-63037500D01*
X118359033Y-75400000D02*
X118509033Y-75250000D01*
D46*
X125980000Y-69910000D02*
X123895001Y-69910000D01*
X127470000Y-69910000D02*
X127600000Y-69780000D01*
D45*
X120852500Y-75250000D02*
X123112500Y-77510000D01*
X88750000Y-77500000D02*
X88750000Y-77350000D01*
X89725000Y-76525000D02*
X88750000Y-77500000D01*
X83700000Y-73430000D02*
X85200000Y-74930000D01*
X85200000Y-74930000D02*
X86000000Y-74930000D01*
X83700000Y-69800000D02*
X83700000Y-69190000D01*
D44*
X86050063Y-72763527D02*
X86304837Y-73018301D01*
D45*
X83700000Y-71500000D02*
X83700000Y-73430000D01*
D44*
X83510000Y-69000000D02*
X83510000Y-68680001D01*
D45*
X88750000Y-77350000D02*
X86580000Y-75180000D01*
D44*
X86050063Y-72174800D02*
X86050063Y-72763527D01*
D45*
X86580000Y-75180000D02*
X86580000Y-74200000D01*
X91420000Y-74830000D02*
X92320000Y-74830000D01*
X83700000Y-69190000D02*
X83510000Y-69000000D01*
D44*
X83510000Y-68680001D02*
X82550000Y-67720001D01*
X82290000Y-66330552D02*
X82290000Y-64100000D01*
D45*
X86580000Y-74350000D02*
X86580000Y-74200000D01*
X86000000Y-74930000D02*
X86580000Y-74350000D01*
D44*
X86304837Y-73924837D02*
X86580000Y-74200000D01*
X82550000Y-66590552D02*
X82290000Y-66330552D01*
X82550000Y-67720001D02*
X82550000Y-66590552D01*
X86304837Y-73018301D02*
X86304837Y-73924837D01*
D45*
X90856372Y-75393628D02*
X91420000Y-74830000D01*
D44*
X117820000Y-76600000D02*
X117760000Y-76540000D01*
X117760000Y-76540000D02*
X103360000Y-76540000D01*
X119631266Y-76072899D02*
X119104165Y-76600000D01*
X103360000Y-76540000D02*
X103200000Y-76700000D01*
X119104165Y-76600000D02*
X117820000Y-76600000D01*
X123050000Y-71555000D02*
X123050000Y-70464999D01*
X123512500Y-72017500D02*
X123050000Y-71555000D01*
X123400000Y-71905000D02*
X123400000Y-71675000D01*
X124870000Y-72017500D02*
X123512500Y-72017500D01*
X105500000Y-71200000D02*
X105500000Y-70045000D01*
X103700000Y-73000000D02*
X105500000Y-71200000D01*
X93090001Y-73000000D02*
X103700000Y-73000000D01*
X92200000Y-72109999D02*
X93090001Y-73000000D01*
X82722811Y-58845818D02*
X82722811Y-62822811D01*
X83310000Y-63410000D02*
X83310000Y-64100000D01*
X82722811Y-62822811D02*
X83310000Y-63410000D01*
X102400000Y-57500000D02*
X84068628Y-57500000D01*
X104060000Y-62265400D02*
X104060000Y-59160000D01*
X84068628Y-57500000D02*
X82722811Y-58845818D01*
X104060000Y-59160000D02*
X102400000Y-57500000D01*
X82900000Y-64510000D02*
X83310000Y-64100000D01*
X82900000Y-65562500D02*
X82900000Y-64510000D01*
X88000000Y-58700000D02*
X101400000Y-58700000D01*
X101400000Y-58700000D02*
X102620000Y-59920000D01*
X102620000Y-59920000D02*
X102620000Y-62265400D01*
X86850000Y-59850000D02*
X88000000Y-58700000D01*
X116690000Y-77500000D02*
X116890000Y-77300000D01*
D46*
X117560000Y-77510000D02*
X117380000Y-77690000D01*
X119812500Y-77510000D02*
X117560000Y-77510000D01*
D44*
X93710000Y-74800000D02*
X94130000Y-74800000D01*
X98770000Y-74860000D02*
X98800000Y-74890000D01*
X94190000Y-74860000D02*
X98770000Y-74860000D01*
X94130000Y-74800000D02*
X94190000Y-74860000D01*
X99400000Y-66910000D02*
X99700000Y-66610000D01*
X93510000Y-75000000D02*
X93710000Y-74800000D01*
X99400000Y-70460000D02*
X99400000Y-66910000D01*
X133175000Y-67440000D02*
X134910000Y-67440000D01*
X133175000Y-64440000D02*
X134910000Y-64440000D01*
X84622811Y-69672967D02*
X84553031Y-69742747D01*
X102100000Y-57900000D02*
X103580000Y-59380000D01*
X83122811Y-62588497D02*
X83122811Y-59011504D01*
X84622811Y-64088497D02*
X84622811Y-69672967D01*
X85049811Y-71809021D02*
X84622811Y-71382021D01*
X84622811Y-64088497D02*
X83122811Y-62588497D01*
X83122811Y-59011504D02*
X84234314Y-57900000D01*
X103580000Y-59380000D02*
X103580000Y-62265400D01*
X84234314Y-57900000D02*
X102100000Y-57900000D01*
X85049811Y-72174800D02*
X85049811Y-71809021D01*
X83549811Y-59150189D02*
X84400000Y-58300000D01*
X85049811Y-63949811D02*
X83549811Y-62449811D01*
X83549811Y-62449811D02*
X83549811Y-59150189D01*
X103100000Y-59600000D02*
X103100000Y-62265400D01*
X85049811Y-69025200D02*
X85049811Y-63949811D01*
X101800000Y-58300000D02*
X103100000Y-59600000D01*
X84400000Y-58300000D02*
X101800000Y-58300000D01*
X104540000Y-59074314D02*
X104540000Y-62265400D01*
X86510000Y-57100000D02*
X102565686Y-57100000D01*
X102565686Y-57100000D02*
X104540000Y-59074314D01*
X86210000Y-56800000D02*
X86510000Y-57100000D01*
X91980000Y-77690000D02*
X88300000Y-74010000D01*
X81950000Y-67537500D02*
X81950000Y-68050000D01*
X87700000Y-68800000D02*
X87470000Y-68800000D01*
X88300000Y-69400000D02*
X87700000Y-68800000D01*
X88300000Y-74010000D02*
X88300000Y-69400000D01*
X81950000Y-68050000D02*
X82400000Y-68500000D01*
X82490000Y-69000000D02*
X82490000Y-68590000D01*
X82490000Y-68590000D02*
X82400000Y-68500000D01*
X102577919Y-76050000D02*
X102140000Y-76487919D01*
X118817720Y-72082280D02*
X118817720Y-73633399D01*
X122050002Y-70464999D02*
X122050002Y-70964998D01*
X118750000Y-76050000D02*
X102577919Y-76050000D01*
X93500000Y-75800000D02*
X100250000Y-75800000D01*
X119500000Y-71400000D02*
X118817720Y-72082280D01*
X100250000Y-75800000D02*
X102140000Y-77690000D01*
X122050002Y-70964998D02*
X121615000Y-71400000D01*
X102140000Y-76487919D02*
X102140000Y-77690000D01*
X121615000Y-71400000D02*
X119500000Y-71400000D01*
X118800000Y-76000000D02*
X118750000Y-76050000D01*
X81300000Y-69134314D02*
X81300000Y-58800000D01*
X81300000Y-58800000D02*
X84000000Y-56100000D01*
X82565686Y-70400000D02*
X81300000Y-69134314D01*
X85800000Y-70400000D02*
X82565686Y-70400000D01*
X88499999Y-56100000D02*
X88720000Y-56320000D01*
X84000000Y-56100000D02*
X88499999Y-56100000D01*
X86550189Y-69025200D02*
X86550189Y-69649811D01*
X88720000Y-56320000D02*
X100590000Y-56320000D01*
X100590000Y-56320000D02*
X102140000Y-54770000D01*
X86550189Y-69649811D02*
X85800000Y-70400000D01*
X83834314Y-55700000D02*
X88665685Y-55700000D01*
X88885685Y-55920000D02*
X98450000Y-55920000D01*
X80900000Y-69300000D02*
X80900000Y-58634314D01*
X86550189Y-72174800D02*
X86550189Y-71384504D01*
X88665685Y-55700000D02*
X88885685Y-55920000D01*
X98450000Y-55920000D02*
X99600000Y-54770000D01*
X82400000Y-70800000D02*
X80900000Y-69300000D01*
X80900000Y-58634314D02*
X83834314Y-55700000D01*
X85965685Y-70800000D02*
X82400000Y-70800000D01*
X86550189Y-71384504D02*
X85965685Y-70800000D01*
X131350000Y-70100000D02*
X131000000Y-69750000D01*
X131000000Y-69750000D02*
X131000000Y-68167500D01*
X131962500Y-70100000D02*
X131350000Y-70100000D01*
D46*
X133015000Y-68590000D02*
X133465000Y-68590000D01*
X132345000Y-63960000D02*
X132345000Y-67920000D01*
X134910000Y-63790000D02*
X134211606Y-63790000D01*
X131962500Y-70100000D02*
X133015000Y-69047500D01*
D44*
X131000000Y-68167500D02*
X131480000Y-67687500D01*
D46*
X132345000Y-67920000D02*
X133015000Y-68590000D01*
X132545000Y-63760000D02*
X132345000Y-63960000D01*
X134181606Y-63760000D02*
X132545000Y-63760000D01*
X134910000Y-68590000D02*
X135237563Y-68590000D01*
X134910000Y-68590000D02*
X134265000Y-68590000D01*
X133465000Y-68590000D02*
X134265000Y-68590000D01*
X133015000Y-69047500D02*
X133015000Y-68590000D01*
X134211606Y-63790000D02*
X134181606Y-63760000D01*
D44*
X130510000Y-65792500D02*
X130510000Y-64250000D01*
X130510000Y-62710000D02*
X123900000Y-56100000D01*
X130510000Y-64250000D02*
X130510000Y-62710000D01*
X108550000Y-56100000D02*
X107220000Y-54770000D01*
X130530000Y-65812500D02*
X130510000Y-65792500D01*
X123900000Y-56100000D02*
X108550000Y-56100000D01*
X122550001Y-71439999D02*
X121900000Y-72090000D01*
X122550001Y-70464999D02*
X122550001Y-71439999D01*
G04 #@! TA.AperFunction,Conductor*
G36*
X120760996Y-69297593D02*
G01*
X120772569Y-69309750D01*
X121614711Y-70419846D01*
X121630000Y-70465296D01*
X121630000Y-70928881D01*
X121612407Y-70977219D01*
X121607974Y-70982055D01*
X121512555Y-71077474D01*
X121465935Y-71099214D01*
X121459381Y-71099500D01*
X119460433Y-71099500D01*
X119457433Y-71100304D01*
X119438266Y-71102862D01*
X117665983Y-71109526D01*
X117617579Y-71092115D01*
X117591692Y-71047664D01*
X117590500Y-71034327D01*
X117590500Y-69355200D01*
X117608093Y-69306862D01*
X117652642Y-69281142D01*
X117665700Y-69280000D01*
X120712658Y-69280000D01*
X120760996Y-69297593D01*
G37*
G04 #@! TD.AperFunction*
G04 #@! TA.AperFunction,Conductor*
G36*
X127761980Y-63002383D02*
G01*
X127821480Y-63014218D01*
X127866175Y-63032730D01*
X127906272Y-63059522D01*
X127940477Y-63093727D01*
X127967267Y-63133822D01*
X127985781Y-63178517D01*
X127989542Y-63197427D01*
X127997617Y-63238022D01*
X128000000Y-63262210D01*
X128000000Y-68631287D01*
X127980315Y-68698326D01*
X127927511Y-68744081D01*
X127889502Y-68754550D01*
X127871872Y-68756481D01*
X127819470Y-68768097D01*
X127819469Y-68768097D01*
X127759602Y-68788419D01*
X127719745Y-68794999D01*
X127480255Y-68794999D01*
X127440398Y-68788419D01*
X127380531Y-68768097D01*
X127328126Y-68756480D01*
X127234064Y-68746179D01*
X127218725Y-68744500D01*
X127218724Y-68744500D01*
X125074501Y-68744500D01*
X125007462Y-68724815D01*
X124961707Y-68672011D01*
X124950501Y-68620500D01*
X124950500Y-66692129D01*
X124950499Y-66692123D01*
X124944092Y-66632516D01*
X124893798Y-66497671D01*
X124893796Y-66497668D01*
X124840975Y-66427108D01*
X124816558Y-66361646D01*
X124816245Y-66352072D01*
X124818457Y-65991534D01*
X124818456Y-65991533D01*
X124820000Y-65740000D01*
X124568463Y-65740000D01*
X123709403Y-65740000D01*
X123685379Y-65737650D01*
X123661429Y-65732920D01*
X123626263Y-65725975D01*
X123581823Y-65707710D01*
X123541889Y-65681264D01*
X123507726Y-65647473D01*
X123480844Y-65607831D01*
X123462093Y-65563591D01*
X123449773Y-65504609D01*
X123447160Y-65480613D01*
X123422901Y-63265024D01*
X123425050Y-63240653D01*
X123436392Y-63180636D01*
X123454661Y-63135483D01*
X123481351Y-63094941D01*
X123515607Y-63060308D01*
X123555854Y-63033176D01*
X123600807Y-63014413D01*
X123634772Y-63007608D01*
X123660693Y-63002416D01*
X123685050Y-63000000D01*
X127737789Y-63000000D01*
X127761980Y-63002383D01*
G37*
G04 #@! TD.AperFunction*
G04 #@! TA.AperFunction,Conductor*
G36*
X121373277Y-63032831D02*
G01*
X121432625Y-63044473D01*
X121477230Y-63062777D01*
X121501293Y-63078717D01*
X121517296Y-63089318D01*
X121551550Y-63123254D01*
X121578462Y-63163070D01*
X121597181Y-63207505D01*
X121609373Y-63266726D01*
X121611917Y-63290818D01*
X121628726Y-65576849D01*
X121630000Y-65750000D01*
X121659272Y-65804526D01*
X121659274Y-65804530D01*
X122106946Y-66638429D01*
X122113277Y-66652174D01*
X122127079Y-66687699D01*
X122134507Y-66716976D01*
X122139309Y-66754771D01*
X122140297Y-66769872D01*
X122148872Y-68785067D01*
X122146561Y-68809427D01*
X122134826Y-68869347D01*
X122116261Y-68914374D01*
X122089318Y-68954724D01*
X122054847Y-68989126D01*
X122014439Y-69015991D01*
X121969379Y-69034465D01*
X121909440Y-69046081D01*
X121885073Y-69048344D01*
X121804118Y-69047838D01*
X121662874Y-69046955D01*
X120588403Y-69040239D01*
X120580014Y-69039900D01*
X120565944Y-69038854D01*
X120558751Y-69038319D01*
X120542073Y-69035930D01*
X120521207Y-69031476D01*
X120513062Y-69029445D01*
X120328144Y-68976612D01*
X120284558Y-68964159D01*
X120233686Y-68949624D01*
X120233674Y-68949621D01*
X120233667Y-68949619D01*
X120233665Y-68949618D01*
X120200000Y-68940000D01*
X120164988Y-68940000D01*
X117508683Y-68940000D01*
X117390000Y-68940000D01*
X117314973Y-69031966D01*
X117314973Y-69031967D01*
X117163448Y-69217708D01*
X117143936Y-69236858D01*
X117090478Y-69278826D01*
X117041419Y-69302201D01*
X116975155Y-69317279D01*
X116947994Y-69320369D01*
X106652519Y-69349262D01*
X106628306Y-69346944D01*
X106568733Y-69335258D01*
X106523953Y-69316840D01*
X106483769Y-69290126D01*
X106449458Y-69255966D01*
X106422569Y-69215903D01*
X106403955Y-69171204D01*
X106392006Y-69111675D01*
X106389582Y-69087480D01*
X106389523Y-69050000D01*
X106380416Y-63322109D01*
X106382759Y-63297925D01*
X106388912Y-63266726D01*
X106394495Y-63238415D01*
X106412930Y-63193699D01*
X106439643Y-63153570D01*
X106473781Y-63119309D01*
X106513818Y-63092451D01*
X106558462Y-63073861D01*
X106617944Y-63061910D01*
X106642104Y-63059483D01*
X121349181Y-63030513D01*
X121373277Y-63032831D01*
G37*
G04 #@! TD.AperFunction*
G04 #@! TA.AperFunction,Conductor*
G36*
X106272402Y-70712305D02*
G01*
X106371827Y-70758668D01*
X106420683Y-70765100D01*
X106420684Y-70765100D01*
X106499323Y-70765100D01*
X106503366Y-70764835D01*
X106503425Y-70765742D01*
X106568344Y-70775863D01*
X106620602Y-70822240D01*
X106639500Y-70888039D01*
X106639500Y-71779562D01*
X106650330Y-71819979D01*
X106659979Y-71855990D01*
X106659980Y-71855991D01*
X106694331Y-71915489D01*
X106699540Y-71924511D01*
X106699542Y-71924514D01*
X107490518Y-72715489D01*
X108259540Y-73484511D01*
X108315489Y-73540460D01*
X108315491Y-73540461D01*
X108315495Y-73540464D01*
X108384004Y-73580017D01*
X108384011Y-73580021D01*
X108460438Y-73600500D01*
X108539562Y-73600500D01*
X114044167Y-73600500D01*
X114111206Y-73620185D01*
X114131848Y-73636819D01*
X114213681Y-73718652D01*
X114247166Y-73779975D01*
X114250000Y-73806333D01*
X114250000Y-74475500D01*
X114230315Y-74542539D01*
X114177511Y-74588294D01*
X114126000Y-74599500D01*
X107884016Y-74599500D01*
X107816977Y-74579815D01*
X107771222Y-74527012D01*
X107747697Y-74475500D01*
X107725377Y-74426627D01*
X107631128Y-74317857D01*
X107510053Y-74240047D01*
X107510051Y-74240046D01*
X107510049Y-74240045D01*
X107510050Y-74240045D01*
X107371963Y-74199500D01*
X107371961Y-74199500D01*
X107228039Y-74199500D01*
X107228036Y-74199500D01*
X107089949Y-74240045D01*
X106968873Y-74317856D01*
X106874623Y-74426626D01*
X106874622Y-74426628D01*
X106814834Y-74557543D01*
X106794353Y-74700000D01*
X106816097Y-74851235D01*
X106814279Y-74851496D01*
X106814278Y-74910438D01*
X106776502Y-74969215D01*
X106712945Y-74998238D01*
X106695302Y-74999500D01*
X100817255Y-74999500D01*
X100750216Y-74979815D01*
X100729574Y-74963181D01*
X99495915Y-73729522D01*
X99495913Y-73729520D01*
X99450250Y-73703156D01*
X99404589Y-73676793D01*
X99353657Y-73663146D01*
X99302727Y-73649500D01*
X94374000Y-73649500D01*
X94306961Y-73629815D01*
X94261206Y-73577011D01*
X94250000Y-73525500D01*
X94250000Y-73424500D01*
X94269685Y-73357461D01*
X94322489Y-73311706D01*
X94374000Y-73300500D01*
X103739560Y-73300500D01*
X103739562Y-73300500D01*
X103815989Y-73280021D01*
X103884511Y-73240460D01*
X103940460Y-73184511D01*
X105740460Y-71384511D01*
X105748585Y-71370438D01*
X105780021Y-71315989D01*
X105800500Y-71239562D01*
X105800500Y-70888039D01*
X105820185Y-70821000D01*
X105872989Y-70775245D01*
X105936576Y-70765717D01*
X105936634Y-70764835D01*
X105940677Y-70765100D01*
X105940684Y-70765100D01*
X106019317Y-70765100D01*
X106035601Y-70762956D01*
X106068173Y-70758668D01*
X106167596Y-70712305D01*
X106236672Y-70701814D01*
X106272402Y-70712305D01*
G37*
G04 #@! TD.AperFunction*
G04 #@! TA.AperFunction,Conductor*
G36*
X108290706Y-56269685D02*
G01*
X108311348Y-56286319D01*
X108365489Y-56340460D01*
X108365491Y-56340461D01*
X108365495Y-56340464D01*
X108434004Y-56380017D01*
X108434011Y-56380021D01*
X108510438Y-56400500D01*
X108510440Y-56400500D01*
X114126000Y-56400500D01*
X114193039Y-56420185D01*
X114238794Y-56472989D01*
X114250000Y-56524500D01*
X114250000Y-57455500D01*
X114230315Y-57522539D01*
X114177511Y-57568294D01*
X114126000Y-57579500D01*
X109640438Y-57579500D01*
X109564010Y-57599978D01*
X109495489Y-57639540D01*
X109495486Y-57639542D01*
X106654541Y-60480487D01*
X106654535Y-60480495D01*
X106614982Y-60549004D01*
X106614979Y-60549009D01*
X106594500Y-60625439D01*
X106594500Y-61510900D01*
X106574815Y-61577939D01*
X106522011Y-61623694D01*
X106470500Y-61634900D01*
X106420683Y-61634900D01*
X106371827Y-61641331D01*
X106371826Y-61641331D01*
X106272404Y-61687693D01*
X106203327Y-61698185D01*
X106167596Y-61687693D01*
X106068172Y-61641331D01*
X106019317Y-61634900D01*
X106019316Y-61634900D01*
X105940684Y-61634900D01*
X105940683Y-61634900D01*
X105891828Y-61641331D01*
X105784595Y-61691335D01*
X105700935Y-61774995D01*
X105650931Y-61882228D01*
X105644500Y-61931083D01*
X105644500Y-62599716D01*
X105650931Y-62648571D01*
X105650932Y-62648573D01*
X105700935Y-62755804D01*
X105784596Y-62839465D01*
X105891827Y-62889468D01*
X105940683Y-62895900D01*
X105940684Y-62895900D01*
X106019311Y-62895900D01*
X106019316Y-62895900D01*
X106035041Y-62893829D01*
X106104073Y-62904593D01*
X106156330Y-62950971D01*
X106175218Y-63018239D01*
X106174632Y-63028905D01*
X106174500Y-63030247D01*
X106174500Y-69369761D01*
X106174631Y-69371093D01*
X106174500Y-69371783D01*
X106174500Y-69375840D01*
X106173730Y-69375840D01*
X106161604Y-69439737D01*
X106113533Y-69490441D01*
X106045680Y-69507107D01*
X106035043Y-69506170D01*
X106019318Y-69504100D01*
X106019316Y-69504100D01*
X105940684Y-69504100D01*
X105940683Y-69504100D01*
X105891827Y-69510531D01*
X105891826Y-69510531D01*
X105792404Y-69556893D01*
X105723327Y-69567385D01*
X105687596Y-69556893D01*
X105588172Y-69510531D01*
X105539317Y-69504100D01*
X105539316Y-69504100D01*
X105460684Y-69504100D01*
X105460683Y-69504100D01*
X105411827Y-69510531D01*
X105411826Y-69510531D01*
X105312404Y-69556893D01*
X105243327Y-69567385D01*
X105207596Y-69556893D01*
X105108172Y-69510531D01*
X105059317Y-69504100D01*
X105059316Y-69504100D01*
X104980684Y-69504100D01*
X104980683Y-69504100D01*
X104931827Y-69510531D01*
X104931826Y-69510531D01*
X104832404Y-69556893D01*
X104763327Y-69567385D01*
X104727596Y-69556893D01*
X104628172Y-69510531D01*
X104579317Y-69504100D01*
X104579316Y-69504100D01*
X104500684Y-69504100D01*
X104500683Y-69504100D01*
X104451827Y-69510531D01*
X104451826Y-69510531D01*
X104352404Y-69556893D01*
X104283327Y-69567385D01*
X104247596Y-69556893D01*
X104148172Y-69510531D01*
X104099317Y-69504100D01*
X104099316Y-69504100D01*
X104020684Y-69504100D01*
X104020683Y-69504100D01*
X103971827Y-69510531D01*
X103971826Y-69510531D01*
X103872404Y-69556893D01*
X103803327Y-69567385D01*
X103767596Y-69556893D01*
X103668172Y-69510531D01*
X103619317Y-69504100D01*
X103619316Y-69504100D01*
X103540684Y-69504100D01*
X103540683Y-69504100D01*
X103491827Y-69510531D01*
X103491826Y-69510531D01*
X103392404Y-69556893D01*
X103323327Y-69567385D01*
X103287596Y-69556893D01*
X103188172Y-69510531D01*
X103139317Y-69504100D01*
X103139316Y-69504100D01*
X103060684Y-69504100D01*
X103060683Y-69504100D01*
X103011827Y-69510531D01*
X103011826Y-69510531D01*
X102912404Y-69556893D01*
X102843327Y-69567385D01*
X102807596Y-69556893D01*
X102708172Y-69510531D01*
X102659317Y-69504100D01*
X102659316Y-69504100D01*
X102580684Y-69504100D01*
X102580683Y-69504100D01*
X102531827Y-69510531D01*
X102531826Y-69510531D01*
X102432404Y-69556893D01*
X102363327Y-69567385D01*
X102327596Y-69556893D01*
X102228172Y-69510531D01*
X102179317Y-69504100D01*
X102179316Y-69504100D01*
X102100684Y-69504100D01*
X102100683Y-69504100D01*
X102051828Y-69510531D01*
X101944595Y-69560535D01*
X101860935Y-69644195D01*
X101810931Y-69751428D01*
X101804500Y-69800283D01*
X101804500Y-70468916D01*
X101810931Y-70517771D01*
X101854388Y-70610964D01*
X101860935Y-70625004D01*
X101944596Y-70708665D01*
X102051827Y-70758668D01*
X102100683Y-70765100D01*
X102100684Y-70765100D01*
X102179317Y-70765100D01*
X102195601Y-70762956D01*
X102228173Y-70758668D01*
X102327596Y-70712305D01*
X102396672Y-70701814D01*
X102432402Y-70712305D01*
X102531827Y-70758668D01*
X102580683Y-70765100D01*
X102580684Y-70765100D01*
X102659317Y-70765100D01*
X102675601Y-70762956D01*
X102708173Y-70758668D01*
X102807596Y-70712305D01*
X102876672Y-70701814D01*
X102912402Y-70712305D01*
X103011827Y-70758668D01*
X103060683Y-70765100D01*
X103060684Y-70765100D01*
X103139317Y-70765100D01*
X103155601Y-70762956D01*
X103188173Y-70758668D01*
X103287596Y-70712305D01*
X103356672Y-70701814D01*
X103392402Y-70712305D01*
X103491827Y-70758668D01*
X103540683Y-70765100D01*
X103540684Y-70765100D01*
X103619317Y-70765100D01*
X103635601Y-70762956D01*
X103668173Y-70758668D01*
X103767596Y-70712305D01*
X103836672Y-70701814D01*
X103872402Y-70712305D01*
X103971827Y-70758668D01*
X104020683Y-70765100D01*
X104020684Y-70765100D01*
X104099317Y-70765100D01*
X104115601Y-70762956D01*
X104148173Y-70758668D01*
X104247596Y-70712305D01*
X104316672Y-70701814D01*
X104352402Y-70712305D01*
X104451827Y-70758668D01*
X104500683Y-70765100D01*
X104500684Y-70765100D01*
X104579317Y-70765100D01*
X104595601Y-70762956D01*
X104628173Y-70758668D01*
X104727596Y-70712305D01*
X104796672Y-70701814D01*
X104832402Y-70712305D01*
X104931827Y-70758668D01*
X104980683Y-70765100D01*
X104980684Y-70765100D01*
X105059323Y-70765100D01*
X105063366Y-70764835D01*
X105063425Y-70765742D01*
X105128344Y-70775863D01*
X105180602Y-70822240D01*
X105199500Y-70888039D01*
X105199500Y-71024167D01*
X105179815Y-71091206D01*
X105163181Y-71111848D01*
X103611848Y-72663181D01*
X103550525Y-72696666D01*
X103524167Y-72699500D01*
X94374000Y-72699500D01*
X94306961Y-72679815D01*
X94261206Y-72627011D01*
X94250000Y-72575500D01*
X94250000Y-71855755D01*
X94269685Y-71788716D01*
X94322489Y-71742961D01*
X94391647Y-71733017D01*
X94455203Y-71762042D01*
X94461681Y-71768074D01*
X94804087Y-72110480D01*
X94895412Y-72163207D01*
X94997273Y-72190500D01*
X94997275Y-72190500D01*
X100682725Y-72190500D01*
X100682727Y-72190500D01*
X100784588Y-72163207D01*
X100875913Y-72110480D01*
X101500480Y-71485913D01*
X101553206Y-71394588D01*
X101580500Y-71292727D01*
X101580500Y-71187273D01*
X101553206Y-71085413D01*
X101500480Y-70994088D01*
X101497112Y-70988254D01*
X101480500Y-70926255D01*
X101480500Y-70606526D01*
X101492118Y-70554121D01*
X101509068Y-70517773D01*
X101515500Y-70468916D01*
X101515500Y-69800284D01*
X101509068Y-69751427D01*
X101459065Y-69644196D01*
X101375404Y-69560535D01*
X101268173Y-69510532D01*
X101268171Y-69510531D01*
X101268172Y-69510531D01*
X101219317Y-69504100D01*
X101219316Y-69504100D01*
X101140684Y-69504100D01*
X101140683Y-69504100D01*
X101091827Y-69510531D01*
X101091826Y-69510531D01*
X100992404Y-69556893D01*
X100923327Y-69567385D01*
X100887596Y-69556893D01*
X100788172Y-69510531D01*
X100739317Y-69504100D01*
X100739316Y-69504100D01*
X100660684Y-69504100D01*
X100660683Y-69504100D01*
X100611828Y-69510531D01*
X100504595Y-69560535D01*
X100420935Y-69644195D01*
X100370931Y-69751428D01*
X100364500Y-69800283D01*
X100364500Y-70468916D01*
X100370931Y-70517771D01*
X100387882Y-70554121D01*
X100399500Y-70606526D01*
X100399500Y-70655500D01*
X100379815Y-70722539D01*
X100327011Y-70768294D01*
X100275500Y-70779500D01*
X99997260Y-70779500D01*
X99930221Y-70759815D01*
X99884466Y-70707011D01*
X99874522Y-70637853D01*
X99884464Y-70603991D01*
X99885165Y-70602457D01*
X99905647Y-70460000D01*
X99885165Y-70317543D01*
X99825377Y-70186627D01*
X99825375Y-70186625D01*
X99825374Y-70186622D01*
X99730787Y-70077462D01*
X99701762Y-70013906D01*
X99700500Y-69996260D01*
X99700500Y-67204500D01*
X99720185Y-67137461D01*
X99772989Y-67091706D01*
X99824500Y-67080500D01*
X99924317Y-67080500D01*
X99940601Y-67078356D01*
X99973173Y-67074068D01*
X100080404Y-67024065D01*
X100164065Y-66940404D01*
X100214068Y-66833173D01*
X100220500Y-66784316D01*
X100220500Y-66435684D01*
X100214068Y-66386827D01*
X100164065Y-66279596D01*
X100080404Y-66195935D01*
X99973173Y-66145932D01*
X99973171Y-66145931D01*
X99973172Y-66145931D01*
X99924317Y-66139500D01*
X99924316Y-66139500D01*
X99475684Y-66139500D01*
X99475683Y-66139500D01*
X99426828Y-66145931D01*
X99319595Y-66195935D01*
X99235935Y-66279595D01*
X99185931Y-66386828D01*
X99179500Y-66435683D01*
X99179500Y-66657691D01*
X99162888Y-66719690D01*
X99119979Y-66794010D01*
X99099500Y-66870439D01*
X99099500Y-69996260D01*
X99079815Y-70063299D01*
X99069213Y-70077462D01*
X98974625Y-70186622D01*
X98974622Y-70186628D01*
X98914834Y-70317543D01*
X98894353Y-70460000D01*
X98914834Y-70602455D01*
X98915536Y-70603991D01*
X98915776Y-70605662D01*
X98917333Y-70610964D01*
X98916570Y-70611187D01*
X98925477Y-70673150D01*
X98896451Y-70736705D01*
X98837672Y-70774478D01*
X98802740Y-70779500D01*
X96207255Y-70779500D01*
X96140216Y-70759815D01*
X96119574Y-70743181D01*
X95035915Y-69659522D01*
X95035913Y-69659520D01*
X94990250Y-69633156D01*
X94944589Y-69606793D01*
X94893657Y-69593146D01*
X94842727Y-69579500D01*
X94374000Y-69579500D01*
X94306961Y-69559815D01*
X94261206Y-69507011D01*
X94250000Y-69455500D01*
X94250000Y-63106956D01*
X94269685Y-63039917D01*
X94317999Y-62998051D01*
X94317549Y-62997271D01*
X94321600Y-62994931D01*
X94322489Y-62994162D01*
X94324298Y-62993373D01*
X94324583Y-62993208D01*
X94324588Y-62993207D01*
X94415913Y-62940480D01*
X95699574Y-61656819D01*
X95760897Y-61623334D01*
X95787255Y-61620500D01*
X100232745Y-61620500D01*
X100299784Y-61640185D01*
X100320426Y-61656819D01*
X100363181Y-61699574D01*
X100396666Y-61760897D01*
X100399500Y-61787255D01*
X100399500Y-61793473D01*
X100387882Y-61845877D01*
X100370931Y-61882226D01*
X100370931Y-61882227D01*
X100364500Y-61931083D01*
X100364500Y-62599716D01*
X100370931Y-62648571D01*
X100370932Y-62648573D01*
X100420935Y-62755804D01*
X100504596Y-62839465D01*
X100611827Y-62889468D01*
X100660683Y-62895900D01*
X100660684Y-62895900D01*
X100739317Y-62895900D01*
X100755601Y-62893756D01*
X100788173Y-62889468D01*
X100887596Y-62843105D01*
X100956672Y-62832614D01*
X100992402Y-62843105D01*
X101091827Y-62889468D01*
X101140683Y-62895900D01*
X101140684Y-62895900D01*
X101219317Y-62895900D01*
X101235601Y-62893756D01*
X101268173Y-62889468D01*
X101367596Y-62843105D01*
X101436672Y-62832614D01*
X101472402Y-62843105D01*
X101571827Y-62889468D01*
X101620683Y-62895900D01*
X101620684Y-62895900D01*
X101699317Y-62895900D01*
X101715601Y-62893756D01*
X101748173Y-62889468D01*
X101855404Y-62839465D01*
X101939065Y-62755804D01*
X101989068Y-62648573D01*
X101995500Y-62599716D01*
X101995500Y-61931084D01*
X101989068Y-61882227D01*
X101972118Y-61845877D01*
X101960500Y-61793473D01*
X101960500Y-61448968D01*
X101940020Y-61372538D01*
X101940017Y-61372533D01*
X101900464Y-61304024D01*
X101900458Y-61304016D01*
X101616898Y-61020456D01*
X101598084Y-60992293D01*
X101596535Y-60993188D01*
X101542455Y-60899520D01*
X101539744Y-60894824D01*
X100444441Y-59799520D01*
X100398778Y-59773156D01*
X100353117Y-59746793D01*
X100302185Y-59733146D01*
X100251255Y-59719500D01*
X100251254Y-59719500D01*
X94374000Y-59719500D01*
X94306961Y-59699815D01*
X94261206Y-59647011D01*
X94250000Y-59595500D01*
X94250000Y-59124500D01*
X94269685Y-59057461D01*
X94322489Y-59011706D01*
X94374000Y-59000500D01*
X101224167Y-59000500D01*
X101291206Y-59020185D01*
X101311848Y-59036819D01*
X102283181Y-60008152D01*
X102316666Y-60069475D01*
X102319500Y-60095833D01*
X102319500Y-61793473D01*
X102307882Y-61845877D01*
X102290931Y-61882226D01*
X102290931Y-61882227D01*
X102284500Y-61931083D01*
X102284500Y-62599716D01*
X102290931Y-62648571D01*
X102290932Y-62648573D01*
X102340935Y-62755804D01*
X102424596Y-62839465D01*
X102531827Y-62889468D01*
X102580683Y-62895900D01*
X102580684Y-62895900D01*
X102659317Y-62895900D01*
X102675601Y-62893756D01*
X102708173Y-62889468D01*
X102807596Y-62843105D01*
X102876672Y-62832614D01*
X102912402Y-62843105D01*
X103011827Y-62889468D01*
X103060683Y-62895900D01*
X103060684Y-62895900D01*
X103139317Y-62895900D01*
X103155601Y-62893756D01*
X103188173Y-62889468D01*
X103287596Y-62843105D01*
X103356672Y-62832614D01*
X103392402Y-62843105D01*
X103491827Y-62889468D01*
X103540683Y-62895900D01*
X103540684Y-62895900D01*
X103619317Y-62895900D01*
X103635601Y-62893756D01*
X103668173Y-62889468D01*
X103767596Y-62843105D01*
X103836672Y-62832614D01*
X103872402Y-62843105D01*
X103971827Y-62889468D01*
X104020683Y-62895900D01*
X104020684Y-62895900D01*
X104099317Y-62895900D01*
X104115601Y-62893756D01*
X104148173Y-62889468D01*
X104247596Y-62843105D01*
X104316672Y-62832614D01*
X104352402Y-62843105D01*
X104451827Y-62889468D01*
X104500683Y-62895900D01*
X104500684Y-62895900D01*
X104579317Y-62895900D01*
X104595601Y-62893756D01*
X104628173Y-62889468D01*
X104727596Y-62843105D01*
X104796672Y-62832614D01*
X104832402Y-62843105D01*
X104931827Y-62889468D01*
X104980683Y-62895900D01*
X104980684Y-62895900D01*
X105059317Y-62895900D01*
X105075601Y-62893756D01*
X105108173Y-62889468D01*
X105215404Y-62839465D01*
X105299065Y-62755804D01*
X105349068Y-62648573D01*
X105355500Y-62599716D01*
X105355500Y-61931084D01*
X105349068Y-61882227D01*
X105299065Y-61774996D01*
X105215404Y-61691335D01*
X105108173Y-61641332D01*
X105108171Y-61641331D01*
X105108172Y-61641331D01*
X105059317Y-61634900D01*
X105059316Y-61634900D01*
X104980684Y-61634900D01*
X104980677Y-61634900D01*
X104980662Y-61634902D01*
X104980657Y-61634901D01*
X104976634Y-61635165D01*
X104976574Y-61634263D01*
X104911629Y-61624123D01*
X104859382Y-61577734D01*
X104840500Y-61511960D01*
X104840500Y-59034753D01*
X104840500Y-59034752D01*
X104831054Y-58999500D01*
X104820022Y-58958326D01*
X104780460Y-58889803D01*
X102750197Y-56859540D01*
X102750195Y-56859539D01*
X102750190Y-56859535D01*
X102681681Y-56819982D01*
X102681676Y-56819979D01*
X102656199Y-56813152D01*
X102605248Y-56799500D01*
X100823256Y-56799500D01*
X100756217Y-56779815D01*
X100710462Y-56727011D01*
X100700518Y-56657853D01*
X100729543Y-56594297D01*
X100761257Y-56568112D01*
X100774511Y-56560460D01*
X100830460Y-56504511D01*
X101048652Y-56286319D01*
X101109975Y-56252834D01*
X101136333Y-56250000D01*
X108223667Y-56250000D01*
X108290706Y-56269685D01*
G37*
G04 #@! TD.AperFunction*
G04 #@! TA.AperFunction,Conductor*
G36*
X114192746Y-69553286D02*
G01*
X114238649Y-69605961D01*
X114250000Y-69657789D01*
X114250000Y-72075500D01*
X114230315Y-72142539D01*
X114177511Y-72188294D01*
X114126000Y-72199500D01*
X109475833Y-72199500D01*
X109408794Y-72179815D01*
X109388152Y-72163181D01*
X108236819Y-71011848D01*
X108203334Y-70950525D01*
X108200500Y-70924167D01*
X108200500Y-70606526D01*
X108212118Y-70554121D01*
X108229068Y-70517773D01*
X108235500Y-70468916D01*
X108235500Y-69800284D01*
X108229068Y-69751427D01*
X108217425Y-69726459D01*
X108206933Y-69657386D01*
X108235451Y-69593601D01*
X108293927Y-69555361D01*
X108329457Y-69550056D01*
X114125655Y-69533790D01*
X114192746Y-69553286D01*
G37*
G04 #@! TD.AperFunction*
G04 #@! TA.AperFunction,Conductor*
G36*
X114193039Y-60200185D02*
G01*
X114238794Y-60252989D01*
X114250000Y-60304500D01*
X114250000Y-62715238D01*
X114230315Y-62782277D01*
X114177511Y-62828032D01*
X114126244Y-62839238D01*
X108329719Y-62850657D01*
X108262641Y-62831104D01*
X108216782Y-62778391D01*
X108206703Y-62709252D01*
X108217091Y-62674257D01*
X108229068Y-62648573D01*
X108235500Y-62599716D01*
X108235500Y-61931084D01*
X108229068Y-61882227D01*
X108212118Y-61845877D01*
X108200500Y-61793473D01*
X108200500Y-61325833D01*
X108220185Y-61258794D01*
X108236819Y-61238152D01*
X109258152Y-60216819D01*
X109319475Y-60183334D01*
X109345833Y-60180500D01*
X114126000Y-60180500D01*
X114193039Y-60200185D01*
G37*
G04 #@! TD.AperFunction*
G04 #@! TA.AperFunction,Conductor*
G36*
X127271129Y-69261617D02*
G01*
X127340513Y-69293972D01*
X127390099Y-69300500D01*
X127809900Y-69300499D01*
X127859487Y-69293972D01*
X127928870Y-69261617D01*
X127981275Y-69250000D01*
X129426000Y-69250000D01*
X129493039Y-69269685D01*
X129538794Y-69322489D01*
X129550000Y-69374000D01*
X129550000Y-70876000D01*
X129530315Y-70943039D01*
X129477511Y-70988794D01*
X129426000Y-71000000D01*
X123474500Y-71000000D01*
X123407461Y-70980315D01*
X123361706Y-70927511D01*
X123350500Y-70876000D01*
X123350500Y-70847231D01*
X123352883Y-70823038D01*
X123360500Y-70784748D01*
X123360500Y-70145248D01*
X123360499Y-70145246D01*
X123348868Y-70086769D01*
X123348867Y-70086768D01*
X123304552Y-70020446D01*
X123238230Y-69976131D01*
X123238229Y-69976130D01*
X123179752Y-69964499D01*
X123179748Y-69964499D01*
X122920252Y-69964499D01*
X122920251Y-69964499D01*
X122898189Y-69968887D01*
X122828598Y-69962658D01*
X122773421Y-69919794D01*
X122750178Y-69853904D01*
X122750000Y-69847269D01*
X122750000Y-69374000D01*
X122769685Y-69306961D01*
X122822489Y-69261206D01*
X122874000Y-69250000D01*
X127218725Y-69250000D01*
X127271129Y-69261617D01*
G37*
G04 #@! TD.AperFunction*
G04 #@! TA.AperFunction,Conductor*
G36*
X134077539Y-63019685D02*
G01*
X134123294Y-63072489D01*
X134134500Y-63124000D01*
X134134500Y-63173260D01*
X134144426Y-63241391D01*
X134195803Y-63346485D01*
X134278514Y-63429196D01*
X134278515Y-63429196D01*
X134278517Y-63429198D01*
X134383607Y-63480573D01*
X134417673Y-63485536D01*
X134451739Y-63490500D01*
X135358863Y-63490500D01*
X135425902Y-63510185D01*
X135466250Y-63552500D01*
X135524482Y-63653361D01*
X135524484Y-63653363D01*
X135524485Y-63653365D01*
X135631635Y-63760515D01*
X135762865Y-63836281D01*
X135909234Y-63875500D01*
X135909236Y-63875500D01*
X136060764Y-63875500D01*
X136060766Y-63875500D01*
X136207135Y-63836281D01*
X136314001Y-63774581D01*
X136381899Y-63758109D01*
X136447926Y-63780961D01*
X136491117Y-63835882D01*
X136500000Y-63881969D01*
X136500000Y-68498030D01*
X136480315Y-68565069D01*
X136427511Y-68610824D01*
X136358353Y-68620768D01*
X136314000Y-68605417D01*
X136207138Y-68543720D01*
X136207135Y-68543719D01*
X136060766Y-68504500D01*
X135909234Y-68504500D01*
X135762863Y-68543719D01*
X135631635Y-68619485D01*
X135631632Y-68619487D01*
X135524487Y-68726632D01*
X135524482Y-68726638D01*
X135466250Y-68827500D01*
X135415683Y-68875716D01*
X135358863Y-68889500D01*
X134451739Y-68889500D01*
X134383608Y-68899426D01*
X134278514Y-68950803D01*
X134195803Y-69033514D01*
X134144426Y-69138608D01*
X134134500Y-69206739D01*
X134134500Y-69573260D01*
X134144426Y-69641391D01*
X134195803Y-69746485D01*
X134278514Y-69829196D01*
X134278515Y-69829196D01*
X134278517Y-69829198D01*
X134355303Y-69866736D01*
X134406886Y-69913864D01*
X134424800Y-69981398D01*
X134403359Y-70047897D01*
X134394529Y-70058566D01*
X134394751Y-70058748D01*
X134390885Y-70063458D01*
X134314228Y-70178182D01*
X134314221Y-70178195D01*
X134261421Y-70305667D01*
X134261418Y-70305677D01*
X134234500Y-70441004D01*
X134234500Y-70441007D01*
X134234500Y-70578993D01*
X134234500Y-70578995D01*
X134234499Y-70578995D01*
X134261418Y-70714322D01*
X134261420Y-70714328D01*
X134308731Y-70828547D01*
X134316200Y-70898017D01*
X134284925Y-70960496D01*
X134224836Y-70996148D01*
X134194170Y-71000000D01*
X132124000Y-71000000D01*
X132056961Y-70980315D01*
X132011206Y-70927511D01*
X132000000Y-70876000D01*
X132000000Y-67624316D01*
X132644500Y-67624316D01*
X132650931Y-67673171D01*
X132650932Y-67673173D01*
X132700935Y-67780404D01*
X132784596Y-67864065D01*
X132891827Y-67914068D01*
X132940683Y-67920500D01*
X132940684Y-67920500D01*
X133389317Y-67920500D01*
X133405601Y-67918356D01*
X133438173Y-67914068D01*
X133545404Y-67864065D01*
X133629065Y-67780404D01*
X133629065Y-67780403D01*
X133632650Y-67776819D01*
X133693973Y-67743334D01*
X133720331Y-67740500D01*
X134010500Y-67740500D01*
X134077539Y-67760185D01*
X134123294Y-67812989D01*
X134134500Y-67864499D01*
X134134500Y-68042129D01*
X134150485Y-68122495D01*
X134211375Y-68213624D01*
X134247876Y-68238013D01*
X134302505Y-68274515D01*
X134302508Y-68274515D01*
X134302509Y-68274516D01*
X134329533Y-68279891D01*
X134382867Y-68290500D01*
X135437132Y-68290499D01*
X135517495Y-68274515D01*
X135608624Y-68213624D01*
X135669515Y-68122495D01*
X135685500Y-68042133D01*
X135685499Y-67837868D01*
X135669515Y-67757505D01*
X135669513Y-67757502D01*
X135664841Y-67746222D01*
X135666285Y-67745623D01*
X135649563Y-67692211D01*
X135665517Y-67634056D01*
X135664842Y-67633777D01*
X135667070Y-67628396D01*
X135668049Y-67624831D01*
X135669452Y-67622647D01*
X135669516Y-67622493D01*
X135685499Y-67542136D01*
X135685500Y-67542133D01*
X135685499Y-67337868D01*
X135669515Y-67257505D01*
X135669513Y-67257502D01*
X135664841Y-67246222D01*
X135666285Y-67245623D01*
X135649563Y-67192211D01*
X135665517Y-67134056D01*
X135664842Y-67133777D01*
X135667070Y-67128396D01*
X135668049Y-67124831D01*
X135669452Y-67122647D01*
X135669516Y-67122493D01*
X135685499Y-67042136D01*
X135685500Y-67042133D01*
X135685499Y-66837870D01*
X135685499Y-66837868D01*
X135669515Y-66757505D01*
X135669513Y-66757502D01*
X135664841Y-66746222D01*
X135666285Y-66745623D01*
X135649563Y-66692211D01*
X135665517Y-66634056D01*
X135664842Y-66633777D01*
X135667070Y-66628396D01*
X135668049Y-66624831D01*
X135669452Y-66622647D01*
X135669516Y-66622493D01*
X135685499Y-66542136D01*
X135685500Y-66542133D01*
X135685499Y-66337868D01*
X135669515Y-66257505D01*
X135669513Y-66257502D01*
X135664841Y-66246222D01*
X135666285Y-66245623D01*
X135649563Y-66192211D01*
X135665517Y-66134056D01*
X135664842Y-66133777D01*
X135667070Y-66128396D01*
X135668049Y-66124831D01*
X135669452Y-66122647D01*
X135669516Y-66122493D01*
X135685499Y-66042136D01*
X135685500Y-66042133D01*
X135685499Y-65837868D01*
X135669515Y-65757505D01*
X135669513Y-65757502D01*
X135664841Y-65746222D01*
X135666285Y-65745623D01*
X135649563Y-65692211D01*
X135665517Y-65634056D01*
X135664842Y-65633777D01*
X135667070Y-65628396D01*
X135668049Y-65624831D01*
X135669452Y-65622647D01*
X135669516Y-65622493D01*
X135685499Y-65542136D01*
X135685500Y-65542133D01*
X135685499Y-65337868D01*
X135669515Y-65257505D01*
X135669513Y-65257502D01*
X135664841Y-65246222D01*
X135666285Y-65245623D01*
X135649563Y-65192211D01*
X135665517Y-65134056D01*
X135664842Y-65133777D01*
X135667070Y-65128396D01*
X135668049Y-65124831D01*
X135669452Y-65122647D01*
X135669516Y-65122493D01*
X135685499Y-65042136D01*
X135685500Y-65042133D01*
X135685499Y-64837868D01*
X135669515Y-64757505D01*
X135669513Y-64757502D01*
X135664841Y-64746222D01*
X135666285Y-64745623D01*
X135649563Y-64692211D01*
X135665517Y-64634056D01*
X135664842Y-64633777D01*
X135667070Y-64628396D01*
X135668049Y-64624831D01*
X135669452Y-64622647D01*
X135669516Y-64622493D01*
X135685499Y-64542136D01*
X135685500Y-64542133D01*
X135685499Y-64337868D01*
X135669515Y-64257505D01*
X135630821Y-64199596D01*
X135608624Y-64166375D01*
X135537124Y-64118601D01*
X135517495Y-64105485D01*
X135517493Y-64105484D01*
X135517490Y-64105483D01*
X135437135Y-64089500D01*
X134382870Y-64089500D01*
X134302503Y-64105485D01*
X134302500Y-64105486D01*
X134282875Y-64118601D01*
X134216198Y-64139480D01*
X134213983Y-64139500D01*
X133618155Y-64139500D01*
X133551116Y-64119815D01*
X133547031Y-64117075D01*
X133545407Y-64115938D01*
X133545404Y-64115935D01*
X133438173Y-64065932D01*
X133438171Y-64065931D01*
X133438172Y-64065931D01*
X133389317Y-64059500D01*
X133389316Y-64059500D01*
X132940684Y-64059500D01*
X132940683Y-64059500D01*
X132891828Y-64065931D01*
X132784595Y-64115935D01*
X132700935Y-64199595D01*
X132650931Y-64306828D01*
X132644500Y-64355683D01*
X132644500Y-64704316D01*
X132650931Y-64753171D01*
X132700935Y-64860404D01*
X132792267Y-64951736D01*
X132789443Y-64954559D01*
X132820183Y-64993042D01*
X132827352Y-65062542D01*
X132795808Y-65124886D01*
X132792101Y-65128098D01*
X132792267Y-65128264D01*
X132700935Y-65219595D01*
X132650931Y-65326828D01*
X132644500Y-65375683D01*
X132644500Y-65724316D01*
X132650931Y-65773171D01*
X132700935Y-65880404D01*
X132722850Y-65902319D01*
X132756335Y-65963642D01*
X132751351Y-66033334D01*
X132722850Y-66077681D01*
X132700935Y-66099595D01*
X132650931Y-66206828D01*
X132644500Y-66255683D01*
X132644500Y-66604316D01*
X132650931Y-66653171D01*
X132700935Y-66760404D01*
X132792267Y-66851736D01*
X132789443Y-66854559D01*
X132820183Y-66893042D01*
X132827352Y-66962542D01*
X132795808Y-67024886D01*
X132792101Y-67028098D01*
X132792267Y-67028264D01*
X132700935Y-67119595D01*
X132650931Y-67226828D01*
X132644500Y-67275683D01*
X132644500Y-67624316D01*
X132000000Y-67624316D01*
X132000000Y-63124000D01*
X132019685Y-63056961D01*
X132072489Y-63011206D01*
X132124000Y-63000000D01*
X134010500Y-63000000D01*
X134077539Y-63019685D01*
G37*
G04 #@! TD.AperFunction*
M02*
