G04 #@! TF.GenerationSoftware,KiCad,Pcbnew,8.0.1-8.0.1-1~ubuntu22.04.1*
G04 #@! TF.CreationDate,2024-09-10T20:50:46+02:00*
G04 #@! TF.ProjectId,NerdNOS,4e657264-4e4f-4532-9e6b-696361645f70,rev?*
G04 #@! TF.SameCoordinates,Original*
G04 #@! TF.FileFunction,Paste,Top*
G04 #@! TF.FilePolarity,Positive*
%FSLAX46Y46*%
G04 Gerber Fmt 4.6, Leading zero omitted, Abs format (unit mm)*
G04 Created by KiCad (PCBNEW 8.0.1-8.0.1-1~ubuntu22.04.1) date 2024-09-10 20:50:46*
%MOMM*%
%LPD*%
G01*
G04 APERTURE LIST*
G04 Aperture macros list*
%AMRoundRect*
0 Rectangle with rounded corners*
0 $1 Rounding radius*
0 $2 $3 $4 $5 $6 $7 $8 $9 X,Y pos of 4 corners*
0 Add a 4 corners polygon primitive as box body*
4,1,4,$2,$3,$4,$5,$6,$7,$8,$9,$2,$3,0*
0 Add four circle primitives for the rounded corners*
1,1,$1+$1,$2,$3*
1,1,$1+$1,$4,$5*
1,1,$1+$1,$6,$7*
1,1,$1+$1,$8,$9*
0 Add four rect primitives between the rounded corners*
20,1,$1+$1,$2,$3,$4,$5,0*
20,1,$1+$1,$4,$5,$6,$7,0*
20,1,$1+$1,$6,$7,$8,$9,0*
20,1,$1+$1,$8,$9,$2,$3,0*%
G04 Aperture macros list end*
%ADD10C,0.100000*%
%ADD11RoundRect,0.150000X-0.512500X-0.150000X0.512500X-0.150000X0.512500X0.150000X-0.512500X0.150000X0*%
%ADD12RoundRect,0.135000X0.185000X-0.135000X0.185000X0.135000X-0.185000X0.135000X-0.185000X-0.135000X0*%
%ADD13R,2.700000X7.500000*%
%ADD14RoundRect,0.140000X0.170000X-0.140000X0.170000X0.140000X-0.170000X0.140000X-0.170000X-0.140000X0*%
%ADD15RoundRect,0.140000X-0.170000X0.140000X-0.170000X-0.140000X0.170000X-0.140000X0.170000X0.140000X0*%
%ADD16RoundRect,0.250000X-0.475000X0.250000X-0.475000X-0.250000X0.475000X-0.250000X0.475000X0.250000X0*%
%ADD17RoundRect,0.140000X0.140000X0.170000X-0.140000X0.170000X-0.140000X-0.170000X0.140000X-0.170000X0*%
%ADD18RoundRect,0.150000X0.150000X-0.587500X0.150000X0.587500X-0.150000X0.587500X-0.150000X-0.587500X0*%
%ADD19RoundRect,0.135000X-0.185000X0.135000X-0.185000X-0.135000X0.185000X-0.135000X0.185000X0.135000X0*%
%ADD20RoundRect,0.150000X0.425000X-0.150000X0.425000X0.150000X-0.425000X0.150000X-0.425000X-0.150000X0*%
%ADD21RoundRect,0.075000X0.500000X-0.075000X0.500000X0.075000X-0.500000X0.075000X-0.500000X-0.075000X0*%
%ADD22O,2.100000X1.000000*%
%ADD23O,1.800000X1.000000*%
%ADD24RoundRect,0.135000X0.135000X0.185000X-0.135000X0.185000X-0.135000X-0.185000X0.135000X-0.185000X0*%
%ADD25R,1.300000X1.100000*%
%ADD26RoundRect,0.250000X-1.100000X0.325000X-1.100000X-0.325000X1.100000X-0.325000X1.100000X0.325000X0*%
%ADD27RoundRect,0.135000X-0.135000X-0.185000X0.135000X-0.185000X0.135000X0.185000X-0.135000X0.185000X0*%
%ADD28RoundRect,0.135000X-0.000010X0.295000X-0.000010X-0.295000X0.000010X-0.295000X0.000010X0.295000X0*%
%ADD29R,0.254000X0.762000*%
%ADD30RoundRect,0.075000X-0.075000X0.275000X-0.075000X-0.275000X0.075000X-0.275000X0.075000X0.275000X0*%
G04 APERTURE END LIST*
D10*
X101800000Y-63300000D02*
X100540000Y-63300000D01*
X100540000Y-65600000D01*
X101800000Y-65600000D01*
X101800000Y-63300000D01*
G36*
X101800000Y-63300000D02*
G01*
X100540000Y-63300000D01*
X100540000Y-65600000D01*
X101800000Y-65600000D01*
X101800000Y-63300000D01*
G37*
X101800000Y-66800000D02*
X100540000Y-66800000D01*
X100540000Y-69100000D01*
X101800000Y-69100000D01*
X101800000Y-66800000D01*
G36*
X101800000Y-66800000D02*
G01*
X100540000Y-66800000D01*
X100540000Y-69100000D01*
X101800000Y-69100000D01*
X101800000Y-66800000D01*
G37*
X103660000Y-66800000D02*
X102540000Y-66800000D01*
X102540000Y-69100000D01*
X103660000Y-69100000D01*
X103660000Y-66800000D01*
G36*
X103660000Y-66800000D02*
G01*
X102540000Y-66800000D01*
X102540000Y-69100000D01*
X103660000Y-69100000D01*
X103660000Y-66800000D01*
G37*
X103670000Y-63300000D02*
X102550000Y-63300000D01*
X102550000Y-65600000D01*
X103670000Y-65600000D01*
X103670000Y-63300000D01*
G36*
X103670000Y-63300000D02*
G01*
X102550000Y-63300000D01*
X102550000Y-65600000D01*
X103670000Y-65600000D01*
X103670000Y-63300000D01*
G37*
X105660000Y-63300000D02*
X104400000Y-63300000D01*
X104400000Y-65600000D01*
X105660000Y-65600000D01*
X105660000Y-63300000D01*
G36*
X105660000Y-63300000D02*
G01*
X104400000Y-63300000D01*
X104400000Y-65600000D01*
X105660000Y-65600000D01*
X105660000Y-63300000D01*
G37*
X105660000Y-66800000D02*
X104400000Y-66800000D01*
X104400000Y-69100000D01*
X105660000Y-69100000D01*
X105660000Y-66800000D01*
G36*
X105660000Y-66800000D02*
G01*
X104400000Y-66800000D01*
X104400000Y-69100000D01*
X105660000Y-69100000D01*
X105660000Y-66800000D01*
G37*
X108000000Y-65500000D02*
X106600000Y-65500000D01*
X106600000Y-63540000D01*
X108000000Y-63540000D01*
X108000000Y-65500000D01*
G36*
X108000000Y-65500000D02*
G01*
X106600000Y-65500000D01*
X106600000Y-63540000D01*
X108000000Y-63540000D01*
X108000000Y-65500000D01*
G37*
X108000000Y-68860000D02*
X106600000Y-68860000D01*
X106600000Y-66900000D01*
X108000000Y-66900000D01*
X108000000Y-68860000D01*
G36*
X108000000Y-68860000D02*
G01*
X106600000Y-68860000D01*
X106600000Y-66900000D01*
X108000000Y-66900000D01*
X108000000Y-68860000D01*
G37*
D11*
X89662500Y-72550001D03*
X89662500Y-73500000D03*
X89662500Y-74449999D03*
X91937500Y-74449999D03*
X91937500Y-72550001D03*
D12*
X133165000Y-65550000D03*
X133165000Y-64530000D03*
D13*
X126200000Y-60600000D03*
X120400000Y-60600000D03*
D14*
X100200000Y-60980000D03*
X100200000Y-60020000D03*
D15*
X109100000Y-59820000D03*
X109100000Y-60780000D03*
D16*
X121600000Y-65800000D03*
X121600000Y-67700000D03*
D17*
X85680000Y-54750400D03*
X84720000Y-54750400D03*
D18*
X84050000Y-68404999D03*
X85950000Y-68404999D03*
X85000000Y-66529999D03*
D15*
X106600000Y-59820000D03*
X106600000Y-60780000D03*
D19*
X133165000Y-66430000D03*
X133165000Y-67450000D03*
D15*
X88200000Y-72620000D03*
X88200000Y-73580000D03*
D19*
X105000000Y-71490001D03*
X105000000Y-72509999D03*
D20*
X134910000Y-69390000D03*
X134910000Y-68590000D03*
D21*
X134910000Y-67440000D03*
X134910000Y-66440000D03*
X134910000Y-65940000D03*
X134910000Y-64940000D03*
D20*
X134910000Y-62990000D03*
X134910000Y-63790000D03*
D21*
X134910000Y-64440000D03*
X134910000Y-65440000D03*
X134910000Y-66940000D03*
X134910000Y-67940000D03*
D22*
X135485000Y-70510000D03*
D23*
X139665000Y-70510000D03*
D22*
X135485000Y-61870000D03*
D23*
X139665000Y-61870000D03*
D15*
X106600000Y-71600000D03*
X106600000Y-72560000D03*
X100100000Y-71520000D03*
X100100000Y-72480000D03*
X107800000Y-71600000D03*
X107800000Y-72560000D03*
D24*
X93610000Y-76200000D03*
X92590000Y-76200000D03*
D15*
X107800000Y-59820000D03*
X107800000Y-60780000D03*
D16*
X131200000Y-65750000D03*
X131200000Y-67650000D03*
D25*
X90445000Y-66265000D03*
X92745000Y-66265000D03*
X92745000Y-64365000D03*
X90445000Y-64365000D03*
D16*
X129200000Y-65750000D03*
X129200000Y-67650000D03*
X119500000Y-65800000D03*
X119500000Y-67700000D03*
D17*
X92495000Y-67515000D03*
X91535000Y-67515000D03*
D26*
X116700000Y-64825000D03*
X116700000Y-67775000D03*
D15*
X93362500Y-68870001D03*
X93362500Y-69830001D03*
D17*
X85680000Y-60150400D03*
X84720000Y-60150400D03*
D14*
X101300000Y-60980000D03*
X101300000Y-60020000D03*
D27*
X85390000Y-65000000D03*
X86410000Y-65000000D03*
D24*
X125500000Y-68500000D03*
X124480000Y-68500000D03*
D28*
X107900000Y-62265400D03*
X107420000Y-62265400D03*
X106940000Y-62265400D03*
X106460000Y-62265400D03*
X105980000Y-62265400D03*
X105500000Y-62265400D03*
X105020000Y-62265400D03*
X104540000Y-62265400D03*
X104060000Y-62265400D03*
X103580000Y-62265400D03*
X103100000Y-62265400D03*
X102620000Y-62265400D03*
X102140000Y-62265400D03*
X101660000Y-62265400D03*
X101180000Y-62265400D03*
X100700000Y-62265400D03*
X100700000Y-70134600D03*
X101180000Y-70134600D03*
X101660000Y-70134600D03*
X102140000Y-70134600D03*
X102620000Y-70134600D03*
X103100000Y-70134600D03*
X103580000Y-70134600D03*
X104060000Y-70134600D03*
X104540000Y-70134600D03*
X105020000Y-70134600D03*
X105500000Y-70134600D03*
X105980000Y-70134600D03*
X106460000Y-70134600D03*
X106940000Y-70134600D03*
X107420000Y-70134600D03*
X107900000Y-70134600D03*
D29*
X86200252Y-55850400D03*
X85700126Y-55850400D03*
X85200000Y-55850400D03*
X84699874Y-55850400D03*
X84699874Y-59000000D03*
X85200000Y-59000000D03*
X85700126Y-59000000D03*
X86200252Y-59000000D03*
D15*
X88162500Y-68870001D03*
X88162500Y-69830001D03*
X93400000Y-73020000D03*
X93400000Y-73980000D03*
X109100000Y-71600000D03*
X109100000Y-72560000D03*
D19*
X104700000Y-59890000D03*
X104700000Y-60910000D03*
D15*
X109500000Y-69320000D03*
X109500000Y-70280000D03*
D19*
X99700000Y-65590000D03*
X99700000Y-66610000D03*
D11*
X89625000Y-68800002D03*
X89625000Y-69750001D03*
X89625000Y-70700000D03*
X91900000Y-70700000D03*
X91900000Y-68800002D03*
D24*
X127510000Y-68400000D03*
X126490000Y-68400000D03*
D15*
X109500000Y-62220000D03*
X109500000Y-63180000D03*
X101200000Y-71520000D03*
X101200000Y-72480000D03*
D30*
X126600000Y-65550000D03*
X126100000Y-65550000D03*
X125600000Y-65550000D03*
X125600000Y-67050000D03*
X126100000Y-67050000D03*
X126600000Y-67050000D03*
D15*
X127700000Y-65820000D03*
X127700000Y-66780000D03*
D24*
X85610000Y-69967499D03*
X84590000Y-69967499D03*
D27*
X123680000Y-70880000D03*
X124700000Y-70880000D03*
M02*
