G04 #@! TF.GenerationSoftware,KiCad,Pcbnew,8.0.1-8.0.1-1~ubuntu22.04.1*
G04 #@! TF.CreationDate,2024-09-21T08:51:10+02:00*
G04 #@! TF.ProjectId,NerdNOS,4e657264-4e4f-4532-9e6b-696361645f70,rev?*
G04 #@! TF.SameCoordinates,Original*
G04 #@! TF.FileFunction,Legend,Top*
G04 #@! TF.FilePolarity,Positive*
%FSLAX46Y46*%
G04 Gerber Fmt 4.6, Leading zero omitted, Abs format (unit mm)*
G04 Created by KiCad (PCBNEW 8.0.1-8.0.1-1~ubuntu22.04.1) date 2024-09-21 08:51:10*
%MOMM*%
%LPD*%
G01*
G04 APERTURE LIST*
G04 Aperture macros list*
%AMRoundRect*
0 Rectangle with rounded corners*
0 $1 Rounding radius*
0 $2 $3 $4 $5 $6 $7 $8 $9 X,Y pos of 4 corners*
0 Add a 4 corners polygon primitive as box body*
4,1,4,$2,$3,$4,$5,$6,$7,$8,$9,$2,$3,0*
0 Add four circle primitives for the rounded corners*
1,1,$1+$1,$2,$3*
1,1,$1+$1,$4,$5*
1,1,$1+$1,$6,$7*
1,1,$1+$1,$8,$9*
0 Add four rect primitives between the rounded corners*
20,1,$1+$1,$2,$3,$4,$5,0*
20,1,$1+$1,$4,$5,$6,$7,0*
20,1,$1+$1,$6,$7,$8,$9,0*
20,1,$1+$1,$8,$9,$2,$3,0*%
G04 Aperture macros list end*
%ADD10C,0.100000*%
%ADD11C,0.150000*%
%ADD12C,0.120000*%
%ADD13C,0.000000*%
%ADD14C,0.313180*%
%ADD15C,0.250000*%
%ADD16C,0.152400*%
%ADD17C,0.297065*%
%ADD18C,0.010000*%
%ADD19R,1.700000X1.700000*%
%ADD20O,1.700000X1.700000*%
%ADD21RoundRect,0.150000X-0.512500X-0.150000X0.512500X-0.150000X0.512500X0.150000X-0.512500X0.150000X0*%
%ADD22RoundRect,0.135000X0.185000X-0.135000X0.185000X0.135000X-0.185000X0.135000X-0.185000X-0.135000X0*%
%ADD23R,2.700000X7.500000*%
%ADD24RoundRect,0.140000X0.170000X-0.140000X0.170000X0.140000X-0.170000X0.140000X-0.170000X-0.140000X0*%
%ADD25RoundRect,0.140000X-0.170000X0.140000X-0.170000X-0.140000X0.170000X-0.140000X0.170000X0.140000X0*%
%ADD26RoundRect,0.250000X-0.475000X0.250000X-0.475000X-0.250000X0.475000X-0.250000X0.475000X0.250000X0*%
%ADD27RoundRect,0.140000X0.140000X0.170000X-0.140000X0.170000X-0.140000X-0.170000X0.140000X-0.170000X0*%
%ADD28RoundRect,0.150000X0.150000X-0.587500X0.150000X0.587500X-0.150000X0.587500X-0.150000X-0.587500X0*%
%ADD29RoundRect,0.135000X-0.185000X0.135000X-0.185000X-0.135000X0.185000X-0.135000X0.185000X0.135000X0*%
%ADD30C,0.650000*%
%ADD31RoundRect,0.150000X0.425000X-0.150000X0.425000X0.150000X-0.425000X0.150000X-0.425000X-0.150000X0*%
%ADD32RoundRect,0.075000X0.500000X-0.075000X0.500000X0.075000X-0.500000X0.075000X-0.500000X-0.075000X0*%
%ADD33O,2.100000X1.000000*%
%ADD34O,1.800000X1.000000*%
%ADD35RoundRect,0.135000X0.135000X0.185000X-0.135000X0.185000X-0.135000X-0.185000X0.135000X-0.185000X0*%
%ADD36R,1.300000X1.100000*%
%ADD37RoundRect,0.250000X-1.100000X0.325000X-1.100000X-0.325000X1.100000X-0.325000X1.100000X0.325000X0*%
%ADD38C,2.000000*%
%ADD39RoundRect,0.225000X-0.225000X-0.375000X0.225000X-0.375000X0.225000X0.375000X-0.225000X0.375000X0*%
%ADD40RoundRect,0.135000X-0.135000X-0.185000X0.135000X-0.185000X0.135000X0.185000X-0.135000X0.185000X0*%
%ADD41RoundRect,0.236600X-0.000010X0.295000X-0.000010X-0.295000X0.000010X-0.295000X0.000010X0.295000X0*%
%ADD42R,0.254000X0.762000*%
%ADD43C,3.200000*%
%ADD44RoundRect,0.075000X-0.075000X0.275000X-0.075000X-0.275000X0.075000X-0.275000X0.075000X0.275000X0*%
%ADD45C,1.700000*%
G04 APERTURE END LIST*
D10*
X110518169Y-56573085D02*
X110556265Y-56534990D01*
X110556265Y-56534990D02*
X110632455Y-56496895D01*
X110632455Y-56496895D02*
X110822931Y-56496895D01*
X110822931Y-56496895D02*
X110899122Y-56534990D01*
X110899122Y-56534990D02*
X110937217Y-56573085D01*
X110937217Y-56573085D02*
X110975312Y-56649276D01*
X110975312Y-56649276D02*
X110975312Y-56725466D01*
X110975312Y-56725466D02*
X110937217Y-56839752D01*
X110937217Y-56839752D02*
X110480074Y-57296895D01*
X110480074Y-57296895D02*
X110975312Y-57296895D01*
X111470551Y-56496895D02*
X111546741Y-56496895D01*
X111546741Y-56496895D02*
X111622932Y-56534990D01*
X111622932Y-56534990D02*
X111661027Y-56573085D01*
X111661027Y-56573085D02*
X111699122Y-56649276D01*
X111699122Y-56649276D02*
X111737217Y-56801657D01*
X111737217Y-56801657D02*
X111737217Y-56992133D01*
X111737217Y-56992133D02*
X111699122Y-57144514D01*
X111699122Y-57144514D02*
X111661027Y-57220704D01*
X111661027Y-57220704D02*
X111622932Y-57258800D01*
X111622932Y-57258800D02*
X111546741Y-57296895D01*
X111546741Y-57296895D02*
X111470551Y-57296895D01*
X111470551Y-57296895D02*
X111394360Y-57258800D01*
X111394360Y-57258800D02*
X111356265Y-57220704D01*
X111356265Y-57220704D02*
X111318170Y-57144514D01*
X111318170Y-57144514D02*
X111280074Y-56992133D01*
X111280074Y-56992133D02*
X111280074Y-56801657D01*
X111280074Y-56801657D02*
X111318170Y-56649276D01*
X111318170Y-56649276D02*
X111356265Y-56573085D01*
X111356265Y-56573085D02*
X111394360Y-56534990D01*
X111394360Y-56534990D02*
X111470551Y-56496895D01*
X112003884Y-57296895D02*
X112422932Y-56763561D01*
X112003884Y-56763561D02*
X112422932Y-57296895D01*
X112689598Y-56573085D02*
X112727694Y-56534990D01*
X112727694Y-56534990D02*
X112803884Y-56496895D01*
X112803884Y-56496895D02*
X112994360Y-56496895D01*
X112994360Y-56496895D02*
X113070551Y-56534990D01*
X113070551Y-56534990D02*
X113108646Y-56573085D01*
X113108646Y-56573085D02*
X113146741Y-56649276D01*
X113146741Y-56649276D02*
X113146741Y-56725466D01*
X113146741Y-56725466D02*
X113108646Y-56839752D01*
X113108646Y-56839752D02*
X112651503Y-57296895D01*
X112651503Y-57296895D02*
X113146741Y-57296895D01*
X113641980Y-56496895D02*
X113718170Y-56496895D01*
X113718170Y-56496895D02*
X113794361Y-56534990D01*
X113794361Y-56534990D02*
X113832456Y-56573085D01*
X113832456Y-56573085D02*
X113870551Y-56649276D01*
X113870551Y-56649276D02*
X113908646Y-56801657D01*
X113908646Y-56801657D02*
X113908646Y-56992133D01*
X113908646Y-56992133D02*
X113870551Y-57144514D01*
X113870551Y-57144514D02*
X113832456Y-57220704D01*
X113832456Y-57220704D02*
X113794361Y-57258800D01*
X113794361Y-57258800D02*
X113718170Y-57296895D01*
X113718170Y-57296895D02*
X113641980Y-57296895D01*
X113641980Y-57296895D02*
X113565789Y-57258800D01*
X113565789Y-57258800D02*
X113527694Y-57220704D01*
X113527694Y-57220704D02*
X113489599Y-57144514D01*
X113489599Y-57144514D02*
X113451503Y-56992133D01*
X113451503Y-56992133D02*
X113451503Y-56801657D01*
X113451503Y-56801657D02*
X113489599Y-56649276D01*
X113489599Y-56649276D02*
X113527694Y-56573085D01*
X113527694Y-56573085D02*
X113565789Y-56534990D01*
X113565789Y-56534990D02*
X113641980Y-56496895D01*
X138227693Y-74672419D02*
X137656265Y-74672419D01*
X137941979Y-74672419D02*
X137941979Y-73672419D01*
X137941979Y-73672419D02*
X137846741Y-73815276D01*
X137846741Y-73815276D02*
X137751503Y-73910514D01*
X137751503Y-73910514D02*
X137656265Y-73958133D01*
X138656265Y-74577180D02*
X138703884Y-74624800D01*
X138703884Y-74624800D02*
X138656265Y-74672419D01*
X138656265Y-74672419D02*
X138608646Y-74624800D01*
X138608646Y-74624800D02*
X138656265Y-74577180D01*
X138656265Y-74577180D02*
X138656265Y-74672419D01*
X139037217Y-73672419D02*
X139656264Y-73672419D01*
X139656264Y-73672419D02*
X139322931Y-74053371D01*
X139322931Y-74053371D02*
X139465788Y-74053371D01*
X139465788Y-74053371D02*
X139561026Y-74100990D01*
X139561026Y-74100990D02*
X139608645Y-74148609D01*
X139608645Y-74148609D02*
X139656264Y-74243847D01*
X139656264Y-74243847D02*
X139656264Y-74481942D01*
X139656264Y-74481942D02*
X139608645Y-74577180D01*
X139608645Y-74577180D02*
X139561026Y-74624800D01*
X139561026Y-74624800D02*
X139465788Y-74672419D01*
X139465788Y-74672419D02*
X139180074Y-74672419D01*
X139180074Y-74672419D02*
X139084836Y-74624800D01*
X139084836Y-74624800D02*
X139037217Y-74577180D01*
D11*
X132124819Y-73433333D02*
X132839104Y-73433333D01*
X132839104Y-73433333D02*
X132981961Y-73480952D01*
X132981961Y-73480952D02*
X133077200Y-73576190D01*
X133077200Y-73576190D02*
X133124819Y-73719047D01*
X133124819Y-73719047D02*
X133124819Y-73814285D01*
X133124819Y-72433333D02*
X133124819Y-73004761D01*
X133124819Y-72719047D02*
X132124819Y-72719047D01*
X132124819Y-72719047D02*
X132267676Y-72814285D01*
X132267676Y-72814285D02*
X132362914Y-72909523D01*
X132362914Y-72909523D02*
X132410533Y-73004761D01*
X91227976Y-73162295D02*
X91227976Y-73809914D01*
X91227976Y-73809914D02*
X91266071Y-73886104D01*
X91266071Y-73886104D02*
X91304166Y-73924200D01*
X91304166Y-73924200D02*
X91380357Y-73962295D01*
X91380357Y-73962295D02*
X91532738Y-73962295D01*
X91532738Y-73962295D02*
X91608928Y-73924200D01*
X91608928Y-73924200D02*
X91647023Y-73886104D01*
X91647023Y-73886104D02*
X91685119Y-73809914D01*
X91685119Y-73809914D02*
X91685119Y-73162295D01*
X92408928Y-73428961D02*
X92408928Y-73962295D01*
X92218452Y-73124200D02*
X92027975Y-73695628D01*
X92027975Y-73695628D02*
X92523214Y-73695628D01*
X133462295Y-63333332D02*
X133081342Y-63599999D01*
X133462295Y-63790475D02*
X132662295Y-63790475D01*
X132662295Y-63790475D02*
X132662295Y-63485713D01*
X132662295Y-63485713D02*
X132700390Y-63409523D01*
X132700390Y-63409523D02*
X132738485Y-63371428D01*
X132738485Y-63371428D02*
X132814676Y-63333332D01*
X132814676Y-63333332D02*
X132928961Y-63333332D01*
X132928961Y-63333332D02*
X133005152Y-63371428D01*
X133005152Y-63371428D02*
X133043247Y-63409523D01*
X133043247Y-63409523D02*
X133081342Y-63485713D01*
X133081342Y-63485713D02*
X133081342Y-63790475D01*
X132662295Y-63066666D02*
X132662295Y-62533332D01*
X132662295Y-62533332D02*
X133462295Y-62876190D01*
X122966666Y-56062295D02*
X122585714Y-56062295D01*
X122585714Y-56062295D02*
X122585714Y-55262295D01*
X123652380Y-56062295D02*
X123195237Y-56062295D01*
X123423809Y-56062295D02*
X123423809Y-55262295D01*
X123423809Y-55262295D02*
X123347618Y-55376580D01*
X123347618Y-55376580D02*
X123271428Y-55452771D01*
X123271428Y-55452771D02*
X123195237Y-55490866D01*
X100386104Y-58933332D02*
X100424200Y-58971428D01*
X100424200Y-58971428D02*
X100462295Y-59085713D01*
X100462295Y-59085713D02*
X100462295Y-59161904D01*
X100462295Y-59161904D02*
X100424200Y-59276190D01*
X100424200Y-59276190D02*
X100348009Y-59352380D01*
X100348009Y-59352380D02*
X100271819Y-59390475D01*
X100271819Y-59390475D02*
X100119438Y-59428571D01*
X100119438Y-59428571D02*
X100005152Y-59428571D01*
X100005152Y-59428571D02*
X99852771Y-59390475D01*
X99852771Y-59390475D02*
X99776580Y-59352380D01*
X99776580Y-59352380D02*
X99700390Y-59276190D01*
X99700390Y-59276190D02*
X99662295Y-59161904D01*
X99662295Y-59161904D02*
X99662295Y-59085713D01*
X99662295Y-59085713D02*
X99700390Y-58971428D01*
X99700390Y-58971428D02*
X99738485Y-58933332D01*
X99662295Y-58209523D02*
X99662295Y-58590475D01*
X99662295Y-58590475D02*
X100043247Y-58628571D01*
X100043247Y-58628571D02*
X100005152Y-58590475D01*
X100005152Y-58590475D02*
X99967057Y-58514285D01*
X99967057Y-58514285D02*
X99967057Y-58323809D01*
X99967057Y-58323809D02*
X100005152Y-58247618D01*
X100005152Y-58247618D02*
X100043247Y-58209523D01*
X100043247Y-58209523D02*
X100119438Y-58171428D01*
X100119438Y-58171428D02*
X100309914Y-58171428D01*
X100309914Y-58171428D02*
X100386104Y-58209523D01*
X100386104Y-58209523D02*
X100424200Y-58247618D01*
X100424200Y-58247618D02*
X100462295Y-58323809D01*
X100462295Y-58323809D02*
X100462295Y-58514285D01*
X100462295Y-58514285D02*
X100424200Y-58590475D01*
X100424200Y-58590475D02*
X100386104Y-58628571D01*
X109386104Y-58733332D02*
X109424200Y-58771428D01*
X109424200Y-58771428D02*
X109462295Y-58885713D01*
X109462295Y-58885713D02*
X109462295Y-58961904D01*
X109462295Y-58961904D02*
X109424200Y-59076190D01*
X109424200Y-59076190D02*
X109348009Y-59152380D01*
X109348009Y-59152380D02*
X109271819Y-59190475D01*
X109271819Y-59190475D02*
X109119438Y-59228571D01*
X109119438Y-59228571D02*
X109005152Y-59228571D01*
X109005152Y-59228571D02*
X108852771Y-59190475D01*
X108852771Y-59190475D02*
X108776580Y-59152380D01*
X108776580Y-59152380D02*
X108700390Y-59076190D01*
X108700390Y-59076190D02*
X108662295Y-58961904D01*
X108662295Y-58961904D02*
X108662295Y-58885713D01*
X108662295Y-58885713D02*
X108700390Y-58771428D01*
X108700390Y-58771428D02*
X108738485Y-58733332D01*
X108662295Y-58047618D02*
X108662295Y-58199999D01*
X108662295Y-58199999D02*
X108700390Y-58276190D01*
X108700390Y-58276190D02*
X108738485Y-58314285D01*
X108738485Y-58314285D02*
X108852771Y-58390475D01*
X108852771Y-58390475D02*
X109005152Y-58428571D01*
X109005152Y-58428571D02*
X109309914Y-58428571D01*
X109309914Y-58428571D02*
X109386104Y-58390475D01*
X109386104Y-58390475D02*
X109424200Y-58352380D01*
X109424200Y-58352380D02*
X109462295Y-58276190D01*
X109462295Y-58276190D02*
X109462295Y-58123809D01*
X109462295Y-58123809D02*
X109424200Y-58047618D01*
X109424200Y-58047618D02*
X109386104Y-58009523D01*
X109386104Y-58009523D02*
X109309914Y-57971428D01*
X109309914Y-57971428D02*
X109119438Y-57971428D01*
X109119438Y-57971428D02*
X109043247Y-58009523D01*
X109043247Y-58009523D02*
X109005152Y-58047618D01*
X109005152Y-58047618D02*
X108967057Y-58123809D01*
X108967057Y-58123809D02*
X108967057Y-58276190D01*
X108967057Y-58276190D02*
X109005152Y-58352380D01*
X109005152Y-58352380D02*
X109043247Y-58390475D01*
X109043247Y-58390475D02*
X109119438Y-58428571D01*
X122486104Y-70364285D02*
X122524200Y-70402381D01*
X122524200Y-70402381D02*
X122562295Y-70516666D01*
X122562295Y-70516666D02*
X122562295Y-70592857D01*
X122562295Y-70592857D02*
X122524200Y-70707143D01*
X122524200Y-70707143D02*
X122448009Y-70783333D01*
X122448009Y-70783333D02*
X122371819Y-70821428D01*
X122371819Y-70821428D02*
X122219438Y-70859524D01*
X122219438Y-70859524D02*
X122105152Y-70859524D01*
X122105152Y-70859524D02*
X121952771Y-70821428D01*
X121952771Y-70821428D02*
X121876580Y-70783333D01*
X121876580Y-70783333D02*
X121800390Y-70707143D01*
X121800390Y-70707143D02*
X121762295Y-70592857D01*
X121762295Y-70592857D02*
X121762295Y-70516666D01*
X121762295Y-70516666D02*
X121800390Y-70402381D01*
X121800390Y-70402381D02*
X121838485Y-70364285D01*
X121838485Y-70059524D02*
X121800390Y-70021428D01*
X121800390Y-70021428D02*
X121762295Y-69945238D01*
X121762295Y-69945238D02*
X121762295Y-69754762D01*
X121762295Y-69754762D02*
X121800390Y-69678571D01*
X121800390Y-69678571D02*
X121838485Y-69640476D01*
X121838485Y-69640476D02*
X121914676Y-69602381D01*
X121914676Y-69602381D02*
X121990866Y-69602381D01*
X121990866Y-69602381D02*
X122105152Y-69640476D01*
X122105152Y-69640476D02*
X122562295Y-70097619D01*
X122562295Y-70097619D02*
X122562295Y-69602381D01*
X122562295Y-69221428D02*
X122562295Y-69069047D01*
X122562295Y-69069047D02*
X122524200Y-68992857D01*
X122524200Y-68992857D02*
X122486104Y-68954761D01*
X122486104Y-68954761D02*
X122371819Y-68878571D01*
X122371819Y-68878571D02*
X122219438Y-68840476D01*
X122219438Y-68840476D02*
X121914676Y-68840476D01*
X121914676Y-68840476D02*
X121838485Y-68878571D01*
X121838485Y-68878571D02*
X121800390Y-68916666D01*
X121800390Y-68916666D02*
X121762295Y-68992857D01*
X121762295Y-68992857D02*
X121762295Y-69145238D01*
X121762295Y-69145238D02*
X121800390Y-69221428D01*
X121800390Y-69221428D02*
X121838485Y-69259523D01*
X121838485Y-69259523D02*
X121914676Y-69297619D01*
X121914676Y-69297619D02*
X122105152Y-69297619D01*
X122105152Y-69297619D02*
X122181342Y-69259523D01*
X122181342Y-69259523D02*
X122219438Y-69221428D01*
X122219438Y-69221428D02*
X122257533Y-69145238D01*
X122257533Y-69145238D02*
X122257533Y-68992857D01*
X122257533Y-68992857D02*
X122219438Y-68916666D01*
X122219438Y-68916666D02*
X122181342Y-68878571D01*
X122181342Y-68878571D02*
X122105152Y-68840476D01*
X86866667Y-54886104D02*
X86828571Y-54924200D01*
X86828571Y-54924200D02*
X86714286Y-54962295D01*
X86714286Y-54962295D02*
X86638095Y-54962295D01*
X86638095Y-54962295D02*
X86523809Y-54924200D01*
X86523809Y-54924200D02*
X86447619Y-54848009D01*
X86447619Y-54848009D02*
X86409524Y-54771819D01*
X86409524Y-54771819D02*
X86371428Y-54619438D01*
X86371428Y-54619438D02*
X86371428Y-54505152D01*
X86371428Y-54505152D02*
X86409524Y-54352771D01*
X86409524Y-54352771D02*
X86447619Y-54276580D01*
X86447619Y-54276580D02*
X86523809Y-54200390D01*
X86523809Y-54200390D02*
X86638095Y-54162295D01*
X86638095Y-54162295D02*
X86714286Y-54162295D01*
X86714286Y-54162295D02*
X86828571Y-54200390D01*
X86828571Y-54200390D02*
X86866667Y-54238485D01*
X87133333Y-54162295D02*
X87666667Y-54162295D01*
X87666667Y-54162295D02*
X87323809Y-54962295D01*
X87738485Y-66543689D02*
X87700390Y-66619879D01*
X87700390Y-66619879D02*
X87624200Y-66696070D01*
X87624200Y-66696070D02*
X87509914Y-66810356D01*
X87509914Y-66810356D02*
X87471819Y-66886546D01*
X87471819Y-66886546D02*
X87471819Y-66962737D01*
X87662295Y-66924641D02*
X87624200Y-67000832D01*
X87624200Y-67000832D02*
X87548009Y-67077022D01*
X87548009Y-67077022D02*
X87395628Y-67115118D01*
X87395628Y-67115118D02*
X87128961Y-67115118D01*
X87128961Y-67115118D02*
X86976580Y-67077022D01*
X86976580Y-67077022D02*
X86900390Y-67000832D01*
X86900390Y-67000832D02*
X86862295Y-66924641D01*
X86862295Y-66924641D02*
X86862295Y-66772260D01*
X86862295Y-66772260D02*
X86900390Y-66696070D01*
X86900390Y-66696070D02*
X86976580Y-66619879D01*
X86976580Y-66619879D02*
X87128961Y-66581784D01*
X87128961Y-66581784D02*
X87395628Y-66581784D01*
X87395628Y-66581784D02*
X87548009Y-66619879D01*
X87548009Y-66619879D02*
X87624200Y-66696070D01*
X87624200Y-66696070D02*
X87662295Y-66772260D01*
X87662295Y-66772260D02*
X87662295Y-66924641D01*
X87662295Y-65819880D02*
X87662295Y-66277023D01*
X87662295Y-66048451D02*
X86862295Y-66048451D01*
X86862295Y-66048451D02*
X86976580Y-66124642D01*
X86976580Y-66124642D02*
X87052771Y-66200832D01*
X87052771Y-66200832D02*
X87090866Y-66277023D01*
X106886104Y-58733332D02*
X106924200Y-58771428D01*
X106924200Y-58771428D02*
X106962295Y-58885713D01*
X106962295Y-58885713D02*
X106962295Y-58961904D01*
X106962295Y-58961904D02*
X106924200Y-59076190D01*
X106924200Y-59076190D02*
X106848009Y-59152380D01*
X106848009Y-59152380D02*
X106771819Y-59190475D01*
X106771819Y-59190475D02*
X106619438Y-59228571D01*
X106619438Y-59228571D02*
X106505152Y-59228571D01*
X106505152Y-59228571D02*
X106352771Y-59190475D01*
X106352771Y-59190475D02*
X106276580Y-59152380D01*
X106276580Y-59152380D02*
X106200390Y-59076190D01*
X106200390Y-59076190D02*
X106162295Y-58961904D01*
X106162295Y-58961904D02*
X106162295Y-58885713D01*
X106162295Y-58885713D02*
X106200390Y-58771428D01*
X106200390Y-58771428D02*
X106238485Y-58733332D01*
X106238485Y-58428571D02*
X106200390Y-58390475D01*
X106200390Y-58390475D02*
X106162295Y-58314285D01*
X106162295Y-58314285D02*
X106162295Y-58123809D01*
X106162295Y-58123809D02*
X106200390Y-58047618D01*
X106200390Y-58047618D02*
X106238485Y-58009523D01*
X106238485Y-58009523D02*
X106314676Y-57971428D01*
X106314676Y-57971428D02*
X106390866Y-57971428D01*
X106390866Y-57971428D02*
X106505152Y-58009523D01*
X106505152Y-58009523D02*
X106962295Y-58466666D01*
X106962295Y-58466666D02*
X106962295Y-57971428D01*
X133562295Y-68833332D02*
X133181342Y-69099999D01*
X133562295Y-69290475D02*
X132762295Y-69290475D01*
X132762295Y-69290475D02*
X132762295Y-68985713D01*
X132762295Y-68985713D02*
X132800390Y-68909523D01*
X132800390Y-68909523D02*
X132838485Y-68871428D01*
X132838485Y-68871428D02*
X132914676Y-68833332D01*
X132914676Y-68833332D02*
X133028961Y-68833332D01*
X133028961Y-68833332D02*
X133105152Y-68871428D01*
X133105152Y-68871428D02*
X133143247Y-68909523D01*
X133143247Y-68909523D02*
X133181342Y-68985713D01*
X133181342Y-68985713D02*
X133181342Y-69290475D01*
X132762295Y-68147618D02*
X132762295Y-68299999D01*
X132762295Y-68299999D02*
X132800390Y-68376190D01*
X132800390Y-68376190D02*
X132838485Y-68414285D01*
X132838485Y-68414285D02*
X132952771Y-68490475D01*
X132952771Y-68490475D02*
X133105152Y-68528571D01*
X133105152Y-68528571D02*
X133409914Y-68528571D01*
X133409914Y-68528571D02*
X133486104Y-68490475D01*
X133486104Y-68490475D02*
X133524200Y-68452380D01*
X133524200Y-68452380D02*
X133562295Y-68376190D01*
X133562295Y-68376190D02*
X133562295Y-68223809D01*
X133562295Y-68223809D02*
X133524200Y-68147618D01*
X133524200Y-68147618D02*
X133486104Y-68109523D01*
X133486104Y-68109523D02*
X133409914Y-68071428D01*
X133409914Y-68071428D02*
X133219438Y-68071428D01*
X133219438Y-68071428D02*
X133143247Y-68109523D01*
X133143247Y-68109523D02*
X133105152Y-68147618D01*
X133105152Y-68147618D02*
X133067057Y-68223809D01*
X133067057Y-68223809D02*
X133067057Y-68376190D01*
X133067057Y-68376190D02*
X133105152Y-68452380D01*
X133105152Y-68452380D02*
X133143247Y-68490475D01*
X133143247Y-68490475D02*
X133219438Y-68528571D01*
X87486104Y-73714285D02*
X87524200Y-73752381D01*
X87524200Y-73752381D02*
X87562295Y-73866666D01*
X87562295Y-73866666D02*
X87562295Y-73942857D01*
X87562295Y-73942857D02*
X87524200Y-74057143D01*
X87524200Y-74057143D02*
X87448009Y-74133333D01*
X87448009Y-74133333D02*
X87371819Y-74171428D01*
X87371819Y-74171428D02*
X87219438Y-74209524D01*
X87219438Y-74209524D02*
X87105152Y-74209524D01*
X87105152Y-74209524D02*
X86952771Y-74171428D01*
X86952771Y-74171428D02*
X86876580Y-74133333D01*
X86876580Y-74133333D02*
X86800390Y-74057143D01*
X86800390Y-74057143D02*
X86762295Y-73942857D01*
X86762295Y-73942857D02*
X86762295Y-73866666D01*
X86762295Y-73866666D02*
X86800390Y-73752381D01*
X86800390Y-73752381D02*
X86838485Y-73714285D01*
X86838485Y-73409524D02*
X86800390Y-73371428D01*
X86800390Y-73371428D02*
X86762295Y-73295238D01*
X86762295Y-73295238D02*
X86762295Y-73104762D01*
X86762295Y-73104762D02*
X86800390Y-73028571D01*
X86800390Y-73028571D02*
X86838485Y-72990476D01*
X86838485Y-72990476D02*
X86914676Y-72952381D01*
X86914676Y-72952381D02*
X86990866Y-72952381D01*
X86990866Y-72952381D02*
X87105152Y-72990476D01*
X87105152Y-72990476D02*
X87562295Y-73447619D01*
X87562295Y-73447619D02*
X87562295Y-72952381D01*
X86762295Y-72457142D02*
X86762295Y-72380952D01*
X86762295Y-72380952D02*
X86800390Y-72304761D01*
X86800390Y-72304761D02*
X86838485Y-72266666D01*
X86838485Y-72266666D02*
X86914676Y-72228571D01*
X86914676Y-72228571D02*
X87067057Y-72190476D01*
X87067057Y-72190476D02*
X87257533Y-72190476D01*
X87257533Y-72190476D02*
X87409914Y-72228571D01*
X87409914Y-72228571D02*
X87486104Y-72266666D01*
X87486104Y-72266666D02*
X87524200Y-72304761D01*
X87524200Y-72304761D02*
X87562295Y-72380952D01*
X87562295Y-72380952D02*
X87562295Y-72457142D01*
X87562295Y-72457142D02*
X87524200Y-72533333D01*
X87524200Y-72533333D02*
X87486104Y-72571428D01*
X87486104Y-72571428D02*
X87409914Y-72609523D01*
X87409914Y-72609523D02*
X87257533Y-72647619D01*
X87257533Y-72647619D02*
X87067057Y-72647619D01*
X87067057Y-72647619D02*
X86914676Y-72609523D01*
X86914676Y-72609523D02*
X86838485Y-72571428D01*
X86838485Y-72571428D02*
X86800390Y-72533333D01*
X86800390Y-72533333D02*
X86762295Y-72457142D01*
X105462295Y-74033332D02*
X105081342Y-74299999D01*
X105462295Y-74490475D02*
X104662295Y-74490475D01*
X104662295Y-74490475D02*
X104662295Y-74185713D01*
X104662295Y-74185713D02*
X104700390Y-74109523D01*
X104700390Y-74109523D02*
X104738485Y-74071428D01*
X104738485Y-74071428D02*
X104814676Y-74033332D01*
X104814676Y-74033332D02*
X104928961Y-74033332D01*
X104928961Y-74033332D02*
X105005152Y-74071428D01*
X105005152Y-74071428D02*
X105043247Y-74109523D01*
X105043247Y-74109523D02*
X105081342Y-74185713D01*
X105081342Y-74185713D02*
X105081342Y-74490475D01*
X104662295Y-73309523D02*
X104662295Y-73690475D01*
X104662295Y-73690475D02*
X105043247Y-73728571D01*
X105043247Y-73728571D02*
X105005152Y-73690475D01*
X105005152Y-73690475D02*
X104967057Y-73614285D01*
X104967057Y-73614285D02*
X104967057Y-73423809D01*
X104967057Y-73423809D02*
X105005152Y-73347618D01*
X105005152Y-73347618D02*
X105043247Y-73309523D01*
X105043247Y-73309523D02*
X105119438Y-73271428D01*
X105119438Y-73271428D02*
X105309914Y-73271428D01*
X105309914Y-73271428D02*
X105386104Y-73309523D01*
X105386104Y-73309523D02*
X105424200Y-73347618D01*
X105424200Y-73347618D02*
X105462295Y-73423809D01*
X105462295Y-73423809D02*
X105462295Y-73614285D01*
X105462295Y-73614285D02*
X105424200Y-73690475D01*
X105424200Y-73690475D02*
X105386104Y-73728571D01*
X137333333Y-71262295D02*
X137333333Y-71833723D01*
X137333333Y-71833723D02*
X137295238Y-71948009D01*
X137295238Y-71948009D02*
X137219047Y-72024200D01*
X137219047Y-72024200D02*
X137104762Y-72062295D01*
X137104762Y-72062295D02*
X137028571Y-72062295D01*
X137638095Y-71262295D02*
X138133333Y-71262295D01*
X138133333Y-71262295D02*
X137866667Y-71567057D01*
X137866667Y-71567057D02*
X137980952Y-71567057D01*
X137980952Y-71567057D02*
X138057143Y-71605152D01*
X138057143Y-71605152D02*
X138095238Y-71643247D01*
X138095238Y-71643247D02*
X138133333Y-71719438D01*
X138133333Y-71719438D02*
X138133333Y-71909914D01*
X138133333Y-71909914D02*
X138095238Y-71986104D01*
X138095238Y-71986104D02*
X138057143Y-72024200D01*
X138057143Y-72024200D02*
X137980952Y-72062295D01*
X137980952Y-72062295D02*
X137752381Y-72062295D01*
X137752381Y-72062295D02*
X137676190Y-72024200D01*
X137676190Y-72024200D02*
X137638095Y-71986104D01*
X106786104Y-74614285D02*
X106824200Y-74652381D01*
X106824200Y-74652381D02*
X106862295Y-74766666D01*
X106862295Y-74766666D02*
X106862295Y-74842857D01*
X106862295Y-74842857D02*
X106824200Y-74957143D01*
X106824200Y-74957143D02*
X106748009Y-75033333D01*
X106748009Y-75033333D02*
X106671819Y-75071428D01*
X106671819Y-75071428D02*
X106519438Y-75109524D01*
X106519438Y-75109524D02*
X106405152Y-75109524D01*
X106405152Y-75109524D02*
X106252771Y-75071428D01*
X106252771Y-75071428D02*
X106176580Y-75033333D01*
X106176580Y-75033333D02*
X106100390Y-74957143D01*
X106100390Y-74957143D02*
X106062295Y-74842857D01*
X106062295Y-74842857D02*
X106062295Y-74766666D01*
X106062295Y-74766666D02*
X106100390Y-74652381D01*
X106100390Y-74652381D02*
X106138485Y-74614285D01*
X106862295Y-73852381D02*
X106862295Y-74309524D01*
X106862295Y-74080952D02*
X106062295Y-74080952D01*
X106062295Y-74080952D02*
X106176580Y-74157143D01*
X106176580Y-74157143D02*
X106252771Y-74233333D01*
X106252771Y-74233333D02*
X106290866Y-74309524D01*
X106405152Y-73395238D02*
X106367057Y-73471428D01*
X106367057Y-73471428D02*
X106328961Y-73509523D01*
X106328961Y-73509523D02*
X106252771Y-73547619D01*
X106252771Y-73547619D02*
X106214676Y-73547619D01*
X106214676Y-73547619D02*
X106138485Y-73509523D01*
X106138485Y-73509523D02*
X106100390Y-73471428D01*
X106100390Y-73471428D02*
X106062295Y-73395238D01*
X106062295Y-73395238D02*
X106062295Y-73242857D01*
X106062295Y-73242857D02*
X106100390Y-73166666D01*
X106100390Y-73166666D02*
X106138485Y-73128571D01*
X106138485Y-73128571D02*
X106214676Y-73090476D01*
X106214676Y-73090476D02*
X106252771Y-73090476D01*
X106252771Y-73090476D02*
X106328961Y-73128571D01*
X106328961Y-73128571D02*
X106367057Y-73166666D01*
X106367057Y-73166666D02*
X106405152Y-73242857D01*
X106405152Y-73242857D02*
X106405152Y-73395238D01*
X106405152Y-73395238D02*
X106443247Y-73471428D01*
X106443247Y-73471428D02*
X106481342Y-73509523D01*
X106481342Y-73509523D02*
X106557533Y-73547619D01*
X106557533Y-73547619D02*
X106709914Y-73547619D01*
X106709914Y-73547619D02*
X106786104Y-73509523D01*
X106786104Y-73509523D02*
X106824200Y-73471428D01*
X106824200Y-73471428D02*
X106862295Y-73395238D01*
X106862295Y-73395238D02*
X106862295Y-73242857D01*
X106862295Y-73242857D02*
X106824200Y-73166666D01*
X106824200Y-73166666D02*
X106786104Y-73128571D01*
X106786104Y-73128571D02*
X106709914Y-73090476D01*
X106709914Y-73090476D02*
X106557533Y-73090476D01*
X106557533Y-73090476D02*
X106481342Y-73128571D01*
X106481342Y-73128571D02*
X106443247Y-73166666D01*
X106443247Y-73166666D02*
X106405152Y-73242857D01*
X100286104Y-74614285D02*
X100324200Y-74652381D01*
X100324200Y-74652381D02*
X100362295Y-74766666D01*
X100362295Y-74766666D02*
X100362295Y-74842857D01*
X100362295Y-74842857D02*
X100324200Y-74957143D01*
X100324200Y-74957143D02*
X100248009Y-75033333D01*
X100248009Y-75033333D02*
X100171819Y-75071428D01*
X100171819Y-75071428D02*
X100019438Y-75109524D01*
X100019438Y-75109524D02*
X99905152Y-75109524D01*
X99905152Y-75109524D02*
X99752771Y-75071428D01*
X99752771Y-75071428D02*
X99676580Y-75033333D01*
X99676580Y-75033333D02*
X99600390Y-74957143D01*
X99600390Y-74957143D02*
X99562295Y-74842857D01*
X99562295Y-74842857D02*
X99562295Y-74766666D01*
X99562295Y-74766666D02*
X99600390Y-74652381D01*
X99600390Y-74652381D02*
X99638485Y-74614285D01*
X100362295Y-73852381D02*
X100362295Y-74309524D01*
X100362295Y-74080952D02*
X99562295Y-74080952D01*
X99562295Y-74080952D02*
X99676580Y-74157143D01*
X99676580Y-74157143D02*
X99752771Y-74233333D01*
X99752771Y-74233333D02*
X99790866Y-74309524D01*
X99562295Y-73128571D02*
X99562295Y-73509523D01*
X99562295Y-73509523D02*
X99943247Y-73547619D01*
X99943247Y-73547619D02*
X99905152Y-73509523D01*
X99905152Y-73509523D02*
X99867057Y-73433333D01*
X99867057Y-73433333D02*
X99867057Y-73242857D01*
X99867057Y-73242857D02*
X99905152Y-73166666D01*
X99905152Y-73166666D02*
X99943247Y-73128571D01*
X99943247Y-73128571D02*
X100019438Y-73090476D01*
X100019438Y-73090476D02*
X100209914Y-73090476D01*
X100209914Y-73090476D02*
X100286104Y-73128571D01*
X100286104Y-73128571D02*
X100324200Y-73166666D01*
X100324200Y-73166666D02*
X100362295Y-73242857D01*
X100362295Y-73242857D02*
X100362295Y-73433333D01*
X100362295Y-73433333D02*
X100324200Y-73509523D01*
X100324200Y-73509523D02*
X100286104Y-73547619D01*
X108186104Y-74714285D02*
X108224200Y-74752381D01*
X108224200Y-74752381D02*
X108262295Y-74866666D01*
X108262295Y-74866666D02*
X108262295Y-74942857D01*
X108262295Y-74942857D02*
X108224200Y-75057143D01*
X108224200Y-75057143D02*
X108148009Y-75133333D01*
X108148009Y-75133333D02*
X108071819Y-75171428D01*
X108071819Y-75171428D02*
X107919438Y-75209524D01*
X107919438Y-75209524D02*
X107805152Y-75209524D01*
X107805152Y-75209524D02*
X107652771Y-75171428D01*
X107652771Y-75171428D02*
X107576580Y-75133333D01*
X107576580Y-75133333D02*
X107500390Y-75057143D01*
X107500390Y-75057143D02*
X107462295Y-74942857D01*
X107462295Y-74942857D02*
X107462295Y-74866666D01*
X107462295Y-74866666D02*
X107500390Y-74752381D01*
X107500390Y-74752381D02*
X107538485Y-74714285D01*
X108262295Y-73952381D02*
X108262295Y-74409524D01*
X108262295Y-74180952D02*
X107462295Y-74180952D01*
X107462295Y-74180952D02*
X107576580Y-74257143D01*
X107576580Y-74257143D02*
X107652771Y-74333333D01*
X107652771Y-74333333D02*
X107690866Y-74409524D01*
X107462295Y-73685714D02*
X107462295Y-73152380D01*
X107462295Y-73152380D02*
X108262295Y-73495238D01*
X91166667Y-76462295D02*
X90900000Y-76081342D01*
X90709524Y-76462295D02*
X90709524Y-75662295D01*
X90709524Y-75662295D02*
X91014286Y-75662295D01*
X91014286Y-75662295D02*
X91090476Y-75700390D01*
X91090476Y-75700390D02*
X91128571Y-75738485D01*
X91128571Y-75738485D02*
X91166667Y-75814676D01*
X91166667Y-75814676D02*
X91166667Y-75928961D01*
X91166667Y-75928961D02*
X91128571Y-76005152D01*
X91128571Y-76005152D02*
X91090476Y-76043247D01*
X91090476Y-76043247D02*
X91014286Y-76081342D01*
X91014286Y-76081342D02*
X90709524Y-76081342D01*
X91623809Y-76005152D02*
X91547619Y-75967057D01*
X91547619Y-75967057D02*
X91509524Y-75928961D01*
X91509524Y-75928961D02*
X91471428Y-75852771D01*
X91471428Y-75852771D02*
X91471428Y-75814676D01*
X91471428Y-75814676D02*
X91509524Y-75738485D01*
X91509524Y-75738485D02*
X91547619Y-75700390D01*
X91547619Y-75700390D02*
X91623809Y-75662295D01*
X91623809Y-75662295D02*
X91776190Y-75662295D01*
X91776190Y-75662295D02*
X91852381Y-75700390D01*
X91852381Y-75700390D02*
X91890476Y-75738485D01*
X91890476Y-75738485D02*
X91928571Y-75814676D01*
X91928571Y-75814676D02*
X91928571Y-75852771D01*
X91928571Y-75852771D02*
X91890476Y-75928961D01*
X91890476Y-75928961D02*
X91852381Y-75967057D01*
X91852381Y-75967057D02*
X91776190Y-76005152D01*
X91776190Y-76005152D02*
X91623809Y-76005152D01*
X91623809Y-76005152D02*
X91547619Y-76043247D01*
X91547619Y-76043247D02*
X91509524Y-76081342D01*
X91509524Y-76081342D02*
X91471428Y-76157533D01*
X91471428Y-76157533D02*
X91471428Y-76309914D01*
X91471428Y-76309914D02*
X91509524Y-76386104D01*
X91509524Y-76386104D02*
X91547619Y-76424200D01*
X91547619Y-76424200D02*
X91623809Y-76462295D01*
X91623809Y-76462295D02*
X91776190Y-76462295D01*
X91776190Y-76462295D02*
X91852381Y-76424200D01*
X91852381Y-76424200D02*
X91890476Y-76386104D01*
X91890476Y-76386104D02*
X91928571Y-76309914D01*
X91928571Y-76309914D02*
X91928571Y-76157533D01*
X91928571Y-76157533D02*
X91890476Y-76081342D01*
X91890476Y-76081342D02*
X91852381Y-76043247D01*
X91852381Y-76043247D02*
X91776190Y-76005152D01*
X108186104Y-58733332D02*
X108224200Y-58771428D01*
X108224200Y-58771428D02*
X108262295Y-58885713D01*
X108262295Y-58885713D02*
X108262295Y-58961904D01*
X108262295Y-58961904D02*
X108224200Y-59076190D01*
X108224200Y-59076190D02*
X108148009Y-59152380D01*
X108148009Y-59152380D02*
X108071819Y-59190475D01*
X108071819Y-59190475D02*
X107919438Y-59228571D01*
X107919438Y-59228571D02*
X107805152Y-59228571D01*
X107805152Y-59228571D02*
X107652771Y-59190475D01*
X107652771Y-59190475D02*
X107576580Y-59152380D01*
X107576580Y-59152380D02*
X107500390Y-59076190D01*
X107500390Y-59076190D02*
X107462295Y-58961904D01*
X107462295Y-58961904D02*
X107462295Y-58885713D01*
X107462295Y-58885713D02*
X107500390Y-58771428D01*
X107500390Y-58771428D02*
X107538485Y-58733332D01*
X107462295Y-58466666D02*
X107462295Y-57971428D01*
X107462295Y-57971428D02*
X107767057Y-58238094D01*
X107767057Y-58238094D02*
X107767057Y-58123809D01*
X107767057Y-58123809D02*
X107805152Y-58047618D01*
X107805152Y-58047618D02*
X107843247Y-58009523D01*
X107843247Y-58009523D02*
X107919438Y-57971428D01*
X107919438Y-57971428D02*
X108109914Y-57971428D01*
X108109914Y-57971428D02*
X108186104Y-58009523D01*
X108186104Y-58009523D02*
X108224200Y-58047618D01*
X108224200Y-58047618D02*
X108262295Y-58123809D01*
X108262295Y-58123809D02*
X108262295Y-58352380D01*
X108262295Y-58352380D02*
X108224200Y-58428571D01*
X108224200Y-58428571D02*
X108186104Y-58466666D01*
X131186104Y-64214285D02*
X131224200Y-64252381D01*
X131224200Y-64252381D02*
X131262295Y-64366666D01*
X131262295Y-64366666D02*
X131262295Y-64442857D01*
X131262295Y-64442857D02*
X131224200Y-64557143D01*
X131224200Y-64557143D02*
X131148009Y-64633333D01*
X131148009Y-64633333D02*
X131071819Y-64671428D01*
X131071819Y-64671428D02*
X130919438Y-64709524D01*
X130919438Y-64709524D02*
X130805152Y-64709524D01*
X130805152Y-64709524D02*
X130652771Y-64671428D01*
X130652771Y-64671428D02*
X130576580Y-64633333D01*
X130576580Y-64633333D02*
X130500390Y-64557143D01*
X130500390Y-64557143D02*
X130462295Y-64442857D01*
X130462295Y-64442857D02*
X130462295Y-64366666D01*
X130462295Y-64366666D02*
X130500390Y-64252381D01*
X130500390Y-64252381D02*
X130538485Y-64214285D01*
X130538485Y-63909524D02*
X130500390Y-63871428D01*
X130500390Y-63871428D02*
X130462295Y-63795238D01*
X130462295Y-63795238D02*
X130462295Y-63604762D01*
X130462295Y-63604762D02*
X130500390Y-63528571D01*
X130500390Y-63528571D02*
X130538485Y-63490476D01*
X130538485Y-63490476D02*
X130614676Y-63452381D01*
X130614676Y-63452381D02*
X130690866Y-63452381D01*
X130690866Y-63452381D02*
X130805152Y-63490476D01*
X130805152Y-63490476D02*
X131262295Y-63947619D01*
X131262295Y-63947619D02*
X131262295Y-63452381D01*
X130462295Y-62766666D02*
X130462295Y-62919047D01*
X130462295Y-62919047D02*
X130500390Y-62995238D01*
X130500390Y-62995238D02*
X130538485Y-63033333D01*
X130538485Y-63033333D02*
X130652771Y-63109523D01*
X130652771Y-63109523D02*
X130805152Y-63147619D01*
X130805152Y-63147619D02*
X131109914Y-63147619D01*
X131109914Y-63147619D02*
X131186104Y-63109523D01*
X131186104Y-63109523D02*
X131224200Y-63071428D01*
X131224200Y-63071428D02*
X131262295Y-62995238D01*
X131262295Y-62995238D02*
X131262295Y-62842857D01*
X131262295Y-62842857D02*
X131224200Y-62766666D01*
X131224200Y-62766666D02*
X131186104Y-62728571D01*
X131186104Y-62728571D02*
X131109914Y-62690476D01*
X131109914Y-62690476D02*
X130919438Y-62690476D01*
X130919438Y-62690476D02*
X130843247Y-62728571D01*
X130843247Y-62728571D02*
X130805152Y-62766666D01*
X130805152Y-62766666D02*
X130767057Y-62842857D01*
X130767057Y-62842857D02*
X130767057Y-62995238D01*
X130767057Y-62995238D02*
X130805152Y-63071428D01*
X130805152Y-63071428D02*
X130843247Y-63109523D01*
X130843247Y-63109523D02*
X130919438Y-63147619D01*
X88390476Y-63762295D02*
X88390476Y-64409914D01*
X88390476Y-64409914D02*
X88428571Y-64486104D01*
X88428571Y-64486104D02*
X88466666Y-64524200D01*
X88466666Y-64524200D02*
X88542857Y-64562295D01*
X88542857Y-64562295D02*
X88695238Y-64562295D01*
X88695238Y-64562295D02*
X88771428Y-64524200D01*
X88771428Y-64524200D02*
X88809523Y-64486104D01*
X88809523Y-64486104D02*
X88847619Y-64409914D01*
X88847619Y-64409914D02*
X88847619Y-63762295D01*
X89190475Y-63838485D02*
X89228571Y-63800390D01*
X89228571Y-63800390D02*
X89304761Y-63762295D01*
X89304761Y-63762295D02*
X89495237Y-63762295D01*
X89495237Y-63762295D02*
X89571428Y-63800390D01*
X89571428Y-63800390D02*
X89609523Y-63838485D01*
X89609523Y-63838485D02*
X89647618Y-63914676D01*
X89647618Y-63914676D02*
X89647618Y-63990866D01*
X89647618Y-63990866D02*
X89609523Y-64105152D01*
X89609523Y-64105152D02*
X89152380Y-64562295D01*
X89152380Y-64562295D02*
X89647618Y-64562295D01*
X129686104Y-64314285D02*
X129724200Y-64352381D01*
X129724200Y-64352381D02*
X129762295Y-64466666D01*
X129762295Y-64466666D02*
X129762295Y-64542857D01*
X129762295Y-64542857D02*
X129724200Y-64657143D01*
X129724200Y-64657143D02*
X129648009Y-64733333D01*
X129648009Y-64733333D02*
X129571819Y-64771428D01*
X129571819Y-64771428D02*
X129419438Y-64809524D01*
X129419438Y-64809524D02*
X129305152Y-64809524D01*
X129305152Y-64809524D02*
X129152771Y-64771428D01*
X129152771Y-64771428D02*
X129076580Y-64733333D01*
X129076580Y-64733333D02*
X129000390Y-64657143D01*
X129000390Y-64657143D02*
X128962295Y-64542857D01*
X128962295Y-64542857D02*
X128962295Y-64466666D01*
X128962295Y-64466666D02*
X129000390Y-64352381D01*
X129000390Y-64352381D02*
X129038485Y-64314285D01*
X129762295Y-63552381D02*
X129762295Y-64009524D01*
X129762295Y-63780952D02*
X128962295Y-63780952D01*
X128962295Y-63780952D02*
X129076580Y-63857143D01*
X129076580Y-63857143D02*
X129152771Y-63933333D01*
X129152771Y-63933333D02*
X129190866Y-64009524D01*
X129762295Y-62790476D02*
X129762295Y-63247619D01*
X129762295Y-63019047D02*
X128962295Y-63019047D01*
X128962295Y-63019047D02*
X129076580Y-63095238D01*
X129076580Y-63095238D02*
X129152771Y-63171428D01*
X129152771Y-63171428D02*
X129190866Y-63247619D01*
X120886104Y-70314285D02*
X120924200Y-70352381D01*
X120924200Y-70352381D02*
X120962295Y-70466666D01*
X120962295Y-70466666D02*
X120962295Y-70542857D01*
X120962295Y-70542857D02*
X120924200Y-70657143D01*
X120924200Y-70657143D02*
X120848009Y-70733333D01*
X120848009Y-70733333D02*
X120771819Y-70771428D01*
X120771819Y-70771428D02*
X120619438Y-70809524D01*
X120619438Y-70809524D02*
X120505152Y-70809524D01*
X120505152Y-70809524D02*
X120352771Y-70771428D01*
X120352771Y-70771428D02*
X120276580Y-70733333D01*
X120276580Y-70733333D02*
X120200390Y-70657143D01*
X120200390Y-70657143D02*
X120162295Y-70542857D01*
X120162295Y-70542857D02*
X120162295Y-70466666D01*
X120162295Y-70466666D02*
X120200390Y-70352381D01*
X120200390Y-70352381D02*
X120238485Y-70314285D01*
X120162295Y-70047619D02*
X120162295Y-69552381D01*
X120162295Y-69552381D02*
X120467057Y-69819047D01*
X120467057Y-69819047D02*
X120467057Y-69704762D01*
X120467057Y-69704762D02*
X120505152Y-69628571D01*
X120505152Y-69628571D02*
X120543247Y-69590476D01*
X120543247Y-69590476D02*
X120619438Y-69552381D01*
X120619438Y-69552381D02*
X120809914Y-69552381D01*
X120809914Y-69552381D02*
X120886104Y-69590476D01*
X120886104Y-69590476D02*
X120924200Y-69628571D01*
X120924200Y-69628571D02*
X120962295Y-69704762D01*
X120962295Y-69704762D02*
X120962295Y-69933333D01*
X120962295Y-69933333D02*
X120924200Y-70009524D01*
X120924200Y-70009524D02*
X120886104Y-70047619D01*
X120162295Y-69057142D02*
X120162295Y-68980952D01*
X120162295Y-68980952D02*
X120200390Y-68904761D01*
X120200390Y-68904761D02*
X120238485Y-68866666D01*
X120238485Y-68866666D02*
X120314676Y-68828571D01*
X120314676Y-68828571D02*
X120467057Y-68790476D01*
X120467057Y-68790476D02*
X120657533Y-68790476D01*
X120657533Y-68790476D02*
X120809914Y-68828571D01*
X120809914Y-68828571D02*
X120886104Y-68866666D01*
X120886104Y-68866666D02*
X120924200Y-68904761D01*
X120924200Y-68904761D02*
X120962295Y-68980952D01*
X120962295Y-68980952D02*
X120962295Y-69057142D01*
X120962295Y-69057142D02*
X120924200Y-69133333D01*
X120924200Y-69133333D02*
X120886104Y-69171428D01*
X120886104Y-69171428D02*
X120809914Y-69209523D01*
X120809914Y-69209523D02*
X120657533Y-69247619D01*
X120657533Y-69247619D02*
X120467057Y-69247619D01*
X120467057Y-69247619D02*
X120314676Y-69209523D01*
X120314676Y-69209523D02*
X120238485Y-69171428D01*
X120238485Y-69171428D02*
X120200390Y-69133333D01*
X120200390Y-69133333D02*
X120162295Y-69057142D01*
X93366667Y-67786104D02*
X93328571Y-67824200D01*
X93328571Y-67824200D02*
X93214286Y-67862295D01*
X93214286Y-67862295D02*
X93138095Y-67862295D01*
X93138095Y-67862295D02*
X93023809Y-67824200D01*
X93023809Y-67824200D02*
X92947619Y-67748009D01*
X92947619Y-67748009D02*
X92909524Y-67671819D01*
X92909524Y-67671819D02*
X92871428Y-67519438D01*
X92871428Y-67519438D02*
X92871428Y-67405152D01*
X92871428Y-67405152D02*
X92909524Y-67252771D01*
X92909524Y-67252771D02*
X92947619Y-67176580D01*
X92947619Y-67176580D02*
X93023809Y-67100390D01*
X93023809Y-67100390D02*
X93138095Y-67062295D01*
X93138095Y-67062295D02*
X93214286Y-67062295D01*
X93214286Y-67062295D02*
X93328571Y-67100390D01*
X93328571Y-67100390D02*
X93366667Y-67138485D01*
X94128571Y-67862295D02*
X93671428Y-67862295D01*
X93900000Y-67862295D02*
X93900000Y-67062295D01*
X93900000Y-67062295D02*
X93823809Y-67176580D01*
X93823809Y-67176580D02*
X93747619Y-67252771D01*
X93747619Y-67252771D02*
X93671428Y-67290866D01*
X116285714Y-63886104D02*
X116247618Y-63924200D01*
X116247618Y-63924200D02*
X116133333Y-63962295D01*
X116133333Y-63962295D02*
X116057142Y-63962295D01*
X116057142Y-63962295D02*
X115942856Y-63924200D01*
X115942856Y-63924200D02*
X115866666Y-63848009D01*
X115866666Y-63848009D02*
X115828571Y-63771819D01*
X115828571Y-63771819D02*
X115790475Y-63619438D01*
X115790475Y-63619438D02*
X115790475Y-63505152D01*
X115790475Y-63505152D02*
X115828571Y-63352771D01*
X115828571Y-63352771D02*
X115866666Y-63276580D01*
X115866666Y-63276580D02*
X115942856Y-63200390D01*
X115942856Y-63200390D02*
X116057142Y-63162295D01*
X116057142Y-63162295D02*
X116133333Y-63162295D01*
X116133333Y-63162295D02*
X116247618Y-63200390D01*
X116247618Y-63200390D02*
X116285714Y-63238485D01*
X117047618Y-63962295D02*
X116590475Y-63962295D01*
X116819047Y-63962295D02*
X116819047Y-63162295D01*
X116819047Y-63162295D02*
X116742856Y-63276580D01*
X116742856Y-63276580D02*
X116666666Y-63352771D01*
X116666666Y-63352771D02*
X116590475Y-63390866D01*
X117314285Y-63162295D02*
X117809523Y-63162295D01*
X117809523Y-63162295D02*
X117542857Y-63467057D01*
X117542857Y-63467057D02*
X117657142Y-63467057D01*
X117657142Y-63467057D02*
X117733333Y-63505152D01*
X117733333Y-63505152D02*
X117771428Y-63543247D01*
X117771428Y-63543247D02*
X117809523Y-63619438D01*
X117809523Y-63619438D02*
X117809523Y-63809914D01*
X117809523Y-63809914D02*
X117771428Y-63886104D01*
X117771428Y-63886104D02*
X117733333Y-63924200D01*
X117733333Y-63924200D02*
X117657142Y-63962295D01*
X117657142Y-63962295D02*
X117428571Y-63962295D01*
X117428571Y-63962295D02*
X117352380Y-63924200D01*
X117352380Y-63924200D02*
X117314285Y-63886104D01*
X93686104Y-71914285D02*
X93724200Y-71952381D01*
X93724200Y-71952381D02*
X93762295Y-72066666D01*
X93762295Y-72066666D02*
X93762295Y-72142857D01*
X93762295Y-72142857D02*
X93724200Y-72257143D01*
X93724200Y-72257143D02*
X93648009Y-72333333D01*
X93648009Y-72333333D02*
X93571819Y-72371428D01*
X93571819Y-72371428D02*
X93419438Y-72409524D01*
X93419438Y-72409524D02*
X93305152Y-72409524D01*
X93305152Y-72409524D02*
X93152771Y-72371428D01*
X93152771Y-72371428D02*
X93076580Y-72333333D01*
X93076580Y-72333333D02*
X93000390Y-72257143D01*
X93000390Y-72257143D02*
X92962295Y-72142857D01*
X92962295Y-72142857D02*
X92962295Y-72066666D01*
X92962295Y-72066666D02*
X93000390Y-71952381D01*
X93000390Y-71952381D02*
X93038485Y-71914285D01*
X93038485Y-71609524D02*
X93000390Y-71571428D01*
X93000390Y-71571428D02*
X92962295Y-71495238D01*
X92962295Y-71495238D02*
X92962295Y-71304762D01*
X92962295Y-71304762D02*
X93000390Y-71228571D01*
X93000390Y-71228571D02*
X93038485Y-71190476D01*
X93038485Y-71190476D02*
X93114676Y-71152381D01*
X93114676Y-71152381D02*
X93190866Y-71152381D01*
X93190866Y-71152381D02*
X93305152Y-71190476D01*
X93305152Y-71190476D02*
X93762295Y-71647619D01*
X93762295Y-71647619D02*
X93762295Y-71152381D01*
X93762295Y-70390476D02*
X93762295Y-70847619D01*
X93762295Y-70619047D02*
X92962295Y-70619047D01*
X92962295Y-70619047D02*
X93076580Y-70695238D01*
X93076580Y-70695238D02*
X93152771Y-70771428D01*
X93152771Y-70771428D02*
X93190866Y-70847619D01*
X85066667Y-61436504D02*
X85028571Y-61474600D01*
X85028571Y-61474600D02*
X84914286Y-61512695D01*
X84914286Y-61512695D02*
X84838095Y-61512695D01*
X84838095Y-61512695D02*
X84723809Y-61474600D01*
X84723809Y-61474600D02*
X84647619Y-61398409D01*
X84647619Y-61398409D02*
X84609524Y-61322219D01*
X84609524Y-61322219D02*
X84571428Y-61169838D01*
X84571428Y-61169838D02*
X84571428Y-61055552D01*
X84571428Y-61055552D02*
X84609524Y-60903171D01*
X84609524Y-60903171D02*
X84647619Y-60826980D01*
X84647619Y-60826980D02*
X84723809Y-60750790D01*
X84723809Y-60750790D02*
X84838095Y-60712695D01*
X84838095Y-60712695D02*
X84914286Y-60712695D01*
X84914286Y-60712695D02*
X85028571Y-60750790D01*
X85028571Y-60750790D02*
X85066667Y-60788885D01*
X85447619Y-61512695D02*
X85600000Y-61512695D01*
X85600000Y-61512695D02*
X85676190Y-61474600D01*
X85676190Y-61474600D02*
X85714286Y-61436504D01*
X85714286Y-61436504D02*
X85790476Y-61322219D01*
X85790476Y-61322219D02*
X85828571Y-61169838D01*
X85828571Y-61169838D02*
X85828571Y-60865076D01*
X85828571Y-60865076D02*
X85790476Y-60788885D01*
X85790476Y-60788885D02*
X85752381Y-60750790D01*
X85752381Y-60750790D02*
X85676190Y-60712695D01*
X85676190Y-60712695D02*
X85523809Y-60712695D01*
X85523809Y-60712695D02*
X85447619Y-60750790D01*
X85447619Y-60750790D02*
X85409524Y-60788885D01*
X85409524Y-60788885D02*
X85371428Y-60865076D01*
X85371428Y-60865076D02*
X85371428Y-61055552D01*
X85371428Y-61055552D02*
X85409524Y-61131742D01*
X85409524Y-61131742D02*
X85447619Y-61169838D01*
X85447619Y-61169838D02*
X85523809Y-61207933D01*
X85523809Y-61207933D02*
X85676190Y-61207933D01*
X85676190Y-61207933D02*
X85752381Y-61169838D01*
X85752381Y-61169838D02*
X85790476Y-61131742D01*
X85790476Y-61131742D02*
X85828571Y-61055552D01*
X120461905Y-76054819D02*
X120461905Y-75054819D01*
X120461905Y-75054819D02*
X120700000Y-75054819D01*
X120700000Y-75054819D02*
X120842857Y-75102438D01*
X120842857Y-75102438D02*
X120938095Y-75197676D01*
X120938095Y-75197676D02*
X120985714Y-75292914D01*
X120985714Y-75292914D02*
X121033333Y-75483390D01*
X121033333Y-75483390D02*
X121033333Y-75626247D01*
X121033333Y-75626247D02*
X120985714Y-75816723D01*
X120985714Y-75816723D02*
X120938095Y-75911961D01*
X120938095Y-75911961D02*
X120842857Y-76007200D01*
X120842857Y-76007200D02*
X120700000Y-76054819D01*
X120700000Y-76054819D02*
X120461905Y-76054819D01*
X121985714Y-76054819D02*
X121414286Y-76054819D01*
X121700000Y-76054819D02*
X121700000Y-75054819D01*
X121700000Y-75054819D02*
X121604762Y-75197676D01*
X121604762Y-75197676D02*
X121509524Y-75292914D01*
X121509524Y-75292914D02*
X121414286Y-75340533D01*
X101586104Y-58933332D02*
X101624200Y-58971428D01*
X101624200Y-58971428D02*
X101662295Y-59085713D01*
X101662295Y-59085713D02*
X101662295Y-59161904D01*
X101662295Y-59161904D02*
X101624200Y-59276190D01*
X101624200Y-59276190D02*
X101548009Y-59352380D01*
X101548009Y-59352380D02*
X101471819Y-59390475D01*
X101471819Y-59390475D02*
X101319438Y-59428571D01*
X101319438Y-59428571D02*
X101205152Y-59428571D01*
X101205152Y-59428571D02*
X101052771Y-59390475D01*
X101052771Y-59390475D02*
X100976580Y-59352380D01*
X100976580Y-59352380D02*
X100900390Y-59276190D01*
X100900390Y-59276190D02*
X100862295Y-59161904D01*
X100862295Y-59161904D02*
X100862295Y-59085713D01*
X100862295Y-59085713D02*
X100900390Y-58971428D01*
X100900390Y-58971428D02*
X100938485Y-58933332D01*
X101128961Y-58247618D02*
X101662295Y-58247618D01*
X100824200Y-58438094D02*
X101395628Y-58628571D01*
X101395628Y-58628571D02*
X101395628Y-58133332D01*
X85766667Y-66362295D02*
X85500000Y-65981342D01*
X85309524Y-66362295D02*
X85309524Y-65562295D01*
X85309524Y-65562295D02*
X85614286Y-65562295D01*
X85614286Y-65562295D02*
X85690476Y-65600390D01*
X85690476Y-65600390D02*
X85728571Y-65638485D01*
X85728571Y-65638485D02*
X85766667Y-65714676D01*
X85766667Y-65714676D02*
X85766667Y-65828961D01*
X85766667Y-65828961D02*
X85728571Y-65905152D01*
X85728571Y-65905152D02*
X85690476Y-65943247D01*
X85690476Y-65943247D02*
X85614286Y-65981342D01*
X85614286Y-65981342D02*
X85309524Y-65981342D01*
X86528571Y-66362295D02*
X86071428Y-66362295D01*
X86300000Y-66362295D02*
X86300000Y-65562295D01*
X86300000Y-65562295D02*
X86223809Y-65676580D01*
X86223809Y-65676580D02*
X86147619Y-65752771D01*
X86147619Y-65752771D02*
X86071428Y-65790866D01*
X124075714Y-69962295D02*
X123809047Y-69581342D01*
X123618571Y-69962295D02*
X123618571Y-69162295D01*
X123618571Y-69162295D02*
X123923333Y-69162295D01*
X123923333Y-69162295D02*
X123999523Y-69200390D01*
X123999523Y-69200390D02*
X124037618Y-69238485D01*
X124037618Y-69238485D02*
X124075714Y-69314676D01*
X124075714Y-69314676D02*
X124075714Y-69428961D01*
X124075714Y-69428961D02*
X124037618Y-69505152D01*
X124037618Y-69505152D02*
X123999523Y-69543247D01*
X123999523Y-69543247D02*
X123923333Y-69581342D01*
X123923333Y-69581342D02*
X123618571Y-69581342D01*
X124837618Y-69962295D02*
X124380475Y-69962295D01*
X124609047Y-69962295D02*
X124609047Y-69162295D01*
X124609047Y-69162295D02*
X124532856Y-69276580D01*
X124532856Y-69276580D02*
X124456666Y-69352771D01*
X124456666Y-69352771D02*
X124380475Y-69390866D01*
X125142380Y-69238485D02*
X125180476Y-69200390D01*
X125180476Y-69200390D02*
X125256666Y-69162295D01*
X125256666Y-69162295D02*
X125447142Y-69162295D01*
X125447142Y-69162295D02*
X125523333Y-69200390D01*
X125523333Y-69200390D02*
X125561428Y-69238485D01*
X125561428Y-69238485D02*
X125599523Y-69314676D01*
X125599523Y-69314676D02*
X125599523Y-69390866D01*
X125599523Y-69390866D02*
X125561428Y-69505152D01*
X125561428Y-69505152D02*
X125104285Y-69962295D01*
X125104285Y-69962295D02*
X125599523Y-69962295D01*
X109594295Y-68151064D02*
X108794295Y-68151064D01*
X109518104Y-67312969D02*
X109556200Y-67351065D01*
X109556200Y-67351065D02*
X109594295Y-67465350D01*
X109594295Y-67465350D02*
X109594295Y-67541541D01*
X109594295Y-67541541D02*
X109556200Y-67655827D01*
X109556200Y-67655827D02*
X109480009Y-67732017D01*
X109480009Y-67732017D02*
X109403819Y-67770112D01*
X109403819Y-67770112D02*
X109251438Y-67808208D01*
X109251438Y-67808208D02*
X109137152Y-67808208D01*
X109137152Y-67808208D02*
X108984771Y-67770112D01*
X108984771Y-67770112D02*
X108908580Y-67732017D01*
X108908580Y-67732017D02*
X108832390Y-67655827D01*
X108832390Y-67655827D02*
X108794295Y-67541541D01*
X108794295Y-67541541D02*
X108794295Y-67465350D01*
X108794295Y-67465350D02*
X108832390Y-67351065D01*
X108832390Y-67351065D02*
X108870485Y-67312969D01*
X109594295Y-66551065D02*
X109594295Y-67008208D01*
X109594295Y-66779636D02*
X108794295Y-66779636D01*
X108794295Y-66779636D02*
X108908580Y-66855827D01*
X108908580Y-66855827D02*
X108984771Y-66932017D01*
X108984771Y-66932017D02*
X109022866Y-67008208D01*
X83787767Y-56615676D02*
X83140148Y-56615676D01*
X83140148Y-56615676D02*
X83063958Y-56653771D01*
X83063958Y-56653771D02*
X83025863Y-56691866D01*
X83025863Y-56691866D02*
X82987767Y-56768057D01*
X82987767Y-56768057D02*
X82987767Y-56920438D01*
X82987767Y-56920438D02*
X83025863Y-56996628D01*
X83025863Y-56996628D02*
X83063958Y-57034723D01*
X83063958Y-57034723D02*
X83140148Y-57072819D01*
X83140148Y-57072819D02*
X83787767Y-57072819D01*
X83787767Y-57796628D02*
X83787767Y-57644247D01*
X83787767Y-57644247D02*
X83749672Y-57568056D01*
X83749672Y-57568056D02*
X83711577Y-57529961D01*
X83711577Y-57529961D02*
X83597291Y-57453771D01*
X83597291Y-57453771D02*
X83444910Y-57415675D01*
X83444910Y-57415675D02*
X83140148Y-57415675D01*
X83140148Y-57415675D02*
X83063958Y-57453771D01*
X83063958Y-57453771D02*
X83025863Y-57491866D01*
X83025863Y-57491866D02*
X82987767Y-57568056D01*
X82987767Y-57568056D02*
X82987767Y-57720437D01*
X82987767Y-57720437D02*
X83025863Y-57796628D01*
X83025863Y-57796628D02*
X83063958Y-57834723D01*
X83063958Y-57834723D02*
X83140148Y-57872818D01*
X83140148Y-57872818D02*
X83330624Y-57872818D01*
X83330624Y-57872818D02*
X83406815Y-57834723D01*
X83406815Y-57834723D02*
X83444910Y-57796628D01*
X83444910Y-57796628D02*
X83483005Y-57720437D01*
X83483005Y-57720437D02*
X83483005Y-57568056D01*
X83483005Y-57568056D02*
X83444910Y-57491866D01*
X83444910Y-57491866D02*
X83406815Y-57453771D01*
X83406815Y-57453771D02*
X83330624Y-57415675D01*
X87448604Y-69864286D02*
X87486700Y-69902382D01*
X87486700Y-69902382D02*
X87524795Y-70016667D01*
X87524795Y-70016667D02*
X87524795Y-70092858D01*
X87524795Y-70092858D02*
X87486700Y-70207144D01*
X87486700Y-70207144D02*
X87410509Y-70283334D01*
X87410509Y-70283334D02*
X87334319Y-70321429D01*
X87334319Y-70321429D02*
X87181938Y-70359525D01*
X87181938Y-70359525D02*
X87067652Y-70359525D01*
X87067652Y-70359525D02*
X86915271Y-70321429D01*
X86915271Y-70321429D02*
X86839080Y-70283334D01*
X86839080Y-70283334D02*
X86762890Y-70207144D01*
X86762890Y-70207144D02*
X86724795Y-70092858D01*
X86724795Y-70092858D02*
X86724795Y-70016667D01*
X86724795Y-70016667D02*
X86762890Y-69902382D01*
X86762890Y-69902382D02*
X86800985Y-69864286D01*
X87524795Y-69102382D02*
X87524795Y-69559525D01*
X87524795Y-69330953D02*
X86724795Y-69330953D01*
X86724795Y-69330953D02*
X86839080Y-69407144D01*
X86839080Y-69407144D02*
X86915271Y-69483334D01*
X86915271Y-69483334D02*
X86953366Y-69559525D01*
X87524795Y-68721429D02*
X87524795Y-68569048D01*
X87524795Y-68569048D02*
X87486700Y-68492858D01*
X87486700Y-68492858D02*
X87448604Y-68454762D01*
X87448604Y-68454762D02*
X87334319Y-68378572D01*
X87334319Y-68378572D02*
X87181938Y-68340477D01*
X87181938Y-68340477D02*
X86877176Y-68340477D01*
X86877176Y-68340477D02*
X86800985Y-68378572D01*
X86800985Y-68378572D02*
X86762890Y-68416667D01*
X86762890Y-68416667D02*
X86724795Y-68492858D01*
X86724795Y-68492858D02*
X86724795Y-68645239D01*
X86724795Y-68645239D02*
X86762890Y-68721429D01*
X86762890Y-68721429D02*
X86800985Y-68759524D01*
X86800985Y-68759524D02*
X86877176Y-68797620D01*
X86877176Y-68797620D02*
X87067652Y-68797620D01*
X87067652Y-68797620D02*
X87143842Y-68759524D01*
X87143842Y-68759524D02*
X87181938Y-68721429D01*
X87181938Y-68721429D02*
X87220033Y-68645239D01*
X87220033Y-68645239D02*
X87220033Y-68492858D01*
X87220033Y-68492858D02*
X87181938Y-68416667D01*
X87181938Y-68416667D02*
X87143842Y-68378572D01*
X87143842Y-68378572D02*
X87067652Y-68340477D01*
X95486104Y-74014285D02*
X95524200Y-74052381D01*
X95524200Y-74052381D02*
X95562295Y-74166666D01*
X95562295Y-74166666D02*
X95562295Y-74242857D01*
X95562295Y-74242857D02*
X95524200Y-74357143D01*
X95524200Y-74357143D02*
X95448009Y-74433333D01*
X95448009Y-74433333D02*
X95371819Y-74471428D01*
X95371819Y-74471428D02*
X95219438Y-74509524D01*
X95219438Y-74509524D02*
X95105152Y-74509524D01*
X95105152Y-74509524D02*
X94952771Y-74471428D01*
X94952771Y-74471428D02*
X94876580Y-74433333D01*
X94876580Y-74433333D02*
X94800390Y-74357143D01*
X94800390Y-74357143D02*
X94762295Y-74242857D01*
X94762295Y-74242857D02*
X94762295Y-74166666D01*
X94762295Y-74166666D02*
X94800390Y-74052381D01*
X94800390Y-74052381D02*
X94838485Y-74014285D01*
X94838485Y-73709524D02*
X94800390Y-73671428D01*
X94800390Y-73671428D02*
X94762295Y-73595238D01*
X94762295Y-73595238D02*
X94762295Y-73404762D01*
X94762295Y-73404762D02*
X94800390Y-73328571D01*
X94800390Y-73328571D02*
X94838485Y-73290476D01*
X94838485Y-73290476D02*
X94914676Y-73252381D01*
X94914676Y-73252381D02*
X94990866Y-73252381D01*
X94990866Y-73252381D02*
X95105152Y-73290476D01*
X95105152Y-73290476D02*
X95562295Y-73747619D01*
X95562295Y-73747619D02*
X95562295Y-73252381D01*
X94838485Y-72947619D02*
X94800390Y-72909523D01*
X94800390Y-72909523D02*
X94762295Y-72833333D01*
X94762295Y-72833333D02*
X94762295Y-72642857D01*
X94762295Y-72642857D02*
X94800390Y-72566666D01*
X94800390Y-72566666D02*
X94838485Y-72528571D01*
X94838485Y-72528571D02*
X94914676Y-72490476D01*
X94914676Y-72490476D02*
X94990866Y-72490476D01*
X94990866Y-72490476D02*
X95105152Y-72528571D01*
X95105152Y-72528571D02*
X95562295Y-72985714D01*
X95562295Y-72985714D02*
X95562295Y-72490476D01*
X109386104Y-74614285D02*
X109424200Y-74652381D01*
X109424200Y-74652381D02*
X109462295Y-74766666D01*
X109462295Y-74766666D02*
X109462295Y-74842857D01*
X109462295Y-74842857D02*
X109424200Y-74957143D01*
X109424200Y-74957143D02*
X109348009Y-75033333D01*
X109348009Y-75033333D02*
X109271819Y-75071428D01*
X109271819Y-75071428D02*
X109119438Y-75109524D01*
X109119438Y-75109524D02*
X109005152Y-75109524D01*
X109005152Y-75109524D02*
X108852771Y-75071428D01*
X108852771Y-75071428D02*
X108776580Y-75033333D01*
X108776580Y-75033333D02*
X108700390Y-74957143D01*
X108700390Y-74957143D02*
X108662295Y-74842857D01*
X108662295Y-74842857D02*
X108662295Y-74766666D01*
X108662295Y-74766666D02*
X108700390Y-74652381D01*
X108700390Y-74652381D02*
X108738485Y-74614285D01*
X109462295Y-73852381D02*
X109462295Y-74309524D01*
X109462295Y-74080952D02*
X108662295Y-74080952D01*
X108662295Y-74080952D02*
X108776580Y-74157143D01*
X108776580Y-74157143D02*
X108852771Y-74233333D01*
X108852771Y-74233333D02*
X108890866Y-74309524D01*
X108928961Y-73166666D02*
X109462295Y-73166666D01*
X108624200Y-73357142D02*
X109195628Y-73547619D01*
X109195628Y-73547619D02*
X109195628Y-73052380D01*
X105062295Y-58833332D02*
X104681342Y-59099999D01*
X105062295Y-59290475D02*
X104262295Y-59290475D01*
X104262295Y-59290475D02*
X104262295Y-58985713D01*
X104262295Y-58985713D02*
X104300390Y-58909523D01*
X104300390Y-58909523D02*
X104338485Y-58871428D01*
X104338485Y-58871428D02*
X104414676Y-58833332D01*
X104414676Y-58833332D02*
X104528961Y-58833332D01*
X104528961Y-58833332D02*
X104605152Y-58871428D01*
X104605152Y-58871428D02*
X104643247Y-58909523D01*
X104643247Y-58909523D02*
X104681342Y-58985713D01*
X104681342Y-58985713D02*
X104681342Y-59290475D01*
X104338485Y-58528571D02*
X104300390Y-58490475D01*
X104300390Y-58490475D02*
X104262295Y-58414285D01*
X104262295Y-58414285D02*
X104262295Y-58223809D01*
X104262295Y-58223809D02*
X104300390Y-58147618D01*
X104300390Y-58147618D02*
X104338485Y-58109523D01*
X104338485Y-58109523D02*
X104414676Y-58071428D01*
X104414676Y-58071428D02*
X104490866Y-58071428D01*
X104490866Y-58071428D02*
X104605152Y-58109523D01*
X104605152Y-58109523D02*
X105062295Y-58566666D01*
X105062295Y-58566666D02*
X105062295Y-58071428D01*
X110886104Y-70214285D02*
X110924200Y-70252381D01*
X110924200Y-70252381D02*
X110962295Y-70366666D01*
X110962295Y-70366666D02*
X110962295Y-70442857D01*
X110962295Y-70442857D02*
X110924200Y-70557143D01*
X110924200Y-70557143D02*
X110848009Y-70633333D01*
X110848009Y-70633333D02*
X110771819Y-70671428D01*
X110771819Y-70671428D02*
X110619438Y-70709524D01*
X110619438Y-70709524D02*
X110505152Y-70709524D01*
X110505152Y-70709524D02*
X110352771Y-70671428D01*
X110352771Y-70671428D02*
X110276580Y-70633333D01*
X110276580Y-70633333D02*
X110200390Y-70557143D01*
X110200390Y-70557143D02*
X110162295Y-70442857D01*
X110162295Y-70442857D02*
X110162295Y-70366666D01*
X110162295Y-70366666D02*
X110200390Y-70252381D01*
X110200390Y-70252381D02*
X110238485Y-70214285D01*
X110962295Y-69452381D02*
X110962295Y-69909524D01*
X110962295Y-69680952D02*
X110162295Y-69680952D01*
X110162295Y-69680952D02*
X110276580Y-69757143D01*
X110276580Y-69757143D02*
X110352771Y-69833333D01*
X110352771Y-69833333D02*
X110390866Y-69909524D01*
X110238485Y-69147619D02*
X110200390Y-69109523D01*
X110200390Y-69109523D02*
X110162295Y-69033333D01*
X110162295Y-69033333D02*
X110162295Y-68842857D01*
X110162295Y-68842857D02*
X110200390Y-68766666D01*
X110200390Y-68766666D02*
X110238485Y-68728571D01*
X110238485Y-68728571D02*
X110314676Y-68690476D01*
X110314676Y-68690476D02*
X110390866Y-68690476D01*
X110390866Y-68690476D02*
X110505152Y-68728571D01*
X110505152Y-68728571D02*
X110962295Y-69185714D01*
X110962295Y-69185714D02*
X110962295Y-68690476D01*
X98162295Y-67028571D02*
X98162295Y-66571428D01*
X98962295Y-66800000D02*
X98162295Y-66800000D01*
X98962295Y-66304761D02*
X98162295Y-66304761D01*
X98543247Y-66304761D02*
X98543247Y-65847618D01*
X98962295Y-65847618D02*
X98162295Y-65847618D01*
X98962295Y-65047619D02*
X98962295Y-65504762D01*
X98962295Y-65276190D02*
X98162295Y-65276190D01*
X98162295Y-65276190D02*
X98276580Y-65352381D01*
X98276580Y-65352381D02*
X98352771Y-65428571D01*
X98352771Y-65428571D02*
X98390866Y-65504762D01*
X88090476Y-66862295D02*
X88090476Y-67509914D01*
X88090476Y-67509914D02*
X88128571Y-67586104D01*
X88128571Y-67586104D02*
X88166666Y-67624200D01*
X88166666Y-67624200D02*
X88242857Y-67662295D01*
X88242857Y-67662295D02*
X88395238Y-67662295D01*
X88395238Y-67662295D02*
X88471428Y-67624200D01*
X88471428Y-67624200D02*
X88509523Y-67586104D01*
X88509523Y-67586104D02*
X88547619Y-67509914D01*
X88547619Y-67509914D02*
X88547619Y-66862295D01*
X88852380Y-66862295D02*
X89347618Y-66862295D01*
X89347618Y-66862295D02*
X89080952Y-67167057D01*
X89080952Y-67167057D02*
X89195237Y-67167057D01*
X89195237Y-67167057D02*
X89271428Y-67205152D01*
X89271428Y-67205152D02*
X89309523Y-67243247D01*
X89309523Y-67243247D02*
X89347618Y-67319438D01*
X89347618Y-67319438D02*
X89347618Y-67509914D01*
X89347618Y-67509914D02*
X89309523Y-67586104D01*
X89309523Y-67586104D02*
X89271428Y-67624200D01*
X89271428Y-67624200D02*
X89195237Y-67662295D01*
X89195237Y-67662295D02*
X88966666Y-67662295D01*
X88966666Y-67662295D02*
X88890475Y-67624200D01*
X88890475Y-67624200D02*
X88852380Y-67586104D01*
X126785714Y-69862295D02*
X126519047Y-69481342D01*
X126328571Y-69862295D02*
X126328571Y-69062295D01*
X126328571Y-69062295D02*
X126633333Y-69062295D01*
X126633333Y-69062295D02*
X126709523Y-69100390D01*
X126709523Y-69100390D02*
X126747618Y-69138485D01*
X126747618Y-69138485D02*
X126785714Y-69214676D01*
X126785714Y-69214676D02*
X126785714Y-69328961D01*
X126785714Y-69328961D02*
X126747618Y-69405152D01*
X126747618Y-69405152D02*
X126709523Y-69443247D01*
X126709523Y-69443247D02*
X126633333Y-69481342D01*
X126633333Y-69481342D02*
X126328571Y-69481342D01*
X127547618Y-69862295D02*
X127090475Y-69862295D01*
X127319047Y-69862295D02*
X127319047Y-69062295D01*
X127319047Y-69062295D02*
X127242856Y-69176580D01*
X127242856Y-69176580D02*
X127166666Y-69252771D01*
X127166666Y-69252771D02*
X127090475Y-69290866D01*
X128042857Y-69062295D02*
X128119047Y-69062295D01*
X128119047Y-69062295D02*
X128195238Y-69100390D01*
X128195238Y-69100390D02*
X128233333Y-69138485D01*
X128233333Y-69138485D02*
X128271428Y-69214676D01*
X128271428Y-69214676D02*
X128309523Y-69367057D01*
X128309523Y-69367057D02*
X128309523Y-69557533D01*
X128309523Y-69557533D02*
X128271428Y-69709914D01*
X128271428Y-69709914D02*
X128233333Y-69786104D01*
X128233333Y-69786104D02*
X128195238Y-69824200D01*
X128195238Y-69824200D02*
X128119047Y-69862295D01*
X128119047Y-69862295D02*
X128042857Y-69862295D01*
X128042857Y-69862295D02*
X127966666Y-69824200D01*
X127966666Y-69824200D02*
X127928571Y-69786104D01*
X127928571Y-69786104D02*
X127890476Y-69709914D01*
X127890476Y-69709914D02*
X127852380Y-69557533D01*
X127852380Y-69557533D02*
X127852380Y-69367057D01*
X127852380Y-69367057D02*
X127890476Y-69214676D01*
X127890476Y-69214676D02*
X127928571Y-69138485D01*
X127928571Y-69138485D02*
X127966666Y-69100390D01*
X127966666Y-69100390D02*
X128042857Y-69062295D01*
X110886104Y-62833332D02*
X110924200Y-62871428D01*
X110924200Y-62871428D02*
X110962295Y-62985713D01*
X110962295Y-62985713D02*
X110962295Y-63061904D01*
X110962295Y-63061904D02*
X110924200Y-63176190D01*
X110924200Y-63176190D02*
X110848009Y-63252380D01*
X110848009Y-63252380D02*
X110771819Y-63290475D01*
X110771819Y-63290475D02*
X110619438Y-63328571D01*
X110619438Y-63328571D02*
X110505152Y-63328571D01*
X110505152Y-63328571D02*
X110352771Y-63290475D01*
X110352771Y-63290475D02*
X110276580Y-63252380D01*
X110276580Y-63252380D02*
X110200390Y-63176190D01*
X110200390Y-63176190D02*
X110162295Y-63061904D01*
X110162295Y-63061904D02*
X110162295Y-62985713D01*
X110162295Y-62985713D02*
X110200390Y-62871428D01*
X110200390Y-62871428D02*
X110238485Y-62833332D01*
X110505152Y-62376190D02*
X110467057Y-62452380D01*
X110467057Y-62452380D02*
X110428961Y-62490475D01*
X110428961Y-62490475D02*
X110352771Y-62528571D01*
X110352771Y-62528571D02*
X110314676Y-62528571D01*
X110314676Y-62528571D02*
X110238485Y-62490475D01*
X110238485Y-62490475D02*
X110200390Y-62452380D01*
X110200390Y-62452380D02*
X110162295Y-62376190D01*
X110162295Y-62376190D02*
X110162295Y-62223809D01*
X110162295Y-62223809D02*
X110200390Y-62147618D01*
X110200390Y-62147618D02*
X110238485Y-62109523D01*
X110238485Y-62109523D02*
X110314676Y-62071428D01*
X110314676Y-62071428D02*
X110352771Y-62071428D01*
X110352771Y-62071428D02*
X110428961Y-62109523D01*
X110428961Y-62109523D02*
X110467057Y-62147618D01*
X110467057Y-62147618D02*
X110505152Y-62223809D01*
X110505152Y-62223809D02*
X110505152Y-62376190D01*
X110505152Y-62376190D02*
X110543247Y-62452380D01*
X110543247Y-62452380D02*
X110581342Y-62490475D01*
X110581342Y-62490475D02*
X110657533Y-62528571D01*
X110657533Y-62528571D02*
X110809914Y-62528571D01*
X110809914Y-62528571D02*
X110886104Y-62490475D01*
X110886104Y-62490475D02*
X110924200Y-62452380D01*
X110924200Y-62452380D02*
X110962295Y-62376190D01*
X110962295Y-62376190D02*
X110962295Y-62223809D01*
X110962295Y-62223809D02*
X110924200Y-62147618D01*
X110924200Y-62147618D02*
X110886104Y-62109523D01*
X110886104Y-62109523D02*
X110809914Y-62071428D01*
X110809914Y-62071428D02*
X110657533Y-62071428D01*
X110657533Y-62071428D02*
X110581342Y-62109523D01*
X110581342Y-62109523D02*
X110543247Y-62147618D01*
X110543247Y-62147618D02*
X110505152Y-62223809D01*
X101486104Y-74614285D02*
X101524200Y-74652381D01*
X101524200Y-74652381D02*
X101562295Y-74766666D01*
X101562295Y-74766666D02*
X101562295Y-74842857D01*
X101562295Y-74842857D02*
X101524200Y-74957143D01*
X101524200Y-74957143D02*
X101448009Y-75033333D01*
X101448009Y-75033333D02*
X101371819Y-75071428D01*
X101371819Y-75071428D02*
X101219438Y-75109524D01*
X101219438Y-75109524D02*
X101105152Y-75109524D01*
X101105152Y-75109524D02*
X100952771Y-75071428D01*
X100952771Y-75071428D02*
X100876580Y-75033333D01*
X100876580Y-75033333D02*
X100800390Y-74957143D01*
X100800390Y-74957143D02*
X100762295Y-74842857D01*
X100762295Y-74842857D02*
X100762295Y-74766666D01*
X100762295Y-74766666D02*
X100800390Y-74652381D01*
X100800390Y-74652381D02*
X100838485Y-74614285D01*
X101562295Y-73852381D02*
X101562295Y-74309524D01*
X101562295Y-74080952D02*
X100762295Y-74080952D01*
X100762295Y-74080952D02*
X100876580Y-74157143D01*
X100876580Y-74157143D02*
X100952771Y-74233333D01*
X100952771Y-74233333D02*
X100990866Y-74309524D01*
X100762295Y-73166666D02*
X100762295Y-73319047D01*
X100762295Y-73319047D02*
X100800390Y-73395238D01*
X100800390Y-73395238D02*
X100838485Y-73433333D01*
X100838485Y-73433333D02*
X100952771Y-73509523D01*
X100952771Y-73509523D02*
X101105152Y-73547619D01*
X101105152Y-73547619D02*
X101409914Y-73547619D01*
X101409914Y-73547619D02*
X101486104Y-73509523D01*
X101486104Y-73509523D02*
X101524200Y-73471428D01*
X101524200Y-73471428D02*
X101562295Y-73395238D01*
X101562295Y-73395238D02*
X101562295Y-73242857D01*
X101562295Y-73242857D02*
X101524200Y-73166666D01*
X101524200Y-73166666D02*
X101486104Y-73128571D01*
X101486104Y-73128571D02*
X101409914Y-73090476D01*
X101409914Y-73090476D02*
X101219438Y-73090476D01*
X101219438Y-73090476D02*
X101143247Y-73128571D01*
X101143247Y-73128571D02*
X101105152Y-73166666D01*
X101105152Y-73166666D02*
X101067057Y-73242857D01*
X101067057Y-73242857D02*
X101067057Y-73395238D01*
X101067057Y-73395238D02*
X101105152Y-73471428D01*
X101105152Y-73471428D02*
X101143247Y-73509523D01*
X101143247Y-73509523D02*
X101219438Y-73547619D01*
X123490476Y-65062295D02*
X123490476Y-65709914D01*
X123490476Y-65709914D02*
X123528571Y-65786104D01*
X123528571Y-65786104D02*
X123566666Y-65824200D01*
X123566666Y-65824200D02*
X123642857Y-65862295D01*
X123642857Y-65862295D02*
X123795238Y-65862295D01*
X123795238Y-65862295D02*
X123871428Y-65824200D01*
X123871428Y-65824200D02*
X123909523Y-65786104D01*
X123909523Y-65786104D02*
X123947619Y-65709914D01*
X123947619Y-65709914D02*
X123947619Y-65062295D01*
X124252380Y-65062295D02*
X124785714Y-65062295D01*
X124785714Y-65062295D02*
X124442856Y-65862295D01*
X128586104Y-64314285D02*
X128624200Y-64352381D01*
X128624200Y-64352381D02*
X128662295Y-64466666D01*
X128662295Y-64466666D02*
X128662295Y-64542857D01*
X128662295Y-64542857D02*
X128624200Y-64657143D01*
X128624200Y-64657143D02*
X128548009Y-64733333D01*
X128548009Y-64733333D02*
X128471819Y-64771428D01*
X128471819Y-64771428D02*
X128319438Y-64809524D01*
X128319438Y-64809524D02*
X128205152Y-64809524D01*
X128205152Y-64809524D02*
X128052771Y-64771428D01*
X128052771Y-64771428D02*
X127976580Y-64733333D01*
X127976580Y-64733333D02*
X127900390Y-64657143D01*
X127900390Y-64657143D02*
X127862295Y-64542857D01*
X127862295Y-64542857D02*
X127862295Y-64466666D01*
X127862295Y-64466666D02*
X127900390Y-64352381D01*
X127900390Y-64352381D02*
X127938485Y-64314285D01*
X127938485Y-64009524D02*
X127900390Y-63971428D01*
X127900390Y-63971428D02*
X127862295Y-63895238D01*
X127862295Y-63895238D02*
X127862295Y-63704762D01*
X127862295Y-63704762D02*
X127900390Y-63628571D01*
X127900390Y-63628571D02*
X127938485Y-63590476D01*
X127938485Y-63590476D02*
X128014676Y-63552381D01*
X128014676Y-63552381D02*
X128090866Y-63552381D01*
X128090866Y-63552381D02*
X128205152Y-63590476D01*
X128205152Y-63590476D02*
X128662295Y-64047619D01*
X128662295Y-64047619D02*
X128662295Y-63552381D01*
X127862295Y-62828571D02*
X127862295Y-63209523D01*
X127862295Y-63209523D02*
X128243247Y-63247619D01*
X128243247Y-63247619D02*
X128205152Y-63209523D01*
X128205152Y-63209523D02*
X128167057Y-63133333D01*
X128167057Y-63133333D02*
X128167057Y-62942857D01*
X128167057Y-62942857D02*
X128205152Y-62866666D01*
X128205152Y-62866666D02*
X128243247Y-62828571D01*
X128243247Y-62828571D02*
X128319438Y-62790476D01*
X128319438Y-62790476D02*
X128509914Y-62790476D01*
X128509914Y-62790476D02*
X128586104Y-62828571D01*
X128586104Y-62828571D02*
X128624200Y-62866666D01*
X128624200Y-62866666D02*
X128662295Y-62942857D01*
X128662295Y-62942857D02*
X128662295Y-63133333D01*
X128662295Y-63133333D02*
X128624200Y-63209523D01*
X128624200Y-63209523D02*
X128586104Y-63247619D01*
X84185714Y-71429794D02*
X83919047Y-71048841D01*
X83728571Y-71429794D02*
X83728571Y-70629794D01*
X83728571Y-70629794D02*
X84033333Y-70629794D01*
X84033333Y-70629794D02*
X84109523Y-70667889D01*
X84109523Y-70667889D02*
X84147618Y-70705984D01*
X84147618Y-70705984D02*
X84185714Y-70782175D01*
X84185714Y-70782175D02*
X84185714Y-70896460D01*
X84185714Y-70896460D02*
X84147618Y-70972651D01*
X84147618Y-70972651D02*
X84109523Y-71010746D01*
X84109523Y-71010746D02*
X84033333Y-71048841D01*
X84033333Y-71048841D02*
X83728571Y-71048841D01*
X84947618Y-71429794D02*
X84490475Y-71429794D01*
X84719047Y-71429794D02*
X84719047Y-70629794D01*
X84719047Y-70629794D02*
X84642856Y-70744079D01*
X84642856Y-70744079D02*
X84566666Y-70820270D01*
X84566666Y-70820270D02*
X84490475Y-70858365D01*
X85633333Y-70896460D02*
X85633333Y-71429794D01*
X85442857Y-70591699D02*
X85252380Y-71163127D01*
X85252380Y-71163127D02*
X85747619Y-71163127D01*
X123705714Y-72262295D02*
X123439047Y-71881342D01*
X123248571Y-72262295D02*
X123248571Y-71462295D01*
X123248571Y-71462295D02*
X123553333Y-71462295D01*
X123553333Y-71462295D02*
X123629523Y-71500390D01*
X123629523Y-71500390D02*
X123667618Y-71538485D01*
X123667618Y-71538485D02*
X123705714Y-71614676D01*
X123705714Y-71614676D02*
X123705714Y-71728961D01*
X123705714Y-71728961D02*
X123667618Y-71805152D01*
X123667618Y-71805152D02*
X123629523Y-71843247D01*
X123629523Y-71843247D02*
X123553333Y-71881342D01*
X123553333Y-71881342D02*
X123248571Y-71881342D01*
X124467618Y-72262295D02*
X124010475Y-72262295D01*
X124239047Y-72262295D02*
X124239047Y-71462295D01*
X124239047Y-71462295D02*
X124162856Y-71576580D01*
X124162856Y-71576580D02*
X124086666Y-71652771D01*
X124086666Y-71652771D02*
X124010475Y-71690866D01*
X125229523Y-72262295D02*
X124772380Y-72262295D01*
X125000952Y-72262295D02*
X125000952Y-71462295D01*
X125000952Y-71462295D02*
X124924761Y-71576580D01*
X124924761Y-71576580D02*
X124848571Y-71652771D01*
X124848571Y-71652771D02*
X124772380Y-71690866D01*
D12*
X131670000Y-71770000D02*
X131670000Y-73100000D01*
X130340000Y-71770000D02*
X131670000Y-71770000D01*
X129070000Y-71770000D02*
X126470000Y-71770000D01*
X129070000Y-71770000D02*
X129070000Y-74430000D01*
X126470000Y-71770000D02*
X126470000Y-74430000D01*
X129070000Y-74430000D02*
X126470000Y-74430000D01*
X90800000Y-71939999D02*
X90000000Y-71940000D01*
X90800000Y-71939999D02*
X91600000Y-71940000D01*
X90800000Y-75060001D02*
X90000000Y-75060000D01*
X90800000Y-75060001D02*
X91600000Y-75060000D01*
X89500000Y-71990000D02*
X89260000Y-71660000D01*
X89740000Y-71660000D01*
X89500000Y-71990000D01*
G36*
X89500000Y-71990000D02*
G01*
X89260000Y-71660000D01*
X89740000Y-71660000D01*
X89500000Y-71990000D01*
G37*
X132785000Y-65193641D02*
X132785000Y-64886359D01*
X133545000Y-65193641D02*
X133545000Y-64886359D01*
X119040000Y-56340000D02*
X119040000Y-56590000D01*
X119040000Y-64860000D02*
X119040000Y-64610000D01*
X127560000Y-56340000D02*
X119040000Y-56340000D01*
X127560000Y-56340000D02*
X127560000Y-56590000D01*
X127560000Y-64860000D02*
X119040000Y-64860000D01*
X127560000Y-64860000D02*
X127560000Y-64610000D01*
D13*
G36*
X137116229Y-76917671D02*
G01*
X137121313Y-77127403D01*
X137124374Y-77319067D01*
X137125401Y-77483916D01*
X137124380Y-77613203D01*
X137121299Y-77698181D01*
X137117372Y-77728310D01*
X137107358Y-77743897D01*
X137086284Y-77756076D01*
X137047448Y-77765261D01*
X136984147Y-77771867D01*
X136889679Y-77776312D01*
X136757341Y-77779010D01*
X136580431Y-77780378D01*
X136352247Y-77780831D01*
X136270406Y-77780851D01*
X135443691Y-77780851D01*
X135462980Y-77596305D01*
X135468915Y-77509018D01*
X135474110Y-77374302D01*
X135478265Y-77204770D01*
X135481079Y-77013038D01*
X135482253Y-76811722D01*
X135482269Y-76785667D01*
X135482269Y-76609929D01*
X136022695Y-76609929D01*
X136022695Y-76965209D01*
X136024296Y-77105658D01*
X136028651Y-77223443D01*
X136035091Y-77305988D01*
X136042710Y-77340504D01*
X136080089Y-77349704D01*
X136162061Y-77356674D01*
X136273182Y-77360269D01*
X136312923Y-77360520D01*
X136563120Y-77360520D01*
X136563120Y-76985224D01*
X136563120Y-76609929D01*
X136292907Y-76609929D01*
X136022695Y-76609929D01*
X135482269Y-76609929D01*
X135482269Y-76159574D01*
X136288552Y-76159574D01*
X137094835Y-76159574D01*
X137116229Y-76917671D01*
G37*
G36*
X138492745Y-76159750D02*
G01*
X138635040Y-76163108D01*
X138737123Y-76171434D01*
X138805600Y-76186820D01*
X138847078Y-76211358D01*
X138868164Y-76247140D01*
X138875465Y-76296256D01*
X138875588Y-76360800D01*
X138874941Y-76417231D01*
X138874941Y-76579905D01*
X138364539Y-76579905D01*
X138178200Y-76580310D01*
X138043572Y-76582127D01*
X137952320Y-76586259D01*
X137896108Y-76593612D01*
X137866603Y-76605088D01*
X137855470Y-76621591D01*
X137854137Y-76635254D01*
X137858476Y-76655841D01*
X137877080Y-76671240D01*
X137918328Y-76682696D01*
X137990602Y-76691453D01*
X138102280Y-76698754D01*
X138261744Y-76705842D01*
X138353597Y-76709379D01*
X138519952Y-76716120D01*
X138663908Y-76722880D01*
X138775382Y-76729111D01*
X138844294Y-76734264D01*
X138861934Y-76737033D01*
X138865361Y-76768445D01*
X138869326Y-76849995D01*
X138873481Y-76971780D01*
X138877480Y-77123898D01*
X138880382Y-77263420D01*
X138889952Y-77780929D01*
X138086820Y-77780890D01*
X137283688Y-77780851D01*
X137283688Y-77555674D01*
X137283688Y-77330496D01*
X137794090Y-77330496D01*
X138304491Y-77330496D01*
X138304491Y-77255437D01*
X138304491Y-77180378D01*
X137794090Y-77180378D01*
X137283688Y-77180378D01*
X137283688Y-76669976D01*
X137283688Y-76159574D01*
X138061090Y-76159574D01*
X138303631Y-76159270D01*
X138492745Y-76159750D01*
G37*
G36*
X131989171Y-75625451D02*
G01*
X132158734Y-75715375D01*
X132292305Y-75850190D01*
X132387241Y-76026542D01*
X132440899Y-76241074D01*
X132452429Y-76429560D01*
X132429604Y-76759060D01*
X132368910Y-77061900D01*
X132272699Y-77331694D01*
X132143320Y-77562051D01*
X131983124Y-77746583D01*
X131960486Y-77766592D01*
X131842002Y-77845989D01*
X131738623Y-77867765D01*
X131649044Y-77832059D01*
X131618279Y-77803369D01*
X131560331Y-77715448D01*
X131497200Y-77578231D01*
X131431579Y-77401949D01*
X131366165Y-77196833D01*
X131303650Y-76973115D01*
X131246731Y-76741026D01*
X131198102Y-76510798D01*
X131160457Y-76292662D01*
X131152393Y-76226771D01*
X131404357Y-76226771D01*
X131407515Y-76354728D01*
X131427873Y-76534975D01*
X131469282Y-76717689D01*
X131536018Y-76917475D01*
X131632356Y-77148938D01*
X131654059Y-77197045D01*
X131757716Y-77424504D01*
X131843875Y-77324959D01*
X131912830Y-77235394D01*
X131983810Y-77128521D01*
X132006431Y-77090307D01*
X132108968Y-76874158D01*
X132163288Y-76665871D01*
X132174238Y-76445197D01*
X132171764Y-76399445D01*
X132145309Y-76208083D01*
X132093071Y-76068932D01*
X132010761Y-75978133D01*
X131894090Y-75931828D01*
X131738769Y-75926158D01*
X131656192Y-75935676D01*
X131540790Y-75964687D01*
X131463936Y-76016831D01*
X131420251Y-76101172D01*
X131404357Y-76226771D01*
X131152393Y-76226771D01*
X131136492Y-76096851D01*
X131128841Y-75945035D01*
X131131307Y-75843933D01*
X131143883Y-75783433D01*
X131174337Y-75744131D01*
X131222324Y-75711534D01*
X131307701Y-75674148D01*
X131430053Y-75637519D01*
X131566468Y-75606836D01*
X131694038Y-75587292D01*
X131786257Y-75583774D01*
X131989171Y-75625451D01*
G37*
G36*
X139360985Y-75540838D02*
G01*
X139621853Y-75785010D01*
X139360985Y-76023663D01*
X139100118Y-76262316D01*
X139085106Y-76143392D01*
X139070094Y-76024468D01*
X137204683Y-76016736D01*
X135339273Y-76009004D01*
X135321110Y-76076783D01*
X135316291Y-76123979D01*
X135311922Y-76222653D01*
X135308183Y-76364238D01*
X135305254Y-76540167D01*
X135303312Y-76741872D01*
X135302539Y-76960784D01*
X135302537Y-76963631D01*
X135302127Y-77782699D01*
X134934338Y-77774269D01*
X134566548Y-77765839D01*
X134296626Y-77240425D01*
X134026705Y-76715012D01*
X134007154Y-76895153D01*
X133998808Y-77000902D01*
X133991578Y-77145476D01*
X133986374Y-77307653D01*
X133984346Y-77428073D01*
X133981087Y-77780851D01*
X133617252Y-77780851D01*
X133253418Y-77780851D01*
X133271412Y-77533156D01*
X133276803Y-77437715D01*
X133282981Y-77292735D01*
X133289597Y-77108713D01*
X133296299Y-76896146D01*
X133302737Y-76665532D01*
X133308561Y-76427367D01*
X133309013Y-76407269D01*
X133328619Y-75529078D01*
X133677371Y-75529538D01*
X133818048Y-75531530D01*
X133937527Y-75536597D01*
X134022497Y-75543953D01*
X134058737Y-75552055D01*
X134083617Y-75584871D01*
X134131109Y-75661136D01*
X134195578Y-75771311D01*
X134271390Y-75905858D01*
X134320046Y-75994444D01*
X134425838Y-76189403D01*
X134505371Y-76332958D01*
X134562386Y-76425724D01*
X134600623Y-76468313D01*
X134623825Y-76461339D01*
X134635733Y-76405414D01*
X134640086Y-76301152D01*
X134640627Y-76149166D01*
X134640652Y-76046986D01*
X134641607Y-75559101D01*
X136795803Y-75558692D01*
X137151576Y-75558382D01*
X137490825Y-75557619D01*
X137808607Y-75556443D01*
X138099983Y-75554894D01*
X138360011Y-75553011D01*
X138583750Y-75550837D01*
X138766259Y-75548410D01*
X138902597Y-75545771D01*
X138987823Y-75542960D01*
X139015978Y-75540590D01*
X139063650Y-75512057D01*
X139086557Y-75448845D01*
X139091037Y-75409782D01*
X139100118Y-75296666D01*
X139360985Y-75540838D01*
G37*
G36*
X126655652Y-75483478D02*
G01*
X126670546Y-75488279D01*
X126705632Y-75529115D01*
X126746541Y-75622994D01*
X126791610Y-75763382D01*
X126839180Y-75943745D01*
X126887590Y-76157546D01*
X126935180Y-76398251D01*
X126980288Y-76659325D01*
X126999537Y-76783057D01*
X127030211Y-77015002D01*
X127044102Y-77194280D01*
X127041145Y-77325894D01*
X127021274Y-77414850D01*
X126990721Y-77460949D01*
X126927742Y-77499191D01*
X126850661Y-77508482D01*
X126754933Y-77486625D01*
X126636016Y-77431420D01*
X126489363Y-77340669D01*
X126310431Y-77212176D01*
X126094677Y-77043741D01*
X126044391Y-77003191D01*
X125879380Y-76870591D01*
X125754010Y-76773039D01*
X125662117Y-76706751D01*
X125597541Y-76667946D01*
X125554118Y-76652839D01*
X125525687Y-76657648D01*
X125508833Y-76674382D01*
X125499900Y-76718676D01*
X125494775Y-76814777D01*
X125493583Y-76954561D01*
X125496449Y-77129900D01*
X125500088Y-77246591D01*
X125505285Y-77423119D01*
X125507734Y-77582013D01*
X125507442Y-77712211D01*
X125504413Y-77802649D01*
X125499834Y-77839558D01*
X125463033Y-77892588D01*
X125408652Y-77890590D01*
X125356934Y-77848404D01*
X125301698Y-77765581D01*
X125252528Y-77645228D01*
X125207194Y-77480333D01*
X125163465Y-77263884D01*
X125154282Y-77211253D01*
X125118277Y-76975187D01*
X125100036Y-76786797D01*
X125099538Y-76636406D01*
X125116761Y-76514340D01*
X125151686Y-76410921D01*
X125152529Y-76409055D01*
X125211991Y-76318283D01*
X125291981Y-76267233D01*
X125395175Y-76256819D01*
X125524247Y-76287953D01*
X125681873Y-76361548D01*
X125870728Y-76478518D01*
X126093486Y-76639774D01*
X126295035Y-76798949D01*
X126448596Y-76920324D01*
X126562922Y-77002475D01*
X126641987Y-77047872D01*
X126689767Y-77058990D01*
X126702987Y-77052647D01*
X126705978Y-77018099D01*
X126702203Y-76935266D01*
X126692472Y-76815431D01*
X126677596Y-76669874D01*
X126671907Y-76619933D01*
X126637728Y-76321247D01*
X126611657Y-76077140D01*
X126593686Y-75882693D01*
X126583810Y-75732989D01*
X126582024Y-75623110D01*
X126588321Y-75548137D01*
X126602695Y-75503153D01*
X126625141Y-75483239D01*
X126655652Y-75483478D01*
G37*
G36*
X127702336Y-75422374D02*
G01*
X127882484Y-75436814D01*
X128072010Y-75456475D01*
X128254654Y-75479621D01*
X128414153Y-75504518D01*
X128534247Y-75529429D01*
X128557567Y-75535861D01*
X128654028Y-75582544D01*
X128709150Y-75646466D01*
X128716171Y-75716650D01*
X128694168Y-75757579D01*
X128673510Y-75775696D01*
X128640668Y-75788099D01*
X128586740Y-75795255D01*
X128502819Y-75797629D01*
X128380002Y-75795686D01*
X128209384Y-75789893D01*
X128133318Y-75786905D01*
X127614079Y-75766094D01*
X127622583Y-76105447D01*
X127631087Y-76444799D01*
X127973154Y-76480467D01*
X128174711Y-76504625D01*
X128321290Y-76530505D01*
X128417962Y-76560399D01*
X128469792Y-76596597D01*
X128481850Y-76641390D01*
X128459203Y-76697069D01*
X128457697Y-76699474D01*
X128428329Y-76720999D01*
X128365920Y-76736518D01*
X128261615Y-76747405D01*
X128106561Y-76755035D01*
X128097873Y-76755337D01*
X127958505Y-76758925D01*
X127862870Y-76764883D01*
X127803970Y-76782794D01*
X127774807Y-76822243D01*
X127768380Y-76892814D01*
X127777691Y-77004092D01*
X127795740Y-77165661D01*
X127796054Y-77168636D01*
X127813898Y-77324621D01*
X127830737Y-77430229D01*
X127849806Y-77494980D01*
X127874346Y-77528395D01*
X127907592Y-77539993D01*
X127922580Y-77540662D01*
X127971665Y-77528461D01*
X128062348Y-77495155D01*
X128182125Y-77445688D01*
X128318490Y-77385006D01*
X128332193Y-77378681D01*
X128517537Y-77294785D01*
X128656102Y-77237053D01*
X128754145Y-77203489D01*
X128817921Y-77192093D01*
X128853684Y-77200868D01*
X128861548Y-77209580D01*
X128862356Y-77264517D01*
X128818467Y-77341017D01*
X128738296Y-77432626D01*
X128630258Y-77532890D01*
X128502768Y-77635356D01*
X128364239Y-77733570D01*
X128223086Y-77821079D01*
X128087725Y-77891429D01*
X127966569Y-77938166D01*
X127891284Y-77953728D01*
X127793810Y-77956629D01*
X127733258Y-77938611D01*
X127702094Y-77911554D01*
X127629027Y-77808608D01*
X127562791Y-77671508D01*
X127502385Y-77496147D01*
X127446802Y-77278423D01*
X127395041Y-77014231D01*
X127346096Y-76699467D01*
X127298966Y-76330025D01*
X127284661Y-76204610D01*
X127262231Y-76047899D01*
X127231020Y-75887107D01*
X127196470Y-75748911D01*
X127182992Y-75706104D01*
X127114744Y-75507834D01*
X127177045Y-75468926D01*
X127239124Y-75446410D01*
X127338086Y-75426889D01*
X127435217Y-75416095D01*
X127547826Y-75414889D01*
X127702336Y-75422374D01*
G37*
G36*
X129599129Y-75396984D02*
G01*
X129708998Y-75410839D01*
X129932711Y-75455160D01*
X130110047Y-75519929D01*
X130236590Y-75603206D01*
X130289197Y-75665831D01*
X130325937Y-75733747D01*
X130343505Y-75796427D01*
X130338282Y-75861281D01*
X130306648Y-75935717D01*
X130244981Y-76027145D01*
X130149663Y-76142974D01*
X130017072Y-76290613D01*
X129946691Y-76366807D01*
X129843759Y-76478953D01*
X129758214Y-76574540D01*
X129697091Y-76645518D01*
X129667423Y-76683837D01*
X129665849Y-76688150D01*
X129694458Y-76703831D01*
X129767685Y-76741335D01*
X129876267Y-76795988D01*
X130010936Y-76863117D01*
X130106461Y-76910429D01*
X130332667Y-77025577D01*
X130533768Y-77134607D01*
X130703828Y-77233890D01*
X130836909Y-77319795D01*
X130927073Y-77388692D01*
X130968385Y-77436951D01*
X130968642Y-77437602D01*
X130972803Y-77498993D01*
X130927075Y-77529277D01*
X130832801Y-77528668D01*
X130691325Y-77497379D01*
X130503992Y-77435623D01*
X130272144Y-77343613D01*
X130211131Y-77317530D01*
X130008376Y-77232182D01*
X129853163Y-77172800D01*
X129739670Y-77137813D01*
X129662078Y-77125647D01*
X129614568Y-77134731D01*
X129596869Y-77151595D01*
X129593951Y-77200265D01*
X129612498Y-77289217D01*
X129645192Y-77391869D01*
X129699897Y-77576008D01*
X129715122Y-77716705D01*
X129690933Y-77815701D01*
X129662825Y-77851257D01*
X129615472Y-77889746D01*
X129579683Y-77893705D01*
X129533050Y-77860401D01*
X129501546Y-77831591D01*
X129405994Y-77713646D01*
X129314167Y-77544985D01*
X129228658Y-77334929D01*
X129152059Y-77092797D01*
X129086961Y-76827912D01*
X129035957Y-76549592D01*
X129001640Y-76267159D01*
X128986600Y-75989934D01*
X128986441Y-75979432D01*
X128988733Y-75850430D01*
X129265813Y-75850430D01*
X129273572Y-75981239D01*
X129276379Y-76027969D01*
X129291443Y-76211324D01*
X129315506Y-76339141D01*
X129352984Y-76415753D01*
X129408294Y-76445492D01*
X129485852Y-76432693D01*
X129590076Y-76381689D01*
X129619285Y-76364405D01*
X129727159Y-76283666D01*
X129826160Y-76182595D01*
X129904557Y-76076066D01*
X129950619Y-75978956D01*
X129957919Y-75934989D01*
X129947017Y-75870029D01*
X129908571Y-75821914D01*
X129833973Y-75786110D01*
X129714616Y-75758077D01*
X129585685Y-75738789D01*
X129441343Y-75719225D01*
X129346948Y-75711478D01*
X129292737Y-75724678D01*
X129268946Y-75767953D01*
X129265813Y-75850430D01*
X128988733Y-75850430D01*
X128990098Y-75773605D01*
X129011475Y-75616706D01*
X129056714Y-75503903D01*
X129131957Y-75430363D01*
X129243346Y-75391251D01*
X129397023Y-75381736D01*
X129599129Y-75396984D01*
G37*
G36*
X140026708Y-75206324D02*
G01*
X140037614Y-75252583D01*
X140047785Y-75350674D01*
X140057139Y-75493479D01*
X140065598Y-75673880D01*
X140073079Y-75884758D01*
X140079503Y-76118996D01*
X140084789Y-76369474D01*
X140088856Y-76629076D01*
X140091625Y-76890682D01*
X140093014Y-77147175D01*
X140092944Y-77391437D01*
X140091333Y-77616349D01*
X140088101Y-77814793D01*
X140083167Y-77979652D01*
X140076452Y-78103806D01*
X140067875Y-78180139D01*
X140060580Y-78201427D01*
X140047871Y-78209909D01*
X140029150Y-78217539D01*
X140001251Y-78224375D01*
X139961006Y-78230478D01*
X139905247Y-78235907D01*
X139830807Y-78240723D01*
X139734518Y-78244983D01*
X139613214Y-78248750D01*
X139463726Y-78252081D01*
X139282888Y-78255037D01*
X139067531Y-78257678D01*
X138814489Y-78260063D01*
X138520595Y-78262253D01*
X138182679Y-78264306D01*
X137797577Y-78266283D01*
X137362119Y-78268243D01*
X136873139Y-78270246D01*
X136327468Y-78272352D01*
X136292907Y-78272483D01*
X135691038Y-78274469D01*
X135147767Y-78275657D01*
X134663249Y-78276047D01*
X134237638Y-78275641D01*
X133871088Y-78274440D01*
X133563753Y-78272444D01*
X133315786Y-78269653D01*
X133127342Y-78266070D01*
X132998575Y-78261694D01*
X132929638Y-78256526D01*
X132919259Y-78254390D01*
X132833198Y-78223871D01*
X132836669Y-77811768D01*
X132939485Y-77811768D01*
X132940772Y-77927879D01*
X132944569Y-78010127D01*
X132950897Y-78063739D01*
X132959779Y-78093941D01*
X132963989Y-78100564D01*
X132974463Y-78107722D01*
X132995453Y-78114078D01*
X133030151Y-78119667D01*
X133081752Y-78124521D01*
X133153451Y-78128673D01*
X133248441Y-78132157D01*
X133369917Y-78135003D01*
X133521072Y-78137247D01*
X133705101Y-78138921D01*
X133925198Y-78140057D01*
X134184557Y-78140689D01*
X134486372Y-78140850D01*
X134833837Y-78140572D01*
X135230147Y-78139888D01*
X135678495Y-78138832D01*
X136182076Y-78137437D01*
X136459579Y-78136610D01*
X136996710Y-78134899D01*
X137476915Y-78133173D01*
X137903318Y-78131382D01*
X138279041Y-78129480D01*
X138607205Y-78127418D01*
X138890933Y-78125148D01*
X139133347Y-78122622D01*
X139337570Y-78119791D01*
X139506723Y-78116608D01*
X139643929Y-78113024D01*
X139752310Y-78108992D01*
X139834989Y-78104463D01*
X139895087Y-78099389D01*
X139935727Y-78093722D01*
X139960032Y-78087414D01*
X139969063Y-78082536D01*
X140002651Y-78037841D01*
X140008574Y-77970342D01*
X140001905Y-77917406D01*
X139997049Y-77861426D01*
X139991422Y-77752500D01*
X139985255Y-77597723D01*
X139978778Y-77404188D01*
X139972222Y-77178990D01*
X139965817Y-76929221D01*
X139959794Y-76661976D01*
X139957607Y-76554990D01*
X139951657Y-76287311D01*
X139944888Y-76038135D01*
X139937569Y-75813901D01*
X139929963Y-75621047D01*
X139922337Y-75466012D01*
X139914957Y-75355234D01*
X139908089Y-75295153D01*
X139905228Y-75286363D01*
X139871301Y-75282241D01*
X139779818Y-75278523D01*
X139633266Y-75275223D01*
X139434136Y-75272355D01*
X139184916Y-75269934D01*
X138888094Y-75267974D01*
X138546161Y-75266489D01*
X138161604Y-75265495D01*
X137736914Y-75265005D01*
X137274579Y-75265034D01*
X136777088Y-75265596D01*
X136441397Y-75266243D01*
X133005319Y-75273877D01*
X132998968Y-75514066D01*
X132996635Y-75599101D01*
X132992781Y-75735731D01*
X132987648Y-75915529D01*
X132981479Y-76130069D01*
X132974516Y-76370924D01*
X132967001Y-76629668D01*
X132959177Y-76897873D01*
X132958994Y-76904143D01*
X132950462Y-77207981D01*
X132944351Y-77457046D01*
X132940685Y-77656566D01*
X132939485Y-77811768D01*
X132836669Y-77811768D01*
X132845620Y-76748874D01*
X132849103Y-76385021D01*
X132853004Y-76077588D01*
X132857440Y-75822949D01*
X132862527Y-75617478D01*
X132868383Y-75457549D01*
X132875124Y-75339536D01*
X132882866Y-75259812D01*
X132891726Y-75214751D01*
X132895207Y-75206324D01*
X132932372Y-75138771D01*
X136458402Y-75138771D01*
X139984431Y-75138771D01*
X140026708Y-75206324D01*
G37*
D12*
X99840000Y-60607836D02*
X99840000Y-60392164D01*
X100560000Y-60607836D02*
X100560000Y-60392164D01*
X108740000Y-60192164D02*
X108740000Y-60407836D01*
X109460000Y-60192164D02*
X109460000Y-60407836D01*
X120865000Y-66488748D02*
X120865000Y-67011252D01*
X122335000Y-66488748D02*
X122335000Y-67011252D01*
X85307836Y-54390400D02*
X85092164Y-54390400D01*
X85307836Y-55110400D02*
X85092164Y-55110400D01*
X83440000Y-67467499D02*
X83440000Y-66817499D01*
X83440000Y-67467499D02*
X83440000Y-68117499D01*
X86560000Y-67467499D02*
X86560000Y-66817499D01*
X86560000Y-67467499D02*
X86560000Y-68117499D01*
X83490000Y-68629999D02*
X83160000Y-68869999D01*
X83160000Y-68389999D01*
X83490000Y-68629999D01*
G36*
X83490000Y-68629999D02*
G01*
X83160000Y-68869999D01*
X83160000Y-68389999D01*
X83490000Y-68629999D01*
G37*
X106240000Y-60192164D02*
X106240000Y-60407836D01*
X106960000Y-60192164D02*
X106960000Y-60407836D01*
X132785000Y-66786359D02*
X132785000Y-67093641D01*
X133545000Y-66786359D02*
X133545000Y-67093641D01*
X87840000Y-72992164D02*
X87840000Y-73207836D01*
X88560000Y-72992164D02*
X88560000Y-73207836D01*
X104620000Y-71846359D02*
X104620000Y-72153641D01*
X105380000Y-71846359D02*
X105380000Y-72153641D01*
X138490000Y-61520000D02*
X136790000Y-61520000D01*
X138490000Y-70860000D02*
X136790000Y-70860000D01*
X106240000Y-71972164D02*
X106240000Y-72187836D01*
X106960000Y-71972164D02*
X106960000Y-72187836D01*
X99740000Y-71892164D02*
X99740000Y-72107836D01*
X100460000Y-71892164D02*
X100460000Y-72107836D01*
X107440000Y-71972164D02*
X107440000Y-72187836D01*
X108160000Y-71972164D02*
X108160000Y-72187836D01*
X93253641Y-75820000D02*
X92946359Y-75820000D01*
X93253641Y-76580000D02*
X92946359Y-76580000D01*
X107440000Y-60192164D02*
X107440000Y-60407836D01*
X108160000Y-60192164D02*
X108160000Y-60407836D01*
X130465000Y-66438748D02*
X130465000Y-66961252D01*
X131935000Y-66438748D02*
X131935000Y-66961252D01*
D14*
X89991590Y-67325001D02*
G75*
G02*
X89678410Y-67325001I-156590J0D01*
G01*
X89678410Y-67325001D02*
G75*
G02*
X89991590Y-67325001I156590J0D01*
G01*
D12*
X93195000Y-66565000D02*
X89995000Y-66565000D01*
X89995000Y-64065000D01*
X93195000Y-64065000D01*
X93195000Y-66565000D01*
X128465000Y-66438748D02*
X128465000Y-66961252D01*
X129935000Y-66438748D02*
X129935000Y-66961252D01*
X118765000Y-66488748D02*
X118765000Y-67011252D01*
X120235000Y-66488748D02*
X120235000Y-67011252D01*
X92122836Y-67155000D02*
X91907164Y-67155000D01*
X92122836Y-67875000D02*
X91907164Y-67875000D01*
X115340000Y-65588748D02*
X115340000Y-67011252D01*
X118060000Y-65588748D02*
X118060000Y-67011252D01*
X93002500Y-69242165D02*
X93002500Y-69457837D01*
X93722500Y-69242165D02*
X93722500Y-69457837D01*
X85307836Y-59790400D02*
X85092164Y-59790400D01*
X85307836Y-60510400D02*
X85092164Y-60510400D01*
X118840000Y-76600000D02*
X118840000Y-78600000D01*
X118840000Y-76600000D02*
X122850000Y-76600000D01*
X118840000Y-78600000D02*
X122850000Y-78600000D01*
X100940000Y-60607836D02*
X100940000Y-60392164D01*
X101660000Y-60607836D02*
X101660000Y-60392164D01*
X85746359Y-64620000D02*
X86053641Y-64620000D01*
X85746359Y-65380000D02*
X86053641Y-65380000D01*
X125143641Y-68120000D02*
X124836359Y-68120000D01*
X125143641Y-68880000D02*
X124836359Y-68880000D01*
X100250000Y-70250000D02*
X100250000Y-62150000D01*
X108350000Y-62150000D02*
X108350000Y-70250000D01*
D15*
X108439000Y-61646000D02*
G75*
G02*
X108189000Y-61646000I-125000J0D01*
G01*
X108189000Y-61646000D02*
G75*
G02*
X108439000Y-61646000I125000J0D01*
G01*
D16*
X84268963Y-56366877D02*
X84268963Y-58483523D01*
X86631163Y-58483523D02*
X86631163Y-56366877D01*
D17*
X86908595Y-55465200D02*
G75*
G02*
X86611531Y-55465200I-148532J0D01*
G01*
X86611531Y-55465200D02*
G75*
G02*
X86908595Y-55465200I148532J0D01*
G01*
D12*
X87802500Y-69242165D02*
X87802500Y-69457837D01*
X88522500Y-69242165D02*
X88522500Y-69457837D01*
X93040000Y-73392164D02*
X93040000Y-73607836D01*
X93760000Y-73392164D02*
X93760000Y-73607836D01*
D10*
X91380000Y-56210000D02*
X94550000Y-56200000D01*
X91380000Y-63070000D02*
X94550000Y-63070000D01*
X94550000Y-76200000D02*
X94550000Y-56200000D01*
X114050000Y-56200000D02*
X94550000Y-56200000D01*
X114050000Y-76200000D02*
X94550000Y-76200000D01*
X114050000Y-76200000D02*
X114050000Y-56200000D01*
X117205000Y-69335000D02*
X114035000Y-69335000D01*
X117205000Y-76195000D02*
X114035000Y-76205000D01*
X91380000Y-63070000D02*
G75*
G02*
X91380000Y-56210000I0J3430000D01*
G01*
X117205000Y-69335000D02*
G75*
G02*
X117205000Y-76195000I0J-3430000D01*
G01*
D12*
X108740000Y-71972164D02*
X108740000Y-72187836D01*
X109460000Y-71972164D02*
X109460000Y-72187836D01*
X104320000Y-60246359D02*
X104320000Y-60553641D01*
X105080000Y-60246359D02*
X105080000Y-60553641D01*
X109140000Y-69692164D02*
X109140000Y-69907836D01*
X109860000Y-69692164D02*
X109860000Y-69907836D01*
X99320000Y-65946359D02*
X99320000Y-66253641D01*
X100080000Y-65946359D02*
X100080000Y-66253641D01*
X90762500Y-68190000D02*
X89962500Y-68190001D01*
X90762500Y-68190000D02*
X91562500Y-68190001D01*
X90762500Y-71310002D02*
X89962500Y-71310001D01*
X90762500Y-71310002D02*
X91562500Y-71310001D01*
X89462500Y-68240001D02*
X89222500Y-67910001D01*
X89702500Y-67910001D01*
X89462500Y-68240001D01*
G36*
X89462500Y-68240001D02*
G01*
X89222500Y-67910001D01*
X89702500Y-67910001D01*
X89462500Y-68240001D01*
G37*
X127153641Y-68020000D02*
X126846359Y-68020000D01*
X127153641Y-68780000D02*
X126846359Y-68780000D01*
X109140000Y-62592164D02*
X109140000Y-62807836D01*
X109860000Y-62592164D02*
X109860000Y-62807836D01*
X100840000Y-71892164D02*
X100840000Y-72107836D01*
X101560000Y-71892164D02*
X101560000Y-72107836D01*
X125200000Y-66950000D02*
X125200000Y-65650000D01*
X127000000Y-66950000D02*
X127000000Y-65850000D01*
X127280000Y-65600000D02*
X127000000Y-65600000D01*
X127000000Y-65320000D01*
X127280000Y-65600000D01*
G36*
X127280000Y-65600000D02*
G01*
X127000000Y-65600000D01*
X127000000Y-65320000D01*
X127280000Y-65600000D01*
G37*
X127340000Y-66192164D02*
X127340000Y-66407836D01*
X128060000Y-66192164D02*
X128060000Y-66407836D01*
X85253641Y-69587499D02*
X84946359Y-69587499D01*
X85253641Y-70347499D02*
X84946359Y-70347499D01*
X124036359Y-70500000D02*
X124343641Y-70500000D01*
X124036359Y-71260000D02*
X124343641Y-71260000D01*
%LPC*%
D18*
X101955000Y-66400000D02*
X100325000Y-66400000D01*
X100325000Y-69340000D01*
X101955000Y-69340000D01*
X101955000Y-66400000D01*
G36*
X101955000Y-66400000D02*
G01*
X100325000Y-66400000D01*
X100325000Y-69340000D01*
X101955000Y-69340000D01*
X101955000Y-66400000D01*
G37*
X101965000Y-63060000D02*
X100335000Y-63060000D01*
X100335000Y-66000000D01*
X101965000Y-66000000D01*
X101965000Y-63060000D01*
G36*
X101965000Y-63060000D02*
G01*
X100335000Y-63060000D01*
X100335000Y-66000000D01*
X101965000Y-66000000D01*
X101965000Y-63060000D01*
G37*
X103915000Y-63060000D02*
X102285000Y-63060000D01*
X102285000Y-66000000D01*
X103915000Y-66000000D01*
X103915000Y-63060000D01*
G36*
X103915000Y-63060000D02*
G01*
X102285000Y-63060000D01*
X102285000Y-66000000D01*
X103915000Y-66000000D01*
X103915000Y-63060000D01*
G37*
X103925000Y-66410000D02*
X102295000Y-66410000D01*
X102295000Y-69350000D01*
X103925000Y-69350000D01*
X103925000Y-66410000D01*
G36*
X103925000Y-66410000D02*
G01*
X102295000Y-66410000D01*
X102295000Y-69350000D01*
X103925000Y-69350000D01*
X103925000Y-66410000D01*
G37*
X105865000Y-66400000D02*
X104235000Y-66400000D01*
X104235000Y-69340000D01*
X105865000Y-69340000D01*
X105865000Y-66400000D01*
G36*
X105865000Y-66400000D02*
G01*
X104235000Y-66400000D01*
X104235000Y-69340000D01*
X105865000Y-69340000D01*
X105865000Y-66400000D01*
G37*
X105870000Y-63060000D02*
X104240000Y-63060000D01*
X104240000Y-66000000D01*
X105870000Y-66000000D01*
X105870000Y-63060000D01*
G36*
X105870000Y-63060000D02*
G01*
X104240000Y-63060000D01*
X104240000Y-66000000D01*
X105870000Y-66000000D01*
X105870000Y-63060000D01*
G37*
X108220000Y-63050000D02*
X106380000Y-63050000D01*
X106380000Y-65990000D01*
X108220000Y-65990000D01*
X108220000Y-63050000D01*
G36*
X108220000Y-63050000D02*
G01*
X106380000Y-63050000D01*
X106380000Y-65990000D01*
X108220000Y-65990000D01*
X108220000Y-63050000D01*
G37*
X108220000Y-66410000D02*
X106380000Y-66410000D01*
X106380000Y-69350000D01*
X108220000Y-69350000D01*
X108220000Y-66410000D01*
G36*
X108220000Y-66410000D02*
G01*
X106380000Y-66410000D01*
X106380000Y-69350000D01*
X108220000Y-69350000D01*
X108220000Y-66410000D01*
G37*
D19*
X130340000Y-73100000D03*
D20*
X127800000Y-73100000D03*
D21*
X89662500Y-72550001D03*
X89662500Y-73500000D03*
X89662500Y-74449999D03*
X91937500Y-74449999D03*
X91937500Y-72550001D03*
D22*
X133165000Y-65550000D03*
X133165000Y-64530000D03*
D23*
X126200000Y-60600000D03*
X120400000Y-60600000D03*
D24*
X100200000Y-60980000D03*
X100200000Y-60020000D03*
D25*
X109100000Y-59820000D03*
X109100000Y-60780000D03*
D26*
X121600000Y-65800000D03*
X121600000Y-67700000D03*
D27*
X85680000Y-54750400D03*
X84720000Y-54750400D03*
D28*
X84050000Y-68404999D03*
X85950000Y-68404999D03*
X85000000Y-66529999D03*
D25*
X106600000Y-59820000D03*
X106600000Y-60780000D03*
D29*
X133165000Y-66430000D03*
X133165000Y-67450000D03*
D25*
X88200000Y-72620000D03*
X88200000Y-73580000D03*
D29*
X105000000Y-71490001D03*
X105000000Y-72509999D03*
D30*
X135985000Y-69080000D03*
X135985000Y-63300000D03*
D31*
X134910000Y-69390000D03*
X134910000Y-68590000D03*
D32*
X134910000Y-67440000D03*
X134910000Y-66440000D03*
X134910000Y-65940000D03*
X134910000Y-64940000D03*
D31*
X134910000Y-62990000D03*
X134910000Y-63790000D03*
D32*
X134910000Y-64440000D03*
X134910000Y-65440000D03*
X134910000Y-66940000D03*
X134910000Y-67940000D03*
D33*
X135485000Y-70510000D03*
D34*
X139665000Y-70510000D03*
D33*
X135485000Y-61870000D03*
D34*
X139665000Y-61870000D03*
D25*
X106600000Y-71600000D03*
X106600000Y-72560000D03*
X100100000Y-71520000D03*
X100100000Y-72480000D03*
X107800000Y-71600000D03*
X107800000Y-72560000D03*
D35*
X93610000Y-76200000D03*
X92590000Y-76200000D03*
D25*
X107800000Y-59820000D03*
X107800000Y-60780000D03*
D26*
X131200000Y-65750000D03*
X131200000Y-67650000D03*
D36*
X90445000Y-66265000D03*
X92745000Y-66265000D03*
X92745000Y-64365000D03*
X90445000Y-64365000D03*
D26*
X129200000Y-65750000D03*
X129200000Y-67650000D03*
X119500000Y-65800000D03*
X119500000Y-67700000D03*
D27*
X92495000Y-67515000D03*
X91535000Y-67515000D03*
D37*
X116700000Y-64825000D03*
X116700000Y-67775000D03*
D25*
X93362500Y-68870001D03*
X93362500Y-69830001D03*
D38*
X139300000Y-55100000D03*
D27*
X85680000Y-60150400D03*
X84720000Y-60150400D03*
D39*
X119550000Y-77600000D03*
X122850000Y-77600000D03*
D24*
X101300000Y-60980000D03*
X101300000Y-60020000D03*
D40*
X85390000Y-65000000D03*
X86410000Y-65000000D03*
D35*
X125500000Y-68500000D03*
X124480000Y-68500000D03*
D41*
X107900000Y-62265400D03*
X107420000Y-62265400D03*
X106940000Y-62265400D03*
X106460000Y-62265400D03*
X105980000Y-62265400D03*
X105500000Y-62265400D03*
X105020000Y-62265400D03*
X104540000Y-62265400D03*
X104060000Y-62265400D03*
X103580000Y-62265400D03*
X103100000Y-62265400D03*
X102620000Y-62265400D03*
X102140000Y-62265400D03*
X101660000Y-62265400D03*
X101180000Y-62265400D03*
X100700000Y-62265400D03*
X100700000Y-70134600D03*
X101180000Y-70134600D03*
X101660000Y-70134600D03*
X102140000Y-70134600D03*
X102620000Y-70134600D03*
X103100000Y-70134600D03*
X103580000Y-70134600D03*
X104060000Y-70134600D03*
X104540000Y-70134600D03*
X105020000Y-70134600D03*
X105500000Y-70134600D03*
X105980000Y-70134600D03*
X106460000Y-70134600D03*
X106940000Y-70134600D03*
X107420000Y-70134600D03*
X107900000Y-70134600D03*
D42*
X86200252Y-55850400D03*
X85700126Y-55850400D03*
X85200000Y-55850400D03*
X84699874Y-55850400D03*
X84699874Y-59000000D03*
X85200000Y-59000000D03*
X85700126Y-59000000D03*
X86200252Y-59000000D03*
D25*
X88162500Y-68870001D03*
X88162500Y-69830001D03*
X93400000Y-73020000D03*
X93400000Y-73980000D03*
D43*
X117230000Y-72760000D03*
X91370000Y-59640000D03*
D25*
X109100000Y-71600000D03*
X109100000Y-72560000D03*
D38*
X81900000Y-77400000D03*
D29*
X104700000Y-59890000D03*
X104700000Y-60910000D03*
D25*
X109500000Y-69320000D03*
X109500000Y-70280000D03*
D29*
X99700000Y-65590000D03*
X99700000Y-66610000D03*
D21*
X89625000Y-68800002D03*
X89625000Y-69750001D03*
X89625000Y-70700000D03*
X91900000Y-70700000D03*
X91900000Y-68800002D03*
D35*
X127510000Y-68400000D03*
X126490000Y-68400000D03*
D25*
X109500000Y-62220000D03*
X109500000Y-63180000D03*
X101200000Y-71520000D03*
X101200000Y-72480000D03*
D44*
X126600000Y-65550000D03*
X126100000Y-65550000D03*
X125600000Y-65550000D03*
X125600000Y-67050000D03*
X126100000Y-67050000D03*
X126600000Y-67050000D03*
D38*
X81900000Y-55100000D03*
D25*
X127700000Y-65820000D03*
X127700000Y-66780000D03*
D35*
X85610000Y-69967499D03*
X84590000Y-69967499D03*
D40*
X123680000Y-70880000D03*
X124700000Y-70880000D03*
D45*
X89440000Y-77490000D03*
X91980000Y-77890000D03*
X94520000Y-77490000D03*
X97060000Y-77890000D03*
X99600000Y-77490000D03*
X102140000Y-77890000D03*
X104680000Y-77490000D03*
X107220000Y-77890000D03*
X109760000Y-77490000D03*
X112300000Y-77890000D03*
X114840000Y-77490000D03*
X117380000Y-77890000D03*
X117380000Y-54970000D03*
X114840000Y-54570000D03*
X112300000Y-54970000D03*
X109760000Y-54570000D03*
X107220000Y-54970000D03*
X104680000Y-54570000D03*
X102140000Y-54970000D03*
X99600000Y-54570000D03*
X97060000Y-54970000D03*
X94520000Y-54570000D03*
X91980000Y-54970000D03*
X89440000Y-54570000D03*
%LPD*%
M02*
